<svg width="105" height="105" viewBox="0 0 105 105" fill="none" xmlns="http://www.w3.org/2000/svg">
<circle cx="52.5" cy="52.5" r="52.5" fill="#F2F4FC"/>
<path d="M83.006 87.4008C85.3692 87.4008 87.292 85.3297 87.292 82.7841V82.7821C87.468 82.795 87.6451 82.804 87.824 82.804C89.8076 82.804 91.4215 81.0656 91.4215 78.9288V70.0319C91.4215 67.8951 89.8076 66.1567 87.824 66.1567C87.6449 66.1567 87.468 66.1657 87.292 66.1786V66.1767C87.292 63.631 85.3692 61.56 83.006 61.56H77.2387C75.8729 60.3443 74.2638 59.4412 72.548 58.9346L61.1375 55.5747V52.91C63.5023 50.6018 65.048 47.3378 65.2451 43.6899C68.3705 40.1907 70.0851 35.6181 70.0851 30.7374V28.7991C70.0851 23.9162 68.2738 19.328 64.9849 15.88C62.9379 13.7338 60.3969 12.1474 57.637 11.2924C57.3756 11.2115 57.0989 11.2069 56.8355 11.2791L55.8855 11.5393L55.4761 11.1112C55.2294 10.8534 54.9094 10.6923 54.5675 10.6539C53.9586 10.5855 53.3378 10.5508 52.7221 10.5508C43.148 10.5508 35.3589 18.7368 35.3589 28.7988V30.7371C35.3589 35.618 37.0735 40.1904 40.1989 43.6896C40.3959 47.3375 41.9417 50.6015 44.3065 52.9097V55.5744L32.8956 58.9342C27.4568 60.5355 23.6582 65.896 23.6582 71.9695V85.7497C23.6582 86.6615 24.3445 87.4008 25.1909 87.4008H83.006ZM69.8384 61.5598H59.8967C60.3569 60.7484 60.6992 59.8604 60.9064 58.9297L69.8384 61.5598ZM38.4244 28.7988C38.4244 20.5575 44.8382 13.8529 52.7219 13.8529C53.0584 13.8529 53.3968 13.8654 53.7326 13.8902L54.3655 14.5518C54.7475 14.9513 55.2951 15.1083 55.8107 14.967L57.1778 14.5923C59.3038 15.3215 61.2565 16.5789 62.8468 18.2461C65.5378 21.0672 67.0195 24.815 67.0195 28.7989V30.7373C67.0195 33.374 66.4118 35.9018 65.2672 38.1426V31.0086C65.2672 30.2491 64.7862 29.5877 64.1016 29.4056C61.9185 28.8253 59.9629 27.4705 58.4462 25.4879C58.1079 25.0457 57.5807 24.8242 57.0539 24.9022C56.5269 24.9806 56.0753 25.3476 55.8609 25.872C54.2197 29.8832 50.6614 32.1838 46.0981 32.1838C44.455 32.1838 43.1823 32.0425 42.0929 31.7395C41.6341 31.6117 41.146 31.72 40.7711 32.0328C40.3962 32.3454 40.1769 32.8274 40.1769 33.3382V38.1426C39.0322 35.9018 38.4245 33.374 38.4245 30.7373L38.4244 28.7988ZM43.244 42.9698C43.2439 42.9629 43.2436 42.9561 43.2436 42.9494C43.2435 42.9316 43.2423 42.9141 43.2423 42.8964V35.3199C44.0987 35.432 45.0379 35.4858 46.0981 35.4858C51.1046 35.4858 55.1881 33.2625 57.6068 29.305C58.9649 30.6172 60.5179 31.6101 62.2018 32.2396V42.8962C62.2018 42.9139 62.2007 42.9315 62.2006 42.9492C62.2004 42.956 62.2001 42.9629 62.2001 42.9696C62.1631 48.5665 57.9264 53.1075 52.7221 53.1075C47.5177 53.1077 43.2811 48.5665 43.244 42.9698ZM52.7221 56.4098C54.6347 56.4098 56.4483 55.9457 58.072 55.1175V56.8346C58.072 58.7158 57.2031 60.4887 55.7817 61.5597H54.0986C53.1489 61.5597 52.2706 61.8947 51.5594 62.4601C49.1328 61.8882 47.3721 59.58 47.3721 56.8346V55.1175C48.9957 55.9457 50.8094 56.4098 52.7221 56.4098ZM26.7238 71.9695C26.7238 67.38 29.5942 63.3295 33.7041 62.1194L44.5311 58.9316C45.182 61.9225 47.1988 64.3471 49.8793 65.372C49.8363 65.6335 49.8128 65.902 49.8128 66.1765V82.7841C49.8128 83.2408 49.8756 83.6818 49.9909 84.0986H37.0481V72.9974C37.0481 72.0856 36.3619 71.3463 35.5154 71.3463C34.6689 71.3463 33.9826 72.0856 33.9826 72.9974V84.0986H26.7238V71.9695ZM83.006 64.8618C83.679 64.8618 84.2265 65.4515 84.2265 66.1764V67.1169C81.7733 68.5134 80.0967 71.2891 80.0967 74.4802C80.0967 77.6713 81.7733 80.4471 84.2265 81.8436V82.7839C84.2265 83.5087 83.679 84.0985 83.006 84.0985H54.0986C53.4256 84.0985 52.8781 83.5087 52.8781 82.7839V66.1765C52.8781 65.4517 53.4256 64.862 54.0986 64.862L83.006 64.8618ZM88.356 78.9288C88.356 79.2448 88.1173 79.5019 87.824 79.5019C85.2536 79.5019 83.1622 77.2492 83.1622 74.4802C83.1622 71.7114 85.2536 69.4586 87.824 69.4586C88.1173 69.4586 88.356 69.7157 88.356 70.0316V78.9288Z" fill="#34384C"/>
<path d="M68.5312 82.6763C67.6743 83.1081 62.2836 76.3699 61.6446 75.9355C60.656 74.8691 60.113 73.4528 60.1156 71.9473C59.9859 67.4107 65.3073 64.6366 68.5312 67.4772C71.7553 64.6387 77.0768 67.4091 76.9467 71.9476C76.9494 73.4529 76.4064 74.8692 75.4177 75.9355C74.7576 76.3914 69.4173 83.0815 68.5312 82.6763ZM65.3555 69.6281C63.506 69.5435 62.4327 72.2259 63.8136 73.6018C63.8134 73.6018 68.5312 78.6891 68.5312 78.6891C69.2556 77.5997 74.148 73.4897 73.8815 71.954C73.9313 69.9313 71.4523 68.8385 70.165 70.3151C67.7771 73.1692 67.5015 69.6334 65.3555 69.6281Z" fill="#F74C4D"/>
</svg>
