<svg width="105" height="106" viewBox="0 0 105 106" fill="none" xmlns="http://www.w3.org/2000/svg">
<circle cx="52.5" cy="53.0508" r="52.5" fill="#F2F4FC"/>
<path d="M53.6701 29.4527C52.6809 29.4527 51.8789 28.6457 51.8789 27.6502V24.4686C51.8789 23.4731 52.6809 22.666 53.6701 22.666C54.6594 22.666 55.4614 23.4731 55.4614 24.4686V27.6502C55.4614 28.6457 54.6594 29.4527 53.6701 29.4527Z" fill="#F74C4D"/>
<path d="M53.6701 83.324C52.6809 83.324 51.8789 82.517 51.8789 81.5215V78.0946C51.8789 77.0991 52.6809 76.292 53.6701 76.292C54.6594 76.292 55.4614 77.0991 55.4614 78.0946V81.5215C55.4614 82.517 54.6594 83.324 53.6701 83.324Z" fill="#F74C4D"/>
<path d="M82.1085 54.6599H78.7014C77.7121 54.6599 76.9102 53.8528 76.9102 52.8573C76.9102 51.8618 77.7121 51.0547 78.7014 51.0547H82.1085C83.0977 51.0547 83.8997 51.8618 83.8997 52.8573C83.8997 53.8528 83.0977 54.6599 82.1085 54.6599Z" fill="#F74C4D"/>
<path d="M71.3615 36.8372C70.9035 36.8372 70.4454 36.6615 70.0956 36.3098C69.3957 35.6063 69.3951 34.465 70.0943 33.7605L72.3505 31.4876C73.0495 30.7833 74.1839 30.7828 74.8836 31.4863C75.5835 32.1898 75.5841 33.3311 74.8849 34.0356L72.6287 36.3085C72.279 36.661 71.8201 36.8372 71.3615 36.8372Z" fill="#F74C4D"/>
<path d="M73.7949 74.9845C73.3362 74.9845 72.8775 74.8084 72.5277 74.4559L70.0943 72.0045C69.3952 71.3002 69.3957 70.1589 70.0956 69.4552C70.7954 68.7514 71.9296 68.752 72.6289 69.4565L75.0623 71.9079C75.7614 72.6122 75.7609 73.7535 75.061 74.4572C74.7112 74.8089 74.253 74.9845 73.7949 74.9845Z" fill="#F74C4D"/>
<path d="M35.914 36.8112C35.4553 36.8112 34.9966 36.635 34.6468 36.2825L32.2818 33.9C31.5827 33.1957 31.5832 32.0543 32.2831 31.3506C32.9829 30.6468 34.1171 30.6476 34.8163 31.352L37.1814 33.7345C37.8805 34.4388 37.88 35.5802 37.1801 36.2838C36.8303 36.6355 36.3721 36.8112 35.914 36.8112Z" fill="#F74C4D"/>
<path d="M81.7437 24.7163C74.2434 17.161 64.2711 13 53.6638 13C43.7162 13 34.1987 16.7225 26.865 23.4819C19.7271 30.0606 15.2419 38.9575 14.1924 48.591L13.6938 48.9073C11.9045 50.0421 10.6627 51.8118 10.197 53.89C9.73288 55.9615 10.0952 58.0915 11.2173 59.8875C11.2202 59.8923 11.2232 59.897 11.2263 59.9016L29.3829 88.3775C30.8462 90.7147 33.3925 92.1012 36.0846 92.1012C36.4599 92.1012 36.8385 92.0741 37.217 92.0191C37.2243 92.0179 37.2318 92.0168 37.2391 92.0156C38.3272 91.854 39.3542 91.4704 40.292 90.8756L40.4946 90.7471C44.7176 92.2421 49.1468 93 53.6642 93C64.2715 93 74.2439 88.839 81.7441 81.2837C89.2439 73.7287 93.3743 63.6842 93.3743 53C93.3743 42.3158 89.2436 32.2711 81.7437 24.7163ZM36.7034 88.4506C36.698 88.4514 36.6928 88.4522 36.6876 88.4531C34.9988 88.6931 33.3212 87.9085 32.4111 86.4517C32.4082 86.447 32.4052 86.4422 32.4021 86.4376L14.246 57.9624C13.6347 56.9801 13.4376 55.8156 13.6913 54.683C13.9462 53.5457 14.6252 52.5775 15.6035 51.9571L19.5532 49.452C20.07 49.1241 20.6346 48.9139 21.2312 48.827C22.9261 48.5789 24.6101 49.3647 25.5232 50.8259L28.657 55.842C28.9211 56.2646 29.0065 56.7653 28.8975 57.2516C28.7884 57.7383 28.4978 58.1524 28.0791 58.4181L24.0707 60.9607C23.6631 61.2191 23.3762 61.6321 23.2747 62.106C23.1733 62.5799 23.2657 63.0751 23.5315 63.4797L31.5562 75.696C32.0934 76.5134 33.1812 76.7497 34.0056 76.2268L37.9904 73.6994C38.2121 73.5588 38.4534 73.4687 38.7077 73.4316C39.434 73.3258 40.1565 73.6622 40.5481 74.2889L43.682 79.3051C44.298 80.2911 44.4972 81.4594 44.2428 82.5947C43.9881 83.7316 43.3089 84.6998 42.3306 85.3203L38.3813 87.8253C37.8644 88.1535 37.3 88.3638 36.7034 88.4506ZM47.8749 80.6479C47.7339 79.5024 47.3434 78.3923 46.715 77.3865L43.581 72.3702C42.4359 70.5373 40.3218 69.5536 38.1943 69.8638C37.4402 69.9738 36.7288 70.2383 36.08 70.6499L33.5782 72.2367L27.5297 63.0284L29.9894 61.4682C31.219 60.6884 32.0722 59.4726 32.3924 58.0446C32.711 56.6219 32.4616 55.1584 31.69 53.9234L28.5562 48.9073C27.9726 47.9733 27.2161 47.1906 26.3462 46.5872C29.2714 33.8795 40.6172 24.7497 53.6637 24.7497C69.1265 24.7497 81.7063 37.4227 81.7063 53C81.7063 68.5773 69.1265 81.2501 53.6637 81.2501C51.7116 81.2501 49.7682 81.0477 47.8749 80.6479ZM53.6637 89.3947C50.5409 89.3947 47.4654 88.997 44.4841 88.21C45.8971 87.2407 46.9417 85.8621 47.4945 84.2491C49.517 84.6517 51.5863 84.8553 53.6637 84.8553C71.1017 84.8553 85.2887 70.565 85.2887 52.9998C85.2887 35.4346 71.1019 21.1446 53.6637 21.1446C39.1274 21.1446 26.4631 31.1954 22.9793 45.2586C22.2404 45.1511 21.4797 45.1479 20.7178 45.2592C19.8264 45.3892 18.9761 45.6676 18.1819 46.0891C21.3921 29.0563 36.0847 16.6052 53.6637 16.6052C73.5845 16.6052 89.7914 32.9318 89.7914 53C89.7914 73.0682 73.5847 89.3947 53.6637 89.3947Z" fill="#34384C"/>
<path d="M54.4895 59.3385C54.4939 58.8044 54.5001 58.0221 54.5066 57.1082C55.3892 56.9964 56.0719 56.2384 56.0719 55.3199C56.0719 54.4091 55.4007 53.6561 54.5289 53.5343C54.5439 50.6171 54.5489 47.7392 54.5139 47.3124C54.4191 46.1552 53.7181 45.2096 52.7282 44.9032C51.7412 44.5979 50.7064 44.9715 49.9599 45.903C49.2666 46.7679 46.3098 52.1725 45.0707 54.4559C44.7677 55.0144 44.7796 55.6923 45.1023 56.2397C45.4251 56.7868 46.0105 57.1224 46.6428 57.1224H50.924C50.9184 57.8961 50.9129 58.6371 50.9073 59.3088C50.8992 60.3043 51.6943 61.118 52.6838 61.1263H52.6989C53.681 61.1262 54.4813 60.3289 54.4895 59.3385ZM50.9459 53.5171H49.6743C50.1221 52.7061 50.5581 51.9231 50.9557 51.2167C50.9534 51.933 50.9502 52.7128 50.9459 53.5171Z" fill="#F74C4D"/>
<path d="M43.0949 57.5449C42.161 57.5569 41.1802 57.5657 40.2892 57.5702C40.9145 56.7085 41.7144 55.5844 42.7214 54.1215C43.5272 52.9508 44.0543 51.8379 44.2879 50.8134C44.3012 50.7551 44.3116 50.6959 44.3191 50.6366L44.3794 50.1583C44.3888 50.0832 44.3935 50.0075 44.3935 49.9318C44.3935 47.193 42.1938 44.9648 39.49 44.9648C37.1503 44.9648 35.1266 46.6511 34.6778 48.9746C34.489 49.9518 35.1231 50.898 36.0943 51.0879C37.0651 51.2767 38.0055 50.6397 38.1944 49.6624C38.3167 49.0295 38.8616 48.57 39.4901 48.57C40.189 48.57 40.7629 49.1324 40.8085 49.841L40.7779 50.0834C40.6737 50.4876 40.4143 51.1425 39.7769 52.0683C37.8548 54.8604 36.7084 56.3867 36.0925 57.2065C35.2979 58.2643 34.8602 58.847 35.1573 59.8163C35.3347 60.3951 35.7686 60.8397 36.348 61.036C36.5864 61.117 36.7768 61.1817 39.1954 61.1817C40.1322 61.1817 41.4035 61.1719 43.1408 61.1498C44.1301 61.1371 44.9218 60.3199 44.9091 59.3244C44.8961 58.3289 44.0799 57.5256 43.0949 57.5449Z" fill="#F74C4D"/>
<path d="M59.6115 61.1993C60.6008 61.1993 61.4028 60.3923 61.4028 59.3967V54.4505H66.7854V59.3967C66.7854 60.3923 67.5874 61.1993 68.5766 61.1993C69.5659 61.1993 70.3678 60.3923 70.3678 59.3967V46.3465C70.3678 45.351 69.5659 44.5439 68.5766 44.5439C67.5874 44.5439 66.7854 45.351 66.7854 46.3465V50.8453H61.4028V46.3465C61.4028 45.351 60.6008 44.5439 59.6115 44.5439C58.6223 44.5439 57.8203 45.351 57.8203 46.3465V59.3967C57.8203 60.3923 58.6223 61.1993 59.6115 61.1993Z" fill="#F74C4D"/>
</svg>
