<svg width="105" height="105" viewBox="0 0 105 105" fill="none" xmlns="http://www.w3.org/2000/svg">
<circle cx="52.5" cy="52.5" r="52.5" fill="#F2F4FC"/>
<path d="M72.0213 39.0345C73.6742 39.0345 75.0191 37.5885 75.0191 35.811V29.2769C75.0191 27.4993 73.6742 26.0533 72.0213 26.0533H71.4967V19.6728C71.4967 17.8952 70.1518 16.4492 68.4989 16.4492H46.8572C45.2042 16.4492 43.8594 17.8952 43.8594 19.6728V26.2068C43.8594 27.9844 45.2042 29.4304 46.8572 29.4304H47.3818V35.6575H46.8572C45.2042 35.6575 43.8594 37.1035 43.8594 38.881V45.4151C43.8594 47.1927 45.2042 48.6386 46.8572 48.6386H47.3818V55.0192C47.3818 56.7968 48.7267 58.2428 50.3796 58.2428H72.0213C73.6742 58.2428 75.0191 56.7968 75.0191 55.0192V48.4851C75.0191 46.7076 73.6742 45.2616 72.0213 45.2616H71.4967V39.0345H72.0213ZM46.9999 19.8263H68.3561V26.0533H46.9999V19.8263ZM50.5223 29.4304H71.8785V35.6575H50.5223V29.4304ZM71.8785 54.8657H50.5223V48.6386H71.8785V54.8657ZM68.3561 45.2616H46.9999V39.0345H68.3561V45.2616Z" fill="#F74C4D"/>
<path d="M28.4531 49.6807H29.0115V50.2812C29.0115 51.2137 29.7146 51.9697 30.5818 51.9697C31.449 51.9697 32.1521 51.2137 32.1521 50.2812V49.6807H32.7105C33.5777 49.6807 34.2808 48.9247 34.2808 47.9922C34.2808 47.0597 33.5777 46.3037 32.7105 46.3037H32.1521V45.7032C32.1521 44.7706 31.449 44.0146 30.5818 44.0146C29.7146 44.0146 29.0115 44.7706 29.0115 45.7032V46.3037H28.4531C27.5859 46.3037 26.8828 47.0597 26.8828 47.9922C26.8828 48.9247 27.5857 49.6807 28.4531 49.6807Z" fill="#F74C4D"/>
<path d="M78.8046 24.1944H79.3631V24.7949C79.3631 25.7274 80.0661 26.4834 80.9334 26.4834C81.8006 26.4834 82.5036 25.7274 82.5036 24.7949V24.1944H83.0621C83.9293 24.1944 84.6324 23.4384 84.6324 22.5058C84.6324 21.5733 83.9293 20.8173 83.0621 20.8173H82.5036V20.2168C82.5036 19.2843 81.8006 18.5283 80.9334 18.5283C80.0661 18.5283 79.3631 19.2843 79.3631 20.2168V20.8173H78.8046C77.9374 20.8173 77.2344 21.5733 77.2344 22.5058C77.2344 23.4384 77.9374 24.1944 78.8046 24.1944Z" fill="#F74C4D"/>
<path d="M86.2641 62.4899C85.0872 61.2242 83.5225 60.5273 81.8582 60.5273C80.1937 60.5273 78.629 61.2244 77.4521 62.4899L70.9439 69.488C69.922 67.2856 67.8048 65.7693 65.3644 65.7693H60.5932C58.7336 65.7693 56.8717 65.2956 55.2092 64.3993C53.112 63.2686 50.7633 62.6708 48.4175 62.6708H46.2833C43.9752 62.6708 41.7375 63.1872 39.6326 64.2055L38.1787 64.9089C36.4814 65.73 34.6773 66.1463 32.8165 66.1463H20.1536C17.3119 66.1463 15 68.6322 15 71.6878V83.9072C15 86.9628 17.3119 89.4489 20.1536 89.4489H66.9651C69.3358 89.4489 71.636 88.3929 73.2758 86.5515L86.2771 71.9511C88.6936 69.3377 88.6893 65.0975 86.2641 62.4899ZM84.0434 69.5775C84.0353 69.5861 84.0276 69.5948 84.0196 69.6036L71.0076 84.2162C69.9572 85.3957 68.4837 86.072 66.9653 86.072H20.1536C19.0436 86.072 18.1406 85.1009 18.1406 83.9073V71.688C18.1406 70.4945 19.0436 69.5233 20.1536 69.5233H32.8166C35.1247 69.5233 37.3623 69.0069 39.4673 67.9886L40.9214 67.2851C42.6184 66.464 44.4225 66.0477 46.2835 66.0477H48.4176C50.2774 66.0477 52.1392 66.5214 53.8018 67.4179C55.8988 68.5484 58.2475 69.1461 60.5934 69.1461H65.3646C67.0688 69.1461 68.455 70.637 68.455 72.4693C68.455 72.5496 68.4512 72.6397 68.4432 72.7445C68.4428 72.7499 68.4429 72.7553 68.4426 72.7606C68.4269 72.9479 68.3962 73.1384 68.3477 73.3312C67.9777 74.7999 66.7007 75.7925 65.2856 75.7925H48.909C48.0443 75.7925 47.3027 76.5198 47.2869 77.4494C47.2707 78.3963 47.9798 79.1695 48.8569 79.1695H65.3644C68.4179 79.1695 70.9635 76.795 71.4928 73.6734L79.6729 64.8774C80.2567 64.2498 81.0327 63.9041 81.8583 63.9041C82.6837 63.9041 83.4599 64.2498 84.0436 64.8774C85.2484 66.1734 85.2484 68.2816 84.0434 69.5775Z" fill="#34384C"/>
</svg>
