<svg width="105" height="105" viewBox="0 0 105 105" fill="none" xmlns="http://www.w3.org/2000/svg">
<circle cx="52.5" cy="52.5" r="52.5" fill="#F2F4FC"/>
<path d="M71.527 51.0083H44.2731C43.47 51.0083 42.8189 50.3057 42.8189 49.4389C42.8189 48.5722 43.47 47.8696 44.2731 47.8696H71.527C77.7299 47.8696 82.7764 42.4232 82.7764 35.7288C82.7764 29.0343 77.7299 23.588 71.527 23.588H32.1577C25.9548 23.588 20.9083 29.0343 20.9083 35.7286C20.9083 42.4231 25.9548 47.8694 32.1577 47.8694H35.1112C35.9142 47.8694 36.5653 48.5721 36.5653 49.4388C36.5653 50.3055 35.9142 51.0082 35.1112 51.0082H32.1577C24.3511 51.0083 18 44.154 18 35.7288C18 27.3036 24.3511 20.4492 32.1577 20.4492H71.5271C79.3336 20.4492 85.6847 27.3036 85.6847 35.7286C85.6847 44.154 79.3336 51.0083 71.527 51.0083Z" fill="#F74C4D"/>
<path d="M75.7771 39.2188L71.9233 35.2063L75.426 31.7316C76.0173 31.145 76.056 30.1522 75.5124 29.514C74.969 28.8758 74.049 28.834 73.4577 29.4206L70.963 31.8953V30.4512C70.963 29.5845 70.3119 28.8818 69.5089 28.8818C68.7058 28.8818 68.0547 29.5845 68.0547 30.4512V40.3484C68.0547 41.2151 68.7058 41.9178 69.5089 41.9178C70.3119 41.9178 70.963 41.2151 70.963 40.3484V38.568L73.7578 41.4779C74.04 41.7718 74.404 41.9178 74.7674 41.9178C75.1482 41.9178 75.5287 41.7571 75.814 41.438C76.3716 40.8142 76.3551 39.8206 75.7771 39.2188Z" fill="#F74C4D"/>
<path d="M34.6771 34.8211C34.9542 34.2742 35.1119 33.6475 35.1119 32.9815C35.1119 30.8604 33.513 29.1348 31.5476 29.1348H28.8839C28.0808 29.1348 27.4297 29.8374 27.4297 30.7042V35.2615V35.2689V40.6013C27.4297 41.0188 27.5838 41.419 27.8579 41.7134C28.1305 42.0063 28.4994 42.1707 28.8839 42.1707H28.8903C28.8906 42.1707 31.3382 42.1588 32.0128 42.1588C34.1757 42.1588 35.9355 40.2597 35.9355 37.9255C35.9354 36.6999 35.4498 35.5948 34.6771 34.8211ZM30.338 32.2735H31.5476C31.9093 32.2735 32.2036 32.5911 32.2036 32.9815C32.2036 33.3718 31.9093 33.6894 31.5476 33.6894C31.3128 33.6894 30.8295 33.6911 30.338 33.693V32.2735ZM32.0128 39.0201C31.6977 39.0201 30.997 39.0226 30.338 39.0253V36.8318C30.8238 36.8298 31.3017 36.8282 31.5392 36.8282L32.0128 36.8309C32.572 36.8309 33.0272 37.322 33.0272 37.9255C33.0272 38.529 32.572 39.0201 32.0128 39.0201Z" fill="#F74C4D"/>
<path d="M58.8442 42.1707C55.5141 42.1707 52.8047 39.2468 52.8047 35.6527C52.8047 32.0587 55.5139 29.1348 58.8442 29.1348C62.1743 29.1348 64.8836 32.0587 64.8836 35.6527C64.8836 39.2468 62.1744 42.1707 58.8442 42.1707ZM58.8442 32.2735C57.1176 32.2735 55.713 33.7894 55.713 35.6527C55.713 37.516 57.1176 39.0319 58.8442 39.0319C60.5707 39.0319 61.9753 37.516 61.9753 35.6527C61.9753 33.7894 60.5707 32.2735 58.8442 32.2735Z" fill="#F74C4D"/>
<path d="M44.2699 42.1707C40.9398 42.1707 38.2305 39.2468 38.2305 35.6527C38.2305 32.0587 40.9397 29.1348 44.2699 29.1348C47.6 29.1348 50.3094 32.0587 50.3094 35.6527C50.3094 39.2468 47.6002 42.1707 44.2699 42.1707ZM44.2699 32.2735C42.5434 32.2735 41.1388 33.7894 41.1388 35.6527C41.1388 37.516 42.5434 39.0319 44.2699 39.0319C45.9965 39.0319 47.4011 37.516 47.4011 35.6527C47.4011 33.7894 45.9965 32.2735 44.2699 32.2735Z" fill="#F74C4D"/>
<path d="M53.9913 93.4507H49.6518C41.0989 93.4507 34.1406 85.941 34.1406 76.7104L34.1697 50.3206C34.1697 47.0452 36.6402 44.3789 39.6769 44.3789C42.7136 44.3789 45.1841 47.0452 45.1841 50.3225V59.5776C45.9586 59.1282 46.8437 58.8732 47.7829 58.8732C49.3846 58.8732 50.8288 59.6148 51.836 60.7968C52.8432 59.6148 54.2874 58.8732 55.8891 58.8732C57.4907 58.8732 58.9349 59.6151 59.9422 60.7968C60.9494 59.6151 62.3936 58.8732 63.9952 58.8732C67.0319 58.8732 69.5024 61.5396 69.5024 64.8169V76.7104C69.5025 85.941 62.5442 93.4507 53.9913 93.4507ZM39.6769 47.5177C38.2439 47.5177 37.078 48.7759 37.078 50.3225L37.049 76.7123C37.049 84.2103 42.7026 90.3119 49.6518 90.3119H53.9913C60.9405 90.3119 66.5942 84.2103 66.5942 76.7104V64.8169C66.5942 63.2703 65.4283 62.012 63.9953 62.012C62.5623 62.012 61.3965 63.2702 61.3965 64.8169C61.3965 65.6836 60.7454 66.3863 59.9423 66.3863C59.1392 66.3863 58.4881 65.6836 58.4881 64.8169C58.4881 63.2703 57.3223 62.012 55.8893 62.012C54.4561 62.012 53.2903 63.2702 53.2903 64.8169C53.2903 65.6836 52.6392 66.3863 51.8361 66.3863C51.033 66.3863 50.3819 65.6836 50.3819 64.8169C50.3819 63.2703 49.2161 62.012 47.7831 62.012C46.3501 62.012 45.1842 63.2702 45.1842 64.8169C45.1842 65.6836 44.5332 66.3863 43.7301 66.3863C42.927 66.3863 42.2759 65.6836 42.2759 64.8169V50.3225C42.2758 48.7758 41.1099 47.5177 39.6769 47.5177Z" fill="#34384C"/>
</svg>
