<svg width="38" height="38" viewBox="0 0 38 38" fill="none" xmlns="http://www.w3.org/2000/svg">
<rect width="38" height="38" rx="5" fill="#F0F0FF"/>
<path d="M9.8903 19.3191C9.81391 19.1133 9.81391 18.8869 9.8903 18.6811C10.6344 16.877 11.8974 15.3344 13.5192 14.2489C15.141 13.1634 17.0486 12.584 19.0001 12.584C20.9517 12.584 22.8593 13.1634 24.4811 14.2489C26.1029 15.3344 27.3659 16.877 28.11 18.6811C28.1864 18.8869 28.1864 19.1133 28.11 19.3191C27.3659 21.1232 26.1029 22.6658 24.4811 23.7513C22.8593 24.8367 20.9517 25.4162 19.0001 25.4162C17.0486 25.4162 15.141 24.8367 13.5192 23.7513C11.8974 22.6658 10.6344 21.1232 9.8903 19.3191Z" stroke="#9747FF" stroke-width="1.33333" stroke-linecap="round" stroke-linejoin="round"/>
<path d="M19 21.75C20.5188 21.75 21.75 20.5188 21.75 19C21.75 17.4812 20.5188 16.25 19 16.25C17.4812 16.25 16.25 17.4812 16.25 19C16.25 20.5188 17.4812 21.75 19 21.75Z" stroke="#9747FF" stroke-width="1.33333" stroke-linecap="round" stroke-linejoin="round"/>
</svg>
