<svg width="38" height="38" viewBox="0 0 38 38" fill="none" xmlns="http://www.w3.org/2000/svg">
<rect width="38" height="38" rx="5" fill="#DFFFE1"/>
<path d="M28.1668 23.5833C28.1668 24.0696 27.9737 24.5359 27.6299 24.8797C27.286 25.2235 26.8197 25.4167 26.3335 25.4167H14.2592C13.773 25.4168 13.3067 25.61 12.963 25.9538L10.9445 27.9723C10.8535 28.0633 10.7375 28.1253 10.6113 28.1504C10.485 28.1755 10.3542 28.1626 10.2353 28.1134C10.1164 28.0641 10.0147 27.9807 9.94321 27.8737C9.87169 27.7667 9.83351 27.6409 9.8335 27.5122V12.5833C9.8335 12.0971 10.0267 11.6308 10.3705 11.287C10.7143 10.9432 11.1806 10.75 11.6668 10.75H26.3335C26.8197 10.75 27.286 10.9432 27.6299 11.287C27.9737 11.6308 28.1668 12.0971 28.1668 12.5833V23.5833Z" stroke="#27AE60" stroke-width="1.33333" stroke-linecap="round" stroke-linejoin="round"/>
</svg>
