<svg width="38" height="38" viewBox="0 0 38 38" fill="none" xmlns="http://www.w3.org/2000/svg">
<rect width="38" height="38" rx="5" fill="#FFF6D6"/>
<path d="M13.4998 28.1668C13.0136 28.1668 12.5473 27.9737 12.2035 27.6299C11.8597 27.286 11.6665 26.8197 11.6665 26.3335V11.6668C11.6665 11.1806 11.8597 10.7143 12.2035 10.3705C12.5473 10.0267 13.0136 9.8335 13.4998 9.8335H20.8332C21.1233 9.83303 21.4107 9.88997 21.6788 10.001C21.9469 10.1121 22.1904 10.2751 22.3952 10.4807L25.6842 13.7697C25.8903 13.9745 26.0537 14.2182 26.1651 14.4866C26.2765 14.7551 26.3336 15.0429 26.3332 15.3335V26.3335C26.3332 26.8197 26.14 27.286 25.7962 27.6299C25.4524 27.9737 24.9861 28.1668 24.4998 28.1668H13.4998Z" stroke="#FFC600" stroke-width="1.33333" stroke-linecap="round" stroke-linejoin="round"/>
<path d="M20.8335 9.8335V14.4168C20.8335 14.6599 20.9301 14.8931 21.102 15.065C21.2739 15.2369 21.507 15.3335 21.7502 15.3335H26.3335" stroke="#FFC600" stroke-width="1.33333" stroke-linecap="round" stroke-linejoin="round"/>
<path d="M17.1668 16.25H15.3335" stroke="#FFC600" stroke-width="1.33333" stroke-linecap="round" stroke-linejoin="round"/>
<path d="M22.6668 19.9165H15.3335" stroke="#FFC600" stroke-width="1.33333" stroke-linecap="round" stroke-linejoin="round"/>
<path d="M22.6668 23.5835H15.3335" stroke="#FFC600" stroke-width="1.33333" stroke-linecap="round" stroke-linejoin="round"/>
</svg>
