<svg width="28" height="28" viewBox="0 0 28 28" fill="none" xmlns="http://www.w3.org/2000/svg">
<path fill-rule="evenodd" clip-rule="evenodd" d="M18.3944 3.8028C18.3944 6.88779 20.899 9.38867 23.9885 9.38867C24.3287 9.38699 24.668 9.35433 25.0022 9.2911V20.3653C25.0022 25.0242 22.2541 27.7806 17.5883 27.7806H7.42616C2.74817 27.7806 0 25.0242 0 20.3653V10.218C0 5.55906 2.74817 2.77832 7.42616 2.77832H18.4921C18.4265 3.11586 18.3937 3.45896 18.3944 3.8028ZM15.4862 17.9135L19.4557 12.7911V12.7667C19.7956 12.3101 19.7089 11.6662 19.2603 11.3154C19.0432 11.1478 18.7673 11.0752 18.4957 11.1143C18.2241 11.1534 17.98 11.3008 17.8191 11.5227L14.4724 15.828L10.6616 12.8277C10.444 12.6582 10.1673 12.5834 9.89377 12.6201C9.62028 12.6568 9.37313 12.802 9.20812 13.0229L5.10419 18.316C4.95994 18.4958 4.88228 18.7198 4.88434 18.9502C4.86052 19.4158 5.15454 19.8388 5.59973 19.9793C6.04491 20.1198 6.52898 19.9425 6.77752 19.5478L10.2097 15.1084L14.0205 18.0965C14.2372 18.2712 14.5158 18.3504 14.7922 18.3159C15.0687 18.2814 15.3192 18.1362 15.4862 17.9135Z" fill="white"/>
<circle opacity="0.4" cx="24.3085" cy="3.47253" r="3.47253" fill="white"/>
</svg>
