<svg width="38" height="38" viewBox="0 0 38 38" fill="none" xmlns="http://www.w3.org/2000/svg">
<g filter="url(#filter0_d_34_61312)">
<path d="M36.79 17.895C36.79 22.6748 34.9286 27.1691 31.5487 30.5487C28.1704 33.9272 23.6792 35.7886 18.9013 35.79H18.895C14.1152 35.79 9.62092 33.9286 6.24131 30.5487C2.86142 27.1691 1 22.6748 1 17.895C1 13.1152 2.86142 8.62092 6.24131 5.24131C9.62092 1.86142 14.1152 0 18.895 0H18.9013C23.6792 0.00136528 28.1704 1.86279 31.5487 5.24131C34.9286 8.62092 36.79 13.1152 36.79 17.895Z" fill="white"/>
</g>
<path d="M33.3945 17.8945C33.3945 21.7676 31.8863 25.4091 29.1476 28.1476C26.4103 30.8851 22.7711 32.3934 18.8996 32.3945H18.8945C15.0215 32.3945 11.3799 30.8863 8.64147 28.1476C5.90281 25.4091 4.39453 21.7676 4.39453 17.8945C4.39453 14.0215 5.90281 10.3799 8.64147 7.64147C11.3799 4.90281 15.0215 3.39453 18.8945 3.39453H18.8996C22.7711 3.39564 26.4103 4.90392 29.1476 7.64147C31.8863 10.3799 33.3945 14.0215 33.3945 17.8945Z" fill="#468FFB"/>
<path d="M33.3973 17.8945C33.3973 21.7676 31.889 25.4091 29.1503 28.1476C26.413 30.8851 22.7738 32.3934 18.9023 32.3945V3.39453C22.7738 3.39564 26.413 4.90392 29.1503 7.64147C31.889 10.3799 33.3973 14.0215 33.3973 17.8945Z" fill="#468FFB"/>
<path d="M24.3395 25.0372C23.316 26.1424 21.2457 25.8008 19.0537 24.5983C15.8259 22.8278 12.335 19.1902 11.538 15.5564C11.0674 13.4124 11.8015 13.0148 13.0521 11.7495C14.0508 10.739 14.3243 10.3945 15.0232 10.3945C15.5942 10.3945 16.0615 10.7249 16.3503 11.2227C18.0389 14.4297 18.8334 14.9864 17.1167 16.5476C17.4129 17.243 18.2256 18.1877 19.0537 18.9302C19.5799 19.4026 20.1124 19.794 20.5206 19.9878C20.6375 19.8683 20.8187 19.6825 21.0917 19.4044C22.2482 18.3034 23.4899 19.3318 24.2007 19.7528C25.8216 20.7118 26.531 20.9383 26.6832 21.8627C26.804 22.7904 26.4057 22.9851 24.3395 25.0372Z" fill="white"/>
<path d="M24.3394 25.037C23.3159 26.1422 21.0865 25.7649 18.8945 24.5624V18.7949C19.4207 19.2673 20.1124 19.7938 20.5206 19.9876C20.6374 19.8681 20.8186 19.6823 21.0917 19.4041C22.2482 18.3032 23.4898 19.3316 24.2007 19.7526C25.8216 20.7115 26.5309 20.9381 26.6832 21.8625C26.804 22.7902 26.4057 22.9849 24.3394 25.037Z" fill="#F5FFFF"/>
<defs>
<filter id="filter0_d_34_61312" x="0" y="0" width="37.7891" height="37.79" filterUnits="userSpaceOnUse" color-interpolation-filters="sRGB">
<feFlood flood-opacity="0" result="BackgroundImageFix"/>
<feColorMatrix in="SourceAlpha" type="matrix" values="0 0 0 0 0 0 0 0 0 0 0 0 0 0 0 0 0 0 127 0" result="hardAlpha"/>
<feOffset dy="1"/>
<feGaussianBlur stdDeviation="0.5"/>
<feComposite in2="hardAlpha" operator="out"/>
<feColorMatrix type="matrix" values="0 0 0 0 0 0 0 0 0 0 0 0 0 0 0 0 0 0 0.25 0"/>
<feBlend mode="normal" in2="BackgroundImageFix" result="effect1_dropShadow_34_61312"/>
<feBlend mode="normal" in="SourceGraphic" in2="effect1_dropShadow_34_61312" result="shape"/>
</filter>
</defs>
</svg>
