<svg width="31" height="28" viewBox="0 0 31 28" fill="none" xmlns="http://www.w3.org/2000/svg">
<path opacity="0.4" d="M29.7078 16.1678C28.4408 16.1678 27.4099 15.1463 27.4099 13.8909C27.4099 12.6339 28.4408 11.6124 29.7078 11.6124C30.0149 11.6124 30.3097 11.4916 30.5257 11.2776C30.7433 11.0619 30.8652 10.7699 30.8652 10.4656L30.8637 6.33378C30.8637 2.84118 27.9948 0 24.47 0H6.39528C2.87047 0 0.00154326 2.84118 0.00154326 6.33378L0 10.5986C0 10.9029 0.121918 11.195 0.339518 11.4106C0.555574 11.6247 0.850338 11.7455 1.15745 11.7455C2.46768 11.7455 3.45536 12.6676 3.45536 13.8909C3.45536 15.1463 2.42447 16.1678 1.15745 16.1678C0.518536 16.1678 0 16.6816 0 17.3147V21.4434C0 24.936 2.86738 27.7787 6.39374 27.7787H24.4715C27.9979 27.7787 30.8652 24.936 30.8652 21.4434V17.3147C30.8652 16.6816 30.3467 16.1678 29.7078 16.1678Z" fill="white"/>
<path d="M20.7287 13.254L18.9092 15.0256L19.3397 17.5303C19.4138 17.964 19.2394 18.3915 18.8829 18.6477C18.5295 18.9069 18.0681 18.9393 17.6792 18.7325L15.4337 17.5519L13.1837 18.7341C13.017 18.8221 12.8349 18.8684 12.6543 18.8684C12.4182 18.8684 12.1852 18.7943 11.9846 18.6492C11.6296 18.3915 11.4552 17.964 11.5293 17.5303L11.9583 15.0256L10.1388 13.254C9.82399 12.9484 9.71441 12.4993 9.85022 12.0811C9.98757 11.6644 10.3425 11.3681 10.7762 11.3064L13.2855 10.9406L14.4106 8.66121C14.6066 8.26923 14.9985 8.02539 15.4337 8.02539H15.4368C15.8736 8.02693 16.2656 8.27077 16.4585 8.66276L17.5835 10.9406L20.0975 11.3079C20.5265 11.3681 20.8815 11.6644 21.0173 12.0811C21.1546 12.4993 21.045 12.9484 20.7287 13.254Z" fill="white"/>
</svg>
