<svg width="38" height="36" viewBox="0 0 38 36" fill="none" xmlns="http://www.w3.org/2000/svg">
<path d="M19.6537 7.39583C19.2085 7.39583 18.8477 7.03265 18.8477 6.58466V5.15296C18.8477 4.70498 19.2085 4.3418 19.6537 4.3418C20.0989 4.3418 20.4598 4.70498 20.4598 5.15296V6.58466C20.4598 7.03265 20.0989 7.39583 19.6537 7.39583Z" fill="#34384C"/>
<path d="M19.6537 31.6517C19.2085 31.6517 18.8477 31.2885 18.8477 30.8406V29.2985C18.8477 28.8505 19.2085 28.4873 19.6537 28.4873C20.0989 28.4873 20.4598 28.8505 20.4598 29.2985V30.8406C20.4598 31.2885 20.0989 31.6517 19.6537 31.6517Z" fill="#34384C"/>
<path d="M32.4603 18.7512H30.9271C30.482 18.7512 30.1211 18.3881 30.1211 17.9401C30.1211 17.4921 30.482 17.1289 30.9271 17.1289H32.4603C32.9055 17.1289 33.2664 17.4921 33.2664 17.9401C33.2664 18.3881 32.9055 18.7512 32.4603 18.7512Z" fill="#34384C"/>
<path d="M27.6264 10.7213C27.4202 10.7213 27.2141 10.6423 27.0567 10.484C26.7418 10.1675 26.7415 9.65386 27.0561 9.33684L28.0714 8.31404C28.386 7.99709 28.8964 7.99687 29.2113 8.31345C29.5262 8.63002 29.5265 9.14363 29.2119 9.46065L28.1966 10.4835C28.0392 10.6421 27.8327 10.7213 27.6264 10.7213Z" fill="#34384C"/>
<path d="M28.7214 27.8877C28.515 27.8877 28.3086 27.8084 28.1512 27.6498L27.0561 26.5467C26.7415 26.2297 26.7417 25.7161 27.0567 25.3995C27.3716 25.0827 27.882 25.083 28.1967 25.4001L29.2917 26.5032C29.6063 26.8201 29.6061 27.3337 29.2911 27.6504C29.1337 27.8086 28.9275 27.8877 28.7214 27.8877Z" fill="#34384C"/>
<path d="M11.675 10.7209C11.4686 10.7209 11.2621 10.6417 11.1047 10.483L10.0405 9.4109C9.72589 9.09396 9.72611 8.58035 10.0411 8.2637C10.356 7.94697 10.8664 7.94734 11.181 8.26429L12.2453 9.33642C12.5599 9.65337 12.5597 10.167 12.2447 10.4836C12.0873 10.6419 11.8811 10.7209 11.675 10.7209Z" fill="#34384C"/>
<path d="M32.2847 5.27234C28.9095 1.87246 24.422 0 19.6487 0C15.1723 0 10.8894 1.67513 7.58924 4.71684C4.3772 7.67729 2.35884 11.6809 1.88657 16.016L1.66219 16.1583C0.857022 16.669 0.298208 17.4653 0.088635 18.4005C-0.120206 19.3327 0.0428366 20.2912 0.547791 21.0994C0.54911 21.1015 0.550429 21.1037 0.551822 21.1057L8.72233 33.9199C9.3808 34.9716 10.5266 35.5955 11.7381 35.5955C11.907 35.5955 12.0773 35.5834 12.2476 35.5586C12.2509 35.5581 12.2543 35.5575 12.2576 35.557C12.7472 35.4843 13.2094 35.3117 13.6314 35.044L13.7226 34.9862C15.6229 35.6589 17.6161 36 19.6489 36C24.4222 36 28.9097 34.1275 32.2848 30.7277C35.6598 27.3279 37.5184 22.8079 37.5184 18C37.5184 13.1921 35.6596 8.672 32.2847 5.27234ZM12.0165 33.9528C12.0141 33.9531 12.0118 33.9535 12.0094 33.9539C11.2494 34.0619 10.4945 33.7088 10.085 33.0533C10.0837 33.0511 10.0824 33.049 10.081 33.0469L1.91068 20.2331C1.63559 19.791 1.54693 19.267 1.6611 18.7573C1.77577 18.2456 2.08134 17.8099 2.52159 17.5307L4.29894 16.4034C4.53152 16.2559 4.78557 16.1612 5.05406 16.1222C5.81673 16.0105 6.57457 16.3641 6.98543 17.0217L8.39566 19.2789C8.51451 19.4691 8.55291 19.6944 8.50389 19.9132C8.45479 20.1323 8.32399 20.3186 8.13559 20.4381L6.3318 21.5823C6.14838 21.6986 6.01927 21.8844 5.97362 22.0977C5.92797 22.311 5.96959 22.5338 6.08918 22.7159L9.70029 28.2132C9.94203 28.581 10.4315 28.6874 10.8025 28.4521L12.5957 27.3147C12.6954 27.2515 12.804 27.2109 12.9185 27.1942C13.2453 27.1466 13.5704 27.298 13.7467 27.58L15.1569 29.8373C15.4341 30.281 15.5237 30.8067 15.4093 31.3176C15.2947 31.8292 14.989 32.2649 14.5488 32.5442L12.7716 33.6714C12.539 33.8191 12.285 33.9137 12.0165 33.9528ZM17.0437 30.4415C16.9803 29.9261 16.8045 29.4266 16.5218 28.9739L15.1115 26.7166C14.5962 25.8918 13.6448 25.4491 12.6874 25.5887C12.3481 25.6382 12.0279 25.7572 11.736 25.9425L10.6102 26.6565L7.88836 22.5128L8.99521 21.8107C9.54853 21.4598 9.9325 20.9127 10.0766 20.2701C10.22 19.6298 10.1077 18.9713 9.76052 18.4155L8.3503 16.1583C8.08767 15.738 7.74722 15.3858 7.35578 15.1143C8.67213 9.39577 13.7777 5.28738 19.6486 5.28738C26.6069 5.28738 32.2678 10.9902 32.2678 18C32.2678 25.0098 26.6069 30.7125 19.6486 30.7125C18.7702 30.7125 17.8957 30.6215 17.0437 30.4415ZM19.6486 34.3776C18.2434 34.3776 16.8594 34.1986 15.5179 33.8445C16.1537 33.4083 16.6238 32.7879 16.8725 32.0621C17.7826 32.2433 18.7139 32.3349 19.6486 32.3349C27.4958 32.3349 33.8799 25.9043 33.8799 17.9999C33.8799 10.0956 27.4959 3.66506 19.6486 3.66506C13.1073 3.66506 7.40839 8.18795 5.84069 14.5163C5.50816 14.468 5.16588 14.4666 4.82302 14.5166C4.4219 14.5751 4.03924 14.7004 3.68187 14.8901C5.12646 7.22532 11.7381 1.62233 19.6486 1.62233C28.613 1.62233 35.9061 8.96932 35.9061 18C35.9061 27.0307 28.6131 34.3776 19.6486 34.3776Z" fill="#34384C"/>
<path d="M20.0246 20.8534C20.0265 20.6131 20.0293 20.261 20.0323 19.8498C20.4294 19.7995 20.7367 19.4583 20.7367 19.045C20.7367 18.6351 20.4346 18.2963 20.0423 18.2415C20.049 16.9288 20.0513 15.6337 20.0356 15.4417C19.9929 14.9209 19.6774 14.4954 19.232 14.3575C18.7879 14.2201 18.3222 14.3883 17.9863 14.8074C17.6743 15.1966 16.3437 17.6287 15.7861 18.6562C15.6498 18.9076 15.6551 19.2126 15.8003 19.4589C15.9456 19.7051 16.209 19.8562 16.4935 19.8562H18.4201C18.4176 20.2043 18.4151 20.5378 18.4126 20.84C18.4089 21.288 18.7668 21.6542 19.212 21.6579H19.2188C19.6607 21.6578 20.0209 21.2991 20.0246 20.8534ZM18.43 18.2338H17.8577C18.0593 17.8688 18.2554 17.5165 18.4344 17.1986C18.4333 17.5209 18.4319 17.8718 18.43 18.2338Z" fill="#34384C"/>
<path d="M14.8769 20.0517C14.4566 20.057 14.0153 20.061 13.6143 20.063C13.8957 19.6753 14.2556 19.1694 14.7088 18.5111C15.0714 17.9843 15.3086 17.4835 15.4137 17.0225C15.4197 16.9962 15.4244 16.9696 15.4278 16.9429L15.4549 16.7277C15.4591 16.6939 15.4613 16.6598 15.4613 16.6257C15.4613 15.3933 14.4714 14.3906 13.2547 14.3906C12.2018 14.3906 11.2911 15.1494 11.0892 16.195C11.0042 16.6347 11.2896 17.0605 11.7266 17.146C12.1635 17.2309 12.5867 16.9443 12.6717 16.5045C12.7267 16.2197 12.9719 16.013 13.2547 16.013C13.5693 16.013 13.8275 16.266 13.848 16.5849L13.8342 16.694C13.7873 16.8759 13.6706 17.1706 13.3838 17.5872C12.5188 18.8436 12.0029 19.5304 11.7258 19.8994C11.3682 20.3754 11.1712 20.6376 11.305 21.0738C11.3848 21.3343 11.5801 21.5343 11.8408 21.6227C11.9481 21.6591 12.0337 21.6882 13.1221 21.6882C13.5437 21.6882 14.1158 21.6838 14.8976 21.6738C15.3427 21.6682 15.699 21.3004 15.6933 20.8524C15.6874 20.4044 15.3201 20.043 14.8769 20.0517Z" fill="#34384C"/>
<path d="M22.3295 21.6834C22.7746 21.6834 23.1355 21.3202 23.1355 20.8722V18.6464H25.5577V20.8722C25.5577 21.3202 25.9186 21.6834 26.3638 21.6834C26.8089 21.6834 27.1698 21.3202 27.1698 20.8722V14.9996C27.1698 14.5517 26.8089 14.1885 26.3638 14.1885C25.9186 14.1885 25.5577 14.5517 25.5577 14.9996V17.0241H23.1355V14.9996C23.1355 14.5517 22.7746 14.1885 22.3295 14.1885C21.8843 14.1885 21.5234 14.5517 21.5234 14.9996V20.8722C21.5234 21.3202 21.8843 21.6834 22.3295 21.6834Z" fill="#34384C"/>
</svg>
