<svg width="37" height="36" viewBox="0 0 37 36" fill="none" xmlns="http://www.w3.org/2000/svg">
<path d="M28.1185 11.1373C28.9337 11.1373 29.5969 10.4243 29.5969 9.54773V6.32561C29.5969 5.44907 28.9337 4.73602 28.1185 4.73602H27.8598V1.5896C27.8598 0.713048 27.1966 0 26.3814 0H15.7088C14.8937 0 14.2305 0.713048 14.2305 1.5896V4.81171C14.2305 5.68826 14.8937 6.40131 15.7088 6.40131H15.9675V9.47203H15.7088C14.8937 9.47203 14.2305 10.1851 14.2305 11.0616V14.2837C14.2305 15.1603 14.8937 15.8733 15.7088 15.8733H15.9675V19.0198C15.9675 19.8963 16.6308 20.6094 17.4459 20.6094H28.1185C28.9337 20.6094 29.5969 19.8963 29.5969 19.0198V15.7976C29.5969 14.9211 28.9337 14.2081 28.1185 14.2081H27.8598V11.1373H28.1185ZM15.7792 1.66529H26.311V4.73602H15.7792V1.66529ZM17.5163 6.40131H28.0481V9.47203H17.5163V6.40131ZM28.0481 18.9441H17.5163V15.8733H28.0481V18.9441ZM26.311 14.2081H15.7792V11.1373H26.311V14.2081Z" fill="#34384C"/>
<path d="M6.63376 16.381H6.90916V16.6771C6.90916 17.1369 7.25587 17.5097 7.68354 17.5097C8.11121 17.5097 8.45792 17.1369 8.45792 16.6771V16.381H8.73332C9.16099 16.381 9.5077 16.0082 9.5077 15.5483C9.5077 15.0885 9.16099 14.7157 8.73332 14.7157H8.45792V14.4196C8.45792 13.9597 8.11121 13.5869 7.68354 13.5869C7.25587 13.5869 6.90916 13.9597 6.90916 14.4196V14.7157H6.63376C6.20609 14.7157 5.85938 15.0885 5.85938 15.5483C5.85938 16.0082 6.20602 16.381 6.63376 16.381Z" fill="#34384C"/>
<path d="M31.458 3.81749H31.7334V4.11361C31.7334 4.57346 32.0801 4.94626 32.5078 4.94626C32.9354 4.94626 33.2821 4.57346 33.2821 4.11361V3.81749H33.5575C33.9852 3.81749 34.3319 3.4447 34.3319 2.98485C34.3319 2.525 33.9852 2.1522 33.5575 2.1522H33.2821V1.85608C33.2821 1.39624 32.9354 1.02344 32.5078 1.02344C32.0801 1.02344 31.7334 1.39624 31.7334 1.85608V2.1522H31.458C31.0303 2.1522 30.6836 2.525 30.6836 2.98485C30.6836 3.4447 31.0303 3.81749 31.458 3.81749Z" fill="#34384C"/>
<path d="M35.1439 22.706C34.5636 22.0819 33.7919 21.7383 32.9712 21.7383C32.1503 21.7383 31.3787 22.082 30.7983 22.706L27.5888 26.157C27.0848 25.0709 26.0407 24.3232 24.8373 24.3232H22.4843C21.5673 24.3232 20.649 24.0896 19.8292 23.6476C18.795 23.09 17.6367 22.7953 16.4798 22.7953H15.4274C14.2891 22.7953 13.1856 23.0499 12.1476 23.5521L11.4306 23.8989C10.5936 24.3038 9.70386 24.5091 8.78621 24.5091H2.54152C1.1401 24.5091 0 25.735 0 27.2418V33.2674C0 34.7742 1.1401 36.0002 2.54152 36.0002H25.6266C26.7957 36.0002 27.9301 35.4794 28.7387 34.5714L35.1503 27.3716C36.342 26.0829 36.3399 23.992 35.1439 22.706ZM34.0488 26.2011C34.0448 26.2054 34.041 26.2097 34.0371 26.214L27.6202 33.4198C27.1022 34.0014 26.3755 34.3349 25.6267 34.3349H2.54152C1.99411 34.3349 1.54876 33.8561 1.54876 33.2675V27.2418C1.54876 26.6533 1.99411 26.1744 2.54152 26.1744H8.78628C9.92448 26.1744 11.028 25.9198 12.0661 25.4176L12.7832 25.0707C13.62 24.6658 14.5097 24.4605 15.4275 24.4605H16.4799C17.3971 24.4605 18.3152 24.6941 19.1351 25.1362C20.1693 25.6937 21.3275 25.9884 22.4844 25.9884H24.8373C25.6777 25.9884 26.3614 26.7236 26.3614 27.6271C26.3614 27.6667 26.3595 27.7112 26.3555 27.7629C26.3553 27.7655 26.3554 27.7682 26.3553 27.7708C26.3475 27.8632 26.3324 27.9571 26.3084 28.0522C26.126 28.7764 25.4963 29.2659 24.7984 29.2659H16.7222C16.2958 29.2659 15.9301 29.6245 15.9223 30.0829C15.9143 30.5499 16.264 30.9312 16.6965 30.9312H24.8373C26.3431 30.9312 27.5984 29.7602 27.8595 28.2209L31.8935 23.8834C32.1814 23.5739 32.564 23.4034 32.9712 23.4034C33.3783 23.4034 33.761 23.5739 34.0489 23.8834C34.6431 24.5225 34.6431 25.5621 34.0488 26.2011Z" fill="#34384C"/>
</svg>
