<svg width="34" height="36" viewBox="0 0 34 36" fill="none" xmlns="http://www.w3.org/2000/svg">
<path d="M26.3969 15.072H12.9566C12.5605 15.072 12.2395 14.7255 12.2395 14.298C12.2395 13.8705 12.5605 13.5239 12.9566 13.5239H26.3969C29.4559 13.5239 31.9445 10.8378 31.9445 7.53601C31.9445 4.23425 29.4559 1.54807 26.3969 1.54807H6.9819C3.92292 1.54807 1.43424 4.23425 1.43424 7.53594C1.43424 10.8377 3.92292 13.5239 6.9819 13.5239H8.43838C8.83442 13.5239 9.1555 13.8704 9.1555 14.2979C9.1555 14.7254 8.83442 15.0719 8.43838 15.0719H6.9819C3.13206 15.072 0 11.6914 0 7.53601C0 3.38063 3.13206 0 6.9819 0H26.3969C30.2467 0 33.3788 3.38063 33.3788 7.53594C33.3788 11.6914 30.2467 15.072 26.3969 15.072Z" fill="#34384C"/>
<path d="M28.4958 9.25356L26.5953 7.27457L28.3227 5.56078C28.6143 5.2715 28.6334 4.78182 28.3653 4.46707C28.0973 4.15232 27.6436 4.1317 27.352 4.42098L26.1217 5.64156V4.92931C26.1217 4.50183 25.8007 4.15527 25.4046 4.15527C25.0086 4.15527 24.6875 4.50183 24.6875 4.92931V9.81066C24.6875 10.2381 25.0086 10.5847 25.4046 10.5847C25.8007 10.5847 26.1217 10.2381 26.1217 9.81066V8.93255L27.5 10.3678C27.6392 10.5127 27.8187 10.5847 27.9979 10.5847C28.1857 10.5847 28.3733 10.5055 28.514 10.3481C28.789 10.0404 28.7808 9.55037 28.4958 9.25356Z" fill="#34384C"/>
<path d="M8.23814 7.07993C8.37478 6.81022 8.45256 6.5011 8.45256 6.17262C8.45256 5.12648 7.66405 4.27539 6.69482 4.27539H5.38118C4.98514 4.27539 4.66406 4.62195 4.66406 5.04943V7.29716V7.30081V9.93078C4.66406 10.1367 4.74008 10.3341 4.87522 10.4793C5.00965 10.6238 5.1916 10.7048 5.38118 10.7048H5.38438C5.38451 10.7048 6.59156 10.699 6.92424 10.699C7.99086 10.699 8.85871 9.76232 8.85871 8.61105C8.85864 8.00659 8.61919 7.46153 8.23814 7.07993ZM6.09831 5.82346H6.69482C6.87319 5.82346 7.01831 5.9801 7.01831 6.17262C7.01831 6.36515 6.87319 6.52178 6.69482 6.52178C6.57904 6.52178 6.34069 6.52263 6.09831 6.52354V5.82346ZM6.92424 9.1509C6.76882 9.1509 6.42329 9.15217 6.09831 9.1535V8.07161C6.33789 8.07063 6.57356 8.06985 6.69065 8.06985L6.92424 8.07119C7.2 8.07119 7.42446 8.31339 7.42446 8.61105C7.42446 8.9087 7.2 9.1509 6.92424 9.1509Z" fill="#34384C"/>
<path d="M20.162 10.7048C18.5197 10.7048 17.1836 9.26271 17.1836 7.4901C17.1836 5.71749 18.5197 4.27539 20.162 4.27539C21.8042 4.27539 23.1403 5.71749 23.1403 7.4901C23.1403 9.26271 21.8043 10.7048 20.162 10.7048ZM20.162 5.82346C19.3105 5.82346 18.6178 6.57111 18.6178 7.4901C18.6178 8.40909 19.3105 9.15674 20.162 9.15674C21.0134 9.15674 21.7061 8.40909 21.7061 7.4901C21.7061 6.57111 21.0134 5.82346 20.162 5.82346Z" fill="#34384C"/>
<path d="M12.9588 10.7048C11.3166 10.7048 9.98047 9.26271 9.98047 7.4901C9.98047 5.71749 11.3165 4.27539 12.9588 4.27539C14.6011 4.27539 15.9372 5.71749 15.9372 7.4901C15.9372 9.26271 14.6011 10.7048 12.9588 10.7048ZM12.9588 5.82346C12.1074 5.82346 11.4147 6.57111 11.4147 7.4901C11.4147 8.40909 12.1074 9.15674 12.9588 9.15674C13.8103 9.15674 14.503 8.40909 14.503 7.4901C14.503 6.57111 13.8103 5.82346 12.9588 5.82346Z" fill="#34384C"/>
<path d="M17.7581 36.0005H15.6181C11.4002 36.0005 7.96875 32.2966 7.96875 27.744L7.98309 14.7284C7.98309 13.1129 9.20142 11.7979 10.699 11.7979C12.1965 11.7979 13.4148 13.1129 13.4148 14.7293V19.294C13.7968 19.0723 14.2333 18.9466 14.6965 18.9466C15.4863 18.9466 16.1985 19.3123 16.6952 19.8953C17.1919 19.3123 17.9042 18.9466 18.694 18.9466C19.4838 18.9466 20.1961 19.3125 20.6928 19.8953C21.1895 19.3125 21.9017 18.9466 22.6915 18.9466C24.1891 18.9466 25.4074 20.2616 25.4074 21.878V27.744C25.4075 32.2966 21.976 36.0005 17.7581 36.0005ZM10.699 13.3459C9.99227 13.3459 9.41734 13.9665 9.41734 14.7293L9.40299 27.745C9.40299 31.443 12.1911 34.4524 15.6181 34.4524H17.7581C21.1851 34.4524 23.9732 31.443 23.9732 27.744V21.878C23.9732 21.1153 23.3983 20.4946 22.6916 20.4946C21.9849 20.4946 21.41 21.1152 21.41 21.878C21.41 22.3055 21.0889 22.6521 20.6928 22.6521C20.2968 22.6521 19.9757 22.3055 19.9757 21.878C19.9757 21.1153 19.4008 20.4946 18.6941 20.4946C17.9873 20.4946 17.4124 21.1152 17.4124 21.878C17.4124 22.3055 17.0913 22.6521 16.6953 22.6521C16.2992 22.6521 15.9782 22.3055 15.9782 21.878C15.9782 21.1153 15.4032 20.4946 14.6965 20.4946C13.9898 20.4946 13.4149 21.1152 13.4149 21.878C13.4149 22.3055 13.0938 22.6521 12.6978 22.6521C12.3017 22.6521 11.9807 22.3055 11.9807 21.878V14.7293C11.9806 13.9664 11.4057 13.3459 10.699 13.3459Z" fill="#34384C"/>
</svg>
