<svg width="32" height="36" viewBox="0 0 32 36" fill="none" xmlns="http://www.w3.org/2000/svg">
<path d="M27.8012 36C28.9082 36 29.8089 35.0298 29.8089 33.8373V33.8364C29.8914 33.8425 29.9743 33.8467 30.0581 33.8467C30.9874 33.8467 31.7434 33.0323 31.7434 32.0314V27.8636C31.7434 26.8627 30.9874 26.0483 30.0581 26.0483C29.9743 26.0483 29.8914 26.0525 29.8089 26.0586V26.0577C29.8089 24.8652 28.9082 23.895 27.8012 23.895H25.0995C24.4597 23.3255 23.7059 22.9025 22.9022 22.6652L17.557 21.0912V19.843C18.6648 18.7617 19.3888 17.2327 19.4812 15.5239C20.9453 13.8847 21.7485 11.7427 21.7485 9.45633V8.54831C21.7485 6.26098 20.9 4.11166 19.3593 2.49645C18.4004 1.49105 17.2101 0.747914 15.9172 0.347414C15.7948 0.309516 15.6651 0.307336 15.5418 0.341156L15.0967 0.463078L14.905 0.262547C14.7894 0.14175 14.6395 0.0663047 14.4793 0.0483047C14.1941 0.0162422 13.9033 0 13.6148 0C9.1299 0 5.48113 3.8347 5.48113 8.54817V9.45619C5.48113 11.7426 6.28431 13.8845 7.74839 15.5237C7.84069 17.2325 8.56483 18.7616 9.67258 19.8428V21.0911L4.32723 22.665C1.77941 23.4151 0 25.9262 0 28.7713V35.2266C0 35.6537 0.321471 36 0.718006 36H27.8012ZM21.6329 23.8949H16.9757C17.1913 23.5148 17.3517 23.0989 17.4487 22.6628L21.6329 23.8949ZM6.91714 8.54817C6.91714 4.68759 9.92167 1.54688 13.6148 1.54688C13.7724 1.54688 13.9309 1.55271 14.0882 1.56431L14.3847 1.87425C14.5636 2.06142 14.8202 2.13497 15.0617 2.06873L15.7021 1.89323C16.698 2.23481 17.6127 2.82382 18.3577 3.60485C19.6183 4.92637 20.3124 6.68201 20.3124 8.54824V9.45626C20.3124 10.6914 20.0277 11.8756 19.4915 12.9253V9.58338C19.4915 9.2276 19.2662 8.91773 18.9455 8.83245C17.9229 8.56062 17.0068 7.92598 16.2963 6.99722C16.1378 6.79008 15.8908 6.6863 15.644 6.72286C15.3972 6.75956 15.1856 6.93148 15.0852 7.17715C14.3164 9.05618 12.6495 10.1339 10.5119 10.1339C9.74217 10.1339 9.14596 10.0677 8.63565 9.92573C8.42071 9.8659 8.19206 9.91659 8.01647 10.0631C7.84082 10.2096 7.73808 10.4354 7.73808 10.6746V12.9253C7.20186 11.8756 6.9172 10.6914 6.9172 9.45626L6.91714 8.54817ZM9.17488 15.1865C9.17481 15.1833 9.17468 15.1801 9.17468 15.177C9.17461 15.1687 9.17409 15.1604 9.17409 15.1521V11.603C9.57526 11.6555 10.0152 11.6807 10.5119 11.6807C12.8571 11.6807 14.77 10.6392 15.903 8.78534C16.5393 9.40001 17.2667 9.86512 18.0556 10.16V15.1521C18.0556 15.1604 18.055 15.1686 18.055 15.1769C18.0549 15.18 18.0548 15.1833 18.0548 15.1864C18.0374 17.8083 16.0528 19.9355 13.6148 19.9355C11.1769 19.9356 9.19224 17.8083 9.17488 15.1865ZM13.6148 21.4824C14.5108 21.4824 15.3604 21.265 16.121 20.877V21.6814C16.121 22.5626 15.714 23.3932 15.0481 23.8949H14.2597C13.8148 23.8949 13.4033 24.0518 13.0702 24.3167C11.9335 24.0488 11.1087 22.9675 11.1087 21.6814V20.877C11.8692 21.265 12.7188 21.4824 13.6148 21.4824ZM1.43608 28.7713C1.43608 26.6214 2.78071 24.7239 4.70594 24.1571L9.7778 22.6638C10.0827 24.0648 11.0275 25.2006 12.2831 25.6807C12.263 25.8032 12.252 25.929 12.252 26.0576V33.8373C12.252 34.0513 12.2814 34.2579 12.3354 34.4531H6.27243V29.2528C6.27243 28.8257 5.95096 28.4794 5.55443 28.4794C5.15789 28.4794 4.83642 28.8257 4.83642 29.2528V34.4531H1.43608V28.7713ZM27.8012 25.4417C28.1165 25.4417 28.3729 25.718 28.3729 26.0575V26.4981C27.2237 27.1523 26.4383 28.4526 26.4383 29.9474C26.4383 31.4423 27.2237 32.7426 28.3729 33.3968V33.8373C28.3729 34.1768 28.1165 34.4531 27.8012 34.4531H14.2597C13.9444 34.4531 13.6879 34.1768 13.6879 33.8373V26.0576C13.6879 25.7181 13.9444 25.4418 14.2597 25.4418L27.8012 25.4417ZM30.3074 32.0314C30.3074 32.1794 30.1955 32.2998 30.0581 32.2998C28.854 32.2998 27.8744 31.2446 27.8744 29.9474C27.8744 28.6504 28.854 27.5951 30.0581 27.5951C30.1955 27.5951 30.3074 27.7155 30.3074 27.8635V32.0314Z" fill="#34384C"/>
<path d="M21.0332 33.7817C20.6318 33.984 18.1065 30.8275 17.8072 30.6241C17.3441 30.1245 17.0897 29.461 17.0909 28.7558C17.0302 26.6307 19.523 25.3311 21.0332 26.6618C22.5435 25.3321 25.0363 26.6299 24.9754 28.7559C24.9767 29.4611 24.7223 30.1246 24.2591 30.6241C23.9499 30.8376 21.4483 33.9716 21.0332 33.7817ZM19.5455 27.6694C18.6792 27.6297 18.1764 28.8863 18.8232 29.5308C18.8232 29.5308 21.0332 31.9139 21.0332 31.9139C21.3725 31.4036 23.6643 29.4783 23.5395 28.7589C23.5628 27.8114 22.4016 27.2995 21.7985 27.9912C20.6799 29.3282 20.5508 27.6718 19.5455 27.6694Z" fill="#34384C"/>
</svg>
