<svg width="138" height="77" viewBox="0 0 138 77" fill="none" xmlns="http://www.w3.org/2000/svg">
<path d="M68.336 34.0715L59.521 38.7847C59.2619 38.927 58.9684 39.0019 58.6693 39.0019C57.0876 39.0019 56.2115 37.7165 56.5096 36.3019C57.1585 33.2028 57.7811 30.1252 58.3773 27.0691C58.4138 26.8813 58.3611 26.7228 58.2191 26.5937C55.9601 24.5042 53.5672 22.3344 51.0405 20.0844C49.6231 18.8166 50.1888 16.6918 52.1234 16.4453C55.3598 16.0305 58.6389 15.6373 61.9605 15.2655C62.22 15.2342 62.4046 15.1051 62.5141 14.8781C63.893 12.0373 65.2699 9.19251 66.6448 6.34383C67.5756 4.41863 69.8995 4.62993 70.739 6.5434C71.98 9.3549 73.4462 12.1312 74.7785 14.9192C74.8677 15.1031 75.0157 15.2068 75.2226 15.2303L85.4125 16.4688C85.7398 16.5105 86.0434 16.655 86.2763 16.8796C87.3592 17.9362 87.3551 18.9692 86.2642 19.9788C83.9078 22.1622 81.4886 24.3848 79.0065 26.6465C78.8889 26.7522 78.8463 26.8794 78.8788 27.0281C79.5074 30.1663 80.136 33.3241 80.7647 36.5015C81.1601 38.4678 79.1282 39.536 77.4309 38.6204C74.4864 37.0278 71.6596 35.5115 68.9504 34.0715C68.8555 34.0211 68.7492 33.9947 68.6417 33.9947C68.5342 33.9947 68.429 34.0211 68.336 34.0715Z" fill="#FFC250"/>
<path d="M44.0856 35.8943L45.3624 42.357C45.4165 42.6278 45.3907 42.9082 45.2881 43.165C45.1854 43.4219 45.0102 43.6445 44.7831 43.8066C44.5559 43.9686 44.2864 44.0634 44.0063 44.0796C43.7262 44.0959 43.4472 44.033 43.2022 43.8983L37.1998 40.6253C37.0102 40.5221 36.8206 40.5221 36.6311 40.6253C34.7392 41.6925 32.7243 42.7875 30.5863 43.9102C29.3883 44.5351 28.3052 43.3687 28.529 42.1964C28.9647 39.9588 29.3903 37.8125 29.8058 35.7574C29.8501 35.5233 29.7836 35.325 29.6061 35.1623L24.6505 30.6753C24.3936 30.4429 24.2276 30.1294 24.1812 29.7891C24.1348 29.4489 24.2109 29.1035 24.3963 28.8126C24.6666 28.3921 25.0458 28.1521 25.5339 28.0926C27.7041 27.8347 29.9288 27.5788 32.2079 27.3249C32.4379 27.2971 32.6012 27.1801 32.698 26.9738L35.6085 20.8205C35.7253 20.5759 35.9104 20.3688 36.1421 20.2235C36.3739 20.0781 36.6427 20.0006 36.917 20C37.1913 19.9994 37.4598 20.0757 37.691 20.2199C37.9222 20.3642 38.1066 20.5705 38.2224 20.8146L41.151 26.9321C41.2007 27.0358 41.2763 27.1252 41.3705 27.1919C41.4648 27.2585 41.5746 27.3002 41.6895 27.313L48.3817 28.1045C48.5907 28.1289 48.7918 28.1973 48.9713 28.305C49.1509 28.4127 49.3046 28.5572 49.4218 28.7285C49.5391 28.8998 49.6172 29.0939 49.6507 29.2974C49.6842 29.501 49.6724 29.7091 49.6161 29.9076C49.5112 30.2806 49.2994 30.6118 48.9807 30.9014C47.4842 32.2464 45.9392 33.6508 44.3458 35.1147C44.1119 35.3289 44.0251 35.5888 44.0856 35.8943Z" fill="#FFC250"/>
<path d="M107.55 35.8107C107.937 37.8134 108.35 39.9112 108.788 42.1042C109.042 43.3772 107.967 44.5133 106.668 43.8352C104.591 42.7486 102.618 41.668 100.749 40.5933C100.548 40.4783 100.342 40.4763 100.133 40.5873L94.0869 43.9066C93.8487 44.0372 93.5777 44.0981 93.3056 44.0822C93.0335 44.0663 92.7716 43.9742 92.5509 43.8167C92.3301 43.6593 92.1596 43.443 92.0593 43.1934C91.9591 42.9438 91.9332 42.6712 91.9849 42.4076L93.2956 35.7453C93.3439 35.5113 93.2795 35.315 93.1023 35.1564C91.4594 33.6891 89.8447 32.2019 88.2582 30.695C87.1045 29.5945 87.775 28.2204 89.2125 28.0538C91.3789 27.8 93.5513 27.5482 95.7298 27.2984C95.9472 27.2746 96.1002 27.1675 96.1888 26.9772C97.0747 25.1054 98.0109 23.1245 98.9975 21.0346C99.2189 20.5587 99.5773 20.2375 100.073 20.071C100.382 19.966 100.72 19.9778 101.022 20.1042C101.323 20.2305 101.566 20.4625 101.703 20.755L104.633 26.9474C104.734 27.1576 104.903 27.2766 105.14 27.3043C107.399 27.5581 109.6 27.81 111.742 28.0598C112.787 28.1788 113.596 29.3447 112.932 30.2845C112.69 30.6256 112.406 30.9369 112.08 31.2185C110.631 32.4756 109.193 33.7803 107.768 35.1326C107.57 35.319 107.498 35.545 107.55 35.8107Z" fill="#FFC250"/>
<path d="M16.7087 47.8317C17.3606 46.4674 18.0385 45.0547 18.7424 43.5935C18.9184 43.2292 19.1824 42.9598 19.5343 42.7854C19.6575 42.7231 19.7924 42.6855 19.9308 42.6749C20.0692 42.6644 20.2083 42.6811 20.3396 42.7241C20.4709 42.767 20.5916 42.8353 20.6945 42.9248C20.7974 43.0143 20.8803 43.1231 20.9381 43.2447L23.0919 47.7445C23.158 47.8797 23.2576 47.9964 23.3814 48.0838C23.5051 48.1712 23.6491 48.2264 23.7998 48.2444L28.8391 48.849C29.0528 48.8755 29.2544 48.9601 29.4205 49.0931C29.5866 49.226 29.7104 49.4019 29.7776 49.6003C29.8448 49.7986 29.8526 50.0114 29.8001 50.2138C29.7476 50.4163 29.637 50.6002 29.481 50.7443L25.6535 54.2441C25.4935 54.3914 25.4356 54.5716 25.4796 54.7848L26.4754 59.6915C26.5189 59.9049 26.4984 60.126 26.4164 60.3285C26.3343 60.531 26.1942 60.7066 26.0125 60.8344C25.8307 60.9622 25.6151 61.0369 25.3909 61.0496C25.1668 61.0624 24.9436 61.0128 24.7476 60.9065L20.2422 58.4764C20.1453 58.4248 20.0367 58.3977 19.9265 58.3977C19.8164 58.3977 19.7082 58.4248 19.6123 58.4764L14.9389 60.9879C14.8367 61.0428 14.7241 61.0764 14.6083 61.0864C14.4925 61.0964 14.3763 61.0827 14.267 61.0461C13.5431 60.8058 13.2571 60.3077 13.4091 59.5519C13.7411 57.8815 14.061 56.2944 14.369 54.7906C14.413 54.5658 14.349 54.3759 14.177 54.2208L10.3615 50.7559C10.2033 50.6133 10.0905 50.4298 10.0362 50.2271C9.98205 50.0244 9.98876 49.8109 10.0556 49.6117C10.1224 49.4126 10.2465 49.2361 10.4134 49.103C10.5803 48.9699 10.7829 48.8859 10.9974 48.8607L16.1508 48.227C16.4147 48.196 16.6007 48.0642 16.7087 47.8317Z" fill="#FFC250"/>
<path d="M114.243 47.7777C114.922 46.3821 115.672 44.1665 116.699 42.957C116.774 42.8694 116.868 42.7986 116.974 42.7494C117.08 42.7003 117.195 42.6739 117.312 42.6721C117.84 42.6643 118.219 42.8911 118.447 43.3524C119.147 44.748 119.874 46.2386 120.627 47.8242C120.68 47.9359 120.762 48.0325 120.865 48.1048C120.968 48.1771 121.089 48.2227 121.215 48.2371L126.338 48.8593C126.553 48.8862 126.756 48.9716 126.923 49.1056C127.09 49.2396 127.215 49.4167 127.282 49.6164C127.349 49.8161 127.356 50.0301 127.303 50.2337C127.25 50.4373 127.138 50.6221 126.981 50.7666L123.155 54.2324C122.987 54.3836 122.925 54.5697 122.969 54.7907L123.984 59.8207C124.034 60.0663 123.982 60.3211 123.84 60.5301C123.443 61.1155 122.925 61.2415 122.284 60.9081C120.755 60.1134 119.242 59.3031 117.744 58.4774C117.54 58.365 117.334 58.365 117.126 58.4774L112.579 60.9139C112.384 61.0188 112.162 61.0675 111.94 61.0543C111.717 61.0411 111.503 60.9666 111.322 60.8395C111.142 60.7125 111.003 60.5381 110.921 60.337C110.839 60.1359 110.819 59.9164 110.862 59.7044L111.871 54.779C111.915 54.5697 111.857 54.3933 111.697 54.2499L107.871 50.7783C107.711 50.6335 107.596 50.4475 107.541 50.242C107.486 50.0364 107.492 49.8199 107.56 49.6179C107.627 49.4158 107.753 49.2366 107.922 49.1012C108.091 48.9658 108.296 48.8799 108.514 48.8535L113.57 48.2487C113.883 48.2138 114.107 48.0568 114.243 47.7777Z" fill="#FFC250"/>
</svg>
