<svg width="28" height="28" viewBox="0 0 28 28" fill="none" xmlns="http://www.w3.org/2000/svg">
<path d="M27.1636 0.808581C26.4645 0.0940975 25.4298 -0.170164 24.465 0.109478L1.96786 6.60974C0.94997 6.89218 0.228495 7.69895 0.0341444 8.72243C-0.164401 9.7655 0.52911 11.091 1.43515 11.6447L8.46953 15.94C9.191 16.3818 10.1222 16.2714 10.7192 15.6729L18.7743 7.61785C19.1798 7.19699 19.8509 7.19699 20.2564 7.61785C20.6619 8.02193 20.6619 8.68049 20.2564 9.09995L12.1874 17.155C11.5889 17.7535 11.4771 18.6819 11.9175 19.4047L16.2156 26.4657C16.719 27.3032 17.5858 27.78 18.5366 27.78C18.6485 27.78 18.7743 27.78 18.8862 27.7646C19.9768 27.6262 20.8437 26.8837 21.1652 25.8351L27.8347 3.50712C28.1283 2.55634 27.8627 1.52167 27.1636 0.808581Z" fill="white"/>
<path opacity="0.4" d="M8.93359 23.9688C9.34327 23.5605 10.0073 23.5605 10.417 23.9688C10.8251 24.3784 10.8252 25.0425 10.417 25.4521L8.50684 27.3604C8.3027 27.5659 8.03408 27.668 7.76562 27.668C7.49726 27.6679 7.22848 27.5658 7.02441 27.3604C6.61524 26.9508 6.61526 26.2885 7.02441 25.8789L8.93359 23.9688ZM7.83789 18.6719C8.24752 18.2636 8.9116 18.2637 9.32129 18.6719C9.72957 19.0815 9.72957 19.7456 9.32129 20.1553L7.41113 22.0635C7.20708 22.2689 6.93924 22.371 6.6709 22.3711C6.40244 22.3711 6.13383 22.269 5.92969 22.0635C5.52016 21.6538 5.52006 20.9917 5.92969 20.582L7.83789 18.6719ZM2.5791 17.0049C2.98877 16.5967 3.65286 16.5967 4.0625 17.0049C4.47073 17.4145 4.47065 18.0786 4.0625 18.4883L2.15234 20.3975C1.94824 20.6028 1.67946 20.7051 1.41113 20.7051C1.14279 20.705 0.873977 20.6029 0.669922 20.3975C0.260381 19.9879 0.260549 19.3247 0.669922 18.915L2.5791 17.0049Z" fill="white"/>
</svg>
