<svg width="18" height="18" viewBox="0 0 18 18" fill="none" xmlns="http://www.w3.org/2000/svg">
<path d="M17.4416 0.154331C17.3075 0.0172703 17.1106 -0.0334514 16.929 0.022223L1.16166 4.85782C0.466822 5.07089 0 5.71229 0 6.45411C0 7.18564 0.480532 7.83691 1.16864 8.0379L7.82733 9.98275L9.7298 16.7897C9.92641 17.4931 10.5635 17.9844 11.2794 17.9844C12.0047 17.9844 12.6322 17.5072 12.8406 16.7969L17.5708 0.678268C17.6253 0.492628 17.5757 0.291392 17.4416 0.154331ZM1.03082 6.45387C1.03082 6.18125 1.20241 5.94549 1.45785 5.86716L15.2672 1.63207L8.09424 8.9648L1.4518 7.0247C1.20396 6.95227 1.03082 6.71766 1.03082 6.45387ZM11.8533 16.4941C11.7767 16.7552 11.546 16.9306 11.2791 16.9306C11.0213 16.9306 10.7918 16.7537 10.721 16.5003L8.82313 9.70989L15.9961 2.37716L11.8533 16.4941Z" fill="#293347"/>
</svg>
