<svg width="38" height="38" viewBox="0 0 38 38" fill="none" xmlns="http://www.w3.org/2000/svg">
<path d="M2 34.7882L4.37624 26.1121C2.91026 23.573 2.13958 20.6923 2.14044 17.7418C2.14431 8.5104 9.6573 1 18.8887 1C23.3689 1.00215 27.5743 2.74556 30.7359 5.91015C33.8983 9.07516 35.6387 13.2814 35.637 17.7552C35.6331 26.9866 28.1193 34.4978 18.8891 34.4978H18.8818C16.0791 34.497 13.3251 33.7935 10.8786 32.4602L2 34.7882Z" fill="url(#paint0_linear_34_61320)"/>
<g filter="url(#filter0_d_34_61320)">
<path fill-rule="evenodd" clip-rule="evenodd" d="M31.445 5.20088C28.0946 1.84918 23.6397 0.00220254 18.8932 0C9.11275 0 1.15333 7.95484 1.14936 17.7329C1.14804 20.8586 1.96491 23.9094 3.51758 26.5986L1 35.7882L10.4064 33.3223C12.9984 34.7354 15.916 35.4798 18.8857 35.4812H18.8932C28.6723 35.4812 36.633 27.5246 36.637 17.747C36.6387 13.0086 34.7948 8.55302 31.445 5.20088ZM18.8932 32.4863H18.8874C16.2408 32.4845 13.6452 31.774 11.3814 30.4309L10.8425 30.1116L5.26059 31.5749L6.7507 26.1357L6.39954 25.578C4.92309 23.2311 4.14368 20.519 4.145 17.7342C4.14808 9.60712 10.7637 2.99534 18.8989 2.99534C22.8383 2.99666 26.5407 4.53222 29.3257 7.31789C32.1103 10.104 33.6422 13.8072 33.6413 17.7461C33.6378 25.8732 27.0218 32.4863 18.8932 32.4863Z" fill="white"/>
<path fill-rule="evenodd" clip-rule="evenodd" d="M26.9808 21.4464C26.5376 21.2248 24.3579 20.1522 23.9513 20.0042C23.545 19.8566 23.2494 19.7826 22.9538 20.2267C22.6581 20.6698 21.8086 21.6679 21.55 21.9635C21.2914 22.2595 21.0327 22.2965 20.5895 22.075C20.1463 21.8525 18.7183 21.3852 17.0242 19.8751C15.7063 18.7004 14.8163 17.2494 14.5577 16.8058C14.2991 16.3622 14.5299 16.1222 14.7524 15.901C14.9511 15.7028 15.1957 15.3839 15.4173 15.1249C15.6385 14.8663 15.7125 14.6813 15.8605 14.3857C16.0081 14.0897 15.9341 13.8312 15.8235 13.6096C15.7125 13.3876 14.8511 11.1957 14.4568 10.3191C14.1246 9.58129 13.7747 9.56632 13.4588 9.55354C13.2006 9.54253 12.9046 9.54297 12.6094 9.54297C12.3137 9.54297 11.8335 9.65398 11.4272 10.0976C11.0206 10.5411 9.875 11.6133 9.875 13.7942C9.875 15.975 11.4642 18.0823 11.6854 18.3784C11.9075 18.6739 14.7529 23.292 19.2593 25.069C23.0044 26.5455 23.7667 26.2517 24.5796 26.1777C25.3925 26.1037 27.2025 25.106 27.5721 24.0708C27.9413 23.0361 27.9413 22.149 27.8307 21.9635C27.7197 21.779 27.4241 21.6679 26.9808 21.4464Z" fill="white"/>
</g>
<defs>
<filter id="filter0_d_34_61320" x="0" y="0" width="37.6367" height="37.7881" filterUnits="userSpaceOnUse" color-interpolation-filters="sRGB">
<feFlood flood-opacity="0" result="BackgroundImageFix"/>
<feColorMatrix in="SourceAlpha" type="matrix" values="0 0 0 0 0 0 0 0 0 0 0 0 0 0 0 0 0 0 127 0" result="hardAlpha"/>
<feOffset dy="1"/>
<feGaussianBlur stdDeviation="0.5"/>
<feComposite in2="hardAlpha" operator="out"/>
<feColorMatrix type="matrix" values="0 0 0 0 0 0 0 0 0 0 0 0 0 0 0 0 0 0 0.25 0"/>
<feBlend mode="normal" in2="BackgroundImageFix" result="effect1_dropShadow_34_61320"/>
<feBlend mode="normal" in="SourceGraphic" in2="effect1_dropShadow_34_61320" result="shape"/>
</filter>
<linearGradient id="paint0_linear_34_61320" x1="18.8184" y1="34.7883" x2="18.8184" y2="0.999962" gradientUnits="userSpaceOnUse">
<stop stop-color="#20B038"/>
<stop offset="1" stop-color="#60D66A"/>
</linearGradient>
</defs>
</svg>
