<svg width="22" height="22" viewBox="0 0 22 22" fill="none" xmlns="http://www.w3.org/2000/svg">
<path d="M11.405 12.3351C11.2868 12.4306 11.1434 12.4783 11 12.4783C10.8566 12.4783 10.7131 12.4306 10.595 12.3351L5.50666 8.2251V14.4717H16.4933V8.2251L11.405 12.3351Z" fill="#F74C4D"/>
<path d="M15.304 7.52832H6.69599L11 11.0048L15.304 7.52832Z" fill="#F74C4D"/>
<path d="M18.7782 3.2218C16.7005 1.14421 13.9382 0 11 0C8.0618 0 5.29947 1.14421 3.2218 3.2218C1.14421 5.29947 0 8.0618 0 11C0 13.9382 1.14421 16.7005 3.2218 18.7782C5.29947 20.8558 8.0618 22 11 22C13.9382 22 16.7005 20.8558 18.7782 18.7782C20.8558 16.7005 22 13.9382 22 11C22 8.0618 20.8558 5.29947 18.7782 3.2218ZM17.7824 15.116C17.7824 15.472 17.4938 15.7606 17.1379 15.7606H4.86213C4.50618 15.7606 4.2176 15.472 4.2176 15.116V6.88398C4.2176 6.52803 4.50618 6.23945 4.86213 6.23945H17.1379C17.4938 6.23945 17.7824 6.52803 17.7824 6.88398V15.116Z" fill="#F74C4D"/>
</svg>
