<svg width="22" height="22" viewBox="0 0 22 22" fill="none" xmlns="http://www.w3.org/2000/svg">
<g clip-path="url(#clip0_14_904)">
<path d="M21.6236 3.93499C21.4233 2.05881 19.9416 0.576721 18.0652 0.376648C13.3598 -0.125549 8.64065 -0.125549 3.93541 0.376648C2.05905 0.576889 0.577133 2.05881 0.376892 3.93499C-0.125305 8.64024 -0.125305 13.3596 0.376892 18.0648C0.577133 19.9412 2.05905 21.4231 3.93524 21.6233C8.64048 22.1255 13.3598 22.1255 18.0652 21.6233C19.9416 21.4231 21.4233 19.9412 21.6236 18.0648C22.1258 13.3596 22.1258 8.6404 21.6236 3.93499Z" fill="#F74C4D"/>
<path d="M20.4268 4.73057C20.2492 3.0657 18.9343 1.75062 17.2692 1.57287C13.0939 1.1274 8.9061 1.1274 4.73075 1.57287C3.06588 1.75062 1.7508 3.0657 1.57305 4.73057C1.12759 8.90592 1.12759 13.0937 1.57305 17.2689C1.7508 18.9339 3.06588 20.249 4.73075 20.4266C8.9061 20.8722 13.0939 20.8722 17.2691 20.4266C18.9341 20.249 20.2492 18.9339 20.4268 17.2689C20.8724 13.0937 20.8724 8.90592 20.4268 4.73057Z" fill="url(#paint0_linear_14_904)"/>
<path d="M4.08588 8.33178C4.1317 8.00818 4.16661 7.68272 4.22485 7.36146C4.55501 5.54184 5.84323 4.3038 7.68518 4.24036C9.90293 4.16415 12.1274 4.16013 14.3448 4.24002C16.3496 4.31219 17.8015 5.79663 17.8641 7.80206C17.9307 9.93153 17.9307 12.0662 17.8641 14.1957C17.8015 16.2011 16.3501 17.6854 14.345 17.7577C12.1276 17.8378 9.9026 17.8398 7.68535 17.7565C5.68025 17.6812 4.29417 16.1934 4.16006 14.1849C4.14848 14.0112 4.11122 13.839 4.08588 13.6661C4.08588 11.8879 4.08588 10.1098 4.08588 8.33178ZM11.0018 16.5692C12.0166 16.5692 13.0324 16.5996 14.0459 16.5621C15.6349 16.5032 16.6123 15.5549 16.6494 13.9674C16.6953 11.9893 16.6953 10.0086 16.6494 8.03033C16.6123 6.44317 15.6342 5.47269 14.0459 5.43895C12.0299 5.39632 10.0117 5.39665 7.99569 5.43895C6.41945 5.47201 5.43922 6.42287 5.39642 7.99257C5.34204 9.99565 5.34204 12.0023 5.39642 14.0053C5.43922 15.5749 6.41945 16.5037 7.99586 16.5621C8.99656 16.5994 9.99978 16.5692 11.0018 16.5692Z" fill="url(#paint1_linear_14_904)"/>
<path d="M4.08588 8.33178C4.1317 8.00818 4.16661 7.68272 4.22485 7.36146C4.55501 5.54184 5.84323 4.3038 7.68518 4.24036C9.90293 4.16415 12.1274 4.16013 14.3448 4.24002C16.3496 4.31219 17.8015 5.79663 17.8641 7.80206C17.9307 9.93153 17.9307 12.0662 17.8641 14.1957C17.8015 16.2011 16.3501 17.6854 14.345 17.7577C12.1276 17.8378 9.9026 17.8398 7.68535 17.7565C5.68025 17.6812 4.29417 16.1934 4.16006 14.1849C4.14848 14.0112 4.11122 13.839 4.08588 13.6661C4.08588 11.8879 4.08588 10.1098 4.08588 8.33178ZM11.0018 16.5692C12.0166 16.5692 13.0324 16.5996 14.0459 16.5621C15.6349 16.5032 16.6123 15.5549 16.6494 13.9674C16.6953 11.9893 16.6953 10.0086 16.6494 8.03033C16.6123 6.44317 15.6342 5.47269 14.0459 5.43895C12.0299 5.39632 10.0117 5.39665 7.99569 5.43895C6.41945 5.47201 5.43922 6.42287 5.39642 7.99257C5.34204 9.99565 5.34204 12.0023 5.39642 14.0053C5.43922 15.5749 6.41945 16.5037 7.99586 16.5621C8.99656 16.5994 9.99978 16.5692 11.0018 16.5692Z" fill="white"/>
<path d="M11 7.47656C9.05395 7.47656 7.4762 9.05415 7.4762 11.0002C7.4762 12.9463 9.05395 14.5239 11 14.5239C12.9461 14.5239 14.5237 12.9463 14.5237 11.0002C14.5237 9.05415 12.9461 7.47656 11 7.47656ZM11 13.3107C9.72383 13.3107 8.68939 12.2763 8.68939 11.0002C8.68939 9.72403 9.72383 8.68959 11 8.68959C12.2761 8.68959 13.3105 9.72403 13.3105 11.0002C13.3105 12.2763 12.2761 13.3107 11 13.3107Z" fill="white"/>
<path d="M15.5677 7.31544C15.5677 7.77837 15.1924 8.15367 14.7295 8.15367C14.2666 8.15367 13.8911 7.77837 13.8911 7.31544C13.8911 6.85236 14.2666 6.47705 14.7295 6.47705C15.1924 6.47705 15.5677 6.85236 15.5677 7.31544Z" fill="white"/>
</g>
<defs>
<linearGradient id="paint0_linear_14_904" x1="8.43787" y1="9.55862" x2="-28.8327" y2="-11.4061" gradientUnits="userSpaceOnUse">
<stop stop-color="#A1B5D8" stop-opacity="0"/>
<stop offset="0.3094" stop-color="#90A2BD" stop-opacity="0.309804"/>
<stop offset="0.7554" stop-color="#7C8B9C" stop-opacity="0.756863"/>
<stop offset="1" stop-color="#748290"/>
</linearGradient>
<linearGradient id="paint1_linear_14_904" x1="15.3681" y1="6.66233" x2="6.46861" y2="15.5618" gradientUnits="userSpaceOnUse">
<stop stop-color="#833AB4"/>
<stop offset="0.0922" stop-color="#9C3495"/>
<stop offset="0.2927" stop-color="#DC2546"/>
<stop offset="0.392" stop-color="#FD1D1D"/>
<stop offset="0.5589" stop-color="#FC6831"/>
<stop offset="0.6887" stop-color="#FC9B40"/>
<stop offset="0.7521" stop-color="#FCAF45"/>
<stop offset="0.7806" stop-color="#FDB750"/>
<stop offset="0.8656" stop-color="#FECB6A"/>
<stop offset="0.9415" stop-color="#FFD87A"/>
<stop offset="1" stop-color="#FFDC80"/>
</linearGradient>
<clipPath id="clip0_14_904">
<rect width="22" height="22" rx="11" fill="white"/>
</clipPath>
</defs>
</svg>
