<svg width="10" height="10" viewBox="0 0 10 10" fill="none" xmlns="http://www.w3.org/2000/svg">
<path d="M8.59246 0.760394H8.13622V0H7.37582V0.760394H2.35722V0H1.59683V0.760394H1.14059C0.511669 0.760394 0 1.27206 0 1.90099V8.59246C0 9.22138 0.511669 9.73305 1.14059 9.73305H8.59246C9.22138 9.73305 9.73305 9.22138 9.73305 8.59246V1.90099C9.73305 1.27206 9.22138 0.760394 8.59246 0.760394ZM8.97265 8.59246C8.97265 8.8021 8.8021 8.97265 8.59246 8.97265H1.14059C0.930951 8.97265 0.760394 8.8021 0.760394 8.59246V3.57385H8.97265V8.59246ZM8.97265 2.81346H0.760394V1.90099C0.760394 1.69135 0.930951 1.52079 1.14059 1.52079H1.59683V2.28118H2.35722V1.52079H7.37582V2.28118H8.13622V1.52079H8.59246C8.8021 1.52079 8.97265 1.69135 8.97265 1.90099V2.81346Z" fill="#FDBB11"/>
</svg>
