<svg width="10" height="10" viewBox="0 0 10 10" fill="none" xmlns="http://www.w3.org/2000/svg">
<path d="M9.69802 7.56274L9.13272 5.91757C9.40521 5.36054 9.5492 4.74105 9.55017 4.11773C9.55185 3.03392 9.13253 2.00916 8.36943 1.23222C7.60618 0.455134 6.58912 0.0176977 5.50555 0.000531781C4.38197 -0.0172235 3.32586 0.410157 2.53187 1.20412C1.76627 1.96971 1.34163 2.979 1.32819 4.05755C0.573607 4.62568 0.128224 5.51144 0.129688 6.45755C0.130391 6.90029 0.230041 7.34038 0.418866 7.73836L0.0294868 8.8715C-0.0374471 9.06629 0.0114464 9.2778 0.1571 9.42345C0.259602 9.52597 0.394743 9.58055 0.533724 9.58055C0.592199 9.58055 0.651357 9.57089 0.709053 9.55106L1.84221 9.16168C2.24019 9.35051 2.68028 9.45016 3.12302 9.45086C3.12462 9.45086 3.12614 9.45086 3.12774 9.45086C4.08793 9.45082 4.98044 8.99396 5.5465 8.22089C6.13556 8.20537 6.71838 8.06278 7.24528 7.80503L8.89047 8.37034C8.95902 8.39389 9.02932 8.40538 9.0988 8.40538C9.26396 8.40538 9.42456 8.34051 9.54639 8.21866C9.71946 8.04558 9.77755 7.79425 9.69802 7.56274ZM3.1277 8.87152C3.12646 8.87152 3.12515 8.87152 3.12392 8.87152C2.73205 8.87093 2.3429 8.77432 1.99861 8.59217C1.92782 8.55474 1.8447 8.54825 1.76901 8.57426L0.607064 8.97353L1.00633 7.8116C1.03233 7.73589 1.02587 7.65277 0.988422 7.582C0.806269 7.23769 0.709661 6.84856 0.709053 6.45667C0.708083 5.82632 0.953292 5.22886 1.3821 4.78148C1.52216 5.63533 1.92911 6.42215 2.55989 7.04172C3.18602 7.65671 3.97307 8.04828 4.82228 8.17629C4.37388 8.61825 3.76944 8.87152 3.1277 8.87152ZM9.13669 7.809C9.12021 7.82548 9.10067 7.82997 9.07869 7.8224L7.31746 7.2172C7.28688 7.20669 7.25505 7.20148 7.22334 7.20148C7.1766 7.20148 7.13002 7.21279 7.08788 7.23511C6.58501 7.50113 6.01677 7.64222 5.44453 7.6431C5.44265 7.6431 5.44094 7.6431 5.43906 7.6431C3.52166 7.6431 1.93789 6.08554 1.90751 4.1686C1.89221 3.20319 2.25944 2.29586 2.94154 1.61377C3.62363 0.931674 4.53111 0.564574 5.49639 0.579782C7.41517 0.610217 8.97379 2.19692 8.97083 4.11682C8.96994 4.68906 8.82886 5.25732 8.56286 5.76015C8.52541 5.83092 8.51894 5.91403 8.54495 5.98975L9.15013 7.75098C9.15768 7.77303 9.15315 7.79255 9.13669 7.809Z" fill="#FDBB11"/>
</svg>
