<svg width="22" height="22" viewBox="0 0 22 22" fill="none" xmlns="http://www.w3.org/2000/svg">
<path d="M11.7186 15.1548C11.5884 15.1548 11.4583 15.1051 11.3589 15.0058C10.9685 14.6153 10.333 14.6153 9.94249 15.0058C9.74385 15.2044 9.4218 15.2044 9.22316 15.0058C9.02457 14.8072 9.02457 14.4851 9.22316 14.2865C10.0103 13.4994 11.2911 13.4994 12.0782 14.2865C12.2768 14.4851 12.2768 14.8072 12.0782 15.0058C11.9789 15.1051 11.8487 15.1548 11.7186 15.1548Z" fill="#F74C4D" stroke="#F74C4D" stroke-width="0.4"/>
<path d="M14.3888 12.4836C14.2587 12.4836 14.1285 12.4339 14.0292 12.3345C12.2526 10.4824 9.04906 10.4825 7.2726 12.3345C7.07397 12.5332 6.75197 12.5333 6.55328 12.3346C6.35464 12.136 6.35464 11.814 6.55323 11.6153C7.64699 10.5214 9.10224 9.91895 10.6509 9.91895C12.1995 9.91895 13.6547 10.5214 14.7485 11.6153C14.9471 11.814 14.9471 12.136 14.7485 12.3346C14.6492 12.4339 14.519 12.4836 14.3888 12.4836Z" fill="#F74C4D" stroke="#F74C4D" stroke-width="0.4"/>
<path d="M17.0598 9.81431C16.9296 9.81431 16.7995 9.76465 16.7001 9.66533C13.3648 6.33024 7.93793 6.33024 4.60261 9.66533C4.40397 9.86392 4.08192 9.86387 3.88333 9.66533C3.68469 9.46669 3.68474 9.14464 3.88338 8.94601C7.61528 5.21429 13.6875 5.21429 17.4194 8.94601C17.6181 9.14464 17.6181 9.46669 17.4194 9.66533C17.3201 9.76465 17.1899 9.81431 17.0598 9.81431Z" fill="#F74C4D" stroke="#F74C4D" stroke-width="0.4"/>
<path d="M15.4309 21.1499H5.8699C2.22603 21.1667 0.133715 19.0743 0.150491 15.4305V5.86962C0.133715 2.22578 2.22607 0.133349 5.8699 0.150125H15.4309C19.0748 0.133349 21.1671 2.22582 21.1503 5.86962V15.4305C21.1671 19.0743 19.0748 21.1667 15.4309 21.1499ZM5.8699 1.05246C2.71858 1.05246 1.05287 2.71817 1.05287 5.86958V15.4304C1.05287 18.5818 2.71858 20.2475 5.8699 20.2475H15.4309C18.5822 20.2475 20.248 18.5818 20.248 15.4304V5.86962C20.248 2.71821 18.5822 1.0525 15.4309 1.0525L5.8699 1.05246Z" fill="#293347" stroke="black" stroke-width="0.3"/>
</svg>
