<svg width="15" height="14" viewBox="0 0 15 14" fill="none" xmlns="http://www.w3.org/2000/svg">
<path d="M14.0834 4.62498C13.8792 4.44543 13.6279 4.32969 13.3565 4.29026L10.0344 3.80752L8.54869 0.797163C8.42733 0.551294 8.23958 0.348 8.00574 0.209333C7.78879 0.0807099 7.54019 0.0126953 7.28675 0.0126953C7.0333 0.0126953 6.78467 0.0806857 6.56775 0.209333C6.33391 0.348 6.14618 0.551269 6.02482 0.797163L4.53913 3.80755L1.217 4.29026C0.945639 4.32969 0.6943 4.44543 0.49016 4.62498C0.300784 4.79153 0.159309 5.00698 0.0809833 5.24803C0.00268186 5.48906 -0.00949298 5.74652 0.04579 5.99258C0.105406 6.25782 0.240708 6.49921 0.437079 6.69059L2.84099 9.03385L2.2735 12.3426C2.20318 12.7526 2.31605 13.1694 2.58317 13.4863C2.85227 13.8055 3.24492 13.9885 3.66041 13.9885C3.8867 13.9885 4.11318 13.9324 4.31536 13.8261L7.28677 12.2639L10.2582 13.8261C10.4604 13.9324 10.6868 13.9885 10.9131 13.9885C11.3286 13.9885 11.7212 13.8055 11.9904 13.4863C12.2575 13.1694 12.3704 12.7526 12.3 12.3426L11.7326 9.03385L14.1365 6.69059C14.3328 6.49918 14.4681 6.25782 14.5278 5.99258C14.5831 5.74652 14.5709 5.48906 14.4926 5.24803C14.4142 5.007 14.2727 4.79156 14.0834 4.62498ZM13.4127 5.94807L10.7578 8.53597C10.6705 8.62105 10.6307 8.74362 10.6513 8.86375L11.278 12.5179C11.3191 12.7573 11.1289 12.9516 10.9131 12.9516C10.8562 12.9516 10.7975 12.9381 10.7407 12.9083L7.45913 11.183C7.40518 11.1547 7.34597 11.1405 7.28679 11.1405C7.22761 11.1405 7.16841 11.1547 7.11446 11.183L3.83287 12.9083C3.77616 12.9381 3.71739 12.9516 3.66046 12.9516C3.44465 12.9516 3.25448 12.7573 3.29553 12.5179L3.92225 8.86375C3.94288 8.74362 3.90304 8.62105 3.81575 8.53597L1.16084 5.94807C0.94104 5.73384 1.06233 5.36056 1.36607 5.31641L5.03503 4.78328C5.15564 4.76576 5.25991 4.69 5.31387 4.58069L6.95468 1.25606C7.0226 1.11843 7.15469 1.04962 7.28677 1.04962C7.41888 1.04962 7.55094 1.11845 7.61883 1.25606L9.25965 4.58069C9.3136 4.68997 9.41785 4.76576 9.53849 4.78328L13.2074 5.31641C13.5112 5.36056 13.6325 5.73384 13.4127 5.94807Z" fill="#373B51"/>
<mask id="path-2-inside-1_163_17760" fill="white">
<path d="M10.9135 14C10.6852 14 10.4568 13.9433 10.2529 13.8361L7.28717 12.2769L4.32139 13.8361C4.11747 13.9433 3.88905 14 3.66081 14C3.24173 14 2.84572 13.8154 2.57429 13.4934C2.30487 13.1739 2.19104 12.7534 2.26196 12.3399L2.82837 9.03745L0.429003 6.69862C0.230962 6.50559 0.0945218 6.26214 0.0343738 5.99461C-0.0213933 5.74641 -0.00912165 5.48675 0.0698575 5.24366C0.148861 5.00058 0.29157 4.78327 0.482568 4.61529C0.688475 4.43419 0.941992 4.31745 1.21567 4.27768L4.53151 3.79587L6.0144 0.791197C6.1368 0.543197 6.32615 0.338185 6.56203 0.198307C6.78083 0.0685713 7.03157 0 7.28719 0C7.54279 0 7.79355 0.0685713 8.01236 0.198307C8.24821 0.338161 8.43758 0.543197 8.55998 0.791197L10.0429 3.79587L13.3587 4.27768C13.6324 4.31743 13.8859 4.43417 14.0918 4.61529C14.2828 4.78327 14.4255 5.00058 14.5045 5.24369C14.5835 5.4868 14.5958 5.74646 14.54 5.99463C14.4799 6.26216 14.3434 6.50559 14.1453 6.69864L11.746 9.03745L12.3124 12.3399C12.3833 12.7534 12.2695 13.1739 12 13.4934C11.7286 13.8153 11.3325 14 10.9135 14ZM7.28714 12.2496L7.29278 12.2525L10.2642 13.8147C10.4646 13.9201 10.6892 13.9758 10.9135 13.9758C11.3254 13.9758 11.7146 13.7943 11.9815 13.4778C12.2463 13.1637 12.3582 12.7504 12.2885 12.344L11.7199 9.02895L14.1284 6.68126C14.3231 6.4915 14.4572 6.25221 14.5163 5.98928C14.5711 5.74535 14.5591 5.49009 14.4814 5.25112C14.4038 5.01215 14.2635 4.79854 14.0758 4.63342C13.8734 4.45542 13.6242 4.34066 13.3552 4.3016L10.0267 3.81797L10.0239 3.81226L8.53825 0.801846C8.41793 0.558059 8.23179 0.356556 7.99999 0.219075C7.78491 0.0915414 7.53843 0.0241319 7.28717 0.0241319C7.0359 0.0241319 6.7894 0.0915414 6.57435 0.219075C6.34254 0.356532 6.15641 0.558059 6.03609 0.801846L4.54756 3.81792L4.54127 3.81884L1.21913 4.30157C0.950125 4.34066 0.70094 4.45539 0.498543 4.63339C0.310813 4.79852 0.170524 5.0121 0.0928759 5.25109C0.015228 5.49006 0.00317421 5.7453 0.0579973 5.98926C0.117105 6.25221 0.251246 6.4915 0.445922 6.68126L2.85439 9.02895L2.85332 9.03525L2.28582 12.344C2.21612 12.7504 2.32801 13.1637 2.59283 13.4778C2.85964 13.7943 3.2489 13.9758 3.66083 13.9758C3.88516 13.9758 4.10968 13.9201 4.31014 13.8147L7.28714 12.2496ZM10.9135 12.9631C10.8518 12.9631 10.7919 12.948 10.7355 12.9183L7.45389 11.1931C7.35153 11.1392 7.22293 11.1392 7.12047 11.1931L3.83888 12.9183C3.78241 12.948 3.7225 12.9631 3.66085 12.9631C3.54813 12.9631 3.44108 12.9128 3.36711 12.825C3.29408 12.7384 3.26458 12.6284 3.28399 12.5151L3.91072 8.861C3.93066 8.74479 3.89213 8.62626 3.80768 8.54394L1.15279 5.95607C1.04779 5.85374 1.01071 5.70352 1.05602 5.56406C1.10133 5.42459 1.21962 5.32487 1.36475 5.30379L5.03371 4.77066C5.1504 4.75369 5.25123 4.68042 5.30342 4.5747L6.94424 1.25007C7.00913 1.11856 7.14051 1.03687 7.28717 1.03687C7.4338 1.03687 7.5652 1.11856 7.63007 1.25007L9.27089 4.5747C9.32308 4.68045 9.42391 4.75371 9.54063 4.77066L13.2096 5.30379C13.3547 5.32487 13.473 5.42461 13.5183 5.56408C13.5636 5.70352 13.5265 5.85374 13.4215 5.95607L10.7666 8.54397C10.6822 8.62626 10.6437 8.74479 10.6636 8.86102L11.2903 12.5152C11.3098 12.6284 11.2802 12.7384 11.2072 12.825C11.1333 12.9128 11.0262 12.9631 10.9135 12.9631ZM7.28714 11.1277C7.34891 11.1277 7.41047 11.1429 7.46512 11.1716L10.7467 12.8969C10.7997 12.9247 10.8558 12.9388 10.9135 12.9388C11.019 12.9388 11.1194 12.8917 11.1887 12.8094C11.2571 12.7283 11.2847 12.6253 11.2665 12.5192L10.6398 8.86509C10.6185 8.74099 10.6596 8.61448 10.7498 8.52659L13.4046 5.93872C13.503 5.84284 13.5377 5.70214 13.4953 5.57154C13.4528 5.4409 13.342 5.34747 13.2061 5.3277L9.53712 4.79457C9.41256 4.77647 9.3049 4.69826 9.24918 4.58537L7.60836 1.26074C7.54756 1.13756 7.42448 1.06105 7.28714 1.06105C7.14978 1.06105 7.0267 1.13756 6.96593 1.26074L5.32511 4.58537C5.26939 4.69826 5.16175 4.77649 5.03717 4.79457L1.36821 5.32772C1.23228 5.34747 1.12147 5.4409 1.07904 5.57154C1.03661 5.70217 1.07134 5.84287 1.16968 5.93874L3.82455 8.52661C3.91471 8.6145 3.95583 8.74104 3.93453 8.86511L3.30781 12.5192C3.28963 12.6253 3.31725 12.7284 3.38558 12.8094C3.45492 12.8917 3.55525 12.9389 3.66081 12.9389C3.71851 12.9389 3.77462 12.9247 3.82758 12.8969L7.10917 11.1717C7.16387 11.1429 7.2254 11.1277 7.28714 11.1277Z"/>
</mask>
<path d="M10.9135 14C10.6852 14 10.4568 13.9433 10.2529 13.8361L7.28717 12.2769L4.32139 13.8361C4.11747 13.9433 3.88905 14 3.66081 14C3.24173 14 2.84572 13.8154 2.57429 13.4934C2.30487 13.1739 2.19104 12.7534 2.26196 12.3399L2.82837 9.03745L0.429003 6.69862C0.230962 6.50559 0.0945218 6.26214 0.0343738 5.99461C-0.0213933 5.74641 -0.00912165 5.48675 0.0698575 5.24366C0.148861 5.00058 0.29157 4.78327 0.482568 4.61529C0.688475 4.43419 0.941992 4.31745 1.21567 4.27768L4.53151 3.79587L6.0144 0.791197C6.1368 0.543197 6.32615 0.338185 6.56203 0.198307C6.78083 0.0685713 7.03157 0 7.28719 0C7.54279 0 7.79355 0.0685713 8.01236 0.198307C8.24821 0.338161 8.43758 0.543197 8.55998 0.791197L10.0429 3.79587L13.3587 4.27768C13.6324 4.31743 13.8859 4.43417 14.0918 4.61529C14.2828 4.78327 14.4255 5.00058 14.5045 5.24369C14.5835 5.4868 14.5958 5.74646 14.54 5.99463C14.4799 6.26216 14.3434 6.50559 14.1453 6.69864L11.746 9.03745L12.3124 12.3399C12.3833 12.7534 12.2695 13.1739 12 13.4934C11.7286 13.8153 11.3325 14 10.9135 14ZM7.28714 12.2496L7.29278 12.2525L10.2642 13.8147C10.4646 13.9201 10.6892 13.9758 10.9135 13.9758C11.3254 13.9758 11.7146 13.7943 11.9815 13.4778C12.2463 13.1637 12.3582 12.7504 12.2885 12.344L11.7199 9.02895L14.1284 6.68126C14.3231 6.4915 14.4572 6.25221 14.5163 5.98928C14.5711 5.74535 14.5591 5.49009 14.4814 5.25112C14.4038 5.01215 14.2635 4.79854 14.0758 4.63342C13.8734 4.45542 13.6242 4.34066 13.3552 4.3016L10.0267 3.81797L10.0239 3.81226L8.53825 0.801846C8.41793 0.558059 8.23179 0.356556 7.99999 0.219075C7.78491 0.0915414 7.53843 0.0241319 7.28717 0.0241319C7.0359 0.0241319 6.7894 0.0915414 6.57435 0.219075C6.34254 0.356532 6.15641 0.558059 6.03609 0.801846L4.54756 3.81792L4.54127 3.81884L1.21913 4.30157C0.950125 4.34066 0.70094 4.45539 0.498543 4.63339C0.310813 4.79852 0.170524 5.0121 0.0928759 5.25109C0.015228 5.49006 0.00317421 5.7453 0.0579973 5.98926C0.117105 6.25221 0.251246 6.4915 0.445922 6.68126L2.85439 9.02895L2.85332 9.03525L2.28582 12.344C2.21612 12.7504 2.32801 13.1637 2.59283 13.4778C2.85964 13.7943 3.2489 13.9758 3.66083 13.9758C3.88516 13.9758 4.10968 13.9201 4.31014 13.8147L7.28714 12.2496ZM10.9135 12.9631C10.8518 12.9631 10.7919 12.948 10.7355 12.9183L7.45389 11.1931C7.35153 11.1392 7.22293 11.1392 7.12047 11.1931L3.83888 12.9183C3.78241 12.948 3.7225 12.9631 3.66085 12.9631C3.54813 12.9631 3.44108 12.9128 3.36711 12.825C3.29408 12.7384 3.26458 12.6284 3.28399 12.5151L3.91072 8.861C3.93066 8.74479 3.89213 8.62626 3.80768 8.54394L1.15279 5.95607C1.04779 5.85374 1.01071 5.70352 1.05602 5.56406C1.10133 5.42459 1.21962 5.32487 1.36475 5.30379L5.03371 4.77066C5.1504 4.75369 5.25123 4.68042 5.30342 4.5747L6.94424 1.25007C7.00913 1.11856 7.14051 1.03687 7.28717 1.03687C7.4338 1.03687 7.5652 1.11856 7.63007 1.25007L9.27089 4.5747C9.32308 4.68045 9.42391 4.75371 9.54063 4.77066L13.2096 5.30379C13.3547 5.32487 13.473 5.42461 13.5183 5.56408C13.5636 5.70352 13.5265 5.85374 13.4215 5.95607L10.7666 8.54397C10.6822 8.62626 10.6437 8.74479 10.6636 8.86102L11.2903 12.5152C11.3098 12.6284 11.2802 12.7384 11.2072 12.825C11.1333 12.9128 11.0262 12.9631 10.9135 12.9631ZM7.28714 11.1277C7.34891 11.1277 7.41047 11.1429 7.46512 11.1716L10.7467 12.8969C10.7997 12.9247 10.8558 12.9388 10.9135 12.9388C11.019 12.9388 11.1194 12.8917 11.1887 12.8094C11.2571 12.7283 11.2847 12.6253 11.2665 12.5192L10.6398 8.86509C10.6185 8.74099 10.6596 8.61448 10.7498 8.52659L13.4046 5.93872C13.503 5.84284 13.5377 5.70214 13.4953 5.57154C13.4528 5.4409 13.342 5.34747 13.2061 5.3277L9.53712 4.79457C9.41256 4.77647 9.3049 4.69826 9.24918 4.58537L7.60836 1.26074C7.54756 1.13756 7.42448 1.06105 7.28714 1.06105C7.14978 1.06105 7.0267 1.13756 6.96593 1.26074L5.32511 4.58537C5.26939 4.69826 5.16175 4.77649 5.03717 4.79457L1.36821 5.32772C1.23228 5.34747 1.12147 5.4409 1.07904 5.57154C1.03661 5.70217 1.07134 5.84287 1.16968 5.93874L3.82455 8.52661C3.91471 8.6145 3.95583 8.74104 3.93453 8.86511L3.30781 12.5192C3.28963 12.6253 3.31725 12.7284 3.38558 12.8094C3.45492 12.8917 3.55525 12.9389 3.66081 12.9389C3.71851 12.9389 3.77462 12.9247 3.82758 12.8969L7.10917 11.1717C7.16387 11.1429 7.2254 11.1277 7.28714 11.1277Z" fill="#373B51" stroke="black" stroke-width="2" mask="url(#path-2-inside-1_163_17760)"/>
</svg>
