<svg width="29" height="14" viewBox="0 0 29 14" fill="none" xmlns="http://www.w3.org/2000/svg">
<path d="M21.7391 5.304C21.6727 5.09987 21.4962 4.95117 21.2838 4.92033L16.9013 4.2847L14.9404 0.314203C14.8454 0.121802 14.6494 0 14.4348 0H14.4346C14.2199 5.63895e-05 14.024 0.12197 13.929 0.314484L11.9703 4.28606L7.58816 4.92399C7.37579 4.95489 7.19935 5.10376 7.13304 5.30789C7.06678 5.51208 7.1221 5.73617 7.27587 5.88594L10.4478 8.97614L9.70033 13.341C9.66407 13.5525 9.75108 13.7663 9.92476 13.8924C10.023 13.9637 10.1393 14 10.2562 14C10.346 14 10.4362 13.9786 10.5187 13.9352L14.4378 11.8734L18.358 13.933C18.548 14.0328 18.7782 14.0161 18.9519 13.8899C19.1255 13.7637 19.2124 13.5499 19.1761 13.3383L18.4263 8.97394L21.5966 5.88211C21.7502 5.73222 21.8054 5.50813 21.7391 5.304ZM17.4266 8.37357C17.2938 8.50315 17.2332 8.68985 17.2646 8.87278L17.8711 12.4033L14.7 10.7371C14.5357 10.6509 14.3395 10.6509 14.1751 10.7373L11.0048 12.4051L11.6095 8.87425C11.6408 8.69126 11.5801 8.50467 11.4472 8.37514L8.88128 5.8754L12.4261 5.35938C12.6098 5.33265 12.7685 5.21722 12.8506 5.05076L14.4351 1.83802L16.0214 5.04985C16.1036 5.21626 16.2624 5.33157 16.446 5.35825L19.9912 5.87246L17.4266 8.37357Z" fill="#373B51"/>
<path d="M7.86693 9.28232C7.8005 9.07819 7.62406 8.92943 7.41164 8.89864L5.36708 8.60215L4.45222 6.74975C4.3572 6.55735 4.16125 6.43555 3.94663 6.43555H3.94646C3.73184 6.4356 3.53583 6.55752 3.44087 6.75003L2.52703 8.60282L0.482688 8.90045C0.270325 8.93135 0.0938831 9.08022 0.0275693 9.28435C-0.0386882 9.48853 0.0166297 9.71262 0.170403 9.8624L1.65023 11.3041L1.30152 13.3404C1.26526 13.5519 1.35227 13.7657 1.52595 13.8918C1.62418 13.9631 1.74045 13.9994 1.85735 13.9994C1.94718 13.9994 2.03729 13.978 2.11978 13.9347L3.94821 12.9728L5.77708 13.9336C5.96712 14.0334 6.19735 14.0167 6.37092 13.8905C6.5446 13.7643 6.6315 13.5505 6.59512 13.3389L6.2454 11.3029L7.72443 9.86042C7.87804 9.71054 7.9333 9.48645 7.86693 9.28232ZM5.24567 10.7024C5.11287 10.832 5.0522 11.0187 5.08366 11.2016L5.29016 12.4038L4.21036 11.8365C4.0461 11.7502 3.84981 11.7503 3.68555 11.8366L2.60597 12.4045L2.81185 11.2022C2.8432 11.0192 2.78247 10.8326 2.64956 10.703L1.77586 9.85185L2.98293 9.67614C3.16659 9.64941 3.32533 9.53398 3.40743 9.36752L3.94697 8.27356L4.48712 9.3673C4.56928 9.5337 4.72807 9.64902 4.91173 9.67569L6.11892 9.85072L5.24567 10.7024Z" fill="#373B51"/>
<path d="M28.8436 9.28435C28.7773 9.08022 28.6009 8.93135 28.3885 8.90045L26.3441 8.60282L25.4303 6.75003C25.3353 6.55752 25.1393 6.4356 24.9247 6.43555H24.9245C24.7099 6.43555 24.514 6.55735 24.4189 6.74975L23.5041 8.60215L21.4595 8.89864C21.2472 8.92943 21.0707 9.07819 21.0042 9.28232C20.9379 9.48645 20.9931 9.71054 21.1467 9.86042L22.6258 11.3029L22.276 13.3389C22.2397 13.5505 22.3266 13.7643 22.5002 13.8905C22.6739 14.0168 22.904 14.0335 23.0941 13.9336L24.9229 12.9728L26.7514 13.9347C26.8339 13.978 26.924 13.9995 27.0138 13.9995C27.1306 13.9995 27.247 13.9632 27.3453 13.8918C27.5189 13.7657 27.606 13.5518 27.5697 13.3403L27.221 11.304L28.7008 9.8624C28.8545 9.71262 28.9098 9.48853 28.8436 9.28435ZM26.2217 10.703C26.0887 10.8326 26.028 11.0192 26.0594 11.2022L26.2652 12.4045L25.1856 11.8366C25.1035 11.7934 25.0133 11.7718 24.9231 11.7718C24.833 11.7718 24.7429 11.7934 24.6609 11.8365L23.5811 12.4038L23.7876 11.2016C23.8191 11.0187 23.7584 10.832 23.6256 10.7024L22.7524 9.85072L23.9595 9.67569C24.1432 9.64902 24.302 9.5337 24.3841 9.3673L24.9243 8.27356L25.4638 9.36752C25.5459 9.53398 25.7047 9.64941 25.8883 9.67614L27.0953 9.85185L26.2217 10.703Z" fill="#373B51"/>
</svg>
