<svg width="23" height="16" viewBox="0 0 23 16" fill="none" xmlns="http://www.w3.org/2000/svg">
<path d="M16.8231 5.25367H5.01141C4.51029 5.25367 4.0455 5.0211 3.7362 4.61558C3.42746 4.21083 3.31872 3.69247 3.43784 3.19332C3.53652 2.77993 3.65625 2.36678 3.79376 1.96528C4.01103 1.3309 4.32169 0.738339 4.7171 0.204102L5.48693 0.806429C5.15265 1.25811 4.89 1.75916 4.70623 2.29566C4.5792 2.66658 4.46856 3.04836 4.37736 3.43032C4.32956 3.63071 4.37332 3.83896 4.49741 4.00168C4.62211 4.16517 4.80948 4.2589 5.01141 4.2589H16.8232V5.25367H16.8231Z" fill="#26828D"/>
<path d="M7.30078 12.2998H15.2201V13.2945H7.30078V12.2998Z" fill="#26828D"/>
<path d="M19.4351 4.7263L17.2891 4.36161C16.9563 4.30509 16.637 4.16633 16.3657 3.9603L12.4922 1.01928C11.6265 0.361975 10.5571 0 9.48092 0H5.3601C3.21331 0 1.29179 1.39885 0.578681 3.48091C0.194711 4.60205 0 5.77325 0 6.96195V11.053C0 12.2891 0.978042 13.2948 2.18017 13.2948V12.3001C1.51143 12.3001 0.967401 11.7406 0.967401 11.053V8.27349H2.04544C2.52188 8.27349 2.9095 7.87493 2.9095 7.38505V6.1704C2.9095 5.68052 2.52188 5.28192 2.04544 5.28192H1.11343C1.20068 4.78367 1.32644 4.29239 1.4912 3.81132C2.06821 2.12664 3.623 0.994732 5.36015 0.994732H9.48097C10.3518 0.994732 11.2171 1.28767 11.9176 1.81951L15.7911 4.76052C16.185 5.05956 16.6484 5.26099 17.1314 5.34305L19.0095 5.66216C18.8926 5.8214 18.8225 6.0188 18.8225 6.2332V7.32225C18.8225 7.84677 19.2375 8.27353 19.7477 8.27353H21.5402C21.5441 8.3347 21.5467 11.0531 21.5467 11.0531C21.5467 11.7407 21.0026 12.3001 20.3339 12.3001V13.2948C21.5361 13.2948 22.5141 12.2892 22.5141 11.0531V8.45832C22.514 6.59898 21.2191 5.02945 19.4351 4.7263ZM1.94214 6.27656V7.2788H0.967401V6.96195C0.967401 6.73267 0.975887 6.50416 0.991849 6.27661H1.94214V6.27656ZM19.7899 7.2788V6.27656H20.5264C20.8538 6.54427 21.1172 6.88712 21.2942 7.2788H19.7899Z" fill="#26828D"/>
<path d="M11.6439 7.24371C11.9111 7.24371 12.1276 7.02104 12.1276 6.74637C12.1276 6.4717 11.9111 6.24902 11.6439 6.24902H10.6204C10.3533 6.24902 10.1367 6.4717 10.1367 6.74637C10.1367 7.02104 10.3533 7.24371 10.6204 7.24371H11.6439Z" fill="#26828D"/>
<path d="M4.90584 9.03223C3.26694 9.03223 1.93359 10.4032 1.93359 12.0884C1.93359 13.7735 3.26694 15.1444 4.90584 15.1444C6.54475 15.1444 7.87814 13.7735 7.87814 12.0884C7.87814 10.4032 6.5448 9.03223 4.90584 9.03223ZM4.90584 14.1498C3.80037 14.1498 2.90099 13.225 2.90099 12.0884C2.90099 10.9517 3.80037 10.0269 4.90584 10.0269C6.01136 10.0269 6.91074 10.9517 6.91074 12.0884C6.91074 13.225 6.01136 14.1498 4.90584 14.1498Z" fill="#26828D"/>
<path d="M17.6051 9.03223C15.9662 9.03223 14.6328 10.4032 14.6328 12.0884C14.6328 13.7735 15.9662 15.1444 17.6051 15.1444C19.244 15.1444 20.5774 13.7735 20.5774 12.0884C20.5774 10.4032 19.244 9.03223 17.6051 9.03223ZM17.6051 14.1498C16.4996 14.1498 15.6002 13.225 15.6002 12.0884C15.6002 10.9517 16.4996 10.0269 17.6051 10.0269C18.7106 10.0269 19.61 10.9517 19.61 12.0884C19.61 13.225 18.7106 14.1498 17.6051 14.1498Z" fill="#26828D"/>
<path d="M4.90558 12.5865C5.17272 12.5865 5.38928 12.3638 5.38928 12.0891C5.38928 11.8145 5.17272 11.5918 4.90558 11.5918C4.63844 11.5918 4.42188 11.8145 4.42188 12.0891C4.42188 12.3638 4.63844 12.5865 4.90558 12.5865Z" fill="#26828D"/>
<path d="M17.6048 12.5865C17.8719 12.5865 18.0885 12.3638 18.0885 12.0891C18.0885 11.8145 17.8719 11.5918 17.6048 11.5918C17.3377 11.5918 17.1211 11.8145 17.1211 12.0891C17.1211 12.3638 17.3377 12.5865 17.6048 12.5865Z" fill="#26828D"/>
</svg>
