<svg width="15" height="18" viewBox="0 0 15 18" fill="none" xmlns="http://www.w3.org/2000/svg">
<path d="M7.03513 17.0379C6.965 17.0379 6.89487 17.0307 6.82522 17.0164L6.8216 17.0157C6.77574 17.0063 6.72729 16.9927 6.68069 16.976C5.07985 16.4021 3.75689 15.598 2.74834 14.586C1.86485 13.6995 1.1912 12.6205 0.746197 11.3789C-0.067199 9.10972 -0.0206277 6.597 0.0167523 4.57801L0.0173996 4.55052C0.0248432 4.38214 0.0298272 4.20465 0.0326752 4.00785C0.0454265 3.12696 0.72652 2.39842 1.58335 2.3492C3.55565 2.23593 5.08241 1.57373 6.38809 0.265282L6.39602 0.257595C6.7604 -0.0858816 7.30997 -0.0858483 7.67432 0.257595L7.68221 0.265282C8.98792 1.57373 10.5146 2.23596 12.487 2.3492C13.3438 2.39842 14.0249 3.12696 14.0376 4.00785C14.0405 4.20511 14.0455 4.38261 14.0529 4.55049L14.0532 4.56017C14.0905 6.58299 14.1369 9.10044 13.3205 11.3765C12.8751 12.6183 12.2014 13.6976 11.3182 14.5844C10.3105 15.5963 8.98903 16.4008 7.39042 16.9756C7.34356 16.9925 7.29466 17.0062 7.24517 17.0164C7.17546 17.0307 7.1053 17.0379 7.03513 17.0379ZM6.96601 16.2988C7.01238 16.3081 7.05931 16.308 7.10562 16.2985C7.12271 16.295 7.13944 16.2903 7.15527 16.2846C13.5124 13.9988 13.4148 8.5555 13.3414 4.57894C13.3338 4.40497 13.3286 4.22168 13.3257 4.01873C13.3185 3.52032 12.9326 3.10803 12.4472 3.08015C11.3672 3.01815 10.4193 2.80395 9.54934 2.42534C8.68073 2.04729 7.90895 1.51377 7.19003 0.794339C7.09967 0.711881 6.9707 0.711881 6.88027 0.794306C6.16135 1.5137 5.38951 2.04725 4.5209 2.42534C3.651 2.80395 2.7031 3.01812 1.62303 3.08015C1.13767 3.108 0.751796 3.52029 0.744578 4.01873C0.741666 4.22122 0.73652 4.40454 0.728882 4.57897L0.728656 4.59198C0.655061 8.56412 0.554248 14.0042 6.91487 16.2847C6.93063 16.2903 6.94743 16.295 6.96458 16.2985L6.96601 16.2988Z" fill="#26828D"/>
<path d="M7.033 12.6934C4.79411 12.6934 2.97266 10.8206 2.97266 8.51858C2.97266 6.21657 4.79411 4.34375 7.033 4.34375C9.27188 4.34375 11.0933 6.21657 11.0933 8.51858C11.0933 10.8206 9.27188 12.6934 7.033 12.6934ZM7.033 5.07583C5.18672 5.07583 3.68466 6.62024 3.68466 8.51858C3.68466 10.4169 5.18672 11.9613 7.033 11.9613C8.87928 11.9613 10.3813 10.4169 10.3813 8.51858C10.3813 6.62024 8.87928 5.07583 7.033 5.07583Z" fill="#26828D"/>
<path d="M8.84098 7.27907C8.70195 7.13614 8.47653 7.13614 8.3375 7.27907L6.28949 9.38481L5.66242 8.74002C5.52338 8.59707 5.29797 8.59707 5.15897 8.74002C5.01993 8.88298 5.01993 9.11475 5.15894 9.2577L6.03774 10.1613C6.04641 10.1703 6.05544 10.1786 6.06476 10.1864C6.13001 10.2412 6.20972 10.2685 6.28946 10.2685C6.30085 10.2685 6.31225 10.268 6.32357 10.2669C6.40299 10.259 6.48038 10.2239 6.54119 10.1613L8.84092 7.79674C8.97998 7.65379 8.97998 7.42202 8.84098 7.27907Z" fill="#26828D"/>
</svg>
