<svg width="19" height="19" viewBox="0 0 19 19" fill="none" xmlns="http://www.w3.org/2000/svg">
<path d="M13.224 14.8328H17.8413C18.1824 14.8328 18.1824 14.3051 17.8413 14.3051H13.224C12.6877 14.3051 12.2616 14.7716 12.2901 15.3011H8.09137C7.73722 15.3011 7.72702 14.9342 7.72702 14.8924C7.72702 14.851 7.73722 14.4878 8.09137 14.4878H8.45301C8.67689 14.4465 8.75456 14.3173 8.68596 14.1001C8.54686 13.8384 8.73876 13.5124 9.03472 13.5041C9.04633 13.5035 12.5917 13.5052 12.6023 13.5035H13.9098C14.0555 13.5035 14.1736 13.3854 14.1736 13.2397C14.1736 13.0939 14.0555 12.9758 13.9098 12.9758C13.8822 12.9772 9.04662 12.9741 9.02322 12.9764H5.65682C5.72844 12.4302 5.28811 11.9266 4.7357 11.9266H2.46248C3.3226 11.1671 4.12559 10.3417 4.85196 9.45333C5.20941 9.90555 5.60729 10.0099 5.89804 10.0099C7.51911 10.0995 7.88772 5.35261 9.17586 8.074C9.47773 8.64126 9.81992 9.28419 10.5047 9.28419C11.1178 9.28419 11.4086 8.81533 11.6424 8.43856C11.8256 8.1431 11.936 7.9888 12.0795 7.95243C13.3349 9.93313 15.0695 11.6205 16.9739 12.9759H15.0336C14.6849 12.9876 14.6839 13.4914 15.0336 13.5035H17.8405C18.103 13.5035 18.2006 13.1488 17.978 13.014C17.9652 13.0063 16.6839 12.2242 15.2303 10.872C14.5029 10.1953 13.6496 9.29548 12.8949 8.22334C16.4281 3.77448 11.1509 -2.11438 6.35755 0.950116C6.23664 1.03131 6.20441 1.19524 6.2856 1.31619C6.36683 1.43717 6.53077 1.46936 6.65171 1.38816C10.8579 -1.30865 15.5523 3.76375 12.5855 7.76531C12.0723 6.97055 11.6402 6.11651 11.345 5.21639C11.208 4.79875 10.8692 4.52886 10.4816 4.52886H7.67865C7.31877 4.52886 6.98918 4.77272 6.83897 5.15008C6.4825 6.04573 6.02679 6.88116 5.52448 7.64612C4.30838 6.00552 4.4504 3.55212 5.85945 2.06838C5.95805 1.96108 5.95105 1.7942 5.84379 1.69556C5.73646 1.59695 5.56964 1.60395 5.47097 1.71121C3.84528 3.42069 3.73422 6.2713 5.21015 8.10697C3.9994 9.82183 2.59352 11.14 1.65255 11.9265H0.357409C0.0162802 11.9265 0.0162802 12.4542 0.357409 12.4542H4.73573C5.05343 12.4542 5.25054 12.8236 5.06223 13.0867C5.00467 13.1671 4.99697 13.2729 5.04217 13.3609C5.08738 13.4488 5.17793 13.5041 5.27682 13.5041H8.20419C8.14642 13.6232 8.10463 13.8676 8.09137 13.9601C7.33077 13.945 6.9102 14.8722 7.41762 15.5233C7.58131 15.7203 7.8206 15.8288 8.09137 15.8288H11.4218C11.3617 15.9569 11.3291 16.1164 11.3345 16.2593H10.7461C10.0689 16.2473 9.59924 16.9996 9.90435 17.6003H4.94993C5.01561 17.4651 5.05009 17.2953 5.04196 17.1437C6.29137 17.1086 6.31874 15.3303 5.06303 15.275H3.75357C3.77324 14.7549 3.34054 14.3051 2.81905 14.3051H0.357409C0.0162802 14.3051 0.0162802 14.8328 0.357409 14.8328H2.81905C3.11656 14.8328 3.31648 15.1557 3.18378 15.4208C3.12039 15.6358 3.19901 15.7631 3.41969 15.8027H5.06307C5.60285 15.8232 5.60278 16.5957 5.06307 16.6161H4.70143C4.47755 16.6574 4.39991 16.7866 4.46844 17.0037C4.60983 17.2696 4.40934 17.6004 4.10814 17.6004H0.357409C0.0162802 17.6004 0.0162802 18.128 0.357409 18.128C4.57971 18.127 13.6903 18.1289 17.8413 18.128C18.1824 18.128 18.1824 17.6004 17.8413 17.6004H10.7461C10.5215 17.6004 10.3387 17.4179 10.3387 17.1937C10.3387 16.9695 10.5215 16.787 10.7461 16.787H11.6684C11.8891 16.7474 11.9677 16.6201 11.9043 16.4051C11.7959 16.1885 11.9353 15.8862 12.1736 15.8288H12.6307C12.8545 15.7875 12.9322 15.6465 12.8636 15.4294C12.7223 15.1636 12.9227 14.8328 13.224 14.8328ZM7.32929 5.34525C7.39905 5.16989 7.53621 5.05658 7.67869 5.05658H10.4816C10.6346 5.05658 10.78 5.18688 10.8436 5.38085C11.089 6.129 11.4206 6.83543 11.8012 7.4932C11.5246 7.62808 11.3465 7.9145 11.194 8.16044C10.9639 8.53133 10.8027 8.75654 10.5047 8.75654C10.1625 8.75654 9.94079 8.38815 9.6417 7.82613C9.35974 7.29631 9.04014 6.6958 8.43095 6.6958C7.7737 6.6958 7.379 7.4499 6.99724 8.17912C6.6775 8.78993 6.31508 9.48228 5.89807 9.48228C5.63314 9.48228 5.39628 9.32827 5.19239 9.02485C5.39044 8.76777 5.57911 8.50899 5.75806 8.24874C5.76095 8.24462 5.7639 8.24051 5.76654 8.23625C6.41745 7.2879 6.94127 6.32027 7.32929 5.34525Z" fill="#26828D" stroke="#26828D" stroke-width="0.2"/>
</svg>
