<svg width="15" height="18" viewBox="0 0 15 18" fill="none" xmlns="http://www.w3.org/2000/svg">
<path d="M7.29117 14.265H6.87092L7.73039 12.7461L7.11495 12.3779L6.25191 13.9031L5.38888 12.3779L4.77344 12.7461L5.63291 14.265H5.21266C5.01604 14.265 4.85665 14.4289 4.85665 14.631V16.6718H5.56867V14.9971H6.9352V16.6718H7.64722V14.631C7.64718 14.4289 7.48779 14.265 7.29117 14.265Z" fill="#26828D"/>
<path d="M11.956 11.2539L11.3867 11.6936C11.6547 12.0605 11.7964 12.4972 11.7964 12.9565V14.2567H12.5084V12.9565C12.5085 12.3373 12.3174 11.7486 11.956 11.2539Z" fill="#26828D"/>
<path d="M0.71202 12.957C0.71202 11.9193 1.43511 11.046 2.43135 10.8804L3.05334 10.777L4.44035 13.0207C4.49534 13.1096 4.58499 13.1699 4.68629 13.186C4.70448 13.1889 4.72267 13.1904 4.74082 13.1904C4.82381 13.1904 4.90488 13.1605 4.96938 13.105L6.25361 11.9993L7.53783 13.105C7.60233 13.1605 7.68341 13.1904 7.76639 13.1904C7.78451 13.1904 7.80274 13.1889 7.82092 13.186C7.92226 13.1699 8.01184 13.1096 8.06686 13.0207L9.45381 10.777L10.0758 10.8804C10.2191 10.9042 10.3599 10.9436 10.4944 10.9976L10.7532 10.3156C10.572 10.2429 10.3823 10.1897 10.1895 10.1577L7.93514 9.78299V9.08837C8.81099 8.51497 9.39326 7.50781 9.39326 6.36338V5.49671H10.1327C10.2583 5.49671 10.3747 5.42862 10.4388 5.31751C10.5029 5.20643 10.5054 5.0688 10.4452 4.95539L9.64884 3.45406L9.18367 1.65114C8.93281 0.678952 8.07444 0 7.09622 0H5.41093C4.43268 0 3.57431 0.678985 3.32351 1.65114L2.85831 3.45406L2.06194 4.95539C2.00181 5.0688 2.00424 5.20643 2.06835 5.31751C2.1325 5.42859 2.24885 5.49671 2.37449 5.49671H3.11392V6.36338C3.11392 7.50781 3.69616 8.51497 4.57204 9.08837V9.78299L2.31775 10.1577C1.67166 10.2651 1.08221 10.6065 0.657971 11.1189C0.233737 11.6313 0 12.284 0 12.957V16.6718C0 16.874 0.159395 17.0379 0.35601 17.0379H12.3375V16.3058H0.71202V12.957ZM5.28403 10.0073V9.43385C5.58952 9.53608 5.91533 9.59159 6.25357 9.59159C6.59182 9.59159 6.91763 9.53608 7.22312 9.43385V10.0073L6.25357 11.0042L5.28403 10.0073ZM8.68875 10.6499L7.6837 12.2757L6.78034 11.498L7.756 10.4948L8.68875 10.6499ZM4.01168 1.83886C4.17985 1.18723 4.75519 0.732096 5.41093 0.732096H7.09622C7.75192 0.732096 8.3273 1.18723 8.49543 1.83886L8.85297 3.22458H3.65412L4.01168 1.83886ZM2.97417 4.76461L3.40271 3.95671H9.1044L9.53298 4.76461H2.97417ZM3.82591 6.36338V5.49671H8.68124V6.36338C8.68124 7.73972 7.5922 8.85949 6.25357 8.85949C4.91494 8.85949 3.82591 7.73972 3.82591 6.36338ZM4.75118 10.4948L5.72681 11.4979L4.82345 12.2757L3.81837 10.6498L4.75118 10.4948Z" fill="#26828D"/>
<path d="M13.7104 8.70996H10.1451C10.0137 8.70996 9.89298 8.78437 9.83106 8.9035C9.76915 9.02263 9.77611 9.16719 9.84915 9.27947L10.4968 10.2752L9.84915 11.2709C9.77611 11.3832 9.76915 11.5277 9.83106 11.6469C9.89298 11.766 10.0137 11.8404 10.1451 11.8404H13.3544V14.4481H14.0664V9.07601C14.0664 8.87385 13.907 8.70996 13.7104 8.70996ZM11.221 10.0717L10.8114 9.44206H13.3544V11.1084H10.8114L11.221 10.4787C11.3011 10.3555 11.3011 10.1949 11.221 10.0717Z" fill="#26828D"/>
<path d="M13.1807 17.0374H12.3378C11.6755 17.0374 11.1367 16.4834 11.1367 15.8024V15.1256C11.1367 14.4447 11.6755 13.8906 12.3378 13.8906H13.1807C13.843 13.8906 14.3818 14.4446 14.3818 15.1256V15.8024C14.3818 16.4834 13.843 17.0374 13.1807 17.0374ZM12.3378 14.6228C12.0681 14.6228 11.8487 14.8483 11.8487 15.1256V15.8025C11.8487 16.0798 12.0681 16.3053 12.3378 16.3053H13.1807C13.4504 16.3053 13.6698 16.0798 13.6698 15.8025V15.1256C13.6698 14.8483 13.4504 14.6228 13.1807 14.6228H12.3378Z" fill="#26828D"/>
<path d="M6.25431 7.90204C6.02737 7.90204 5.80049 7.81325 5.62773 7.63565C5.48869 7.49273 5.48866 7.26095 5.6277 7.11799C5.76671 6.975 5.99216 6.97504 6.13116 7.11796C6.19913 7.18778 6.30956 7.18778 6.37742 7.11796C6.5165 6.975 6.74185 6.975 6.88092 7.11796C7.01996 7.26092 7.01996 7.49269 6.88092 7.63565C6.70813 7.81325 6.48125 7.90204 6.25431 7.90204Z" fill="#26828D"/>
</svg>
