<svg width="18" height="18" viewBox="0 0 18 18" fill="none" xmlns="http://www.w3.org/2000/svg">
<path d="M8.08761 9.16962C7.87419 9.16962 7.70116 8.99172 7.70116 8.77227V6.94443C7.70116 6.40901 7.2775 5.97341 6.75677 5.97341H4.85401C4.33328 5.97341 3.90963 6.40901 3.90963 6.94443V8.77227C3.90963 8.99172 3.7366 9.16962 3.52317 9.16962C3.30974 9.16962 3.13672 8.99172 3.13672 8.77227V6.94443C3.13672 5.97081 3.9071 5.17871 4.85401 5.17871H6.75677C7.70369 5.17871 8.47407 5.97081 8.47407 6.94443V8.77227C8.47407 8.99172 8.30104 9.16962 8.08761 9.16962Z" fill="#26828D"/>
<path d="M14.4666 9.16962C14.2531 9.16962 14.0801 8.99172 14.0801 8.77227V6.94443C14.0801 6.40901 13.6564 5.97341 13.1357 5.97341H11.2329C10.7122 5.97341 10.2885 6.40901 10.2885 6.94443V8.77227C10.2885 8.99172 10.1155 9.16962 9.90208 9.16962C9.68865 9.16962 9.51562 8.99172 9.51562 8.77227V6.94443C9.51562 5.97081 10.286 5.17871 11.2329 5.17871H13.1357C14.0826 5.17871 14.853 5.97081 14.853 6.94443V8.77227C14.853 8.99172 14.68 9.16962 14.4666 9.16962Z" fill="#26828D"/>
<path d="M16.8242 8.71804V3.83681C16.8242 2.97261 16.2053 2.2542 15.3994 2.12546C15.5026 1.92357 15.5611 1.69361 15.5611 1.44979C15.5611 0.650353 14.9324 0 14.1595 0C13.3866 0 12.7578 0.650353 12.7578 1.44979C12.7578 1.68538 12.8125 1.90804 12.9093 2.10491H5.07842C5.17525 1.90804 5.22988 1.68538 5.22988 1.44979C5.22988 0.650353 4.60108 0 3.82821 0C3.05534 0 2.42654 0.650353 2.42654 1.44979C2.42654 1.69361 2.48504 1.92357 2.58829 2.12546C1.78232 2.2542 1.16351 2.97261 1.16351 3.83681V8.71804C0.488021 8.9511 0 9.60814 0 10.3802V14.621C0 14.8404 0.173026 15.0183 0.386454 15.0183H0.989322V16.6405C0.989322 16.86 1.16235 17.0379 1.37578 17.0379H2.71596C2.8293 17.0379 2.93691 16.9867 3.01033 16.898L4.56539 15.0183H13.3051L14.8602 16.898C14.9336 16.9867 15.0412 17.0379 15.1545 17.0379H16.4947C16.7081 17.0379 16.8811 16.86 16.8811 16.6405V15.0183H17.6012C17.8146 15.0183 17.9877 14.8404 17.9877 14.621V10.3802C17.9877 9.60814 17.4996 8.9511 16.8242 8.71804ZM13.5307 1.44979C13.5307 1.08856 13.8127 0.7947 14.1594 0.7947C14.5061 0.7947 14.7882 1.08856 14.7882 1.44979C14.7882 1.81101 14.5061 2.10491 14.1594 2.10491C13.8127 2.10491 13.5307 1.81101 13.5307 1.44979ZM3.82821 0.7947C4.17493 0.7947 4.45697 1.08856 4.45697 1.44979C4.45697 1.81101 4.17493 2.10491 3.82821 2.10491C3.48149 2.10491 3.19945 1.81101 3.19945 1.44979C3.19945 1.08856 3.48153 0.7947 3.82821 0.7947ZM2.84792 2.89961H15.1397C15.6423 2.89961 16.0512 3.32004 16.0512 3.83681V8.62752H1.93641V3.83681C1.93641 3.32004 2.34532 2.89961 2.84792 2.89961ZM1.70461 9.42222H16.2831C16.7968 9.42222 17.2148 9.85193 17.2148 10.3802V11.4256H0.772908V10.3802C0.772908 9.85193 1.19084 9.42222 1.70461 9.42222ZM2.53732 16.2432H1.76223V15.0183H3.55067L2.53732 16.2432ZM16.1083 16.2432H15.3332L14.3199 15.0183H16.1083V16.2432ZM0.772908 14.2236V12.2203H17.2148V14.2236H0.772908Z" fill="#26828D"/>
</svg>
