<svg width="17" height="18" viewBox="0 0 17 18" fill="none" xmlns="http://www.w3.org/2000/svg">
<path d="M9.03451 11.7617C8.94341 11.7617 8.8523 11.7259 8.78278 11.6545C8.50947 11.3734 8.06465 11.3734 7.79134 11.6545C7.6523 11.7974 7.42688 11.7974 7.28785 11.6545C7.14884 11.5115 7.14884 11.2797 7.28785 11.1368C7.83882 10.5703 8.73527 10.5703 9.28624 11.1368C9.42525 11.2797 9.42525 11.5115 9.28624 11.6545C9.21672 11.7259 9.12562 11.7617 9.03451 11.7617Z" fill="#26828D"/>
<path d="M10.9013 9.83987C10.8102 9.83987 10.719 9.80413 10.6495 9.73262C9.40606 8.39965 7.16371 8.39972 5.92027 9.73262C5.78124 9.87561 5.55585 9.87564 5.41678 9.73265C5.27774 9.58973 5.27774 9.35796 5.41675 9.215C6.18233 8.42774 7.20093 7.99414 8.2849 7.99414C9.36888 7.99414 10.3874 8.4277 11.1531 9.215C11.2921 9.35796 11.2921 9.58973 11.153 9.73265C11.0835 9.80413 10.9924 9.83987 10.9013 9.83987Z" fill="#26828D"/>
<path d="M12.7724 7.91845C12.6813 7.91845 12.5902 7.88271 12.5207 7.81123C10.1862 5.41101 6.38759 5.41101 4.05303 7.81123C3.914 7.95416 3.68858 7.95412 3.54957 7.81123C3.41054 7.66828 3.41057 7.4365 3.54961 7.29355C6.16176 4.60788 10.412 4.60788 13.0242 7.29355C13.1632 7.4365 13.1632 7.66828 13.0242 7.81123C12.9547 7.88271 12.8635 7.91845 12.7724 7.91845Z" fill="#26828D"/>
<path d="M12.0575 17.0378H4.51314C1.63784 17.0514 -0.013158 15.3537 7.89908e-05 12.3974V4.64046C-0.013158 1.68412 1.63787 -0.013529 4.51314 8.12133e-05H12.0575C14.9328 -0.013529 16.5838 1.68415 16.5706 4.64046V12.3974C16.5838 15.3538 14.9328 17.0514 12.0575 17.0378ZM4.51314 0.73217C2.0265 0.73217 0.712125 2.08361 0.712125 4.64043V12.3974C0.712125 14.9542 2.0265 16.3057 4.51314 16.3057H12.0575C14.5442 16.3057 15.8586 14.9542 15.8586 12.3974V4.64046C15.8586 2.08364 14.5442 0.732203 12.0575 0.732203L4.51314 0.73217Z" fill="#26828D"/>
</svg>
