<svg width="20" height="18" viewBox="0 0 20 18" fill="none" xmlns="http://www.w3.org/2000/svg">
<path d="M11.7768 17.0375C11.6905 17.0375 11.6043 17.0097 11.5317 16.954L7.00324 13.482C6.86259 13.3742 6.80522 13.1864 6.86085 13.0159C6.91647 12.8455 7.07253 12.7305 7.24834 12.7305H16.3431C16.5192 12.7305 16.6755 12.8459 16.7308 13.0167C16.7862 13.1876 16.7281 13.3756 16.5868 13.483L12.0206 16.955C11.9482 17.01 11.8625 17.0375 11.7768 17.0375ZM8.47363 13.5655L11.7778 16.0989L15.1095 13.5655H8.47363Z" fill="#26828D"/>
<path d="M4.9475 4.30666C4.92114 4.30666 4.89403 4.304 4.86767 4.29869C4.84168 4.29299 4.81606 4.28502 4.79155 4.27477C4.76668 4.26415 4.74291 4.25124 4.721 4.23644C4.69835 4.22087 4.67756 4.20341 4.659 4.18443C4.64006 4.16508 4.62298 4.14382 4.60813 4.12104C4.59327 4.09827 4.58065 4.07398 4.57062 4.04892C4.56023 4.02349 4.55243 3.9973 4.54723 3.97073C4.54203 3.94378 4.53906 3.91645 4.53906 3.88912C4.53906 3.86179 4.54203 3.83446 4.54723 3.80751C4.55243 3.78094 4.56023 3.75475 4.57062 3.72932C4.58065 3.70427 4.59327 3.67997 4.60813 3.6572C4.62298 3.63442 4.64006 3.61317 4.659 3.59381C4.67756 3.57483 4.69835 3.55699 4.721 3.54181C4.74291 3.527 4.76668 3.5141 4.79155 3.50347C4.81606 3.49322 4.84168 3.48525 4.86767 3.47994C4.9204 3.46893 4.97461 3.46893 5.02733 3.47994C5.05333 3.48525 5.07932 3.49322 5.10382 3.50347C5.1287 3.5141 5.15209 3.527 5.17437 3.54181C5.19665 3.55699 5.21744 3.57483 5.23638 3.59381C5.25532 3.61317 5.2724 3.63442 5.28725 3.6572C5.3021 3.67997 5.31473 3.70427 5.32475 3.72932C5.33515 3.75475 5.34295 3.78094 5.34815 3.80751C5.35334 3.83446 5.35594 3.86179 5.35594 3.88912C5.35594 3.91645 5.35334 3.94378 5.34815 3.97073C5.34295 3.9973 5.33515 4.02349 5.32475 4.04892C5.31473 4.07398 5.3021 4.09827 5.28725 4.12104C5.2724 4.14382 5.25532 4.16508 5.23638 4.18443C5.21744 4.20341 5.19665 4.22087 5.17437 4.23644C5.15209 4.25124 5.1287 4.26415 5.10382 4.27477C5.07932 4.28502 5.05333 4.29299 5.02733 4.29869C5.00097 4.30396 4.97424 4.30666 4.9475 4.30666Z" fill="#26828D"/>
<path d="M7.24828 3.14953C7.22155 3.14953 7.19482 3.14687 7.16845 3.14118C7.14246 3.13586 7.11684 3.12789 7.09196 3.11764C7.06746 3.10701 7.04369 3.09411 7.02141 3.0793C6.99914 3.06374 6.97834 3.04628 6.95941 3.0273C6.94047 3.00794 6.92339 2.98669 6.90854 2.96391C6.89406 2.94114 6.88143 2.91684 6.87103 2.89179C6.86101 2.86636 6.85321 2.84017 6.84764 2.8136C6.84244 2.78665 6.83984 2.75932 6.83984 2.73199C6.83984 2.70466 6.84244 2.67733 6.84764 2.65038C6.85321 2.62381 6.86101 2.59762 6.87103 2.57219C6.88143 2.54713 6.89406 2.52284 6.90854 2.50007C6.92339 2.47729 6.94047 2.45604 6.95941 2.43668C6.97834 2.41732 6.99914 2.39986 7.02141 2.38468C7.04369 2.36987 7.06746 2.35697 7.09196 2.34634C7.11684 2.33609 7.14246 2.32812 7.16845 2.32242C7.22118 2.3118 7.27539 2.3118 7.32812 2.32242C7.35411 2.32812 7.37973 2.33609 7.40461 2.34634C7.42911 2.35697 7.45288 2.36987 7.47515 2.38468C7.49743 2.39986 7.51823 2.41732 7.53716 2.43668C7.55573 2.45604 7.57281 2.47729 7.58803 2.50007C7.60251 2.52284 7.61514 2.54713 7.62553 2.57219C7.63556 2.59762 7.64336 2.62381 7.64856 2.65038C7.65412 2.67733 7.65672 2.70466 7.65672 2.73199C7.65672 2.75932 7.65412 2.78665 7.64856 2.8136C7.64336 2.84017 7.63556 2.86636 7.62553 2.89179C7.61514 2.91684 7.60251 2.94114 7.58803 2.96391C7.57281 2.98669 7.55573 3.00794 7.53716 3.0273C7.51823 3.04628 7.49743 3.06374 7.47515 3.0793C7.45288 3.09411 7.42911 3.10701 7.40461 3.11764C7.37973 3.12789 7.35411 3.13586 7.32812 3.14118C7.30175 3.14691 7.27502 3.14953 7.24828 3.14953Z" fill="#26828D"/>
<path d="M9.51391 5.46398C9.48717 5.46398 9.46044 5.46132 9.43408 5.45563C9.40809 5.45031 9.38247 5.44234 9.35759 5.4321C9.33308 5.42147 9.30932 5.40856 9.28704 5.39376C9.26476 5.37819 9.24397 5.36073 9.22503 5.34176C9.20609 5.3224 9.18901 5.30114 9.17416 5.27837C9.15968 5.25559 9.14706 5.2313 9.13666 5.20625C9.12663 5.18081 9.11884 5.15462 9.11364 5.12805C9.10807 5.1011 9.10547 5.07377 9.10547 5.04644C9.10547 5.01911 9.10807 4.99178 9.11364 4.96483C9.11884 4.93826 9.12663 4.91207 9.13666 4.88664C9.14706 4.86159 9.15968 4.83729 9.17416 4.81452C9.18901 4.79175 9.20609 4.77049 9.22503 4.75113C9.24397 4.73215 9.26476 4.71431 9.28704 4.69913C9.30932 4.68432 9.33308 4.67142 9.35759 4.66079C9.38247 4.65054 9.40809 4.64257 9.43408 4.63688C9.4868 4.62625 9.54101 4.62625 9.59374 4.63688C9.61973 4.64257 9.64535 4.65054 9.67023 4.66079C9.69474 4.67142 9.7185 4.68432 9.74078 4.69913C9.76306 4.71469 9.78385 4.73215 9.80279 4.75113C9.82172 4.77049 9.8388 4.79175 9.85366 4.81452C9.86814 4.83729 9.88076 4.86159 9.89116 4.88664C9.90118 4.91207 9.90898 4.93826 9.91418 4.96483C9.91975 4.99178 9.92235 5.01911 9.92235 5.04644C9.92235 5.07377 9.91975 5.1011 9.91418 5.12805C9.90898 5.15462 9.90118 5.18081 9.89116 5.20625C9.88076 5.2313 9.86814 5.25559 9.85366 5.27837C9.8388 5.30114 9.82172 5.3224 9.80279 5.34176C9.72667 5.41957 9.62159 5.46398 9.51391 5.46398Z" fill="#26828D"/>
<path d="M18.6096 7.77909H0.420159C0.194589 7.77909 0.0117188 7.59215 0.0117188 7.36155C0.0117188 3.30237 3.25908 0 7.25065 0H11.7791C15.7707 0 19.0181 3.30237 19.0181 7.36155C19.018 7.59219 18.8352 7.77909 18.6096 7.77909ZM0.841595 6.94402H18.1882C17.9758 3.53893 15.1823 0.835074 11.7791 0.835074H7.25065C3.84742 0.835074 1.05398 3.53897 0.841595 6.94402Z" fill="#26828D"/>
<path d="M10.6467 3.14943C10.62 3.14943 10.5933 3.14678 10.5669 3.14108C10.5409 3.13577 10.5153 3.1278 10.4904 3.11755C10.4659 3.10692 10.4421 3.09401 10.4199 3.07921C10.3976 3.06365 10.3768 3.04619 10.3578 3.02721C10.3393 3.00785 10.3218 2.98659 10.307 2.96382C10.2925 2.94104 10.2799 2.91675 10.2695 2.8917C10.2594 2.86627 10.2516 2.84008 10.2464 2.8135C10.2409 2.78655 10.2383 2.75923 10.2383 2.7319C10.2383 2.70457 10.2409 2.67724 10.2464 2.65029C10.2516 2.62372 10.2594 2.59752 10.2695 2.57209C10.2799 2.54704 10.2925 2.52275 10.307 2.49997C10.3218 2.4772 10.3393 2.45594 10.3578 2.43658C10.3768 2.4176 10.3976 2.39976 10.4199 2.38458C10.4421 2.36978 10.4659 2.35687 10.4904 2.34624C10.5153 2.33599 10.5409 2.32802 10.5669 2.32271C10.6196 2.3117 10.6738 2.3117 10.7266 2.32271C10.7525 2.32802 10.7782 2.33599 10.803 2.34624C10.8275 2.35687 10.8513 2.36978 10.8736 2.38458C10.8959 2.39976 10.9167 2.4176 10.9356 2.43658C10.9542 2.45594 10.9712 2.4772 10.9865 2.49997C11.001 2.52275 11.0136 2.54704 11.024 2.57209C11.034 2.59752 11.0418 2.62372 11.047 2.65029C11.0526 2.67724 11.0552 2.70457 11.0552 2.7319C11.0552 2.75923 11.0526 2.78655 11.047 2.8135C11.0418 2.84008 11.034 2.86627 11.024 2.8917C11.0136 2.91675 11.001 2.94104 10.9865 2.96382C10.9712 2.98659 10.9542 3.00785 10.9356 3.02721C10.9167 3.04619 10.8959 3.06365 10.8736 3.07921C10.8513 3.09401 10.8275 3.10692 10.803 3.11755C10.7782 3.1278 10.7525 3.13577 10.7266 3.14108C10.7002 3.14681 10.6735 3.14943 10.6467 3.14943Z" fill="#26828D"/>
<path d="M12.9475 4.30666C12.9208 4.30666 12.894 4.304 12.8677 4.29831C12.8417 4.29299 12.8157 4.28502 12.7912 4.27477C12.7667 4.26415 12.7429 4.25124 12.7206 4.23644C12.6984 4.22125 12.6772 4.20379 12.6586 4.18443C12.6397 4.16508 12.6226 4.14382 12.6078 4.12104C12.5929 4.09827 12.5803 4.07398 12.5703 4.04892C12.5599 4.02349 12.5521 3.9973 12.5469 3.97073C12.5417 3.94378 12.5391 3.91645 12.5391 3.88912C12.5391 3.86179 12.5417 3.83446 12.5469 3.80751C12.5521 3.78094 12.5599 3.75475 12.5703 3.72932C12.5803 3.70427 12.5929 3.67997 12.6078 3.6572C12.6226 3.63442 12.6397 3.61317 12.6586 3.59381C12.6772 3.57483 12.6984 3.55737 12.7206 3.54181C12.7429 3.527 12.7667 3.5141 12.7912 3.50347C12.8157 3.49322 12.8417 3.48525 12.8677 3.47994C12.9204 3.46893 12.9746 3.46893 13.0273 3.47994C13.0533 3.48525 13.0789 3.49322 13.1035 3.50347C13.1283 3.5141 13.1521 3.527 13.174 3.54181C13.1967 3.55737 13.2174 3.57483 13.2364 3.59381C13.2549 3.61317 13.272 3.63442 13.2869 3.6572C13.3017 3.67997 13.3144 3.70427 13.3244 3.72932C13.3348 3.75475 13.3426 3.78094 13.3478 3.80751C13.353 3.83446 13.3559 3.86179 13.3559 3.88912C13.3559 3.91645 13.353 3.94378 13.3478 3.97073C13.3426 3.9973 13.3348 4.02349 13.3244 4.04892C13.3144 4.07398 13.3017 4.09827 13.2869 4.12104C13.272 4.14382 13.2549 4.16508 13.2364 4.18443C13.2174 4.20379 13.1967 4.22125 13.174 4.23644C13.1521 4.25124 13.1283 4.26415 13.1035 4.27477C13.0789 4.28502 13.0533 4.29299 13.0273 4.29831C13.001 4.30396 12.9739 4.30666 12.9475 4.30666Z" fill="#26828D"/>
<path d="M18.4809 8.35072C18.3831 8.14324 18.2833 7.94935 18.1916 7.7793H17.2503C17.7313 8.66474 18.4349 9.91295 18.1145 10.4786C18.0526 10.5878 17.9947 10.5504 17.9683 10.5437C17.9084 10.5159 17.785 10.3225 17.7109 10.2063C17.1096 9.00818 15.7298 8.98393 14.9232 9.95994C14.664 10.2248 14.4767 10.4162 14.0799 10.4162C13.6791 10.4162 13.4836 10.2228 13.2129 9.95508C12.4747 9.04443 11.0815 9.03289 10.357 9.95994C9.87648 10.5652 9.15057 10.565 8.67032 9.95983C7.95061 9.03282 6.54543 9.04656 5.81436 9.9552C5.54371 10.2228 5.34818 10.4163 4.94739 10.4163C4.55053 10.4163 4.36328 10.2248 4.10411 9.9599C3.31333 8.98586 1.90247 9.01251 1.31643 10.2064C1.26055 10.2939 1.17674 10.4252 1.11317 10.4966C1.05822 10.5583 0.958189 10.5516 0.914449 10.4812C0.913929 10.4803 0.913409 10.4795 0.912889 10.4786C0.578599 9.9191 1.29894 8.6644 1.77693 7.77934H0.835657C0.363945 8.60135 -0.152471 9.98685 0.0421318 10.5341C0.139972 11.2264 1.09609 11.5776 1.48667 11.2551C1.71202 11.1148 1.85872 10.8849 2.0006 10.6625C2.22554 10.31 2.37882 10.094 2.68318 10.094C3.08007 10.094 3.26732 10.2854 3.5265 10.5503C4.25772 11.4815 5.64534 11.4626 6.38246 10.555C6.87979 9.95432 7.60277 9.93458 8.09271 10.5504C8.81168 11.473 10.2168 11.4719 10.9346 10.5503C11.4223 9.93485 12.1501 9.95485 12.6448 10.5552C13.3709 11.4615 14.7827 11.4785 15.5008 10.5503C15.76 10.2854 15.9472 10.094 16.3441 10.094C16.6485 10.094 16.8018 10.31 17.0267 10.6625C17.2492 11.0176 17.498 11.3736 17.965 11.3782C18.3729 11.3869 18.9144 11.0242 18.9852 10.5341C19.0975 10.0234 18.9325 9.30927 18.4809 8.35072Z" fill="#26828D"/>
<path d="M18.6078 12.7307H17.4414C17.7185 12.3661 17.8841 11.9087 17.8841 11.4122C17.8841 11.3992 17.8836 11.3863 17.8833 11.3733C17.468 11.3307 17.2354 10.9962 17.0261 10.6623C16.8012 10.3098 16.6479 10.0938 16.3436 10.0938C16.2422 10.0938 16.1546 10.1064 16.076 10.1294C16.6548 10.2686 17.0672 10.7957 17.0672 11.4122C17.0672 12.1392 16.4887 12.7306 15.7775 12.7306H16.3436C16.5197 12.7306 16.676 12.846 16.7313 13.0169C16.7866 13.1878 16.7286 13.3758 16.5873 13.4832L16.4788 13.5657H18.1715C17.9717 15.0531 16.7204 16.2027 15.2114 16.2027H13.0108L12.0211 16.9552C11.9487 17.0102 11.863 17.0377 11.7773 17.0377H15.2114C17.3094 17.0377 19.0162 15.2929 19.0162 13.1482C19.0162 12.9176 18.8334 12.7307 18.6078 12.7307Z" fill="#26828D"/>
<path d="M10.5538 16.2027H3.81652C2.30752 16.2027 1.05621 15.0531 0.85641 13.5657H7.11449L7.00555 13.4822C6.8649 13.3744 6.80753 13.1866 6.86315 13.0162C6.91878 12.8457 7.07484 12.7307 7.25065 12.7307H3.25046C2.53929 12.7307 1.96072 12.1392 1.96072 11.4122C1.96072 10.7958 2.37317 10.2687 2.952 10.1294C2.87329 10.1064 2.78573 10.0938 2.6844 10.0938C2.38004 10.0938 2.22676 10.3098 2.00182 10.6623C1.85995 10.8846 1.71324 11.1146 1.4879 11.2549C1.39782 11.3293 1.27751 11.3674 1.14473 11.3742C1.14451 11.3869 1.14388 11.3995 1.14388 11.4123C1.14388 11.9087 1.30948 12.3661 1.58663 12.7307H0.420159C0.194589 12.7307 0.0117188 12.9177 0.0117188 13.1483C0.0117188 15.293 1.71855 17.0378 3.81652 17.0378H11.7791C11.6928 17.0378 11.6066 17.01 11.534 16.9543L10.5538 16.2027Z" fill="#26828D"/>
</svg>
