<svg width="25" height="15" viewBox="0 0 25 15" fill="none" xmlns="http://www.w3.org/2000/svg">
<path d="M24.0628 4.03814H16.2711L18.331 1.97823C18.6843 1.62495 18.6843 1.0502 18.331 0.696925L17.8994 0.265284C17.7283 0.0941899 17.5007 0 17.2587 0C17.0167 0 16.7892 0.0941899 16.6181 0.265284L12.8452 4.03814H12.2453C12.2469 4.01197 12.248 3.98575 12.248 3.95938C12.248 3.24605 11.6677 2.66578 10.9544 2.66578C10.2412 2.66578 9.66081 3.24615 9.66081 3.95938C9.66081 3.98575 9.66188 4.01202 9.66354 4.03814H0.937209C0.42046 4.03814 0 4.45855 0 4.97535V5.71534C0 6.15079 0.298926 6.51676 0.702052 6.62145L1.19986 9.75983C1.32881 10.573 2.01997 11.1632 2.84336 11.1632H4.48673L4.1609 11.5207C3.84444 11.8679 3.85679 12.4 4.18892 12.7321L5.86422 14.4074C6.02994 14.5731 6.25026 14.6643 6.48468 14.6643C6.70377 14.6643 6.91359 14.583 7.07565 14.4354L10.093 11.6854C10.2498 11.5425 10.3617 11.3607 10.4221 11.1632H19.3514C20.9175 11.1632 22.337 10.2988 23.0556 8.9072L24.2281 6.63707C24.6663 6.55866 25 6.17565 25 5.71534V4.97535C25 4.45855 24.5796 4.03814 24.0628 4.03814ZM10.9544 3.4504C11.235 3.4504 11.4634 3.67872 11.4634 3.95938C11.4634 3.98595 11.4608 4.01222 11.4568 4.03814H10.4519C10.4479 4.01222 10.4453 3.98595 10.4453 3.95938C10.4453 3.67872 10.6737 3.4504 10.9544 3.4504ZM5.7524 4.82276H12.0607L11.0155 5.86793H5.7524V4.82276ZM3.24166 4.82276H4.96778V5.86793H3.24166V4.82276ZM0.937209 5.86793C0.853078 5.86793 0.784621 5.79947 0.784621 5.71534V4.97535C0.784621 4.89122 0.853078 4.82276 0.937209 4.82276H2.45704V5.86793H0.937209ZM1.50137 6.65255H10.2308L8.73254 8.15085C8.65763 8.2257 8.5487 8.25807 8.44494 8.23669L8.01325 8.1466C7.93483 8.13024 7.85456 8.12189 7.77458 8.12189C7.57545 8.12189 7.38126 8.1734 7.20993 8.26798H1.75762L1.50137 6.65255ZM2.84332 10.3786C2.40816 10.3786 2.04292 10.0667 1.97476 9.63698L1.88208 9.05261H6.41032L5.20182 10.3786H2.84332ZM9.89069 9.30895C9.62731 9.57233 9.51555 9.94709 9.59167 10.3115L9.68171 10.7432C9.70935 10.8756 9.66437 11.0146 9.56442 11.1056L6.54713 13.8556C6.52516 13.8757 6.50104 13.8799 6.48468 13.8799C6.4671 13.8799 6.44147 13.8752 6.41901 13.8527L4.74366 12.1774C4.70855 12.1423 4.70728 12.0861 4.74073 12.0493L7.49074 9.032C7.56339 8.95231 7.66686 8.90661 7.77467 8.90661C7.80094 8.90661 7.82731 8.90939 7.85309 8.91472L8.28483 9.0048C8.35866 9.02018 8.43415 9.028 8.50944 9.028C8.80334 9.028 9.07961 8.91354 9.28742 8.70578L17.1729 0.820217C17.2023 0.790822 17.2359 0.78467 17.2588 0.78467C17.2818 0.78467 17.3153 0.790773 17.3447 0.820217L17.7764 1.25186C17.8237 1.29912 17.8237 1.37617 17.7764 1.42349L9.89069 9.30895ZM19.3514 10.3786H10.4071L10.3597 10.1512C10.3379 10.0467 10.37 9.93923 10.4455 9.86374L11.2567 9.05256H22.0386C21.4054 9.88225 20.4206 10.3786 19.3514 10.3786ZM22.5027 8.26798H12.0413L13.6568 6.6525H23.3372L22.5027 8.26798ZM24.0628 5.86798H14.4413L15.4865 4.82281H24.0629C24.147 4.82281 24.2155 4.89127 24.2155 4.9754V5.71539C24.2154 5.79952 24.147 5.86798 24.0628 5.86798Z" fill="#26828D"/>
</svg>
