<svg width="31" height="14" viewBox="0 0 31 14" fill="none" xmlns="http://www.w3.org/2000/svg">
<path d="M8.41632 1.29751L7.80922 2.50991L6.09402 2.26422L5.19928 0.477365C4.88063 -0.159211 3.95894 -0.159032 3.64041 0.477365L2.7456 2.26428L0.744991 2.55079C0.0323679 2.65283 -0.252379 3.51678 0.263229 4.0121L1.71094 5.40311L1.36916 7.36703C1.24679 8.06931 1.99562 8.599 2.63032 8.27024L4.41975 7.34298L5.91657 8.1186L5.63569 9.73269C5.50074 10.5074 6.32682 11.1009 7.03442 10.7344L9.25487 9.5838C9.27104 9.57544 9.29035 9.57532 9.3067 9.5838L11.3337 10.6341L10.9699 12.7242C10.8145 13.6171 11.7664 14.2905 12.5734 13.8726L14.6517 12.7956C14.8737 12.6806 14.9591 12.41 14.8423 12.1911C14.7256 11.9723 14.4509 11.8882 14.2291 12.0033L12.1507 13.0802C12.0057 13.1554 11.8372 13.0353 11.8649 12.8756L12.3925 9.84393C12.4699 9.39933 12.3588 9.05959 12.0885 8.8L9.795 6.59642C9.67646 6.48255 9.74251 6.28854 9.90417 6.26533L13.0739 5.81137C13.434 5.75974 13.7451 5.53691 13.9059 5.21549C14.1954 4.63734 15.034 2.9625 15.3234 2.38459C15.3705 2.29042 15.4543 2.27639 15.5 2.27639C15.5457 2.27639 15.6295 2.29042 15.6766 2.38459L17.094 5.21549C17.2549 5.53679 17.5659 5.7598 17.9262 5.81137L21.0957 6.26533C21.2532 6.28789 21.325 6.48094 21.2049 6.59642L18.9114 8.79994C18.6487 9.05231 18.5325 9.41372 18.5936 9.7642C18.8429 11.1971 18.8784 11.401 19.135 12.8757C19.1626 13.0352 18.9944 13.1556 18.8492 13.0803L16.7708 12.0033C16.5488 11.8883 16.2743 11.9724 16.1576 12.1912C16.0408 12.41 16.1262 12.6806 16.3482 12.7957L18.4265 13.8726C19.237 14.2925 20.1848 13.6136 20.03 12.7244L19.6663 10.6342L21.6933 9.58386C21.7094 9.57544 21.7288 9.57544 21.745 9.58391L23.9654 10.7344C24.6711 11.1003 25.4995 10.51 25.3642 9.73281L25.0833 8.11872L26.5801 7.3431L28.3696 8.27036C29.0058 8.60008 29.7528 8.06818 29.6308 7.36721L29.4495 6.32578C29.4072 6.08212 29.1728 5.91849 28.9252 5.96032C28.678 6.00215 28.512 6.23352 28.5544 6.47712L28.7223 7.44186L26.9847 6.54146C26.7312 6.41017 26.4288 6.41017 26.1757 6.54146L25.1233 7.08678L26.7526 5.52139C27.3246 4.97201 27.0086 4.01383 26.2183 3.90068L23.7359 3.54513C23.7177 3.5425 23.702 3.53128 23.6939 3.51505L23.6134 3.35428L25.0568 3.14756C25.3401 3.10704 25.5848 2.93171 25.7113 2.67885L26.5802 0.943682L27.449 2.67885C27.5757 2.93183 27.8204 3.10704 28.1036 3.14756L30.0464 3.42583L29.3548 4.09028C29.1752 4.2628 29.1716 4.54621 29.3466 4.72315C29.5218 4.90016 29.8092 4.90386 29.9887 4.73127L30.7367 4.01252C31.2524 3.51726 30.9676 2.65331 30.255 2.5512L28.2544 2.26464L27.3597 0.477723C27.0408 -0.158734 26.1194 -0.158674 25.8008 0.477723L24.906 2.26458L23.1908 2.51027L22.5838 1.29787C22.2303 0.591885 21.2082 0.592064 20.8548 1.29787L19.7446 3.51511C19.7364 3.53134 19.7207 3.54256 19.7026 3.54519L17.4333 3.87025L16.4911 1.98869C16.0858 1.17935 14.9142 1.1797 14.5091 1.98869L13.5669 3.87025L11.2976 3.54519C11.2793 3.54256 11.2636 3.53128 11.2555 3.51505L10.1454 1.29793C9.79185 0.591527 8.76966 0.591646 8.41632 1.29751ZM19.833 4.43068C20.1471 4.38568 20.4185 4.19137 20.5589 3.91089L21.669 1.6937C21.6737 1.68451 21.6844 1.66297 21.7191 1.66297C21.7538 1.66297 21.7646 1.68451 21.7692 1.6937C22.9504 4.05274 22.8843 3.92294 22.9072 3.96245C23.0552 4.21745 23.3137 4.38896 23.6052 4.43074L26.0877 4.78629C26.1335 4.79292 26.1533 4.84674 26.1186 4.88016L24.3223 6.60597C24.0951 6.82421 23.9914 7.13859 24.045 7.44706L24.4691 9.88403C24.4709 9.89412 24.475 9.91769 24.4469 9.9378C24.4189 9.95791 24.3974 9.94675 24.3881 9.94198L22.1678 8.79152C21.8869 8.64591 21.5516 8.64573 21.2705 8.79146L19.5049 9.70643C19.4909 9.62587 19.4837 9.60092 19.4863 9.56565C19.4898 9.51893 19.5105 9.47447 19.5453 9.44099L21.8388 7.23747C22.4928 6.60889 22.134 5.50952 21.2263 5.37948L18.0568 4.92558C17.9363 4.90833 17.9073 4.81709 17.8557 4.71408L19.833 4.43068ZM4.82432 6.54122C4.57106 6.40993 4.26857 6.40993 4.01537 6.54122L2.27765 7.44169L2.60956 5.53434C2.65787 5.25631 2.56433 4.97284 2.3595 4.77615L0.953692 3.42547L2.89654 3.1472C3.17966 3.10662 3.42432 2.93141 3.55098 2.6785L4.41981 0.943324L5.28871 2.67856C5.41537 2.93141 5.66003 3.10662 5.94321 3.1472L7.38674 3.35392L7.30621 3.51469C7.29804 3.53092 7.28236 3.54214 7.26425 3.54477L4.78176 3.90033C3.99139 4.01353 3.67565 4.97165 4.24744 5.52104L5.87679 7.08649L4.82432 6.54122ZM9.3308 1.69364L10.441 3.91095C10.5815 4.19143 10.8529 4.38574 11.1668 4.43062L13.1442 4.71384L13.0914 4.81923C13.0627 4.87646 13.0073 4.91621 12.9431 4.9254L9.77351 5.3793C8.87338 5.50827 8.50163 6.60358 9.16109 7.23729L11.4546 9.44087C11.5029 9.4873 11.5227 9.54715 11.5087 9.62796L11.495 9.70625L9.72943 8.7914C9.44856 8.64579 9.11308 8.64573 8.83214 8.79134L6.61175 9.94192C6.56997 9.96358 6.52293 9.9301 6.53074 9.88391L6.9548 7.44694C7.00851 7.13858 6.90485 6.82415 6.67756 6.60591L4.88123 4.88004C4.84727 4.84752 4.86549 4.79298 4.91217 4.78617L7.39467 4.43062C7.70902 4.38556 7.98021 4.19101 8.12049 3.91083C8.37678 3.39898 8.97758 2.19917 9.23072 1.69358C9.23532 1.68439 9.2461 1.66291 9.28073 1.66291C9.31542 1.66297 9.3262 1.68445 9.3308 1.69364Z" fill="#373B51"/>
</svg>
