<svg width="300" height="51" viewBox="0 0 300 51" fill="none" xmlns="http://www.w3.org/2000/svg">
<g clip-path="url(#clip0_163_17789)">
<path d="M63.3691 19.1959V17.9378C63.3727 17.8039 63.4287 17.6766 63.5253 17.5831C63.6219 17.4896 63.7513 17.4373 63.8861 17.4373H65.2467C65.3149 17.4379 65.3827 17.425 65.4459 17.3995C65.5092 17.3739 65.5667 17.3361 65.6152 17.2883C65.6637 17.2406 65.7021 17.1837 65.7284 17.121C65.7547 17.0584 65.7682 16.9911 65.7682 16.9232V13.5458C65.7682 13.4095 65.8227 13.2787 65.9196 13.1823C66.0166 13.0859 66.1481 13.0317 66.2852 13.0317H68.0085C68.1456 13.0317 68.2771 13.0859 68.3741 13.1823C68.4711 13.2787 68.5255 13.4095 68.5255 13.5458V16.9097C68.5243 16.9786 68.5369 17.047 68.5626 17.1109C68.5883 17.1749 68.6265 17.2331 68.675 17.2822C68.7236 17.3314 68.7815 17.3704 68.8454 17.397C68.9092 17.4236 68.9778 17.4373 69.0471 17.4373H75.2647C75.4022 17.4373 75.5342 17.4913 75.6318 17.5876C75.7295 17.6839 75.785 17.8146 75.7862 17.9514V19.1959C75.7803 19.3295 75.7228 19.4557 75.6256 19.5481C75.5285 19.6405 75.3991 19.6921 75.2647 19.6919H69.0471C68.9091 19.6931 68.7771 19.7481 68.6796 19.8451C68.582 19.9421 68.5267 20.0733 68.5255 20.2105V28.1829C68.5255 30.2873 68.8596 31.8009 69.5278 32.7238C70.1959 33.6467 71.2859 34.0976 72.7976 34.0766C73.6903 34.0785 74.5731 33.891 75.3871 33.5264C75.4542 33.4973 75.5268 33.4828 75.6001 33.4839C75.6733 33.4851 75.7455 33.5018 75.8116 33.533C75.8778 33.5642 75.9365 33.6091 75.9838 33.6648C76.031 33.7204 76.0657 33.7855 76.0855 33.8556L76.4619 35.1498C76.4974 35.2692 76.4886 35.3973 76.4369 35.5107C76.3853 35.6241 76.2944 35.7153 76.1807 35.7675C75.6665 36.0055 75.1284 36.1884 74.5753 36.3132C73.8953 36.481 73.1987 36.5732 72.4982 36.5882C70.2005 36.5882 68.5059 35.9118 67.4144 34.5591C66.323 33.2063 65.7788 31.1515 65.7818 28.3949V20.2286C65.7842 20.159 65.7726 20.0896 65.7474 20.0246C65.7223 19.9595 65.6843 19.9002 65.6356 19.8502C65.5869 19.8001 65.5286 19.7603 65.4641 19.7331C65.3996 19.7059 65.3303 19.6919 65.2603 19.6919H63.8997C63.7634 19.6956 63.6311 19.6455 63.5317 19.5526C63.4323 19.4597 63.3739 19.3315 63.3691 19.1959Z" fill="#34384C"/>
<path d="M185.422 19.1959V17.9378C185.427 17.8035 185.484 17.6761 185.581 17.5828C185.678 17.4894 185.808 17.4372 185.943 17.4373H187.304C187.441 17.4373 187.573 17.3831 187.67 17.2867C187.766 17.1903 187.821 17.0596 187.821 16.9232V13.5458C187.822 13.409 187.878 13.2783 187.975 13.182C188.073 13.0857 188.205 13.0317 188.342 13.0317H190.052C190.189 13.0317 190.321 13.0859 190.418 13.1823C190.515 13.2787 190.569 13.4095 190.569 13.5458V16.9097C190.567 16.9795 190.58 17.0489 190.606 17.1138C190.632 17.1787 190.671 17.2376 190.72 17.2869C190.77 17.3363 190.829 17.3751 190.895 17.4009C190.96 17.4268 191.03 17.4392 191.1 17.4373H197.34C197.477 17.4373 197.609 17.4915 197.706 17.5879C197.803 17.6843 197.857 17.815 197.857 17.9514V19.1959C197.852 19.3291 197.796 19.4553 197.699 19.5478C197.603 19.6404 197.474 19.692 197.34 19.6919H191.1C190.962 19.6931 190.831 19.7483 190.734 19.8454C190.637 19.9425 190.583 20.0738 190.583 20.2105V28.1829C190.583 30.2873 190.917 31.8009 191.585 32.7238C192.253 33.6467 193.342 34.0976 194.85 34.0766C195.743 34.0791 196.626 33.8915 197.44 33.5264C197.507 33.4973 197.58 33.4828 197.654 33.4839C197.727 33.485 197.8 33.5016 197.866 33.5328C197.933 33.564 197.992 33.6089 198.04 33.6645C198.087 33.7202 198.122 33.7853 198.143 33.8556L198.519 35.1498C198.554 35.2692 198.544 35.3969 198.493 35.5101C198.441 35.6233 198.351 35.7146 198.238 35.7675C197.724 36.0055 197.186 36.1884 196.633 36.3132C195.953 36.4805 195.256 36.5728 194.556 36.5882C192.252 36.5882 190.56 35.9118 189.467 34.5591C188.374 33.2063 187.835 31.15 187.835 28.3949V20.2286C187.837 20.1593 187.825 20.0903 187.801 20.0256C187.776 19.9609 187.738 19.9018 187.69 19.8518C187.642 19.8018 187.584 19.7618 187.52 19.7344C187.456 19.7069 187.387 19.6925 187.318 19.6919H185.957C185.82 19.6956 185.687 19.6457 185.587 19.5529C185.487 19.4601 185.428 19.3319 185.422 19.1959Z" fill="#34384C"/>
<path d="M97.3093 31.6148C96.4234 33.108 95.1763 34.3573 93.6813 35.2493C92.2461 36.1421 90.5874 36.6155 88.8945 36.6155C87.2016 36.6155 85.5429 36.1421 84.1077 35.2493C82.6127 34.3573 81.3656 33.108 80.4797 31.6148C79.5937 30.1758 79.123 28.5222 79.1191 26.835C79.1313 24.8927 79.7493 23.0021 80.8878 21.4238C81.5619 20.4531 82.396 19.6024 83.3549 18.9076C84.9384 17.686 86.8857 17.0229 88.89 17.0229C90.8942 17.0229 92.8415 17.686 94.425 18.9076C95.3813 19.6042 96.2124 20.4564 96.883 21.4283C98.0195 23.0071 98.6344 24.898 98.6427 26.8395C98.6439 28.5223 98.1828 30.1735 97.3093 31.6148ZM85.432 20.5039C84.3573 21.1575 83.475 22.0814 82.8742 23.1824C82.2524 24.3006 81.9263 25.5573 81.9263 26.835C81.9263 28.1126 82.2524 29.3694 82.8742 30.4875C83.475 31.5885 84.3573 32.5124 85.432 33.166C86.4397 33.7775 87.5921 34.1133 88.7723 34.1395C89.9526 34.1656 91.1189 33.8811 92.153 33.3148C93.341 32.6618 94.319 31.6879 94.9738 30.5055C95.5914 29.3796 95.915 28.1175 95.915 26.835C95.915 25.5524 95.5914 24.2904 94.9738 23.1644C94.3197 21.9857 93.3454 21.0137 92.162 20.3596C91.324 19.8982 90.396 19.6214 89.441 19.548C88.0361 19.4311 86.6307 19.7662 85.432 20.5039Z" fill="#34384C"/>
<path d="M104.828 17.4375C104.965 17.4375 105.097 17.4917 105.194 17.5881C105.291 17.6845 105.345 17.8152 105.345 17.9516V27.5879C105.345 29.6532 105.815 31.2585 106.756 32.4038C107.185 32.9328 107.727 33.3604 108.342 33.6559C108.958 33.9515 109.632 34.1075 110.316 34.1128C111.333 34.1656 112.339 33.8782 113.173 33.2966C114.07 32.6368 114.771 31.7468 115.2 30.7218C115.667 29.6506 115.901 28.4937 115.889 27.3264V17.938C115.893 17.8041 115.949 17.6767 116.045 17.5832C116.142 17.4898 116.271 17.4375 116.406 17.4375H118.152C118.289 17.4375 118.421 17.4917 118.518 17.5881C118.615 17.6845 118.669 17.8152 118.669 17.9516V35.7091C118.669 35.8455 118.615 35.9762 118.518 36.0726C118.421 36.169 118.289 36.2232 118.152 36.2232H116.406C116.269 36.2232 116.138 36.169 116.041 36.0726C115.944 35.9762 115.889 35.8455 115.889 35.7091V32.3181C115.294 33.5715 114.44 34.6857 113.381 35.5874C112.378 36.3187 111.155 36.6893 109.912 36.638C107.635 36.638 105.841 35.918 104.529 34.4781C103.217 33.0381 102.561 30.9894 102.561 28.3319V17.9606C102.56 17.8921 102.573 17.8242 102.599 17.7607C102.625 17.6973 102.663 17.6396 102.712 17.591C102.76 17.5423 102.818 17.5037 102.881 17.4774C102.945 17.4511 103.013 17.4375 103.082 17.4375H104.828Z" fill="#34384C"/>
<path d="M125.98 17.4374H127.731C127.868 17.4374 128 17.4915 128.097 17.5879C128.194 17.6843 128.248 17.8151 128.248 17.9514V19.8769C128.249 19.9844 128.283 20.089 128.347 20.176C128.41 20.263 128.5 20.328 128.602 20.3618C128.705 20.3957 128.816 20.3967 128.919 20.3647C129.022 20.3327 129.113 20.2693 129.178 20.1835C129.657 19.5426 130.218 18.9665 130.847 18.47C131.893 17.5862 133.448 17.1097 135.513 17.0405C135.649 17.0393 135.779 17.0911 135.877 17.1847C135.974 17.2783 136.031 17.4063 136.035 17.5411V19.2411C136.032 19.3752 135.979 19.5033 135.884 19.599C135.789 19.6946 135.662 19.7505 135.527 19.7551C134.305 19.8049 133.11 20.1221 132.026 20.684C130.887 21.2624 129.923 22.1306 129.232 23.2002C128.58 24.1942 128.232 25.3549 128.23 26.5416V35.6955C128.23 35.8318 128.175 35.9625 128.078 36.059C127.981 36.1554 127.85 36.2095 127.713 36.2095H125.962C125.825 36.2095 125.694 36.1554 125.597 36.059C125.5 35.9625 125.445 35.8318 125.445 35.6955V17.9379C125.447 17.87 125.462 17.8031 125.49 17.7411C125.518 17.6791 125.558 17.6232 125.608 17.5767C125.658 17.5301 125.716 17.4939 125.78 17.4699C125.844 17.446 125.912 17.435 125.98 17.4374Z" fill="#34384C"/>
<path d="M156.564 29.4817L159.911 17.7981C159.942 17.6905 160.008 17.5959 160.098 17.5284C160.188 17.461 160.297 17.4243 160.41 17.4238H162.392C162.473 17.4244 162.553 17.444 162.626 17.4808C162.698 17.5177 162.761 17.5709 162.809 17.6362C162.857 17.7015 162.889 17.7771 162.902 17.8568C162.916 17.9366 162.91 18.0184 162.886 18.0957L157.24 35.8488C157.206 35.9531 157.141 36.0442 157.052 36.109C156.963 36.1738 156.856 36.209 156.746 36.2095H156.174C156.071 36.2083 155.97 36.1769 155.885 36.1192C155.799 36.0614 155.733 35.9799 155.693 35.8848L150.705 23.4482C150.666 23.3528 150.599 23.2711 150.513 23.2136C150.427 23.156 150.326 23.1253 150.222 23.1253C150.118 23.1253 150.017 23.156 149.931 23.2136C149.845 23.2711 149.778 23.3528 149.739 23.4482L144.678 35.8848C144.639 35.9803 144.573 36.0621 144.487 36.1199C144.402 36.1777 144.301 36.2089 144.197 36.2095H143.626C143.515 36.209 143.408 36.1738 143.32 36.109C143.231 36.0442 143.165 35.9531 143.131 35.8488L137.517 18.0957C137.494 18.0192 137.49 17.9386 137.504 17.8602C137.519 17.7818 137.551 17.7077 137.599 17.6439C137.647 17.58 137.709 17.5281 137.781 17.4923C137.852 17.4565 137.931 17.4376 138.011 17.4374H140.029C140.142 17.4378 140.251 17.4745 140.341 17.542C140.431 17.6094 140.497 17.704 140.528 17.8116L143.875 29.4907C143.905 29.5933 143.966 29.6842 144.05 29.7508C144.133 29.8174 144.236 29.8564 144.343 29.8623C144.45 29.8682 144.557 29.8409 144.648 29.784C144.738 29.7271 144.809 29.6435 144.85 29.5448L149.925 17.4374H150.478L155.585 29.5538C155.628 29.6516 155.701 29.7336 155.793 29.7885C155.886 29.8435 155.993 29.8688 156.1 29.8609C156.207 29.853 156.309 29.8123 156.393 29.7444C156.476 29.6765 156.536 29.5847 156.564 29.4817Z" fill="#34384C"/>
<path d="M178.597 18.0325C179.711 18.5955 180.562 19.565 180.973 20.7381C181.433 21.9405 181.661 23.6556 181.658 25.8831V35.7044C181.658 35.8407 181.604 35.9715 181.507 36.0679C181.41 36.1643 181.278 36.2184 181.141 36.2184H179.431C179.294 36.2184 179.162 36.1644 179.064 36.0681C178.966 35.9719 178.911 35.8411 178.91 35.7044V33.116C178.123 34.2389 177.066 35.1476 175.835 35.7589C174.603 36.3702 173.238 36.6647 171.862 36.6152C170.701 36.6308 169.552 36.3777 168.506 35.8757C167.524 35.4035 166.699 34.6599 166.13 33.7338C165.537 32.7551 165.235 31.6294 165.259 30.4871C165.259 28.5722 165.927 27.0961 167.264 26.059C168.6 25.0219 170.467 24.5048 172.864 24.5078C174.676 24.5505 176.467 24.9044 178.157 25.554C178.237 25.5837 178.324 25.5932 178.409 25.5818C178.494 25.5703 178.575 25.5382 178.644 25.4882C178.714 25.4383 178.77 25.3721 178.807 25.2954C178.845 25.2188 178.863 25.1341 178.86 25.0489C178.856 24.0785 178.703 23.1144 178.406 22.19C178.148 21.3818 177.593 20.7005 176.851 20.2826C175.837 19.8044 174.741 19.5228 173.622 19.4529C173.321 19.4181 173.018 19.406 172.715 19.4168C172.068 19.4278 171.423 19.4775 170.783 19.5656L169.481 19.7866C168.765 19.8948 168.216 19.9895 167.84 20.0571C167.711 20.0806 167.578 20.0545 167.467 19.9842C167.357 19.9139 167.278 19.8046 167.246 19.6784L166.874 18.3391C166.857 18.2737 166.853 18.2055 166.862 18.1386C166.872 18.0717 166.894 18.0072 166.929 17.949C166.963 17.8908 167.009 17.8399 167.063 17.7993C167.118 17.7587 167.18 17.7291 167.246 17.7123C168.162 17.4792 169.092 17.3015 170.03 17.1802C170.995 17.0405 171.971 16.9786 172.946 16.9953L173.726 17.0314C175.849 17.1216 177.472 17.4553 178.597 18.0325ZM176.202 33.4046C177.219 32.8321 178.1 32.0476 178.783 31.1049C178.844 31.016 178.875 30.9104 178.873 30.8028V28.2595C178.874 28.157 178.843 28.0567 178.786 27.9716C178.729 27.8864 178.647 27.8202 178.551 27.7816C177.686 27.4171 176.794 27.1157 175.885 26.8797C175.077 26.6892 174.248 26.5968 173.418 26.6046C171.661 26.6046 170.325 26.9428 169.409 27.6192C168.96 27.9534 168.601 28.3924 168.364 28.8974C168.127 29.4023 168.018 29.9576 168.048 30.5142C168.025 31.0568 168.124 31.5978 168.34 32.0967C168.556 32.5957 168.883 33.0397 169.295 33.3956C170.121 34.1081 171.268 34.4643 172.728 34.4643C173.966 34.4605 175.175 34.0917 176.202 33.4046Z" fill="#34384C"/>
<path d="M206.025 35.2491C204.566 34.3516 203.36 33.1012 202.519 31.6146C201.666 30.1644 201.217 28.5147 201.217 26.8348C201.217 25.1549 201.666 23.5052 202.519 22.055C203.357 20.5731 204.548 19.3188 205.988 18.4024C207.371 17.4975 208.991 17.0162 210.646 17.0181C212.042 16.9991 213.428 17.2503 214.728 17.7576C215.882 18.2347 216.942 18.9126 217.857 19.7597C217.907 19.8064 217.947 19.8625 217.976 19.9248C218.004 19.987 218.02 20.0542 218.022 20.1226C218.024 20.1909 218.012 20.2589 217.988 20.3228C217.963 20.3866 217.927 20.4451 217.879 20.4947L216.827 21.604C216.781 21.6549 216.726 21.696 216.663 21.7248C216.601 21.7536 216.533 21.7695 216.465 21.7717C216.396 21.7738 216.328 21.762 216.264 21.7371C216.2 21.7121 216.142 21.6745 216.093 21.6266C215.475 20.9937 214.749 20.4759 213.947 20.0979C212.99 19.6919 211.954 19.498 210.914 19.5298C209.955 19.5249 209.008 19.7345 208.143 20.143C206.778 20.79 205.651 21.8447 204.918 23.1597C204.288 24.2807 203.962 25.546 203.975 26.8303C203.961 28.1091 204.286 29.369 204.918 30.4828C205.528 31.5676 206.411 32.4765 207.48 33.1207C208.535 33.7675 209.751 34.1066 210.991 34.0993C211.986 34.0863 212.966 33.8602 213.866 33.4364C214.668 33.0757 215.411 32.5968 216.07 32.016C216.168 31.922 216.299 31.8695 216.435 31.8695C216.571 31.8695 216.702 31.922 216.8 32.016L217.866 33.1162C217.915 33.1641 217.954 33.2213 217.981 33.2844C218.008 33.3475 218.021 33.4153 218.021 33.4837C218.021 33.5522 218.008 33.62 217.981 33.6831C217.954 33.7462 217.915 33.8034 217.866 33.8512C216.948 34.6623 215.895 35.3092 214.755 35.7632C213.486 36.2981 212.124 36.5801 210.746 36.5929C209.075 36.6026 207.437 36.1363 206.025 35.2491Z" fill="#34384C"/>
<path d="M236.364 36.2097C236.227 36.2097 236.096 36.1556 235.999 36.0592C235.902 35.9628 235.848 35.832 235.848 35.6957V26.0593C235.848 23.9941 235.377 22.3888 234.437 21.2434C233.666 20.3348 232.585 19.7406 231.402 19.5742C230.218 19.4078 229.014 19.681 228.02 20.3416C227.126 21.0032 226.426 21.8907 225.993 22.9118C225.528 23.9837 225.295 25.1404 225.308 26.3073V35.6866C225.308 35.7545 225.294 35.8218 225.268 35.8844C225.242 35.9471 225.203 36.004 225.155 36.0517C225.106 36.0995 225.049 36.1373 224.986 36.1629C224.922 36.1884 224.855 36.2013 224.786 36.2007H223.04C222.903 36.2007 222.772 36.1465 222.675 36.0501C222.578 35.9537 222.523 35.823 222.523 35.6866V9.48771C222.523 9.35137 222.578 9.22062 222.675 9.12422C222.772 9.02781 222.903 8.97365 223.04 8.97365H224.786C224.855 8.97306 224.922 8.98591 224.986 9.01148C225.049 9.03705 225.106 9.07482 225.155 9.12261C225.203 9.17041 225.242 9.22728 225.268 9.28994C225.294 9.35261 225.308 9.41982 225.308 9.48771V18.4116C225.308 18.5134 225.339 18.6128 225.396 18.6973C225.453 18.7818 225.534 18.8476 225.629 18.8862C225.723 18.9248 225.828 18.9346 225.928 18.9144C226.028 18.8941 226.12 18.8447 226.192 18.7723C226.599 18.3966 227.057 18.0794 227.553 17.8299C228.706 17.2686 229.979 16.9903 231.263 17.0182C233.539 17.0182 235.334 17.7382 236.646 19.1782C237.958 20.6181 238.614 22.6653 238.614 25.3198V35.6912C238.614 35.8275 238.559 35.9582 238.462 36.0547C238.366 36.1511 238.234 36.2052 238.097 36.2052L236.364 36.2097Z" fill="#34384C"/>
<path d="M260.694 31.6144C259.808 33.1075 258.561 34.3569 257.066 35.2489C255.631 36.1417 253.972 36.6151 252.279 36.6151C250.586 36.6151 248.928 36.1417 247.492 35.2489C245.997 34.3569 244.75 33.1075 243.864 31.6144C242.981 30.1745 242.51 28.5214 242.504 26.8345C242.516 24.8923 243.134 23.0016 244.273 21.4234C244.947 20.4526 245.781 19.602 246.74 18.9072C248.324 17.6852 250.272 17.022 252.277 17.022C254.282 17.022 256.23 17.6852 257.814 18.9072C258.778 19.6028 259.617 20.455 260.295 21.4279C261.431 23.0067 262.046 24.8976 262.055 26.839C262.05 28.5247 261.579 30.1767 260.694 31.6144ZM248.817 20.5035C247.742 21.1571 246.86 22.081 246.259 23.182C245.637 24.3001 245.311 25.5569 245.311 26.8345C245.311 28.1122 245.637 29.3689 246.259 30.4871C246.86 31.5881 247.742 32.512 248.817 33.1656C249.824 33.7771 250.977 34.1129 252.157 34.1391C253.337 34.1652 254.504 33.8807 255.538 33.3144C256.727 32.6628 257.705 31.6885 258.359 30.5051C258.98 29.3804 259.306 28.1179 259.306 26.8345C259.306 25.5512 258.98 24.2886 258.359 23.164C257.704 21.9853 256.73 21.0133 255.547 20.3592C254.709 19.8978 253.781 19.621 252.826 19.5475C251.421 19.431 250.016 19.7661 248.817 20.5035Z" fill="#34384C"/>
<path d="M268.214 17.4375C268.351 17.4375 268.483 17.4917 268.58 17.5881C268.677 17.6845 268.731 17.8152 268.731 17.9516V27.5879C268.731 29.6532 269.201 31.2585 270.142 32.4038C270.913 33.3128 271.995 33.9072 273.179 34.0735C274.364 34.2399 275.569 33.9665 276.563 33.3057C277.458 32.6443 278.157 31.7547 278.586 30.7309C279.053 29.6596 279.287 28.5028 279.275 27.3354V17.9381C279.279 17.8033 279.335 17.6753 279.433 17.5817C279.531 17.4881 279.661 17.4363 279.797 17.4375H281.543C281.678 17.4374 281.808 17.4896 281.905 17.583C282.003 17.6764 282.06 17.8037 282.064 17.9381V35.6956C282.063 35.8324 282.008 35.9631 281.91 36.0594C281.812 36.1557 281.68 36.2097 281.543 36.2097H279.797C279.66 36.2097 279.528 36.1555 279.431 36.0591C279.334 35.9627 279.28 35.8319 279.28 35.6956V32.3182C278.687 33.5725 277.832 34.6869 276.772 35.5874C275.769 36.3188 274.545 36.6893 273.303 36.6381C271.026 36.6381 269.232 35.9181 267.919 34.4781C266.607 33.0381 265.951 30.9894 265.951 28.332V17.9606C265.951 17.8925 265.964 17.8249 265.989 17.7618C266.015 17.6987 266.053 17.6412 266.101 17.5926C266.149 17.544 266.206 17.5053 266.269 17.4787C266.332 17.4521 266.4 17.4381 266.468 17.4375H268.214Z" fill="#34384C"/>
<path d="M286.885 19.1961V17.938C286.888 17.804 286.944 17.6767 287.041 17.5832C287.137 17.4897 287.267 17.4374 287.402 17.4375H288.762C288.899 17.4375 289.031 17.3833 289.128 17.2869C289.225 17.1905 289.279 17.0598 289.279 16.9234V13.546C289.28 13.4092 289.336 13.2785 289.434 13.1822C289.531 13.0859 289.663 13.0319 289.801 13.0319H291.511C291.58 13.0301 291.648 13.0421 291.713 13.0671C291.777 13.0921 291.835 13.1297 291.885 13.1776C291.934 13.2255 291.974 13.2828 292.001 13.3461C292.027 13.4093 292.041 13.4773 292.041 13.546V16.9099C292.039 16.9789 292.051 17.0476 292.077 17.1118C292.102 17.1761 292.141 17.2346 292.189 17.2838C292.238 17.333 292.296 17.372 292.36 17.3984C292.424 17.4248 292.493 17.4381 292.563 17.4375H298.798C298.93 17.442 299.055 17.4964 299.148 17.5894C299.24 17.6824 299.294 17.8071 299.297 17.938V19.1961C299.293 19.3262 299.239 19.4498 299.146 19.5419C299.054 19.6339 298.929 19.6876 298.798 19.6921H292.563C292.493 19.6921 292.423 19.7061 292.359 19.7333C292.294 19.7604 292.236 19.8003 292.187 19.8503C292.139 19.9004 292.101 19.9597 292.076 20.0247C292.05 20.0898 292.039 20.1591 292.041 20.2287V28.2011C292.041 30.3055 292.375 31.8191 293.043 32.742C293.712 33.6649 294.8 34.1158 296.309 34.0948C297.201 34.0977 298.085 33.9101 298.898 33.5446C298.966 33.5155 299.039 33.501 299.112 33.5021C299.186 33.5032 299.258 33.5199 299.325 33.551C299.391 33.5822 299.45 33.6271 299.498 33.6828C299.546 33.7384 299.581 33.8036 299.601 33.8738L299.978 35.168C300.012 35.2874 300.003 35.4151 299.951 35.5283C299.9 35.6415 299.809 35.7328 299.696 35.7858C299.182 36.0237 298.644 36.2066 298.091 36.3314C297.411 36.4992 296.714 36.5914 296.014 36.6065C293.71 36.6065 292.015 35.9301 290.93 34.5773C289.845 33.2245 289.299 31.1698 289.293 28.4131V20.2287C289.295 20.1595 289.284 20.0905 289.259 20.0258C289.234 19.9611 289.196 19.902 289.148 19.8519C289.1 19.8019 289.042 19.762 288.978 19.7346C288.914 19.7071 288.846 19.6927 288.776 19.6921H287.415C287.279 19.6958 287.147 19.6457 287.047 19.5528C286.948 19.4599 286.89 19.3317 286.885 19.1961Z" fill="#34384C"/>
<path d="M38.6169 11.7377C38.5378 11.5499 38.4203 11.3804 38.272 11.2399C38.1237 11.0994 37.9478 10.991 37.7553 10.9215C37.3516 10.7276 36.5852 10.5292 34.3902 10.66C32.0637 10.7772 29.1567 11.0793 25.7418 11.5618C25.7893 11.3693 25.7893 11.1682 25.7418 10.9756L25.7101 10.8809C25.6553 10.7147 25.5661 10.5618 25.4481 10.4321C25.3301 10.3024 25.1861 10.1987 25.0253 10.1279C24.7594 10.0196 24.4632 10.01 24.1908 10.1008C23.7373 10.2 23.438 10.6149 22.9119 11.413C22.726 11.6926 22.599 11.864 22.5129 12.0037C22.0594 12.0714 21.2158 12.2427 19.3882 12.6621C16.6919 13.2187 14.0499 14.0093 11.4926 15.025C8.97111 16.026 7.2886 16.9865 6.36798 17.8884C5.04827 19.1961 5.32037 20.3234 5.61062 20.9051C5.89557 21.4302 6.31083 21.8741 6.81695 22.1947C7.96886 22.9297 8.60377 22.3255 8.76703 22.1226C8.87348 22 8.95175 21.8558 8.9964 21.7C9.04104 21.5443 9.05098 21.3807 9.02553 21.2207C8.99031 21.0265 8.91279 20.8424 8.79841 20.6811C8.68403 20.5199 8.53556 20.3855 8.36341 20.2873L8.08677 20.0979C8.02058 20.0504 7.95839 19.9976 7.90083 19.9401H7.87816C7.9745 19.812 8.08393 19.6941 8.20469 19.5884C9.05274 18.7902 10.6899 17.9515 13.1343 17.0496C15.7918 16.0708 18.5208 15.2959 21.2975 14.7319L21.0072 15.3091C19.4063 18.5828 17.5696 22.799 15.5379 27.8404C11.3021 38.4236 11.4563 39.4788 11.5198 39.9884C11.5588 40.3747 11.7455 40.7315 12.0414 40.9849C12.2693 41.211 12.5766 41.3404 12.8985 41.3457C13.0974 41.3468 13.293 41.2954 13.4654 41.1969C13.7602 41.0526 14.1139 40.7008 14.0232 39.8441C14.0232 39.5915 14.1728 38.1982 17.0572 30.9067C19.3927 24.9409 21.6194 19.7958 23.6557 15.6337C24.082 14.786 24.3133 14.3711 24.4357 14.1682L25.243 14.051C34.7258 12.7478 36.4764 12.9958 36.7893 13.113C37.9095 13.6496 38.4265 12.9146 38.5217 12.7568L38.5534 12.6982C38.6291 12.5508 38.6738 12.3896 38.6847 12.2244C38.6956 12.0593 38.6726 11.8937 38.6169 11.7377Z" fill="#F74C4D"/>
<path d="M54.8571 27.2495C54.7256 26.7625 54.5895 26.28 54.4535 25.793L53.4966 22.3389C53.0854 20.8689 52.6712 19.3958 52.2539 17.9198C52.2539 17.8927 52.2539 17.8567 52.2222 17.8477C52.195 17.8477 52.1859 17.8792 52.1678 17.9018L50.9796 19.4484L49.1656 21.8384L46.7846 24.9453C46.6123 25.1662 46.44 25.3962 46.2722 25.6126C46.2722 25.6126 46.2314 25.6442 46.245 25.6713C46.25 25.6734 46.2554 25.6745 46.2608 25.6745C46.2663 25.6745 46.2717 25.6734 46.2767 25.6713H46.4581L49.9773 25.7073L52.1406 18.3572L51.5147 26.023L54.8208 27.2991C54.8208 27.2991 54.8571 27.2991 54.8752 27.2991C54.8798 27.3036 54.8571 27.2721 54.8571 27.2495Z" fill="#F74C4D"/>
<path d="M50.5846 26.6994H49.5007C49.3692 27.1503 49.2286 27.6373 49.0745 28.1017C47.5736 32.8133 45.0588 37.1433 41.7049 40.7909C35.5372 47.2301 26.3537 50.4137 17.7597 47.2617C10.4129 44.6193 4.7758 37.9094 3.07061 30.3699C0.204441 18.5646 8.3313 6.61501 19.7642 3.2601C25.3877 1.48795 31.6144 2.41686 36.7436 5.21262C42.1857 8.1662 45.4282 12.7882 44.7253 19.0877C44.0859 24.9768 41.2832 30.5458 37.9862 35.4203C36.6257 37.3187 35.1245 39.3524 33.1155 40.5519C32.6212 40.8315 32.1405 40.9126 31.9137 40.7097C31.8063 40.421 31.7511 40.1157 31.7505 39.8078C31.7452 38.8627 31.8287 37.9192 31.9999 36.9895C32.5593 34.0243 33.2876 31.0931 34.1813 28.21C34.7663 26.2665 35.3694 24.323 35.9953 22.3885C36.07 22.1446 36.0488 21.8815 35.9359 21.6525C35.8229 21.4236 35.6267 21.2458 35.387 21.1553C35.1472 21.0647 34.8818 21.0682 34.6445 21.1648C34.4072 21.2615 34.2156 21.4442 34.1087 21.676C33.3105 23.4391 32.4987 25.1978 31.6189 26.9203C30.7391 28.6429 29.8366 30.3429 28.848 31.9797C27.3968 34.2344 25.9047 36.8227 23.7098 38.2927C23.2971 38.5317 23.0431 38.5768 22.9479 38.4731C22.7556 37.6657 22.7019 36.8317 22.7891 36.0065C23.1973 31.3078 24.9433 26.7715 27.0612 22.5643C27.9228 20.8463 28.8752 19.1824 29.9183 17.5455C29.9962 17.3527 30.0048 17.139 29.9425 16.9406C29.8803 16.7422 29.751 16.5712 29.5766 16.4567C29.4022 16.3421 29.1933 16.291 28.9854 16.3119C28.7774 16.3328 28.5831 16.4245 28.4353 16.5715C25.0023 21.4956 22.2041 26.9068 20.9207 32.8004C20.5261 34.9243 20.1044 37.0482 20.7257 39.2262C20.8768 39.6684 21.1508 40.059 21.516 40.3527C21.8812 40.6464 22.3226 40.8311 22.7891 40.8856C24.7664 41.0163 26.1995 39.4471 27.3922 38.1484C28.3961 36.9274 29.323 35.6459 30.1677 34.311C29.2607 38.1259 28.9841 41.5259 30.3945 42.5314C33.9364 45.1874 38.1041 39.2171 39.8637 36.719C44.2265 30.0272 48.7933 20.9365 46.4124 12.8198C44.367 6.43013 38.0905 2.49803 31.9001 0.843126C27.6991 -0.294271 23.2609 -0.233328 19.093 1.01899C6.4175 4.63994 -2.49393 17.8882 0.626204 30.9155C2.50826 39.3208 8.70772 46.698 16.9026 49.6291C26.4263 53.1193 36.7572 49.6742 43.519 42.4954C47.4705 38.1444 50.2137 32.8448 51.478 27.1187L50.5846 26.6994Z" fill="#F74C4D"/>
</g>
<defs>
<clipPath id="clip0_163_17789">
<rect width="300" height="51" fill="white"/>
</clipPath>
</defs>
</svg>
