<svg width="150" height="26" viewBox="0 0 150 26" fill="none" xmlns="http://www.w3.org/2000/svg">
<g clip-path="url(#clip0_34861_18547)">
<path d="M31.6843 9.78608V9.1447C31.6861 9.0764 31.7141 9.0115 31.7624 8.96383C31.8107 8.91617 31.8754 8.88951 31.9428 8.88953H32.6231C32.6572 8.88983 32.6911 8.88328 32.7227 8.87024C32.7543 8.85721 32.7831 8.83795 32.8073 8.81359C32.8316 8.78922 32.8508 8.76023 32.864 8.72829C32.8771 8.69634 32.8839 8.66207 32.8839 8.62746V6.90562C32.8839 6.83612 32.9111 6.76946 32.9596 6.72031C33.008 6.67116 33.0738 6.64355 33.1424 6.64355H34.004C34.0726 6.64355 34.1383 6.67116 34.1868 6.72031C34.2353 6.76946 34.2625 6.83612 34.2625 6.90562V8.62057C34.2619 8.65567 34.2682 8.69054 34.281 8.72315C34.2939 8.75575 34.313 8.78544 34.3373 8.81048C34.3615 8.83552 34.3905 8.8554 34.4224 8.86898C34.4544 8.88255 34.4887 8.88954 34.5233 8.88953H37.6321C37.7008 8.88953 37.7668 8.91706 37.8157 8.96615C37.8645 9.01523 37.8922 9.08188 37.8928 9.1516V9.78608C37.8899 9.85419 37.8612 9.91851 37.8126 9.96563C37.764 10.0128 37.6993 10.039 37.6321 10.039H34.5233C34.4543 10.0396 34.3883 10.0676 34.3395 10.1171C34.2908 10.1665 34.2631 10.2334 34.2625 10.3033V14.3677C34.2625 15.4405 34.4296 16.2121 34.7636 16.6826C35.0977 17.1531 35.6427 17.383 36.3985 17.3723C36.8449 17.3733 37.2863 17.2777 37.6933 17.0918C37.7269 17.077 37.7632 17.0696 37.7998 17.0702C37.8364 17.0707 37.8725 17.0793 37.9056 17.0952C37.9387 17.1111 37.968 17.134 37.9916 17.1624C38.0153 17.1907 38.0326 17.2239 38.0425 17.2596L38.2307 17.9194C38.2485 17.9803 38.244 18.0456 38.2182 18.1034C38.1924 18.1612 38.1469 18.2077 38.0901 18.2344C37.833 18.3556 37.5639 18.4489 37.2874 18.5125C36.9474 18.5981 36.5991 18.6451 36.2489 18.6527C35.1 18.6527 34.2527 18.3079 33.707 17.6183C33.1612 16.9286 32.8891 15.8811 32.8907 14.4757V10.3125C32.8919 10.277 32.886 10.2417 32.8735 10.2085C32.8609 10.1754 32.8419 10.1451 32.8176 10.1196C32.7932 10.0941 32.7641 10.0738 32.7318 10.0599C32.6996 10.0461 32.6649 10.0389 32.6299 10.039H31.9496C31.8814 10.0408 31.8153 10.0153 31.7656 9.96792C31.7159 9.92055 31.6867 9.85519 31.6843 9.78608Z" fill="#23272E"/>
<path d="M92.7106 9.78608V9.1447C92.7129 9.07619 92.7414 9.01129 92.7901 8.96368C92.8387 8.91608 92.9037 8.88949 92.9713 8.88953H93.6516C93.7202 8.88953 93.7859 8.86192 93.8344 8.81277C93.8829 8.76362 93.9101 8.69697 93.9101 8.62746V6.90562C93.9107 6.83591 93.9384 6.76925 93.9873 6.72017C94.0361 6.67109 94.1021 6.64355 94.1709 6.64355H95.0257C95.0943 6.64355 95.16 6.67116 95.2085 6.72031C95.257 6.76946 95.2842 6.83612 95.2842 6.90562V8.62057C95.2833 8.65615 95.2895 8.69154 95.3025 8.72461C95.3155 8.75767 95.335 8.7877 95.3599 8.81287C95.3847 8.83803 95.4143 8.85781 95.4469 8.87099C95.4795 8.88417 95.5144 8.89048 95.5495 8.88953H98.6697C98.7382 8.88953 98.804 8.91714 98.8525 8.96629C98.9009 9.01544 98.9282 9.08209 98.9282 9.1516V9.78608C98.9258 9.85398 98.8975 9.9183 98.8493 9.96548C98.8011 10.0127 98.7367 10.039 98.6697 10.039H95.5495C95.4808 10.0396 95.415 10.0677 95.3666 10.1172C95.3182 10.1667 95.291 10.2336 95.291 10.3033V14.3677C95.291 15.4405 95.4581 16.2121 95.7922 16.6826C96.1262 17.1531 96.6705 17.383 97.4248 17.3723C97.8712 17.3736 98.3127 17.2779 98.7196 17.0918C98.7533 17.077 98.7897 17.0696 98.8265 17.0701C98.8633 17.0707 98.8995 17.0792 98.9328 17.0951C98.966 17.111 98.9956 17.1339 99.0194 17.1622C99.0433 17.1906 99.0608 17.2238 99.071 17.2596L99.2592 17.9194C99.2765 17.9803 99.2718 18.0454 99.2461 18.1031C99.2203 18.1608 99.1751 18.2073 99.1186 18.2344C98.8615 18.3556 98.5925 18.4489 98.3159 18.5125C97.9759 18.5978 97.6276 18.6449 97.2774 18.6527C96.1255 18.6527 95.2797 18.3079 94.7332 17.6183C94.1867 16.9286 93.9169 15.8803 93.9169 14.4757V10.3125C93.9181 10.2772 93.9123 10.242 93.8999 10.2091C93.8875 10.1761 93.8687 10.1459 93.8446 10.1204C93.8205 10.0949 93.7916 10.0746 93.7596 10.0606C93.7277 10.0466 93.6932 10.0392 93.6584 10.039H92.9781C92.9097 10.0408 92.8433 10.0154 92.7933 9.96806C92.7432 9.92075 92.7135 9.8554 92.7106 9.78608Z" fill="#23272E"/>
<path d="M48.6545 16.1172C48.2116 16.8784 47.588 17.5153 46.8405 17.9701C46.1229 18.4252 45.2936 18.6666 44.4471 18.6666C43.6007 18.6666 42.7713 18.4252 42.0537 17.9701C41.3062 17.5153 40.6827 16.8784 40.2397 16.1172C39.7967 15.3836 39.5614 14.5406 39.5594 13.6804C39.5655 12.6903 39.8745 11.7264 40.4438 10.9218C40.7809 10.4269 41.1979 9.99323 41.6773 9.63905C42.4691 9.01625 43.4427 8.67822 44.4449 8.67822C45.447 8.67822 46.4206 9.01625 47.2124 9.63905C47.6905 9.99415 48.1061 10.4286 48.4414 10.9241C49.0096 11.729 49.3171 12.693 49.3212 13.6827C49.3218 14.5406 49.0913 15.3824 48.6545 16.1172ZM42.7159 10.4528C42.1785 10.786 41.7374 11.2571 41.437 11.8184C41.1261 12.3884 40.963 13.0291 40.963 13.6804C40.963 14.3318 41.1261 14.9725 41.437 15.5425C41.7374 16.1038 42.1785 16.5748 42.7159 16.908C43.2197 17.2198 43.7959 17.391 44.386 17.4043C44.9762 17.4176 45.5593 17.2726 46.0764 16.9839C46.6704 16.651 47.1594 16.1545 47.4868 15.5517C47.7956 14.9777 47.9574 14.3343 47.9574 13.6804C47.9574 13.0266 47.7956 12.3832 47.4868 11.8092C47.1598 11.2082 46.6726 10.7127 46.0809 10.3793C45.6619 10.144 45.1979 10.0029 44.7204 9.96548C44.0179 9.9059 43.3152 10.0768 42.7159 10.4528Z" fill="#23272E"/>
<path d="M52.4142 8.88965C52.4827 8.88965 52.5485 8.91726 52.597 8.96641C52.6454 9.01555 52.6727 9.08221 52.6727 9.15172V14.0644C52.6727 15.1172 52.9077 15.9356 53.3779 16.5195C53.5925 16.7892 53.8635 17.0072 54.1714 17.1579C54.4792 17.3085 54.8161 17.3881 55.1579 17.3908C55.6665 17.4177 56.1694 17.2712 56.5864 16.9747C57.0353 16.6383 57.3857 16.1846 57.6 15.6621C57.8334 15.1159 57.9508 14.5262 57.9447 13.931V9.14482C57.9465 9.07652 57.9745 9.01162 58.0228 8.96395C58.0711 8.91629 58.1358 8.88962 58.2032 8.88965H59.0762C59.1448 8.88965 59.2105 8.91726 59.259 8.96641C59.3075 9.01555 59.3347 9.08221 59.3347 9.15172V18.2046C59.3347 18.2741 59.3075 18.3408 59.259 18.3899C59.2105 18.439 59.1448 18.4667 59.0762 18.4667H58.2032C58.1346 18.4667 58.0689 18.439 58.0204 18.3899C57.9719 18.3408 57.9447 18.2741 57.9447 18.2046V16.4759C57.6473 17.1148 57.22 17.6828 56.6908 18.1425C56.1892 18.5154 55.5775 18.7043 54.9561 18.6782C53.8178 18.6782 52.9206 18.3111 52.2645 17.577C51.6084 16.8429 51.2804 15.7985 51.2804 14.4437V9.15632C51.2801 9.12141 51.2866 9.08678 51.2996 9.05444C51.3126 9.0221 51.3317 8.99268 51.356 8.96789C51.3802 8.9431 51.4091 8.92342 51.4409 8.90999C51.4726 8.89656 51.5067 8.88965 51.5412 8.88965H52.4142Z" fill="#23272E"/>
<path d="M62.99 8.88981H63.8653C63.9338 8.88981 63.9996 8.91742 64.048 8.96657C64.0965 9.01572 64.1237 9.08237 64.1237 9.15188V10.1335C64.1241 10.1883 64.1413 10.2416 64.1731 10.286C64.2049 10.3303 64.2495 10.3634 64.3009 10.3807C64.3522 10.398 64.4075 10.3985 64.4591 10.3822C64.5108 10.3659 64.556 10.3336 64.5886 10.2898C64.8281 9.96305 65.1086 9.66939 65.4231 9.41625C65.9461 8.96567 66.7239 8.72276 67.7564 8.68751C67.8241 8.68688 67.8895 8.71328 67.9382 8.76101C67.987 8.80874 68.0153 8.87398 68.0171 8.94268V9.80935C68.016 9.87771 67.989 9.94302 67.9418 9.9918C67.8945 10.0406 67.8306 10.0691 67.7632 10.0714C67.1524 10.0968 66.5547 10.2585 66.0126 10.545C65.4433 10.8398 64.9613 11.2824 64.6158 11.8277C64.2898 12.3345 64.1158 12.9262 64.1147 13.5312V18.1979C64.1147 18.2674 64.0875 18.334 64.039 18.3832C63.9905 18.4323 63.9247 18.4599 63.8562 18.4599H62.9809C62.9124 18.4599 62.8466 18.4323 62.7981 18.3832C62.7496 18.334 62.7224 18.2674 62.7224 18.1979V9.14498C62.7233 9.11036 62.7309 9.07626 62.7449 9.04466C62.7588 9.01305 62.7788 8.98455 62.8037 8.96083C62.8286 8.9371 62.8579 8.91861 62.8898 8.90642C62.9218 8.89423 62.9558 8.88858 62.99 8.88981Z" fill="#23272E"/>
<path d="M78.2822 15.0299L79.9557 9.07362C79.9713 9.01877 80.0041 8.97054 80.0491 8.93614C80.094 8.90175 80.1488 8.88304 80.2051 8.88281H81.196C81.2367 8.88312 81.2767 8.89307 81.3129 8.91187C81.3492 8.93067 81.3805 8.9578 81.4045 8.99108C81.4286 9.02437 81.4446 9.06289 81.4513 9.10357C81.458 9.14424 81.4552 9.18594 81.4432 9.22534L78.6201 18.2759C78.6033 18.3291 78.5704 18.3755 78.526 18.4086C78.4816 18.4416 78.428 18.4596 78.3729 18.4598H78.0872C78.0356 18.4592 77.9852 18.4432 77.9424 18.4138C77.8997 18.3843 77.8665 18.3428 77.8469 18.2943L75.3526 11.9541C75.333 11.9054 75.2996 11.8638 75.2566 11.8344C75.2136 11.8051 75.1629 11.7895 75.1111 11.7895C75.0592 11.7895 75.0086 11.8051 74.9656 11.8344C74.9226 11.8638 74.8891 11.9054 74.8696 11.9541L72.339 18.2943C72.3197 18.343 72.2865 18.3847 72.2437 18.4142C72.2009 18.4436 72.1504 18.4595 72.0986 18.4598H71.8129C71.7579 18.4596 71.7043 18.4416 71.6599 18.4086C71.6155 18.3755 71.5825 18.3291 71.5658 18.2759L68.7586 9.22534C68.7473 9.18635 68.7452 9.14525 68.7523 9.10527C68.7594 9.0653 68.7756 9.02754 68.7995 8.99499C68.8235 8.96244 68.8546 8.93599 68.8904 8.91772C68.9262 8.89945 68.9657 8.88986 69.0057 8.88971H70.0148C70.0711 8.88994 70.1258 8.90865 70.1708 8.94304C70.2158 8.97744 70.2485 9.02567 70.2642 9.08051L71.9377 15.0345C71.9524 15.0868 71.9829 15.1332 72.0249 15.1671C72.0668 15.2011 72.1182 15.221 72.1717 15.224C72.2253 15.227 72.2785 15.2131 72.3239 15.1841C72.3694 15.1551 72.4047 15.1124 72.4252 15.0621L74.9626 8.88971H75.2392L77.7924 15.0667C77.8142 15.1166 77.8507 15.1584 77.8968 15.1864C77.9429 15.2144 77.9965 15.2273 78.0501 15.2233C78.1037 15.2192 78.1548 15.1985 78.1964 15.1639C78.2379 15.1293 78.2679 15.0825 78.2822 15.0299Z" fill="#23272E"/>
<path d="M89.2979 9.19318C89.8548 9.4802 90.2805 9.97445 90.4861 10.5725C90.7159 11.1855 90.83 12.0599 90.8285 13.1955V18.2024C90.8285 18.2719 90.8013 18.3385 90.7528 18.3877C90.7043 18.4368 90.6386 18.4644 90.57 18.4644H89.7151C89.6464 18.4645 89.5804 18.4369 89.5316 18.3878C89.4827 18.3387 89.455 18.2721 89.4544 18.2024V16.8828C89.0611 17.4553 88.5324 17.9185 87.9168 18.2302C87.3012 18.5418 86.6183 18.6919 85.9306 18.6667C85.35 18.6747 84.7756 18.5456 84.2526 18.2897C83.7614 18.049 83.3489 17.6699 83.0644 17.1978C82.768 16.6988 82.6171 16.125 82.6291 15.5426C82.6291 14.5664 82.9632 13.8139 83.6313 13.2851C84.2995 12.7564 85.233 12.4928 86.4317 12.4943C87.3376 12.5161 88.2328 12.6965 89.078 13.0277C89.1182 13.0428 89.1614 13.0477 89.2039 13.0418C89.2464 13.036 89.2868 13.0196 89.3216 12.9942C89.3563 12.9687 89.3843 12.9349 89.4032 12.8959C89.422 12.8568 89.431 12.8136 89.4294 12.7702C89.4277 12.2755 89.3512 11.784 89.2027 11.3127C89.0738 10.9007 88.7959 10.5533 88.4249 10.3403C87.9182 10.0965 87.3702 9.95295 86.8104 9.91732C86.6599 9.89957 86.5083 9.89342 86.3569 9.89893C86.0337 9.90454 85.7111 9.92988 85.3909 9.97479L84.7402 10.0874C84.3819 10.1426 84.1075 10.1909 83.9193 10.2254C83.8549 10.2373 83.7884 10.224 83.7332 10.1882C83.6781 10.1523 83.6384 10.0966 83.6223 10.0323L83.4363 9.3495C83.4278 9.31615 83.4259 9.28141 83.4306 9.24728C83.4353 9.21316 83.4467 9.18032 83.4639 9.15064C83.4812 9.12096 83.5041 9.09502 83.5312 9.07431C83.5584 9.05361 83.5893 9.03854 83.6223 9.02996C84.0805 8.91111 84.5455 8.82052 85.0145 8.7587C85.4972 8.68745 85.9848 8.65593 86.4726 8.66445L86.8626 8.68284C87.9238 8.72881 88.7356 8.89893 89.2979 9.19318ZM88.1007 17.03C88.6091 16.7381 89.0493 16.3381 89.3909 15.8576C89.4214 15.8122 89.4373 15.7584 89.4362 15.7035V14.407C89.4364 14.3547 89.4212 14.3036 89.3925 14.2602C89.3638 14.2167 89.323 14.183 89.2752 14.1633C88.8424 13.9775 88.3968 13.8239 87.9419 13.7035C87.5379 13.6064 87.1236 13.5593 86.7084 13.5633C85.8301 13.5633 85.1619 13.7357 84.7039 14.0805C84.4796 14.2509 84.3002 14.4747 84.1815 14.7321C84.0629 14.9896 84.0086 15.2727 84.0236 15.5564C84.0118 15.8331 84.0617 16.1088 84.1697 16.3632C84.2776 16.6176 84.4409 16.8439 84.6472 17.0254C85.0599 17.3886 85.6336 17.5702 86.3637 17.5702C86.9827 17.5682 87.5871 17.3802 88.1007 17.03Z" fill="#23272E"/>
<path d="M103.012 17.9701C102.283 17.5125 101.68 16.875 101.259 16.1172C100.833 15.3779 100.608 14.5368 100.608 13.6804C100.608 12.824 100.833 11.9829 101.259 11.2436C101.678 10.4882 102.274 9.84873 102.994 9.38155C103.685 8.92022 104.495 8.67482 105.323 8.6758C106.021 8.66615 106.714 8.79419 107.364 9.05281C107.941 9.29601 108.471 9.64166 108.928 10.0735C108.953 10.0973 108.973 10.1259 108.988 10.1576C109.002 10.1894 109.01 10.2236 109.011 10.2585C109.012 10.2933 109.006 10.328 108.994 10.3605C108.982 10.3931 108.963 10.4229 108.939 10.4482L108.413 11.0137C108.39 11.0397 108.363 11.0606 108.331 11.0753C108.3 11.09 108.266 11.0981 108.232 11.0992C108.198 11.1003 108.164 11.0943 108.132 11.0816C108.1 11.0688 108.071 11.0497 108.046 11.0252C107.737 10.7026 107.374 10.4386 106.973 10.2459C106.495 10.0389 105.977 9.94006 105.457 9.95626C104.977 9.95376 104.504 10.0606 104.071 10.2689C103.389 10.5988 102.825 11.1364 102.459 11.8068C102.144 12.3783 101.981 13.0233 101.987 13.6781C101.98 14.33 102.143 14.9724 102.459 15.5402C102.764 16.0932 103.205 16.5566 103.74 16.885C104.267 17.2147 104.875 17.3876 105.495 17.3838C105.993 17.3772 106.483 17.262 106.933 17.0459C107.334 16.862 107.705 16.6179 108.035 16.3218C108.084 16.2739 108.149 16.2471 108.217 16.2471C108.285 16.2471 108.351 16.2739 108.4 16.3218L108.933 16.8827C108.957 16.9071 108.977 16.9362 108.99 16.9684C109.004 17.0006 109.01 17.0351 109.01 17.0701C109.01 17.105 109.004 17.1395 108.99 17.1717C108.977 17.2039 108.957 17.233 108.933 17.2574C108.474 17.6709 107.947 18.0007 107.377 18.2321C106.743 18.5049 106.062 18.6486 105.373 18.6551C104.537 18.6601 103.718 18.4223 103.012 17.9701Z" fill="#23272E"/>
<path d="M118.182 18.4598C118.113 18.4598 118.048 18.4322 117.999 18.383C117.951 18.3339 117.923 18.2672 117.923 18.1977V13.2851C117.923 12.2322 117.688 11.4138 117.218 10.8299C116.833 10.3667 116.292 10.0637 115.7 9.97892C115.109 9.8941 114.507 10.0334 114.01 10.3701C113.563 10.7074 113.213 11.1599 112.996 11.6805C112.764 12.2269 112.647 12.8166 112.654 13.4115V18.1931C112.654 18.2277 112.647 18.262 112.634 18.2939C112.621 18.3259 112.601 18.3549 112.577 18.3792C112.553 18.4036 112.524 18.4229 112.492 18.4359C112.461 18.4489 112.427 18.4555 112.393 18.4552H111.52C111.451 18.4552 111.386 18.4276 111.337 18.3784C111.289 18.3293 111.261 18.2626 111.261 18.1931V4.83679C111.261 4.76728 111.289 4.70062 111.337 4.65148C111.386 4.60233 111.451 4.57472 111.52 4.57472H112.393C112.427 4.57441 112.461 4.58097 112.492 4.594C112.524 4.60704 112.553 4.62629 112.577 4.65066C112.601 4.67502 112.621 4.70402 112.634 4.73596C112.647 4.76791 112.654 4.80218 112.654 4.83679V9.38621C112.654 9.43811 112.669 9.48881 112.698 9.53188C112.726 9.57496 112.767 9.60847 112.814 9.62817C112.861 9.64787 112.913 9.65286 112.964 9.64253C113.014 9.6322 113.06 9.60699 113.096 9.57012C113.299 9.37859 113.528 9.21687 113.776 9.08966C114.353 8.80353 114.989 8.66164 115.631 8.67587C116.769 8.67587 117.666 9.04292 118.322 9.77702C118.979 10.5111 119.307 11.5548 119.307 12.9081V18.1954C119.307 18.2649 119.279 18.3316 119.231 18.3807C119.182 18.4299 119.117 18.4575 119.048 18.4575L118.182 18.4598Z" fill="#23272E"/>
<path d="M130.347 16.117C129.904 16.8782 129.281 17.5151 128.533 17.9699C127.816 18.425 126.986 18.6664 126.14 18.6664C125.293 18.6664 124.464 18.425 123.746 17.9699C122.999 17.5151 122.375 16.8782 121.932 16.117C121.491 15.3829 121.255 14.5402 121.252 13.6802C121.258 12.6901 121.567 11.7262 122.137 10.9216C122.474 10.4267 122.891 9.99302 123.37 9.63884C124.162 9.01586 125.136 8.67773 126.139 8.67773C127.141 8.67773 128.115 9.01586 128.907 9.63884C129.389 9.99345 129.809 10.4279 130.148 10.9239C130.716 11.7288 131.023 12.6928 131.028 13.6825C131.025 14.5419 130.79 15.3841 130.347 16.117ZM124.409 10.4526C123.871 10.7858 123.43 11.2569 123.13 11.8181C122.819 12.3882 122.656 13.0289 122.656 13.6802C122.656 14.3316 122.819 14.9723 123.13 15.5423C123.43 16.1036 123.871 16.5746 124.409 16.9078C124.912 17.2196 125.489 17.3908 126.079 17.4041C126.669 17.4174 127.252 17.2724 127.769 16.9837C128.364 16.6515 128.853 16.1548 129.18 15.5515C129.49 14.9781 129.653 14.3345 129.653 13.6802C129.653 13.026 129.49 12.3823 129.18 11.809C128.852 11.208 128.365 10.7125 127.774 10.3791C127.355 10.1438 126.891 10.0027 126.413 9.96528C125.711 9.90586 125.008 10.0767 124.409 10.4526Z" fill="#23272E"/>
<path d="M134.107 8.88966C134.175 8.88966 134.241 8.91727 134.29 8.96642C134.338 9.01557 134.365 9.08222 134.365 9.15173V14.0644C134.365 15.1172 134.6 15.9356 135.071 16.5195C135.456 16.9829 135.997 17.2859 136.589 17.3708C137.182 17.4556 137.784 17.3162 138.281 16.9793C138.729 16.6421 139.078 16.1886 139.293 15.6667C139.526 15.1205 139.643 14.5308 139.637 13.9356V9.14483C139.639 9.07613 139.667 9.01088 139.716 8.96316C139.765 8.91543 139.83 8.88903 139.898 8.88966H140.771C140.839 8.88962 140.904 8.9162 140.952 8.96381C141.001 9.01142 141.03 9.07632 141.032 9.14483V18.1977C141.031 18.2674 141.004 18.3341 140.955 18.3832C140.906 18.4322 140.84 18.4598 140.771 18.4598H139.898C139.83 18.4598 139.764 18.4322 139.715 18.383C139.667 18.3339 139.64 18.2672 139.64 18.1977V16.4759C139.343 17.1153 138.916 17.6835 138.386 18.1425C137.884 18.5154 137.272 18.7043 136.651 18.6782C135.513 18.6782 134.616 18.3111 133.959 17.577C133.303 16.8429 132.975 15.7985 132.975 14.4437V9.15633C132.975 9.12161 132.982 9.08717 132.994 9.05498C133.007 9.02279 133.026 8.99348 133.05 8.96871C133.074 8.94395 133.103 8.92422 133.134 8.91066C133.166 8.8971 133.2 8.88996 133.234 8.88966H134.107Z" fill="#23272E"/>
<path d="M143.442 9.78617V9.14479C143.444 9.07649 143.472 9.01159 143.52 8.96393C143.569 8.91626 143.633 8.8896 143.701 8.88962H144.381C144.45 8.88962 144.515 8.86201 144.564 8.81286C144.612 8.76372 144.64 8.69706 144.64 8.62755V6.90571C144.64 6.836 144.668 6.76934 144.717 6.72026C144.766 6.67118 144.832 6.64364 144.9 6.64365H145.755C145.79 6.64272 145.824 6.64882 145.856 6.66158C145.888 6.67434 145.918 6.69349 145.942 6.71792C145.967 6.74235 145.987 6.77155 146 6.8038C146.014 6.83606 146.02 6.87071 146.02 6.90571V8.62066C146.02 8.65584 146.026 8.69085 146.038 8.7236C146.051 8.75635 146.07 8.78617 146.095 8.81127C146.119 8.83637 146.148 8.85625 146.18 8.86971C146.212 8.88317 146.247 8.88994 146.281 8.88962H149.399C149.465 8.89194 149.527 8.91964 149.574 8.96706C149.62 9.01448 149.647 9.07805 149.649 9.14479V9.78617C149.646 9.85251 149.619 9.91551 149.573 9.96244C149.527 10.0094 149.465 10.0368 149.399 10.039H146.281C146.246 10.039 146.212 10.0462 146.179 10.06C146.147 10.0739 146.118 10.0942 146.094 10.1197C146.069 10.1452 146.05 10.1755 146.038 10.2086C146.025 10.2418 146.019 10.2771 146.02 10.3126V14.377C146.02 15.4498 146.187 16.2214 146.522 16.6919C146.856 17.1624 147.4 17.3923 148.154 17.3816C148.601 17.3831 149.042 17.2874 149.449 17.1011C149.483 17.0863 149.519 17.0789 149.556 17.0794C149.593 17.08 149.629 17.0885 149.662 17.1044C149.695 17.1202 149.725 17.1431 149.749 17.1715C149.773 17.1999 149.79 17.2331 149.8 17.2689L149.989 17.9287C150.006 17.9896 150.001 18.0547 149.976 18.1124C149.95 18.1701 149.905 18.2166 149.848 18.2436C149.591 18.3649 149.322 18.4582 149.045 18.5218C148.705 18.6074 148.357 18.6544 148.007 18.662C146.855 18.662 146.008 18.3172 145.465 17.6276C144.922 16.9379 144.649 15.8904 144.646 14.485V10.3126C144.648 10.2773 144.642 10.2421 144.629 10.2091C144.617 10.1762 144.598 10.146 144.574 10.1205C144.55 10.095 144.521 10.0747 144.489 10.0607C144.457 10.0467 144.423 10.0393 144.388 10.039H143.708C143.639 10.0409 143.573 10.0154 143.524 9.96801C143.474 9.92064 143.445 9.85528 143.442 9.78617Z" fill="#23272E"/>
<path d="M19.3081 5.98414C19.2685 5.88838 19.2098 5.80197 19.1357 5.73036C19.0615 5.65874 18.9735 5.60348 18.8773 5.56805C18.6755 5.4692 18.2922 5.36805 17.1947 5.43471C16.0315 5.49448 14.578 5.64851 12.8706 5.89448C12.8943 5.79632 12.8943 5.69379 12.8706 5.59563L12.8547 5.54736C12.8273 5.46263 12.7827 5.38468 12.7237 5.31854C12.6647 5.25241 12.5927 5.19957 12.5123 5.16345C12.3793 5.10825 12.2313 5.10335 12.0951 5.14966C11.8683 5.20023 11.7186 5.41172 11.4556 5.81862C11.3626 5.96115 11.2991 6.0485 11.2561 6.11977C11.0293 6.15425 10.6075 6.24161 9.69373 6.4554C8.34559 6.73913 7.0246 7.14221 5.74594 7.66C4.48519 8.17034 3.64393 8.66 3.18362 9.11977C2.52377 9.78644 2.65982 10.3611 2.80494 10.6577C2.94742 10.9254 3.15505 11.1517 3.40811 11.3152C3.98406 11.6899 4.30152 11.3818 4.38315 11.2784C4.43637 11.2159 4.47551 11.1424 4.49783 11.063C4.52015 10.9836 4.52513 10.9002 4.5124 10.8186C4.49479 10.7196 4.45603 10.6257 4.39884 10.5435C4.34165 10.4613 4.26742 10.3928 4.18134 10.3428L4.04302 10.2462C4.00992 10.222 3.97883 10.1951 3.95005 10.1657H3.93871C3.98688 10.1004 4.0416 10.0403 4.10198 9.98644C4.52601 9.57954 5.34459 9.15195 6.56679 8.69218C7.89553 8.19316 9.26006 7.79813 10.6484 7.51057L10.5032 7.80483C9.7028 9.47379 8.78444 11.6232 7.76859 14.1933C5.65071 19.5887 5.7278 20.1267 5.75955 20.3864C5.77904 20.5834 5.87239 20.7653 6.02031 20.8945C6.13427 21.0098 6.28792 21.0757 6.44888 21.0784C6.54831 21.079 6.64612 21.0528 6.73232 21.0025C6.87971 20.929 7.05658 20.7497 7.01123 20.3129C7.01123 20.1841 7.08606 19.4738 8.52821 15.7566C9.696 12.7152 10.8094 10.0922 11.8275 7.97034C12.0406 7.53816 12.1563 7.32667 12.2175 7.22322L12.6211 7.16345C17.3625 6.49908 18.2378 6.62552 18.3943 6.68529C18.9544 6.95885 19.2129 6.58414 19.2605 6.50368L19.2764 6.47379C19.3142 6.39865 19.3365 6.31647 19.342 6.23228C19.3474 6.14809 19.3359 6.06366 19.3081 5.98414Z" fill="#F74C4D"/>
<path d="M27.4282 13.8917C27.3624 13.6435 27.2944 13.3975 27.2264 13.1492L26.7479 11.3883C26.5423 10.6389 26.3352 9.8879 26.1266 9.13541C26.1266 9.12162 26.1266 9.10323 26.1107 9.09863C26.0971 9.09863 26.0926 9.11472 26.0835 9.12622L25.4894 9.91472L24.5824 11.1331L23.392 12.717C23.3058 12.8297 23.2196 12.9469 23.1357 13.0573C23.1357 13.0573 23.1153 13.0733 23.1221 13.0871C23.1246 13.0882 23.1273 13.0888 23.1301 13.0888C23.1328 13.0888 23.1355 13.0882 23.138 13.0871H23.2287L24.9883 13.1055L26.0699 9.3584L25.757 13.2664L27.41 13.917C27.41 13.917 27.4282 13.917 27.4372 13.917C27.4395 13.9193 27.4282 13.9032 27.4282 13.8917Z" fill="#F74C4D"/>
<path d="M25.2922 13.6114H24.7503C24.6845 13.8412 24.6142 14.0895 24.5371 14.3263C23.7867 16.7283 22.5293 18.9357 20.8524 20.7953C17.7685 24.078 13.1767 25.701 8.87974 24.0941C5.20633 22.747 2.38778 19.3263 1.53518 15.4826C0.102098 9.46424 4.16553 3.37228 9.882 1.66194C12.6937 0.758488 15.8071 1.23205 18.3717 2.65734C21.0927 4.16308 22.714 6.51941 22.3625 9.7309C22.0428 12.7332 20.6415 15.5723 18.993 18.0573C18.3127 19.0252 17.5622 20.0619 16.5576 20.6734C16.3105 20.816 16.0701 20.8573 15.9567 20.7539C15.903 20.6067 15.8754 20.4511 15.8751 20.2941C15.8725 19.8123 15.9143 19.3313 15.9998 18.8573C16.2795 17.3457 16.6437 15.8513 17.0905 14.3815C17.383 13.3907 17.6846 12.3999 17.9975 11.4137C18.0349 11.2893 18.0243 11.1552 17.9678 11.0385C17.9113 10.9217 17.8132 10.8311 17.6934 10.785C17.5735 10.7388 17.4408 10.7406 17.3221 10.7898C17.2035 10.8391 17.1077 10.9323 17.0542 11.0504C16.6551 11.9493 16.2492 12.8458 15.8093 13.724C15.3694 14.6022 14.9182 15.4688 14.4239 16.3033C13.6983 17.4527 12.9522 18.7723 11.8548 19.5217C11.6484 19.6435 11.5214 19.6665 11.4738 19.6137C11.3777 19.202 11.3508 18.7769 11.3944 18.3562C11.5985 15.9608 12.4715 13.6481 13.5305 11.5033C13.9613 10.6275 14.4375 9.77918 14.959 8.94469C14.998 8.84638 15.0023 8.73744 14.9711 8.63629C14.94 8.53514 14.8754 8.448 14.7882 8.3896C14.701 8.33121 14.5966 8.30513 14.4926 8.3158C14.3886 8.32647 14.2914 8.37322 14.2175 8.44814C12.501 10.9585 11.1019 13.7171 10.4602 16.7217C10.2629 17.8045 10.0521 18.8872 10.3627 19.9976C10.4383 20.223 10.5753 20.4221 10.7579 20.5719C10.9405 20.7216 11.1612 20.8158 11.3944 20.8435C12.3831 20.9102 13.0996 20.1102 13.696 19.4481C14.1979 18.8257 14.6614 18.1723 15.0837 17.4918C14.6302 19.4366 14.4919 21.17 15.1971 21.6826C16.9681 23.0366 19.0519 19.993 19.9317 18.7194C22.1131 15.3079 24.3965 10.6734 23.2061 6.5355C22.1834 3.27803 19.0451 1.27343 15.9499 0.429752C13.8494 -0.150097 11.6303 -0.119028 9.5464 0.519407C3.20863 2.36538 -1.24709 9.11941 0.31298 15.7608C1.25401 20.0458 4.35374 23.8068 8.45118 25.301C13.213 27.0803 18.3785 25.324 21.7594 21.6642C23.7351 19.4461 25.1067 16.7443 25.7389 13.8252L25.2922 13.6114Z" fill="#F74C4D"/>
</g>
<defs>
<clipPath id="clip0_34861_18547">
<rect width="150" height="26" fill="white"/>
</clipPath>
</defs>
</svg>
