<svg width="300" height="51" viewBox="0 0 300 51" fill="none" xmlns="http://www.w3.org/2000/svg">
<g clip-path="url(#clip0_5_8053)">
<path d="M63.3672 19.1959V17.9378C63.3707 17.8039 63.4268 17.6766 63.5233 17.5831C63.6199 17.4896 63.7494 17.4373 63.8842 17.4373H65.2447C65.313 17.4379 65.3807 17.425 65.4439 17.3995C65.5072 17.3739 65.5647 17.3361 65.6132 17.2883C65.6617 17.2406 65.7002 17.1837 65.7265 17.121C65.7527 17.0584 65.7662 16.9911 65.7662 16.9232V13.5458C65.7662 13.4095 65.8207 13.2787 65.9177 13.1823C66.0146 13.0859 66.1461 13.0317 66.2832 13.0317H68.0066C68.1437 13.0317 68.2752 13.0859 68.3721 13.1823C68.4691 13.2787 68.5236 13.4095 68.5236 13.5458V16.9097C68.5224 16.9786 68.535 17.047 68.5606 17.1109C68.5863 17.1749 68.6245 17.2331 68.6731 17.2822C68.7216 17.3314 68.7795 17.3704 68.8434 17.397C68.9073 17.4236 68.9758 17.4373 69.0451 17.4373H75.2627C75.4002 17.4373 75.5322 17.4913 75.6299 17.5876C75.7276 17.6839 75.783 17.8146 75.7842 17.9514V19.1959C75.7784 19.3295 75.7209 19.4557 75.6237 19.5481C75.5265 19.6405 75.3972 19.6921 75.2627 19.6919H69.0451C68.9071 19.6931 68.7752 19.7481 68.6776 19.8451C68.5801 19.9421 68.5248 20.0733 68.5236 20.2105V28.1829C68.5236 30.2873 68.8577 31.8009 69.5258 32.7238C70.194 33.6467 71.2839 34.0976 72.7956 34.0766C73.6883 34.0785 74.5712 33.891 75.3851 33.5264C75.4523 33.4973 75.5249 33.4828 75.5981 33.4839C75.6714 33.4851 75.7435 33.5018 75.8097 33.533C75.8759 33.5642 75.9346 33.6091 75.9818 33.6648C76.029 33.7204 76.0637 33.7855 76.0835 33.8556L76.46 35.1498C76.4955 35.2692 76.4866 35.3973 76.435 35.5107C76.3834 35.6241 76.2924 35.7153 76.1788 35.7675C75.6646 36.0055 75.1264 36.1884 74.5734 36.3132C73.8934 36.481 73.1968 36.5732 72.4963 36.5882C70.1985 36.5882 68.5039 35.9118 67.4125 34.5591C66.321 33.2063 65.7768 31.1515 65.7798 28.3949V20.2286C65.7823 20.159 65.7706 20.0896 65.7455 20.0246C65.7204 19.9595 65.6823 19.9002 65.6337 19.8502C65.585 19.8001 65.5267 19.7603 65.4622 19.7331C65.3977 19.7059 65.3284 19.6919 65.2583 19.6919H63.8978C63.7614 19.6956 63.6291 19.6455 63.5297 19.5526C63.4303 19.4597 63.3719 19.3315 63.3672 19.1959Z" fill="white"/>
<path d="M185.422 19.1959V17.9378C185.427 17.8035 185.484 17.6761 185.581 17.5828C185.678 17.4894 185.808 17.4372 185.943 17.4373H187.304C187.441 17.4373 187.573 17.3831 187.67 17.2867C187.766 17.1903 187.821 17.0596 187.821 16.9232V13.5458C187.822 13.409 187.878 13.2783 187.975 13.182C188.073 13.0857 188.205 13.0317 188.342 13.0317H190.052C190.189 13.0317 190.321 13.0859 190.418 13.1823C190.515 13.2787 190.569 13.4095 190.569 13.5458V16.9097C190.567 16.9795 190.58 17.0489 190.606 17.1138C190.632 17.1787 190.671 17.2376 190.72 17.2869C190.77 17.3363 190.829 17.3751 190.895 17.4009C190.96 17.4268 191.03 17.4392 191.1 17.4373H197.34C197.477 17.4373 197.609 17.4915 197.706 17.5879C197.803 17.6843 197.857 17.815 197.857 17.9514V19.1959C197.852 19.3291 197.796 19.4553 197.699 19.5478C197.603 19.6404 197.474 19.692 197.34 19.6919H191.1C190.962 19.6931 190.831 19.7483 190.734 19.8454C190.637 19.9425 190.583 20.0738 190.583 20.2105V28.1829C190.583 30.2873 190.917 31.8009 191.585 32.7238C192.253 33.6467 193.342 34.0976 194.85 34.0766C195.743 34.0791 196.626 33.8915 197.44 33.5264C197.507 33.4973 197.58 33.4828 197.654 33.4839C197.727 33.485 197.8 33.5016 197.866 33.5328C197.933 33.564 197.992 33.6089 198.04 33.6645C198.087 33.7202 198.122 33.7853 198.143 33.8556L198.519 35.1498C198.554 35.2692 198.544 35.3969 198.493 35.5101C198.441 35.6233 198.351 35.7146 198.238 35.7675C197.724 36.0055 197.186 36.1884 196.633 36.3132C195.953 36.4805 195.256 36.5728 194.556 36.5882C192.252 36.5882 190.56 35.9118 189.467 34.5591C188.374 33.2063 187.835 31.15 187.835 28.3949V20.2286C187.837 20.1593 187.825 20.0903 187.801 20.0256C187.776 19.9609 187.738 19.9018 187.69 19.8518C187.642 19.8018 187.584 19.7618 187.52 19.7344C187.456 19.7069 187.387 19.6925 187.318 19.6919H185.957C185.82 19.6956 185.687 19.6457 185.587 19.5529C185.487 19.4601 185.428 19.3319 185.422 19.1959Z" fill="white"/>
<path d="M97.3074 31.6148C96.4215 33.108 95.1744 34.3573 93.6793 35.2493C92.2442 36.1421 90.5854 36.6155 88.8925 36.6155C87.1997 36.6155 85.5409 36.1421 84.1058 35.2493C82.6107 34.3573 81.3636 33.108 80.4777 31.6148C79.5917 30.1758 79.121 28.5222 79.1172 26.835C79.1293 24.8927 79.7473 23.0021 80.8859 21.4238C81.56 20.4531 82.3941 19.6024 83.3529 18.9076C84.9365 17.686 86.8838 17.0229 88.888 17.0229C90.8923 17.0229 92.8396 17.686 94.4231 18.9076C95.3794 19.6042 96.2104 20.4564 96.8811 21.4283C98.0175 23.0071 98.6324 24.898 98.6407 26.8395C98.6419 28.5223 98.1809 30.1735 97.3074 31.6148ZM85.43 20.5039C84.3553 21.1575 83.473 22.0814 82.8722 23.1824C82.2505 24.3006 81.9243 25.5573 81.9243 26.835C81.9243 28.1126 82.2505 29.3694 82.8722 30.4875C83.473 31.5885 84.3553 32.5124 85.43 33.166C86.4377 33.7775 87.5901 34.1133 88.7704 34.1395C89.9507 34.1656 91.1169 33.8811 92.151 33.3148C93.3391 32.6618 94.317 31.6879 94.9718 30.5055C95.5895 29.3796 95.9131 28.1175 95.9131 26.835C95.9131 25.5524 95.5895 24.2904 94.9718 23.1644C94.3178 21.9857 93.3434 21.0137 92.1601 20.3596C91.3221 19.8982 90.3941 19.6214 89.439 19.548C88.0342 19.4311 86.6287 19.7662 85.43 20.5039Z" fill="white"/>
<path d="M104.83 17.4375C104.967 17.4375 105.099 17.4917 105.196 17.5881C105.293 17.6845 105.347 17.8152 105.347 17.9516V27.5879C105.347 29.6532 105.817 31.2585 106.757 32.4038C107.187 32.9328 107.729 33.3604 108.344 33.6559C108.96 33.9515 109.634 34.1075 110.318 34.1128C111.335 34.1656 112.341 33.8782 113.175 33.2966C114.072 32.6368 114.773 31.7468 115.202 30.7218C115.668 29.6506 115.903 28.4937 115.891 27.3264V17.938C115.895 17.8041 115.951 17.6767 116.047 17.5832C116.144 17.4898 116.273 17.4375 116.408 17.4375H118.154C118.291 17.4375 118.423 17.4917 118.52 17.5881C118.617 17.6845 118.671 17.8152 118.671 17.9516V35.7091C118.671 35.8455 118.617 35.9762 118.52 36.0726C118.423 36.169 118.291 36.2232 118.154 36.2232H116.408C116.271 36.2232 116.14 36.169 116.043 36.0726C115.946 35.9762 115.891 35.8455 115.891 35.7091V32.3181C115.296 33.5715 114.442 34.6857 113.383 35.5874C112.38 36.3188 111.157 36.6892 109.914 36.638C107.637 36.638 105.843 35.918 104.531 34.4781C103.219 33.0381 102.563 30.9894 102.563 28.3319V17.9606C102.562 17.8921 102.575 17.8242 102.601 17.7607C102.627 17.6973 102.665 17.6396 102.714 17.591C102.762 17.5423 102.82 17.5037 102.883 17.4774C102.947 17.4511 103.015 17.4375 103.084 17.4375H104.83Z" fill="white"/>
<path d="M125.98 17.4374H127.731C127.868 17.4374 128 17.4915 128.097 17.5879C128.194 17.6843 128.248 17.8151 128.248 17.9514V19.8769C128.249 19.9844 128.283 20.089 128.347 20.176C128.41 20.263 128.5 20.328 128.602 20.3618C128.705 20.3957 128.816 20.3967 128.919 20.3647C129.022 20.3327 129.113 20.2693 129.178 20.1835C129.657 19.5426 130.218 18.9665 130.847 18.47C131.893 17.5862 133.448 17.1097 135.513 17.0405C135.649 17.0393 135.779 17.0911 135.877 17.1847C135.974 17.2783 136.031 17.4063 136.035 17.5411V19.2411C136.032 19.3752 135.979 19.5033 135.884 19.599C135.789 19.6946 135.662 19.7505 135.527 19.7551C134.305 19.8049 133.11 20.1221 132.026 20.684C130.887 21.2624 129.923 22.1306 129.232 23.2002C128.58 24.1942 128.232 25.3549 128.23 26.5416V35.6955C128.23 35.8318 128.175 35.9625 128.078 36.059C127.981 36.1554 127.85 36.2095 127.713 36.2095H125.962C125.825 36.2095 125.694 36.1554 125.597 36.059C125.5 35.9625 125.445 35.8318 125.445 35.6955V17.9379C125.447 17.87 125.462 17.8031 125.49 17.7411C125.518 17.6791 125.558 17.6232 125.608 17.5767C125.658 17.5301 125.716 17.4939 125.78 17.4699C125.844 17.446 125.912 17.435 125.98 17.4374Z" fill="white"/>
<path d="M156.564 29.4817L159.911 17.7981C159.942 17.6905 160.008 17.5959 160.098 17.5284C160.188 17.461 160.297 17.4243 160.41 17.4238H162.392C162.473 17.4244 162.553 17.444 162.626 17.4808C162.698 17.5177 162.761 17.5709 162.809 17.6362C162.857 17.7015 162.889 17.7771 162.902 17.8568C162.916 17.9366 162.91 18.0184 162.886 18.0957L157.24 35.8488C157.206 35.9531 157.141 36.0442 157.052 36.109C156.963 36.1738 156.856 36.209 156.746 36.2095H156.174C156.071 36.2083 155.97 36.1769 155.885 36.1192C155.799 36.0614 155.733 35.9799 155.693 35.8848L150.705 23.4482C150.666 23.3528 150.599 23.2711 150.513 23.2136C150.427 23.156 150.326 23.1253 150.222 23.1253C150.118 23.1253 150.017 23.156 149.931 23.2136C149.845 23.2711 149.778 23.3528 149.739 23.4482L144.678 35.8848C144.639 35.9803 144.573 36.0621 144.487 36.1199C144.402 36.1777 144.301 36.2089 144.197 36.2095H143.626C143.515 36.209 143.408 36.1738 143.32 36.109C143.231 36.0442 143.165 35.9531 143.131 35.8488L137.517 18.0957C137.494 18.0192 137.49 17.9386 137.504 17.8602C137.519 17.7818 137.551 17.7077 137.599 17.6439C137.647 17.58 137.709 17.5281 137.781 17.4923C137.852 17.4565 137.931 17.4376 138.011 17.4374H140.029C140.142 17.4378 140.251 17.4745 140.341 17.542C140.431 17.6094 140.497 17.704 140.528 17.8116L143.875 29.4907C143.905 29.5933 143.966 29.6842 144.05 29.7508C144.133 29.8174 144.236 29.8564 144.343 29.8623C144.45 29.8682 144.557 29.8409 144.648 29.784C144.738 29.7271 144.809 29.6435 144.85 29.5448L149.925 17.4374H150.478L155.585 29.5538C155.628 29.6516 155.701 29.7336 155.793 29.7885C155.886 29.8435 155.993 29.8688 156.1 29.8609C156.207 29.853 156.309 29.8123 156.393 29.7444C156.476 29.6765 156.536 29.5847 156.564 29.4817Z" fill="white"/>
<path d="M178.597 18.0325C179.711 18.5955 180.562 19.565 180.973 20.7381C181.433 21.9405 181.661 23.6556 181.658 25.8831V35.7044C181.658 35.8407 181.604 35.9715 181.507 36.0679C181.41 36.1643 181.278 36.2184 181.141 36.2184H179.431C179.294 36.2184 179.162 36.1644 179.064 36.0681C178.966 35.9719 178.911 35.8411 178.91 35.7044V33.116C178.123 34.2389 177.066 35.1476 175.835 35.7589C174.603 36.3702 173.238 36.6647 171.862 36.6152C170.701 36.6308 169.552 36.3777 168.506 35.8757C167.524 35.4035 166.699 34.6599 166.13 33.7338C165.537 32.7551 165.235 31.6294 165.259 30.4871C165.259 28.5722 165.927 27.0961 167.264 26.059C168.6 25.0219 170.467 24.5048 172.864 24.5078C174.676 24.5505 176.467 24.9044 178.157 25.554C178.237 25.5837 178.324 25.5932 178.409 25.5818C178.494 25.5703 178.575 25.5382 178.644 25.4882C178.714 25.4383 178.77 25.3721 178.807 25.2954C178.845 25.2188 178.863 25.1341 178.86 25.0489C178.856 24.0785 178.703 23.1144 178.406 22.19C178.148 21.3818 177.593 20.7005 176.851 20.2826C175.837 19.8044 174.741 19.5228 173.622 19.4529C173.321 19.4181 173.018 19.406 172.715 19.4168C172.068 19.4278 171.423 19.4775 170.783 19.5656L169.481 19.7866C168.765 19.8948 168.216 19.9895 167.84 20.0571C167.711 20.0806 167.578 20.0545 167.467 19.9842C167.357 19.9139 167.278 19.8046 167.246 19.6784L166.874 18.3391C166.857 18.2737 166.853 18.2055 166.862 18.1386C166.872 18.0717 166.894 18.0072 166.929 17.949C166.963 17.8908 167.009 17.8399 167.063 17.7993C167.118 17.7587 167.18 17.7291 167.246 17.7123C168.162 17.4792 169.092 17.3015 170.03 17.1802C170.995 17.0405 171.971 16.9786 172.946 16.9953L173.726 17.0314C175.849 17.1216 177.472 17.4553 178.597 18.0325ZM176.202 33.4046C177.219 32.8321 178.1 32.0476 178.783 31.1049C178.844 31.016 178.875 30.9104 178.873 30.8028V28.2595C178.874 28.157 178.843 28.0567 178.786 27.9716C178.729 27.8864 178.647 27.8202 178.551 27.7816C177.686 27.4171 176.794 27.1157 175.885 26.8797C175.077 26.6892 174.248 26.5968 173.418 26.6046C171.661 26.6046 170.325 26.9428 169.409 27.6192C168.96 27.9534 168.601 28.3924 168.364 28.8974C168.127 29.4023 168.018 29.9576 168.048 30.5142C168.025 31.0568 168.124 31.5978 168.34 32.0967C168.556 32.5957 168.883 33.0397 169.295 33.3956C170.121 34.1081 171.268 34.4643 172.728 34.4643C173.966 34.4605 175.175 34.0917 176.202 33.4046Z" fill="white"/>
<path d="M206.023 35.2491C204.564 34.3516 203.358 33.1012 202.517 31.6146C201.664 30.1644 201.215 28.5147 201.215 26.8348C201.215 25.1549 201.664 23.5052 202.517 22.055C203.355 20.5731 204.546 19.3188 205.986 18.4024C207.369 17.4975 208.989 17.0162 210.644 17.0181C212.04 16.9991 213.426 17.2503 214.726 17.7576C215.88 18.2347 216.94 18.9126 217.855 19.7597C217.905 19.8064 217.945 19.8625 217.974 19.9248C218.002 19.987 218.018 20.0542 218.02 20.1226C218.022 20.1909 218.01 20.2589 217.986 20.3228C217.962 20.3866 217.925 20.4451 217.877 20.4947L216.825 21.604C216.779 21.6549 216.724 21.696 216.661 21.7248C216.599 21.7536 216.531 21.7695 216.463 21.7717C216.394 21.7738 216.326 21.762 216.262 21.7371C216.198 21.7121 216.14 21.6745 216.091 21.6266C215.473 20.9937 214.747 20.4759 213.946 20.0979C212.988 19.6919 211.952 19.498 210.912 19.5298C209.953 19.5249 209.006 19.7345 208.141 20.143C206.776 20.79 205.649 21.8447 204.916 23.1597C204.286 24.2807 203.96 25.546 203.973 26.8303C203.959 28.1091 204.284 29.369 204.916 30.4828C205.527 31.5676 206.409 32.4765 207.479 33.1207C208.533 33.7675 209.75 34.1066 210.989 34.0993C211.984 34.0863 212.965 33.8602 213.864 33.4364C214.666 33.0757 215.409 32.5968 216.068 32.016C216.166 31.922 216.297 31.8695 216.433 31.8695C216.569 31.8695 216.7 31.922 216.798 32.016L217.864 33.1162C217.913 33.1641 217.952 33.2213 217.979 33.2844C218.006 33.3475 218.019 33.4153 218.019 33.4837C218.019 33.5522 218.006 33.62 217.979 33.6831C217.952 33.7462 217.913 33.8034 217.864 33.8512C216.946 34.6623 215.893 35.3092 214.753 35.7632C213.484 36.2981 212.122 36.5801 210.744 36.5929C209.073 36.6026 207.435 36.1363 206.023 35.2491Z" fill="white"/>
<path d="M236.364 36.2097C236.227 36.2097 236.096 36.1556 235.999 36.0592C235.902 35.9628 235.848 35.832 235.848 35.6957V26.0593C235.848 23.9941 235.377 22.3888 234.437 21.2434C233.666 20.3348 232.585 19.7406 231.402 19.5742C230.218 19.4078 229.014 19.681 228.02 20.3416C227.126 21.0032 226.426 21.8907 225.993 22.9118C225.528 23.9837 225.295 25.1404 225.308 26.3073V35.6866C225.308 35.7545 225.294 35.8218 225.268 35.8844C225.242 35.9471 225.203 36.004 225.155 36.0517C225.106 36.0995 225.049 36.1373 224.986 36.1629C224.922 36.1884 224.855 36.2013 224.786 36.2007H223.04C222.903 36.2007 222.772 36.1465 222.675 36.0501C222.578 35.9537 222.523 35.823 222.523 35.6866V9.48771C222.523 9.35137 222.578 9.22062 222.675 9.12422C222.772 9.02781 222.903 8.97365 223.04 8.97365H224.786C224.855 8.97306 224.922 8.98591 224.986 9.01148C225.049 9.03705 225.106 9.07482 225.155 9.12261C225.203 9.17041 225.242 9.22728 225.268 9.28994C225.294 9.35261 225.308 9.41982 225.308 9.48771V18.4116C225.308 18.5134 225.339 18.6128 225.396 18.6973C225.453 18.7818 225.534 18.8476 225.629 18.8862C225.723 18.9248 225.828 18.9346 225.928 18.9144C226.028 18.8941 226.12 18.8447 226.192 18.7723C226.599 18.3966 227.057 18.0794 227.553 17.8299C228.706 17.2686 229.979 16.9903 231.263 17.0182C233.539 17.0182 235.334 17.7382 236.646 19.1782C237.958 20.6181 238.614 22.6653 238.614 25.3198V35.6912C238.614 35.8275 238.559 35.9582 238.462 36.0547C238.366 36.1511 238.234 36.2052 238.097 36.2052L236.364 36.2097Z" fill="white"/>
<path d="M260.694 31.6144C259.808 33.1075 258.561 34.3569 257.066 35.2489C255.631 36.1417 253.972 36.6151 252.279 36.6151C250.586 36.6151 248.928 36.1417 247.492 35.2489C245.997 34.3569 244.75 33.1075 243.864 31.6144C242.981 30.1745 242.51 28.5214 242.504 26.8345C242.516 24.8923 243.134 23.0016 244.273 21.4234C244.947 20.4526 245.781 19.602 246.74 18.9072C248.324 17.6852 250.272 17.022 252.277 17.022C254.282 17.022 256.23 17.6852 257.814 18.9072C258.778 19.6028 259.617 20.455 260.295 21.4279C261.431 23.0067 262.046 24.8976 262.055 26.839C262.05 28.5247 261.579 30.1767 260.694 31.6144ZM248.817 20.5035C247.742 21.1571 246.86 22.081 246.259 23.182C245.637 24.3001 245.311 25.5569 245.311 26.8345C245.311 28.1122 245.637 29.3689 246.259 30.4871C246.86 31.5881 247.742 32.512 248.817 33.1656C249.824 33.7771 250.977 34.1129 252.157 34.1391C253.337 34.1652 254.504 33.8807 255.538 33.3144C256.727 32.6628 257.705 31.6885 258.359 30.5051C258.98 29.3804 259.306 28.1179 259.306 26.8345C259.306 25.5512 258.98 24.2886 258.359 23.164C257.704 21.9853 256.73 21.0133 255.547 20.3592C254.709 19.8978 253.781 19.621 252.826 19.5475C251.421 19.431 250.016 19.7661 248.817 20.5035Z" fill="white"/>
<path d="M268.212 17.4375C268.349 17.4375 268.481 17.4917 268.578 17.5881C268.675 17.6845 268.729 17.8152 268.729 17.9516V27.5879C268.729 29.6532 269.199 31.2585 270.14 32.4038C270.911 33.3128 271.993 33.9072 273.177 34.0735C274.362 34.2399 275.567 33.9665 276.561 33.3057C277.457 32.6443 278.155 31.7547 278.584 30.7309C279.051 29.6596 279.286 28.5028 279.273 27.3354V17.9381C279.277 17.8033 279.334 17.6753 279.431 17.5817C279.529 17.4881 279.659 17.4363 279.795 17.4375H281.541C281.676 17.4374 281.806 17.4896 281.903 17.583C282.001 17.6764 282.058 17.8037 282.062 17.9381V35.6956C282.061 35.8324 282.006 35.9631 281.908 36.0594C281.81 36.1557 281.678 36.2097 281.541 36.2097H279.795C279.658 36.2097 279.526 36.1555 279.429 36.0591C279.332 35.9627 279.278 35.8319 279.278 35.6956V32.3182C278.685 33.5725 277.83 34.6869 276.77 35.5874C275.767 36.3188 274.543 36.6893 273.301 36.6381C271.024 36.6381 269.23 35.9181 267.917 34.4781C266.605 33.0381 265.949 30.9894 265.949 28.332V17.9606C265.949 17.8925 265.962 17.8249 265.987 17.7618C266.013 17.6987 266.051 17.6412 266.099 17.5926C266.147 17.544 266.204 17.5053 266.267 17.4787C266.33 17.4521 266.398 17.4381 266.466 17.4375H268.212Z" fill="white"/>
<path d="M286.883 19.1961V17.938C286.886 17.804 286.942 17.6767 287.039 17.5832C287.136 17.4897 287.265 17.4374 287.4 17.4375H288.76C288.897 17.4375 289.029 17.3833 289.126 17.2869C289.223 17.1905 289.277 17.0598 289.277 16.9234V13.546C289.279 13.4092 289.334 13.2785 289.432 13.1822C289.529 13.0859 289.661 13.0319 289.799 13.0319H291.509C291.578 13.0301 291.646 13.0421 291.711 13.0671C291.775 13.0921 291.834 13.1297 291.883 13.1776C291.932 13.2255 291.972 13.2828 291.999 13.3461C292.025 13.4093 292.039 13.4773 292.039 13.546V16.9099C292.037 16.9789 292.05 17.0476 292.075 17.1118C292.1 17.1761 292.139 17.2346 292.187 17.2838C292.236 17.333 292.294 17.372 292.358 17.3984C292.422 17.4248 292.491 17.4381 292.561 17.4375H298.796C298.928 17.442 299.053 17.4964 299.146 17.5894C299.238 17.6824 299.292 17.8071 299.295 17.938V19.1961C299.291 19.3262 299.237 19.4498 299.144 19.5419C299.052 19.6339 298.927 19.6876 298.796 19.6921H292.561C292.491 19.6921 292.421 19.7061 292.357 19.7333C292.292 19.7604 292.234 19.8003 292.185 19.8503C292.137 19.9004 292.099 19.9597 292.074 20.0247C292.048 20.0898 292.037 20.1591 292.039 20.2287V28.2011C292.039 30.3055 292.373 31.8191 293.041 32.742C293.71 33.6649 294.798 34.1158 296.307 34.0948C297.2 34.0977 298.083 33.9101 298.896 33.5446C298.964 33.5155 299.037 33.501 299.11 33.5021C299.184 33.5032 299.256 33.5199 299.323 33.551C299.389 33.5822 299.448 33.6271 299.496 33.6828C299.544 33.7384 299.579 33.8036 299.599 33.8738L299.976 35.168C300.01 35.2874 300.001 35.4151 299.949 35.5283C299.898 35.6415 299.807 35.7328 299.694 35.7858C299.18 36.0237 298.642 36.2066 298.089 36.3314C297.409 36.4992 296.712 36.5914 296.012 36.6065C293.708 36.6065 292.013 35.9301 290.928 34.5773C289.843 33.2245 289.297 31.1698 289.291 28.4131V20.2287C289.293 20.1595 289.282 20.0905 289.257 20.0258C289.232 19.9611 289.195 19.902 289.146 19.8519C289.098 19.8019 289.04 19.762 288.976 19.7346C288.912 19.7071 288.844 19.6927 288.774 19.6921H287.413C287.277 19.6958 287.145 19.6457 287.045 19.5528C286.946 19.4599 286.888 19.3317 286.883 19.1961Z" fill="white"/>
<path d="M38.6169 11.7377C38.5378 11.5499 38.4203 11.3804 38.272 11.2399C38.1237 11.0994 37.9478 10.991 37.7553 10.9215C37.3516 10.7276 36.5852 10.5292 34.3902 10.66C32.0637 10.7772 29.1567 11.0793 25.7418 11.5618C25.7893 11.3693 25.7893 11.1682 25.7418 10.9756L25.7101 10.8809C25.6553 10.7147 25.5661 10.5618 25.4481 10.4321C25.3301 10.3024 25.1861 10.1987 25.0253 10.1279C24.7594 10.0196 24.4632 10.01 24.1908 10.1008C23.7373 10.2 23.438 10.6149 22.9119 11.413C22.726 11.6926 22.599 11.864 22.5129 12.0037C22.0594 12.0714 21.2158 12.2427 19.3882 12.6621C16.6919 13.2187 14.0499 14.0093 11.4926 15.025C8.97111 16.026 7.2886 16.9865 6.36798 17.8884C5.04827 19.1961 5.32037 20.3234 5.61062 20.9051C5.89557 21.4302 6.31083 21.8741 6.81695 22.1947C7.96886 22.9297 8.60377 22.3255 8.76703 22.1226C8.87348 22 8.95175 21.8558 8.9964 21.7C9.04104 21.5443 9.05098 21.3807 9.02553 21.2207C8.99031 21.0265 8.91279 20.8424 8.79841 20.6811C8.68403 20.5199 8.53556 20.3855 8.36341 20.2873L8.08677 20.0979C8.02058 20.0504 7.95839 19.9976 7.90083 19.9401H7.87816C7.9745 19.812 8.08393 19.6941 8.20469 19.5884C9.05274 18.7902 10.6899 17.9515 13.1343 17.0496C15.7918 16.0708 18.5208 15.2959 21.2975 14.7319L21.0072 15.3091C19.4063 18.5828 17.5696 22.799 15.5379 27.8404C11.3021 38.4236 11.4563 39.4788 11.5198 39.9884C11.5588 40.3747 11.7455 40.7315 12.0414 40.9849C12.2693 41.211 12.5766 41.3404 12.8985 41.3457C13.0974 41.3468 13.293 41.2954 13.4654 41.1969C13.7602 41.0526 14.1139 40.7008 14.0232 39.8441C14.0232 39.5915 14.1728 38.1982 17.0572 30.9067C19.3927 24.9409 21.6194 19.7958 23.6557 15.6337C24.082 14.786 24.3133 14.3711 24.4357 14.1682L25.243 14.051C34.7258 12.7478 36.4764 12.9958 36.7893 13.113C37.9095 13.6496 38.4265 12.9146 38.5217 12.7568L38.5534 12.6982C38.6291 12.5508 38.6738 12.3896 38.6847 12.2244C38.6956 12.0593 38.6726 11.8937 38.6169 11.7377Z" fill="#F74C4D"/>
<path d="M54.8571 27.2495C54.7256 26.7625 54.5895 26.28 54.4535 25.793L53.4966 22.3389C53.0854 20.8689 52.6712 19.3958 52.2539 17.9198C52.2539 17.8927 52.2539 17.8567 52.2222 17.8477C52.195 17.8477 52.1859 17.8792 52.1678 17.9018L50.9796 19.4484L49.1656 21.8384L46.7846 24.9453C46.6123 25.1662 46.44 25.3962 46.2722 25.6126C46.2722 25.6126 46.2314 25.6442 46.245 25.6713C46.25 25.6734 46.2554 25.6745 46.2608 25.6745C46.2663 25.6745 46.2717 25.6734 46.2767 25.6713H46.4581L49.9773 25.7073L52.1406 18.3572L51.5147 26.023L54.8208 27.2991C54.8208 27.2991 54.8571 27.2991 54.8752 27.2991C54.8798 27.3036 54.8571 27.2721 54.8571 27.2495Z" fill="#F74C4D"/>
<path d="M50.5846 26.6994H49.5007C49.3692 27.1503 49.2286 27.6373 49.0745 28.1017C47.5736 32.8133 45.0588 37.1433 41.7049 40.7909C35.5372 47.2301 26.3537 50.4137 17.7597 47.2617C10.4129 44.6193 4.7758 37.9094 3.07061 30.3699C0.204441 18.5646 8.3313 6.61501 19.7642 3.2601C25.3877 1.48795 31.6144 2.41686 36.7436 5.21262C42.1857 8.1662 45.4282 12.7882 44.7253 19.0877C44.0859 24.9768 41.2832 30.5458 37.9862 35.4203C36.6257 37.3187 35.1245 39.3524 33.1155 40.5519C32.6212 40.8315 32.1405 40.9126 31.9137 40.7097C31.8063 40.421 31.7511 40.1157 31.7505 39.8078C31.7452 38.8627 31.8287 37.9192 31.9999 36.9895C32.5593 34.0243 33.2876 31.0931 34.1813 28.21C34.7663 26.2665 35.3694 24.323 35.9953 22.3885C36.07 22.1446 36.0488 21.8815 35.9359 21.6525C35.8229 21.4236 35.6267 21.2458 35.387 21.1553C35.1472 21.0647 34.8818 21.0682 34.6445 21.1648C34.4072 21.2615 34.2156 21.4442 34.1087 21.676C33.3105 23.4391 32.4987 25.1978 31.6189 26.9203C30.7391 28.6429 29.8366 30.3429 28.848 31.9797C27.3968 34.2344 25.9047 36.8227 23.7098 38.2927C23.2971 38.5317 23.0431 38.5768 22.9479 38.4731C22.7556 37.6657 22.7019 36.8317 22.7891 36.0065C23.1973 31.3078 24.9433 26.7715 27.0612 22.5643C27.9228 20.8463 28.8752 19.1824 29.9183 17.5455C29.9962 17.3527 30.0048 17.139 29.9425 16.9406C29.8803 16.7422 29.751 16.5712 29.5766 16.4567C29.4022 16.3421 29.1933 16.291 28.9854 16.3119C28.7774 16.3328 28.5831 16.4245 28.4353 16.5715C25.0023 21.4956 22.2041 26.9068 20.9207 32.8004C20.5261 34.9243 20.1044 37.0482 20.7257 39.2262C20.8768 39.6684 21.1508 40.059 21.516 40.3527C21.8812 40.6464 22.3226 40.8311 22.7891 40.8856C24.7664 41.0163 26.1995 39.4471 27.3922 38.1484C28.3961 36.9274 29.323 35.6459 30.1677 34.311C29.2607 38.1259 28.9841 41.5259 30.3945 42.5314C33.9364 45.1874 38.1041 39.2171 39.8637 36.719C44.2265 30.0272 48.7933 20.9365 46.4124 12.8198C44.367 6.43013 38.0905 2.49803 31.9001 0.843126C27.6991 -0.294271 23.2609 -0.233328 19.093 1.01899C6.4175 4.63994 -2.49393 17.8882 0.626204 30.9155C2.50826 39.3208 8.70772 46.698 16.9026 49.6291C26.4263 53.1193 36.7572 49.6742 43.519 42.4954C47.4705 38.1444 50.2137 32.8448 51.478 27.1187L50.5846 26.6994Z" fill="#F74C4D"/>
</g>
<defs>
<clipPath id="clip0_5_8053">
<rect width="300" height="51" fill="white"/>
</clipPath>
</defs>
</svg>
