<svg width="42" height="47" viewBox="0 0 42 47" fill="none" xmlns="http://www.w3.org/2000/svg">
<path d="M36.1415 46.8C37.5807 46.8 38.7516 45.5388 38.7516 43.9885C38.8588 43.9964 38.9666 44.0007 39.0756 44.0007C40.2836 44.0007 41.2664 42.942 41.2664 41.6408V36.2227C41.2664 34.9215 40.2836 33.8628 39.0756 33.8628C38.9665 33.8628 38.8588 33.8683 38.7516 33.8762C38.7516 32.3259 37.5807 31.0635 36.1415 31.0635H32.6294C31.7976 30.3232 30.8177 29.7732 29.7728 29.4647L22.8241 27.4186V25.7958C24.2642 24.3902 25.2055 22.4025 25.3256 20.181C27.2289 18.0501 28.273 15.2655 28.273 12.2932V11.1128C28.273 8.13927 27.17 5.34516 25.167 3.24538C23.9205 1.93836 22.3731 0.972288 20.6924 0.451638C20.5332 0.40237 20.3647 0.399537 20.2043 0.443503L19.6257 0.602002L19.3764 0.341311C19.2262 0.184275 19.0313 0.0861961 18.8231 0.0627961C18.4523 0.0211148 18.0743 0 17.6993 0C11.8689 0 7.12546 4.98511 7.12546 11.1126V12.293C7.12546 15.2654 8.16961 18.0499 10.0729 20.1809C10.1929 22.4023 11.1343 24.39 12.5744 25.7957V27.4184L5.62539 29.4644C2.31324 30.4397 0 33.704 0 37.4027V45.7945C0 46.3498 0.417912 46.8 0.933408 46.8H36.1415ZM28.1227 31.0634H22.0685C22.3488 30.5693 22.5572 30.0285 22.6833 29.4617L28.1227 31.0634ZM8.99228 11.1126C8.99228 6.09387 12.8982 2.01094 17.6992 2.01094C17.9041 2.01094 18.1101 2.01852 18.3146 2.03361L18.7001 2.43652C18.9327 2.67985 19.2662 2.77546 19.5802 2.68935L20.4127 2.4612C21.7074 2.90526 22.8966 3.67097 23.865 4.68631C25.5038 6.40429 26.4061 8.68661 26.4061 11.1127V12.2931C26.4061 13.8989 26.036 15.4382 25.339 16.8028V12.4584C25.339 11.9959 25.046 11.5931 24.6292 11.4822C23.2997 11.1288 22.1088 10.3038 21.1851 9.09638C20.9791 8.8271 20.6581 8.69219 20.3373 8.73972C20.0163 8.78743 19.7413 9.01092 19.6107 9.33029C18.6113 11.773 16.4444 13.174 13.6654 13.174C12.6648 13.174 11.8897 13.088 11.2263 12.9035C10.9469 12.8257 10.6497 12.8916 10.4214 13.0821C10.1931 13.2725 10.0595 13.566 10.0595 13.877V16.8028C9.36242 15.4382 8.99236 13.8989 8.99236 12.2931L8.99228 11.1126ZM11.9273 19.7425C11.9273 19.7383 11.9271 19.7342 11.9271 19.73C11.927 19.7193 11.9263 19.7086 11.9263 19.6978V15.0839C12.4478 15.1521 13.0198 15.1849 13.6654 15.1849C16.7143 15.1849 19.201 13.831 20.674 11.4209C21.501 12.22 22.4468 12.8247 23.4722 13.208V19.6977C23.4722 19.7085 23.4716 19.7192 23.4715 19.7299C23.4714 19.7341 23.4712 19.7383 23.4712 19.7424C23.4486 23.1507 20.8686 25.9161 17.6993 25.9161C14.5299 25.9162 11.9499 23.1507 11.9273 19.7425ZM17.6993 27.9272C18.864 27.9272 19.9685 27.6445 20.9573 27.1402V28.1858C20.9573 29.3314 20.4281 30.4111 19.5625 31.0633H18.5376C17.9592 31.0633 17.4243 31.2673 16.9912 31.6117C15.5135 31.2634 14.4413 29.8578 14.4413 28.1858V27.1402C15.43 27.6445 16.5345 27.9272 17.6993 27.9272ZM1.8669 37.4027C1.8669 34.6078 3.61492 32.1411 6.11772 31.4042L12.7111 29.4629C13.1075 31.2842 14.3357 32.7608 15.9681 33.3849C15.9419 33.5442 15.9276 33.7077 15.9276 33.8749V43.9885C15.9276 44.2667 15.9659 44.5352 16.036 44.7891H8.15416V38.0287C8.15416 37.4734 7.73625 37.0232 7.22076 37.0232C6.70526 37.0232 6.28735 37.4734 6.28735 38.0287V44.7891H1.8669V37.4027ZM36.1415 33.0743C36.5514 33.0743 36.8848 33.4334 36.8848 33.8748V34.4475C35.3908 35.298 34.3699 36.9884 34.3699 38.9317C34.3699 40.875 35.3908 42.5653 36.8848 43.4158V43.9884C36.8848 44.4298 36.5514 44.789 36.1415 44.789H18.5376C18.1277 44.789 17.7943 44.4298 17.7943 43.9884V33.8749C17.7943 33.4335 18.1277 33.0743 18.5376 33.0743L36.1415 33.0743ZM39.3996 41.6408C39.3996 41.8332 39.2542 41.9897 39.0756 41.9897C37.5103 41.9897 36.2367 40.6179 36.2367 38.9317C36.2367 37.2455 37.5103 35.8736 39.0756 35.8736C39.2542 35.8736 39.3996 36.0301 39.3996 36.2226V41.6408Z" fill="#57AFFF"/>
<path d="M27.3451 43.9162C26.8232 44.1792 23.5404 40.0758 23.1513 39.8113C22.5492 39.1618 22.2186 38.2993 22.2202 37.3825C22.1412 34.6198 25.3818 32.9305 27.3451 34.6603C29.3085 32.9318 32.5492 34.6188 32.4699 37.3827C32.4716 38.2994 32.1409 39.1619 31.5388 39.8113C31.1368 40.0889 27.8847 44.163 27.3451 43.9162ZM25.4112 35.9702C24.2849 35.9186 23.6312 37.5522 24.4721 38.3901C24.4721 38.3901 27.3451 41.4881 27.3451 41.4881C27.7863 40.8247 30.7656 38.3218 30.6033 37.3866C30.6337 36.1548 29.124 35.4893 28.34 36.3886C26.8859 38.1266 26.718 35.9734 25.4112 35.9702Z" fill="#F74C4D"/>
</svg>
