<svg width="47" height="47" viewBox="0 0 47 47" fill="none" xmlns="http://www.w3.org/2000/svg">
<path d="M36.5545 14.4785C37.6142 14.4785 38.4763 13.5516 38.4763 12.412V8.2233C38.4763 7.08378 37.6142 6.15682 36.5545 6.15682H36.2181V2.06648C36.2181 0.926963 35.3559 0 34.2963 0H20.4219C19.3622 0 18.5 0.926963 18.5 2.06648V6.25523C18.5 7.39474 19.3622 8.3217 20.4219 8.3217H20.7582V12.3136H20.4219C19.3622 12.3136 18.5 13.2406 18.5 14.3801V18.5689C18.5 19.7084 19.3622 20.6353 20.4219 20.6353H20.7582V24.7257C20.7582 25.8652 21.6204 26.7922 22.6801 26.7922H36.5545C37.6142 26.7922 38.4763 25.8652 38.4763 24.7257V20.5369C38.4763 19.3974 37.6142 18.4705 36.5545 18.4705H36.2181V14.4785H36.5545ZM20.5134 2.16488H34.2047V6.15682H20.5134V2.16488ZM22.7716 8.3217H36.4629V12.3136H22.7716V8.3217ZM36.4629 24.6273H22.7716V20.6353H36.4629V24.6273ZM34.2047 18.4705H20.5134V14.4785H34.2047V18.4705Z" fill="#F74C4D"/>
<path d="M8.62388 21.2954H8.9819V21.6803C8.9819 22.2781 9.43263 22.7628 9.9886 22.7628C10.5446 22.7628 10.9953 22.2781 10.9953 21.6803V21.2954H11.3533C11.9093 21.2954 12.36 20.8107 12.36 20.2129C12.36 19.6151 11.9093 19.1305 11.3533 19.1305H10.9953V18.7455C10.9953 18.1477 10.5446 17.6631 9.9886 17.6631C9.43263 17.6631 8.9819 18.1477 8.9819 18.7455V19.1305H8.62388C8.06791 19.1305 7.61719 19.6151 7.61719 20.2129C7.61719 20.8107 8.06782 21.2954 8.62388 21.2954Z" fill="#57AFFF"/>
<path d="M40.8934 4.96333H41.2514V5.34828C41.2514 5.94609 41.7022 6.43072 42.2581 6.43072C42.8141 6.43072 43.2648 5.94609 43.2648 5.34828V4.96333H43.6228C44.1788 4.96333 44.6295 4.47869 44.6295 3.88089C44.6295 3.28309 44.1788 2.79845 43.6228 2.79845H43.2648V2.41349C43.2648 1.81569 42.8141 1.33105 42.2581 1.33105C41.7022 1.33105 41.2514 1.81569 41.2514 2.41349V2.79845H40.8934C40.3374 2.79845 39.8867 3.28309 39.8867 3.88089C39.8867 4.47869 40.3374 4.96333 40.8934 4.96333Z" fill="#57AFFF"/>
<path d="M45.6871 29.5179C44.9326 28.7065 43.9295 28.2598 42.8625 28.2598C41.7954 28.2598 40.7923 28.7066 40.0378 29.5179L35.8654 34.0041C35.2102 32.5922 33.8529 31.6202 32.2884 31.6202H29.2296C28.0374 31.6202 26.8438 31.3165 25.7779 30.7419C24.4335 30.0171 22.9277 29.6339 21.4238 29.6339H20.0556C18.5758 29.6339 17.1413 29.9649 15.7919 30.6177L14.8598 31.0686C13.7716 31.595 12.615 31.8618 11.4221 31.8618H3.30398C1.48213 31.8618 0 33.4555 0 35.4143V43.2476C0 45.2065 1.48213 46.8002 3.30398 46.8002H33.3146C34.8345 46.8002 36.3091 46.1233 37.3604 44.9428L45.6954 35.5831C47.2447 33.9077 47.2419 31.1895 45.6871 29.5179ZM44.2635 34.0614C44.2582 34.067 44.2533 34.0726 44.2482 34.0782L35.9062 43.4457C35.2328 44.2018 34.2882 44.6354 33.3147 44.6354H3.30398C2.59234 44.6354 2.01339 44.0129 2.01339 43.2477V35.4144C2.01339 34.6493 2.59234 34.0267 3.30398 34.0267H11.4222C12.9018 34.0267 14.3364 33.6957 15.6859 33.0429L16.6181 32.5919C17.7061 32.0655 18.8627 31.7987 20.0557 31.7987H21.4239C22.6162 31.7987 23.8098 32.1023 24.8757 32.677C26.2201 33.4018 27.7258 33.7849 29.2297 33.7849H32.2885C33.3811 33.7849 34.2698 34.7406 34.2698 35.9153C34.2698 35.9667 34.2673 36.0245 34.2622 36.0917C34.2619 36.0952 34.262 36.0986 34.2618 36.102C34.2518 36.2221 34.2321 36.3442 34.201 36.4678C33.9638 37.4093 33.1451 38.0456 32.2379 38.0456H21.7389C21.1846 38.0456 20.7091 38.5119 20.699 39.1078C20.6886 39.7148 21.1432 40.2105 21.7055 40.2105H32.2884C34.246 40.2105 35.878 38.6883 36.2173 36.6872L41.4616 31.0484C41.8358 30.6461 42.3333 30.4245 42.8626 30.4245C43.3918 30.4245 43.8893 30.6461 44.2636 31.0484C45.036 31.8793 45.036 33.2307 44.2635 34.0614Z" fill="#57AFFF"/>
</svg>
