<svg width="44" height="47" viewBox="0 0 44 47" fill="none" xmlns="http://www.w3.org/2000/svg">
<path d="M34.3159 19.5936H16.8435C16.3287 19.5936 15.9113 19.1431 15.9113 18.5874C15.9113 18.0317 16.3287 17.5811 16.8435 17.5811H34.3159C38.2926 17.5811 41.5279 14.0891 41.5279 9.79681C41.5279 5.50453 38.2926 2.01249 34.3159 2.01249H9.07647C5.09979 2.01249 1.86452 5.50453 1.86452 9.79672C1.86452 14.089 5.09979 17.581 9.07647 17.581H10.9699C11.4848 17.581 11.9021 18.0316 11.9021 18.5873C11.9021 19.143 11.4848 19.5935 10.9699 19.5935H9.07647C4.07168 19.5936 0 15.1988 0 9.79681C0 4.39482 4.07168 0 9.07647 0H34.316C39.3207 0 43.3924 4.39482 43.3924 9.79672C43.3924 15.1988 39.3207 19.5936 34.3159 19.5936Z" fill="#F74C4D"/>
<path d="M37.0446 12.0301L34.5739 9.45743L36.8195 7.2295C37.1985 6.85344 37.2234 6.21685 36.8749 5.80768C36.5265 5.3985 35.9367 5.3717 35.5576 5.74776L33.9583 7.33452V6.40859C33.9583 5.85287 33.5409 5.40234 33.026 5.40234C32.5111 5.40234 32.0938 5.85287 32.0938 6.40859V12.7543C32.0938 13.3101 32.5111 13.7606 33.026 13.7606C33.5409 13.7606 33.9583 13.3101 33.9583 12.7543V11.6128L35.75 13.4786C35.9309 13.667 36.1642 13.7606 36.3972 13.7606C36.6414 13.7606 36.8853 13.6576 37.0682 13.453C37.4257 13.053 37.4151 12.416 37.0446 12.0301Z" fill="#F74C4D"/>
<path d="M10.7088 9.2045C10.8864 8.85387 10.9875 8.45201 10.9875 8.025C10.9875 6.66501 9.96248 5.55859 8.70249 5.55859H6.99476C6.4799 5.55859 6.0625 6.00912 6.0625 6.56484V9.48689V9.49165V12.9106C6.0625 13.1783 6.16132 13.4349 6.33701 13.6237C6.51176 13.8115 6.7483 13.9168 6.99476 13.9168H6.99891C6.99908 13.9168 8.56824 13.9093 9.00073 13.9093C10.3873 13.9093 11.5155 12.6916 11.5155 11.1949C11.5155 10.4092 11.2042 9.70058 10.7088 9.2045ZM7.92702 7.57109H8.70249C8.93437 7.57109 9.12302 7.77471 9.12302 8.025C9.12302 8.27528 8.93437 8.4789 8.70249 8.4789C8.55197 8.4789 8.24212 8.48 7.92702 8.48119V7.57109ZM9.00073 11.8968C8.79868 11.8968 8.3495 11.8984 7.92702 11.9001V10.4937C8.23848 10.4924 8.54485 10.4914 8.69706 10.4914L9.00073 10.4931C9.35922 10.4931 9.65102 10.808 9.65102 11.1949C9.65102 11.5819 9.35922 11.8968 9.00073 11.8968Z" fill="#F74C4D"/>
<path d="M26.2118 13.9168C24.0768 13.9168 22.3398 12.0421 22.3398 9.73772C22.3398 7.43332 24.0767 5.55859 26.2118 5.55859C28.3466 5.55859 30.0836 7.43332 30.0836 9.73772C30.0836 12.0421 28.3467 13.9168 26.2118 13.9168ZM26.2118 7.57109C25.1048 7.57109 24.2044 8.54303 24.2044 9.73772C24.2044 10.9324 25.1048 11.9044 26.2118 11.9044C27.3186 11.9044 28.2191 10.9324 28.2191 9.73772C28.2191 8.54303 27.3186 7.57109 26.2118 7.57109Z" fill="#F74C4D"/>
<path d="M16.8484 13.9168C14.7135 13.9168 12.9766 12.0421 12.9766 9.73772C12.9766 7.43332 14.7134 5.55859 16.8484 5.55859C18.9834 5.55859 20.7203 7.43332 20.7203 9.73772C20.7203 12.0421 18.9834 13.9168 16.8484 13.9168ZM16.8484 7.57109C15.7416 7.57109 14.8411 8.54303 14.8411 9.73772C14.8411 10.9324 15.7416 11.9044 16.8484 11.9044C17.9553 11.9044 18.8558 10.9324 18.8558 9.73772C18.8558 8.54303 17.9553 7.57109 16.8484 7.57109Z" fill="#F74C4D"/>
<path d="M23.0856 46.8013H20.3035C14.8203 46.8013 10.3594 41.9863 10.3594 36.0679L10.378 19.1475C10.378 17.0474 11.9618 15.3379 13.9087 15.3379C15.8555 15.3379 17.4393 17.0474 17.4393 19.1487V25.0828C17.9358 24.7947 18.5032 24.6312 19.1054 24.6312C20.1322 24.6312 21.0581 25.1067 21.7038 25.8646C22.3495 25.1067 23.2754 24.6312 24.3022 24.6312C25.329 24.6312 26.2549 25.1069 26.9006 25.8646C27.5463 25.1069 28.4722 24.6312 29.499 24.6312C31.4458 24.6312 33.0296 26.3408 33.0296 28.4421V36.0679C33.0297 41.9863 28.5688 46.8013 23.0856 46.8013ZM13.9087 17.3504C12.99 17.3504 12.2425 18.1571 12.2425 19.1487L12.2239 36.0691C12.2239 40.8766 15.8484 44.7888 20.3035 44.7888H23.0856C27.5406 44.7888 31.1652 40.8766 31.1652 36.0679V28.4421C31.1652 27.4505 30.4178 26.6437 29.4991 26.6437C28.5804 26.6437 27.833 27.4504 27.833 28.4421C27.833 28.9979 27.4156 29.4484 26.9007 29.4484C26.3858 29.4484 25.9684 28.9979 25.9684 28.4421C25.9684 27.4505 25.221 26.6437 24.3023 26.6437C23.3835 26.6437 22.6361 27.4504 22.6361 28.4421C22.6361 28.9979 22.2187 29.4484 21.7039 29.4484C21.189 29.4484 20.7716 28.9979 20.7716 28.4421C20.7716 27.4505 20.0242 26.6437 19.1055 26.6437C18.1868 26.6437 17.4394 27.4504 17.4394 28.4421C17.4394 28.9979 17.022 29.4484 16.5071 29.4484C15.9923 29.4484 15.5749 28.9979 15.5749 28.4421V19.1487C15.5748 18.157 14.8274 17.3504 13.9087 17.3504Z" fill="#57AFFF"/>
</svg>
