<svg width="49" height="47" viewBox="0 0 49 47" fill="none" xmlns="http://www.w3.org/2000/svg">
<path d="M25.5518 9.61477C24.9731 9.61477 24.5039 9.14263 24.5039 8.56026V6.69904C24.5039 6.11666 24.9731 5.64453 25.5518 5.64453C26.1305 5.64453 26.5996 6.11666 26.5996 6.69904V8.56026C26.5996 9.14263 26.1305 9.61477 25.5518 9.61477Z" fill="#F74C4D"/>
<path d="M25.5518 41.1479C24.9731 41.1479 24.5039 40.6758 24.5039 40.0934V38.0887C24.5039 37.5063 24.9731 37.0342 25.5518 37.0342C26.1305 37.0342 26.5996 37.5063 26.5996 38.0887V40.0934C26.5996 40.6758 26.1305 41.1479 25.5518 41.1479Z" fill="#F74C4D"/>
<path d="M42.2012 24.3766H40.208C39.6293 24.3766 39.1602 23.9045 39.1602 23.3221C39.1602 22.7397 39.6293 22.2676 40.208 22.2676H42.2012C42.7799 22.2676 43.249 22.7397 43.249 23.3221C43.249 23.9045 42.7799 24.3766 42.2012 24.3766Z" fill="#F74C4D"/>
<path d="M35.9151 13.9378C35.6471 13.9378 35.3791 13.835 35.1745 13.6293C34.7651 13.2177 34.7647 12.55 35.1737 12.1379L36.4936 10.8082C36.9025 10.3962 37.5661 10.3959 37.9754 10.8075C38.3849 11.219 38.3853 11.8867 37.9762 12.2988L36.6564 13.6285C36.4518 13.8347 36.1833 13.9378 35.9151 13.9378Z" fill="#F74C4D"/>
<path d="M37.3386 36.2542C37.0702 36.2542 36.8019 36.1511 36.5973 35.9449L35.1737 34.5109C34.7647 34.0988 34.765 33.4311 35.1745 33.0195C35.5839 32.6078 36.2474 32.6081 36.6564 33.0203L38.08 34.4543C38.489 34.8663 38.4887 35.534 38.0792 35.9457C37.8746 36.1514 37.6066 36.2542 37.3386 36.2542Z" fill="#F74C4D"/>
<path d="M15.1775 13.9375C14.9091 13.9375 14.6408 13.8344 14.4362 13.6282L13.0526 12.2345C12.6437 11.8224 12.6439 11.1547 13.0534 10.7431C13.4628 10.3314 14.1263 10.3318 14.5353 10.7439L15.9189 12.1376C16.3279 12.5497 16.3276 13.2174 15.9181 13.629C15.7135 13.8347 15.4455 13.9375 15.1775 13.9375Z" fill="#F74C4D"/>
<path d="M41.9701 6.85404C37.5824 2.4342 31.7486 0 25.5433 0C19.724 0 14.1563 2.17766 9.86601 6.13189C5.69035 9.98047 3.0665 15.1852 2.45254 20.8208L2.16085 21.0058C1.11413 21.6696 0.387671 22.7049 0.115225 23.9206C-0.156267 25.1325 0.0556876 26.3785 0.712129 27.4292C0.713843 27.432 0.715558 27.4348 0.717368 27.4374L11.339 44.0958C12.195 45.4631 13.6846 46.2742 15.2595 46.2742C15.4791 46.2742 15.7005 46.2584 15.9219 46.2262C15.9262 46.2255 15.9306 46.2248 15.9349 46.2241C16.5714 46.1296 17.1722 45.9052 17.7208 45.5572L17.8393 45.4821C20.3098 46.3566 22.9009 46.8 25.5435 46.8C31.7488 46.8 37.5827 44.3658 41.9703 39.946C46.3577 35.5263 48.774 29.6503 48.774 23.4C48.774 17.1497 46.3575 11.2736 41.9701 6.85404ZM15.6215 44.1386C15.6183 44.1391 15.6153 44.1396 15.6122 44.14C14.6243 44.2805 13.6429 43.8215 13.1105 42.9692C13.1088 42.9665 13.1071 42.9637 13.1053 42.961L2.48388 26.303C2.12627 25.7284 2.01101 25.0471 2.15942 24.3845C2.30851 23.7192 2.70574 23.1529 3.27807 22.7899L5.58862 21.3244C5.89097 21.1326 6.22124 21.0096 6.57028 20.9588C7.56175 20.8137 8.54694 21.2733 9.08106 22.1282L10.9144 25.0626C11.0689 25.3098 11.1188 25.6027 11.0551 25.8872C10.9912 26.1719 10.8212 26.4142 10.5763 26.5696L8.23134 28.057C7.9929 28.2082 7.82505 28.4498 7.7657 28.727C7.70636 29.0043 7.76046 29.294 7.91593 29.5306L12.6104 36.6772C12.9246 37.1553 13.561 37.2936 14.0433 36.9877L16.3744 35.5091C16.5041 35.4269 16.6452 35.3742 16.794 35.3525C17.2189 35.2906 17.6416 35.4874 17.8707 35.854L19.704 38.7885C20.0643 39.3653 20.1808 40.0487 20.032 40.7129C19.883 41.378 19.4857 41.9444 18.9134 42.3074L16.603 43.7728C16.3007 43.9648 15.9705 44.0878 15.6215 44.1386ZM22.1568 39.574C22.0743 38.9039 21.8459 38.2545 21.4783 37.6661L19.6449 34.7316C18.975 33.6593 17.7383 33.0839 16.4937 33.2653C16.0525 33.3297 15.6363 33.4844 15.2568 33.7252L13.7932 34.6535L10.2549 29.2666L11.6938 28.3539C12.4131 27.8977 12.9123 27.1865 13.0995 26.3511C13.286 25.5188 13.14 24.6626 12.6887 23.9402L10.8554 21.0058C10.514 20.4594 10.0714 20.0015 9.56251 19.6485C11.2738 12.2145 17.9111 6.8736 25.5432 6.8736C34.589 6.8736 41.9482 14.2873 41.9482 23.4C41.9482 32.5127 34.589 39.9263 25.5432 39.9263C24.4013 39.9263 23.2644 39.8079 22.1568 39.574ZM25.5432 44.6909C23.7164 44.6909 21.9172 44.4582 20.1732 43.9979C20.9998 43.4308 21.6109 42.6243 21.9343 41.6807C23.1174 41.9163 24.328 42.0353 25.5432 42.0353C35.7445 42.0353 44.0439 33.6755 44.0439 23.3999C44.0439 13.1243 35.7446 4.76457 25.5432 4.76457C17.0395 4.76457 9.63091 10.6443 7.5929 18.8713C7.16061 18.8084 6.71564 18.8065 6.26992 18.8716C5.74846 18.9477 5.25101 19.1105 4.78643 19.3571C6.66439 9.39292 15.2596 2.10902 25.5432 2.10902C37.197 2.10902 46.678 11.6601 46.678 23.4C46.678 35.1399 37.1971 44.6909 25.5432 44.6909Z" fill="#57AFFF"/>
<path d="M26.0327 27.1102C26.0353 26.7978 26.0389 26.3401 26.0427 25.8055C26.559 25.7401 26.9585 25.2966 26.9585 24.7593C26.9585 24.2265 26.5658 23.786 26.0558 23.7147C26.0645 22.0082 26.0675 20.3246 26.047 20.075C25.9916 19.398 25.5815 18.8448 25.0024 18.6656C24.425 18.487 23.8196 18.7055 23.3829 19.2504C22.9773 19.7564 21.2476 22.9181 20.5227 24.2539C20.3455 24.5806 20.3524 24.9772 20.5412 25.2974C20.73 25.6175 21.0725 25.8138 21.4424 25.8138H23.9469C23.9436 26.2664 23.9404 26.6999 23.9372 27.0928C23.9324 27.6752 24.3976 28.1512 24.9764 28.1561H24.9852C25.5597 28.156 26.0279 27.6896 26.0327 27.1102ZM23.9597 23.7047H23.2159C23.4778 23.2302 23.7328 22.7722 23.9655 22.3589C23.9641 22.778 23.9622 23.2342 23.9597 23.7047Z" fill="#F74C4D"/>
<path d="M19.3419 26.0673C18.7956 26.0743 18.2218 26.0795 17.7006 26.0821C18.0664 25.5781 18.5343 24.9204 19.1234 24.0646C19.5948 23.3798 19.9032 22.7288 20.0398 22.1294C20.0476 22.0953 20.0537 22.0607 20.0581 22.026L20.0933 21.7462C20.0988 21.7022 20.1016 21.658 20.1016 21.6137C20.1016 20.0115 18.8147 18.708 17.233 18.708C15.8643 18.708 14.6804 19.6945 14.4179 21.0537C14.3075 21.6254 14.6784 22.1789 15.2466 22.29C15.8145 22.4004 16.3646 22.0278 16.4751 21.4561C16.5467 21.0858 16.8654 20.817 17.2331 20.817C17.642 20.817 17.9777 21.146 18.0044 21.5606L17.9864 21.7023C17.9255 21.9388 17.7737 22.3219 17.4009 22.8636C16.2764 24.4969 15.6058 25.3898 15.2455 25.8694C14.7806 26.4882 14.5246 26.8291 14.6984 27.3961C14.8022 27.7347 15.056 27.9948 15.395 28.1097C15.5344 28.157 15.6458 28.1949 17.0607 28.1949C17.6087 28.1949 18.3524 28.1891 19.3688 28.1762C19.9475 28.1688 20.4106 27.6907 20.4032 27.1083C20.3956 26.526 19.9181 26.056 19.3419 26.0673Z" fill="#F74C4D"/>
<path d="M29.0283 28.1887C29.607 28.1887 30.0762 27.7166 30.0762 27.1342V24.2406H33.225V27.1342C33.225 27.7166 33.6942 28.1887 34.2729 28.1887C34.8516 28.1887 35.3208 27.7166 35.3208 27.1342V19.4998C35.3208 18.9174 34.8516 18.4453 34.2729 18.4453C33.6942 18.4453 33.225 18.9174 33.225 19.4998V22.1316H30.0762V19.4998C30.0762 18.9174 29.607 18.4453 29.0283 18.4453C28.4496 18.4453 27.9805 18.9174 27.9805 19.4998V27.1342C27.9805 27.7166 28.4496 28.1887 29.0283 28.1887Z" fill="#F74C4D"/>
</svg>
