<svg width="44" height="44" viewBox="0 0 44 44" fill="none" xmlns="http://www.w3.org/2000/svg">
<rect width="44" height="44" rx="22" fill="white"/>
<g clip-path="url(#clip0_34489_16992)">
<path d="M35.2721 22.2739C35.2721 29.9956 29.8363 35.4479 22.1146 35.4479C14.3929 35.4479 9.47656 29.9472 9.47656 22.2255C9.47656 17.429 10.5485 13.1966 14.2293 10.6783C16.474 9.14246 19.1893 8.24414 22.1146 8.24414C25.9754 8.24414 29.4707 9.80907 32.0009 12.3392C34.531 14.8693 35.2721 18.4131 35.2721 22.2739Z" fill="#3A84FF"/>
<path d="M23.936 19.9949V22.2779C23.936 23.0638 23.3054 23.7289 22.5196 23.7164C21.9635 23.7076 21.514 24.1735 21.5499 24.7353C21.5814 25.2277 22.0361 25.6287 22.5295 25.6287H23.3625C23.6839 25.6287 23.9298 25.8927 23.9361 26.214C23.9423 26.5255 24.1968 26.7761 24.5097 26.7761C25.5495 26.7761 26.3925 27.619 26.3925 28.6589C26.3928 28.69 26.3931 28.7208 26.3934 28.7512C26.4116 30.7821 24.5023 32.2813 22.5344 31.7795C21.3997 31.4901 20.3154 31.0607 19.3023 30.5066C18.0366 29.8144 17.2359 28.4991 17.1992 27.0569C17.1992 27.0566 17.1992 27.0564 17.1992 27.0564C17.1778 26.7187 16.8901 26.4612 16.5536 26.4757C16.2064 26.4907 15.9047 26.2434 15.8828 25.8965L15.6975 22.9631C15.6709 22.5417 15.3111 22.2042 14.8902 22.2373C14.4594 22.2712 14.0857 21.9458 14.0586 21.5161L14.0518 21.408C14.0248 20.9823 14.3481 20.6155 14.7737 20.5886L16.0424 20.5085C16.9563 20.4507 17.7011 19.7531 17.8184 18.8448L18.1651 16.1605C18.1867 15.9928 18.3243 15.8639 18.4931 15.8533L18.5241 15.8514C19.2286 15.8071 19.7905 15.2163 19.7621 14.5111C19.7327 13.7856 19.113 13.23 18.3924 13.2755C18.1944 13.2879 18.03 13.1428 18.0175 12.9448C17.9629 12.0856 17.2223 11.4332 16.3631 11.4875C16.3631 11.4875 10.6263 13.4351 9.98878 22.1469C9.67686 26.4096 10.3194 30.722 13.4518 33.199C13.8993 33.5529 14.369 33.88 14.8584 34.1778C18.7226 36.5298 23.432 36.8141 27.4521 35.1521C27.9839 34.9323 28.6433 33.7419 29.1548 33.451C29.1548 33.451 31.1168 32.9975 32.0018 32.1129C34.0895 30.0259 35.5203 27.2819 35.9574 24.2176C36.4199 20.9753 23.936 19.0123 23.936 19.9949Z" fill="#4073C8"/>
<path d="M22.6173 20.9967C23.6757 22.1861 24.4374 23.5816 25.1708 24.986C25.8739 26.3324 26.6863 27.6752 27.1389 29.1334C27.1982 29.3244 27.4361 30.2764 27.4617 30.3227C27.5363 30.3735 27.5762 30.4288 27.5913 30.466C27.6057 30.4825 27.6196 30.4976 27.6329 30.5113C28.3253 30.9957 29.2879 31.3044 30.0987 31.5301H32.0002V31.4031C32.0002 31.0869 32.26 30.845 32.5761 30.8387C32.8825 30.8326 33.1291 30.5823 33.1291 30.2744V26.7609C33.1291 25.5506 34.1102 24.5695 35.3204 24.5695C35.526 24.5695 35.7247 24.5406 35.9133 24.4877C35.9178 24.434 36.0963 23.4939 36.0963 22.2263C36.0963 18.4248 34.5784 14.9784 32.1166 12.4581C32.1165 12.4581 32.1165 12.458 32.1165 12.458H27.6337C26.9074 12.458 26.32 13.0511 26.3269 13.7751C26.3307 14.257 25.9536 14.6545 25.4717 14.6545H25.2855C24.9152 14.6545 24.5999 14.9508 24.6057 15.321C24.6116 15.7 24.3062 16.009 23.9286 16.009C23.3924 16.0092 22.6062 16.6714 22.6173 20.9967Z" fill="#9BD069"/>
<path d="M32.0161 31.2347C31.2341 31.6742 30.2715 31.0874 30.2904 30.1905C30.2979 29.8326 30.3166 29.435 30.2921 28.9646C30.2921 28.2426 29.7093 27.6567 28.9884 27.6516C28.2612 27.6465 27.6661 27.0658 27.6661 26.3386V23.2651C27.6661 22.2253 26.8231 21.3823 25.7833 21.3823C25.4704 21.3823 25.2159 21.1317 25.2097 20.8203C25.2033 20.4989 24.9574 20.2349 24.636 20.2349H23.8031C23.3097 20.2349 22.8549 19.8339 22.8235 19.3415C22.7876 18.7797 23.2371 18.3138 23.7931 18.3226C24.5789 18.3351 25.2096 17.6699 25.2096 16.8841V14.6592C24.8735 14.6966 24.6009 14.9767 24.6062 15.321C24.6121 15.7 24.3067 16.0091 23.9291 16.0091C22.9464 16.0091 22.1498 16.8057 22.1498 17.7884V20.0713C22.1498 20.8572 21.5192 21.5223 20.7334 21.5099C20.1773 21.501 19.7278 21.967 19.7637 22.5287C19.7952 23.0211 20.2499 23.4221 20.7433 23.4221H21.5762C21.8976 23.4221 22.1435 23.6861 22.1499 24.0075C22.1561 24.319 22.4105 24.5695 22.7235 24.5695C23.7634 24.5695 24.6063 25.4125 24.6063 26.4523V29.5258C24.6063 30.253 25.2014 30.8338 25.9286 30.8388C26.6495 30.8439 27.2323 31.4297 27.2323 32.1518V33.8235C27.2323 34.2896 27.3666 34.7241 27.5978 35.0914C29.2192 34.3995 30.7008 33.4079 32.0008 32.1136C32.009 31.4428 31.9805 31.3734 32.0294 31.2272C32.0249 31.2298 32.0205 31.2322 32.0161 31.2347Z" fill="#69B76B"/>
<path d="M14.8658 28.555C14.8796 28.5353 14.8945 28.5156 14.9117 28.496C15.0157 28.378 15.1642 28.2994 15.3331 28.2874C15.6748 28.2631 15.9404 27.9835 15.9188 27.6417L15.8206 26.0874C15.7987 25.7405 15.4971 25.4932 15.1498 25.5082C14.8133 25.5228 14.5256 25.2653 14.5043 24.9276L14.319 21.9943C14.2923 21.5729 13.9326 21.2353 13.5117 21.2685C13.0809 21.3024 12.7072 20.9771 12.6801 20.5473L12.6732 20.4392C12.6463 20.0135 12.9696 19.6467 13.3952 19.6198L14.6638 19.5397C15.5778 19.4819 16.3226 18.7843 16.4399 17.876L16.7865 15.1917C16.8082 15.024 16.9458 14.8951 17.1146 14.8845L17.1456 14.8826C17.85 14.8383 18.412 14.2475 18.3835 13.5423C18.3542 12.8169 17.7344 12.2612 17.0138 12.3067C16.8158 12.3192 16.6515 12.1741 16.6389 11.9761C16.5843 11.1169 15.8438 10.4645 14.9845 10.5188L14.417 10.5546C13.5643 11.1182 12.6109 11.6425 12.0688 12.5043C10.5165 14.9714 10.0888 19.9404 10.0549 23.7095C10.031 26.3799 12.1951 28.555 14.8658 28.555Z" fill="#9BD069"/>
<path d="M14.9965 28.4151C12.3882 25.8753 10.7676 22.3261 10.7676 18.3978C10.7676 16.2921 11.2341 14.2957 12.068 12.5049C9.63262 15.0208 8.13281 18.4477 8.13281 22.226C8.13281 26.6886 10.2236 30.663 13.4792 33.2228L13.3128 30.5891C13.2912 30.2472 13.5508 29.9525 13.8928 29.9309L14.196 29.9118C14.5379 29.8901 14.7975 29.5954 14.7759 29.2536L14.7564 28.9452C14.743 28.7318 14.8392 28.5368 14.9965 28.4151Z" fill="#69B76B"/>
<path d="M31.5858 7.23926C30.9389 7.23926 30.3156 7.34014 29.7305 7.52651C29.731 7.54354 29.7318 7.56051 29.7318 7.57761L31.7234 24.875C31.7234 24.875 37.6944 16.7216 37.6944 13.3479C37.6944 9.97416 34.9595 7.23926 31.5858 7.23926Z" fill="#F5415F"/>
<path d="M34.1922 14.9198C34.3333 13.45 33.2064 12.1248 31.7319 12.0464C31.7143 12.0455 31.6966 12.0447 31.679 12.0441C30.3971 12.0011 29.7127 10.5117 30.5201 9.5151C30.6752 9.32366 30.8426 9.14012 31.0216 8.96603C31.6947 8.31181 31.0581 7.18493 30.1466 7.40886C27.5385 8.04961 25.4805 10.3907 25.4805 13.3472C25.4805 16.7209 31.7266 24.8743 31.7266 24.8743C31.7266 24.8743 31.7271 24.8736 31.7281 24.8723C32.8216 23.3761 32.896 21.3676 31.9232 19.7903C31.8776 19.7163 31.8321 19.642 31.7867 19.5675C31.2308 18.6555 31.633 17.4816 32.6148 17.0611C33.4487 16.7038 34.0957 15.9247 34.1922 14.9198Z" fill="#CD2846"/>
<path d="M31.5844 15.9627C33.0289 15.9627 34.2 14.7916 34.2 13.3471C34.2 11.9025 33.0289 10.7314 31.5844 10.7314C30.1398 10.7314 28.9688 11.9025 28.9688 13.3471C28.9688 14.7916 30.1398 15.9627 31.5844 15.9627Z" fill="white"/>
<path d="M29.1707 12.3379C29.0178 12.7029 28.9453 13.11 28.9755 13.537C29.0692 14.8652 30.1749 15.9227 31.5058 15.9616C32.374 15.9871 33.1501 15.5893 33.6437 14.9594C33.9241 14.6014 33.5887 14.0972 33.1439 14.1917C31.8372 14.469 30.4684 13.6725 30.0861 12.3803C29.9572 11.9447 29.3462 11.9189 29.1707 12.3379Z" fill="#D0FBFD"/>
</g>
<defs>
<clipPath id="clip0_34489_16992">
<rect width="32" height="32" fill="white" transform="translate(6 6.00098)"/>
</clipPath>
</defs>
</svg>
