<svg width="44" height="44" viewBox="0 0 44 44" fill="none" xmlns="http://www.w3.org/2000/svg">
<rect width="44" height="44" rx="22" fill="white"/>
<path d="M11.8264 13.2842L12.8936 14.9328L14.8797 15.3885C15.127 15.4445 15.2785 15.6806 15.218 15.9153C15.202 15.9819 15.1684 16.0455 15.1206 16.0969L13.7966 17.5729L13.9545 19.5091C13.9736 19.7499 13.7822 19.9603 13.5286 19.9784C13.4425 19.9845 13.3611 19.9679 13.2893 19.9346L11.4276 19.2048L9.53727 19.9466C9.30272 20.0374 9.03312 19.9315 8.93584 19.7074C8.90873 19.6454 8.8959 19.5773 8.90226 19.5091L9.06024 17.5729L7.73625 16.0969C7.57033 15.9137 7.59261 15.6367 7.78564 15.4809C7.84781 15.4294 7.91971 15.3976 7.99465 15.384L9.96317 14.9329L11.0352 13.2782C11.1676 13.0724 11.4531 13.0072 11.6701 13.1344C11.7371 13.1737 11.7882 13.2252 11.8264 13.2842ZM32.2294 13.2873L31.1622 14.9358L29.1761 15.3915C28.9288 15.4475 28.7773 15.6837 28.8363 15.9183C28.8539 15.9865 28.8874 16.0486 28.9336 16.1L30.2593 17.576L30.1014 19.5122C30.0822 19.7544 30.2721 19.9633 30.5273 19.9815C30.6118 19.9875 30.6932 19.9709 30.765 19.9376L32.6266 19.2079L34.5169 19.9497C34.7531 20.0405 35.0227 19.9346 35.1183 19.712C35.1454 19.6485 35.1583 19.5804 35.1534 19.5122L34.9955 17.576L36.3195 16.1001C36.4854 15.9169 36.4631 15.6413 36.2685 15.484C36.2064 15.434 36.1345 15.4022 36.0595 15.3871L34.091 14.936L33.0206 13.2828C32.8866 13.0755 32.6027 13.0119 32.3857 13.1375C32.3188 13.1768 32.2661 13.2282 32.2294 13.2873Z" fill="#FFC250"/>
<path d="M13.7918 18.2776L13.8787 19.4522C13.898 19.7221 13.7047 19.958 13.4488 19.9784C13.3618 19.9852 13.2797 19.9665 13.2072 19.9292L11.3281 19.111L9.41996 19.9428C9.1832 20.0446 8.91106 19.9258 8.81287 19.6746C8.78549 19.605 8.77254 19.5286 8.77896 19.4522L8.86597 18.2777C8.98835 18.4576 9.21699 18.5339 9.41991 18.4457L11.0317 17.743C11.2298 17.6564 11.4295 17.6581 11.6259 17.743L13.2072 18.4321C13.2797 18.4695 13.3618 18.4881 13.4488 18.4813C13.5921 18.4711 13.7145 18.393 13.7918 18.2776ZM30.2631 18.2827L30.1778 19.4556C30.1585 19.7272 30.3501 19.9614 30.6077 19.9818C30.693 19.9886 30.7752 19.9699 30.8477 19.9326L32.7268 19.1144L34.635 19.9462C34.8734 20.048 35.1455 19.9292 35.242 19.6797C35.2694 19.6084 35.2824 19.532 35.2775 19.4557L35.1905 18.2811C35.0682 18.4627 34.8395 18.5374 34.635 18.4491L33.0779 17.7701C32.8509 17.6717 32.6093 17.67 32.3774 17.7701L30.8477 18.4355C30.7753 18.4746 30.693 18.4916 30.6077 18.4847C30.4644 18.4745 30.3421 18.3964 30.2631 18.2827Z" fill="#FF9838"/>
<path d="M16.5207 12.2031L17.9028 14.4027L20.4744 15.0083C20.7939 15.0836 20.9913 15.3989 20.9143 15.7127C20.8918 15.8021 20.8485 15.8837 20.7875 15.9543L19.0731 17.9217L19.277 20.5041C19.3011 20.8257 19.0554 21.1065 18.7263 21.13C18.6155 21.1379 18.5097 21.1159 18.4165 21.072L16.007 20.0993L13.559 21.0861C13.254 21.2085 12.9056 21.0673 12.7804 20.7692C12.7452 20.6861 12.7291 20.5934 12.7355 20.504L12.941 17.9216L11.2249 15.9542C11.0114 15.7095 11.0403 15.3408 11.2907 15.1322C11.371 15.0647 11.4641 15.0223 11.562 15.0035L14.1095 14.4026L15.4965 12.1952C15.6698 11.9207 16.0391 11.8344 16.32 12.0038C16.4051 12.0557 16.4725 12.1247 16.5207 12.2031ZM27.5344 12.2078L26.1538 14.4058L23.5822 15.0114C23.2611 15.0883 23.0653 15.4021 23.1423 15.7159C23.1648 15.8053 23.2066 15.8884 23.2691 15.9574L24.9835 17.9249L24.778 20.5073C24.754 20.8289 25.0012 21.1097 25.3303 21.1332C25.441 21.1411 25.547 21.1191 25.6401 21.0752L28.0496 20.1025L30.4976 21.0893C30.8027 21.2116 31.151 21.0705 31.2762 20.7724C31.3115 20.6892 31.3276 20.5982 31.3195 20.5072L31.1156 17.9248L32.8301 15.9574C33.0452 15.7127 33.0163 15.3455 32.7659 15.1353C32.684 15.0679 32.5909 15.0255 32.4946 15.0067L29.9455 14.4058L28.5585 12.2C28.3867 11.9239 28.0175 11.8392 27.7366 12.0071C27.6499 12.0588 27.5825 12.1279 27.5344 12.2078Z" fill="#FFC250"/>
<path d="M19.2167 19.5007L19.298 20.5191C19.3219 20.8334 19.0782 21.108 18.7518 21.1309C18.6419 21.1386 18.5369 21.1172 18.4445 21.0742L16.0547 20.1234L13.6267 21.088C13.3242 21.2076 12.9787 21.0696 12.8545 20.7782C12.8195 20.6969 12.8036 20.6064 12.81 20.519L12.8927 19.4991C13.0392 19.7384 13.3513 19.8442 13.6267 19.7353L15.7538 18.8903C15.956 18.809 16.163 18.8136 16.354 18.8903L18.4445 19.7215C18.5369 19.7644 18.6419 19.7859 18.7518 19.7783C18.9509 19.7645 19.1213 19.6556 19.2167 19.5007ZM24.837 19.5053L24.7542 20.5221C24.7303 20.8364 24.9755 21.111 25.3019 21.134C25.4117 21.1417 25.5168 21.1202 25.6092 21.0772L27.999 20.1264L30.427 21.091C30.7296 21.2106 31.0751 21.0726 31.1992 20.7812C31.2342 20.6999 31.2501 20.611 31.2422 20.522L31.161 19.5022C31.0129 19.743 30.7025 19.8488 30.4271 19.7399L28.2904 18.8903C28.1057 18.8152 27.9019 18.8121 27.7077 18.8903L25.6093 19.7246C25.5169 19.7676 25.4118 19.789 25.302 19.7814C25.1013 19.7675 24.9325 19.6587 24.837 19.5053Z" fill="#FFC250"/>
<path fill-rule="evenodd" clip-rule="evenodd" d="M28.5993 29.5946C31.0444 28.6421 33.5006 28.0317 35.9601 27.7648C36.1566 27.7456 36.2493 27.5858 36.171 27.4052L35.1674 25.12C35.0812 24.9249 35.07 24.7236 35.1674 24.5031L36.1694 22.2194C36.2556 22.0228 36.1646 21.9061 35.9552 21.9285C33.5038 22.197 31.0507 22.8058 28.5992 23.7567V29.5946H28.5993ZM15.169 29.5946C12.7239 28.6421 10.2676 28.0317 7.80812 27.7648C7.61159 27.7456 7.51888 27.5858 7.5988 27.4052L8.6008 25.12C8.68703 24.9249 8.69825 24.7236 8.6008 24.5015L7.5988 22.2194C7.51251 22.0228 7.60359 21.9061 7.81297 21.9285C10.266 22.197 12.7175 22.8058 15.169 23.7567V29.5946Z" fill="#F74C4D"/>
<path fill-rule="evenodd" clip-rule="evenodd" d="M28.5956 29.594C31.0407 28.6416 33.4969 28.0311 35.9564 27.7642C36.1529 27.745 36.2456 27.5852 36.1673 27.4046L35.7182 26.3818C33.3371 26.6615 30.9624 27.2624 28.5956 28.1845V29.594ZM15.1652 29.594C12.7202 28.6416 10.2639 28.0311 7.8044 27.7642C7.60787 27.745 7.51515 27.5852 7.59507 27.4046L8.04253 26.3818C10.4236 26.6615 12.8 27.2624 15.1652 28.1845V29.594H15.1652Z" fill="#F74C4D"/>
<path fill-rule="evenodd" clip-rule="evenodd" d="M28.5977 26.5423V23.7568C29.7674 24.0541 30.9372 24.3945 32.1086 25.4109C30.9404 25.8663 29.7691 26.2435 28.5977 26.5423Z" fill="#F74C4D"/>
<path fill-rule="evenodd" clip-rule="evenodd" d="M15.1672 26.5423V23.7568C13.9974 24.0541 12.8277 24.3945 11.6562 25.4109C12.8245 25.8663 13.9958 26.2435 15.1672 26.5423Z" fill="#F74C4D"/>
<path fill-rule="evenodd" clip-rule="evenodd" d="M11.6562 25.4111C18.4353 28.0543 25.2911 28.0608 32.1085 25.4111V30.9101C32.1118 31.1867 31.9024 31.3305 31.7762 31.3768C25.1809 33.8571 18.584 33.8507 11.9887 31.3768C11.8513 31.3257 11.669 31.1994 11.6563 30.9118L11.6562 25.4111Z" fill="#F74C4D"/>
<path fill-rule="evenodd" clip-rule="evenodd" d="M32.1085 29.5121V30.9088C32.1117 31.1854 31.9023 31.3292 31.7762 31.3755C25.1808 33.8558 18.5839 33.8494 11.9886 31.3755C11.8512 31.3244 11.669 31.1981 11.6562 30.9105V29.501C11.669 29.7886 11.8512 29.9148 11.9886 29.966C18.584 32.4399 25.1809 32.4462 31.7762 29.966C31.9007 29.9213 32.1052 29.7806 32.1085 29.5121Z" fill="#F74C4D"/>
<path d="M11.6602 26.9036C12.7314 27.2977 13.9598 27.6842 15.0359 27.953C16.1103 28.2234 17.1864 28.4296 18.264 28.5747C18.499 28.6068 18.6611 28.8099 18.6287 29.0314C18.5946 29.2514 18.3774 29.4057 18.1441 29.3736C17.0356 29.2239 15.9271 29.0116 14.8186 28.7336C13.8155 28.4816 12.686 28.1333 11.6602 27.7667L11.6602 26.9036ZM32.4002 27.7606C31.3744 28.1272 30.2449 28.4816 29.2418 28.7336C28.1349 29.0116 27.0248 29.224 25.9163 29.3736C25.683 29.4057 25.4658 29.2515 25.4333 29.0314C25.3993 28.81 25.5614 28.6068 25.7964 28.5747C26.874 28.4296 27.9502 28.2234 29.0246 27.953C30.1006 27.6842 31.329 27.2916 32.4002 26.8975V27.7606ZM32.4002 29.6516C31.7018 29.9006 30.9158 30.1588 30.2416 30.3512C29.4589 30.5743 28.6842 30.7652 27.921 30.921C27.6892 30.9684 27.4623 30.8294 27.4121 30.6109C27.3619 30.394 27.5094 30.1786 27.7396 30.1313C28.5028 29.9755 29.2531 29.7922 29.9937 29.5798C30.7424 29.366 31.6467 29.0651 32.4002 28.7886V29.6516ZM11.6602 28.7962C12.4138 29.0727 13.318 29.366 14.0667 29.5798C14.8073 29.7921 15.5576 29.9755 16.3209 30.1313C16.551 30.1786 16.6984 30.394 16.6483 30.6109C16.5981 30.8294 16.3712 30.9684 16.1394 30.921C15.3761 30.7652 14.6016 30.5742 13.8188 30.3512C13.1446 30.1588 12.3586 29.9067 11.6602 29.6593L11.6602 28.7962Z" fill="#EE8A88"/>
<path d="M22.6905 11.1421L24.4689 14.029L27.7792 14.8253C28.1912 14.9252 28.4442 15.3376 28.3439 15.7485C28.3153 15.8658 28.2612 15.9753 28.1816 16.0673L25.9737 18.6496L26.2378 22.0409C26.2696 22.4629 25.9515 22.8309 25.5283 22.8626C25.3868 22.8738 25.25 22.8452 25.1306 22.7865L22.0287 21.508L18.879 22.8056C18.4861 22.9658 18.0375 22.7802 17.8769 22.3884C17.8324 22.2789 17.8101 22.16 17.8197 22.041L18.0838 18.6497L15.8759 16.0673C15.6006 15.7454 15.6372 15.2616 15.9601 14.9871C16.0636 14.8983 16.1844 14.8428 16.3085 14.8174L19.5886 14.0291L21.3734 11.1326C21.5961 10.771 22.0701 10.6584 22.4328 10.8805C22.5425 10.947 22.63 11.039 22.6905 11.1421Z" fill="#FFC250"/>
<path d="M25.9813 20.9062L26.0613 21.9805C26.0939 22.4333 25.7675 22.8284 25.3334 22.8624C25.1882 22.8743 25.0478 22.8437 24.9253 22.7807L21.7427 21.4085L18.511 22.8012C18.1079 22.9731 17.6476 22.7739 17.4828 22.3534C17.4371 22.2359 17.4143 22.1083 17.4241 21.9805L17.5041 20.9029C17.6852 21.2876 18.1243 21.4647 18.5111 21.2996L21.382 20.0636C21.6383 19.9529 21.8733 19.9631 22.105 20.0636L24.9253 21.2792C25.0478 21.3422 25.1881 21.3728 25.3334 21.3609C25.6223 21.3386 25.8622 21.1581 25.9813 20.9062Z" fill="#FFC250"/>
</svg>
