<svg width="44" height="44" viewBox="0 0 44 44" fill="none" xmlns="http://www.w3.org/2000/svg">
<rect width="44" height="44" rx="22" fill="white"/>
<g clip-path="url(#clip0_34489_16994)">
<path d="M11.4332 30.0501L12.4649 32.1351C12.5198 32.2459 12.6258 32.3228 12.7483 32.3404L15.0555 32.6749C15.3643 32.7195 15.4879 33.0982 15.2642 33.3155L13.5948 34.9383C13.5062 35.0245 13.4656 35.1488 13.4864 35.2706L13.8807 37.5621C13.9334 37.869 13.6104 38.1029 13.3343 37.9581L11.2706 36.876C11.1609 36.8187 11.0298 36.8187 10.9202 36.876L8.85674 37.9581C8.58037 38.1029 8.25762 37.869 8.31035 37.5621L8.7044 35.2706C8.72539 35.1488 8.68487 35.0245 8.596 34.9383L6.92656 33.3155C6.70317 33.0982 6.82646 32.7195 7.1353 32.6749L9.44243 32.3404C9.56499 32.3228 9.6712 32.2459 9.72588 32.1351L10.7576 30.0501C10.8958 29.7711 11.295 29.7711 11.4332 30.0501Z" fill="#FFD782"/>
<path d="M22.3785 30.0501L23.4102 32.1351C23.4649 32.2459 23.5711 32.3228 23.6937 32.3404L26.0008 32.6749C26.3096 32.7195 26.4329 33.0982 26.2095 33.3155L24.5401 34.9383C24.4512 35.0245 24.4107 35.1488 24.4317 35.2706L24.8257 37.5621C24.8785 37.869 24.5557 38.1029 24.2794 37.9581L22.2159 36.876C22.1063 36.8187 21.9752 36.8187 21.8655 36.876L19.8018 37.9581C19.5257 38.1029 19.2027 37.869 19.2554 37.5621L19.6497 35.2706C19.6705 35.1488 19.6302 35.0245 19.5413 34.9383L17.8719 33.3155C17.6485 33.0982 17.7718 32.7195 18.0806 32.6749L20.3877 32.3404C20.5103 32.3228 20.6163 32.2459 20.6712 32.1351L21.7029 30.0501C21.8411 29.7711 22.2403 29.7711 22.3785 30.0501Z" fill="#FFC36F"/>
<path d="M33.3824 30.0501L34.4141 32.1351C34.4691 32.2459 34.575 32.3228 34.6976 32.3404L37.0047 32.6749C37.3135 32.7195 37.4368 33.0982 37.2134 33.3155L35.544 34.9383C35.4551 35.0245 35.4146 35.1488 35.4356 35.2706L35.8299 37.5621C35.8826 37.869 35.5596 38.1029 35.2835 37.9581L33.2198 36.876C33.1102 36.8187 32.9791 36.8187 32.8694 36.876L30.8057 37.9581C30.5296 38.1029 30.2066 37.869 30.2596 37.5621L30.6536 35.2706C30.6746 35.1488 30.6341 35.0245 30.5452 34.9383L28.8758 33.3155C28.6524 33.0982 28.7757 32.7195 29.0845 32.6749L31.3917 32.3404C31.5142 32.3228 31.6204 32.2459 31.6751 32.1351L32.7068 30.0501C32.845 29.7711 33.2442 29.7711 33.3824 30.0501Z" fill="#FFAB6C"/>
<path d="M32.2027 16.1336C32.2027 21.7298 27.6663 26.2661 22.0701 26.2661C16.4741 26.2661 11.9375 21.7298 11.9375 16.1336C11.9375 10.5376 16.4741 6.00098 22.0701 6.00098C27.6663 6.00098 32.2027 10.5376 32.2027 16.1336Z" fill="#C7F1FF"/>
<path d="M22.0681 6.00098C21.2188 6.00098 20.394 6.1062 19.6055 6.30298C24.0115 7.40308 27.2756 11.387 27.2756 16.1336C27.2756 20.8804 24.0115 24.864 19.6055 25.9641C20.394 26.1612 21.2188 26.2661 22.0681 26.2661C27.6643 26.2661 32.2007 21.7298 32.2007 16.1336C32.2007 10.5376 27.6643 6.00098 22.0681 6.00098Z" fill="#87DBFF"/>
<path d="M28.5064 23.9614V23.9627C26.7561 25.4026 24.5149 26.2669 22.0715 26.2669C19.6282 26.2669 17.3882 25.4026 15.6367 23.9614C16.0447 22.7783 16.595 21.9651 16.9517 21.6834C17.2703 21.4312 17.6343 21.2315 18.0325 21.0972L19.1907 20.707C19.4522 20.6191 19.6841 20.48 19.8779 20.3005L19.8792 20.2993C20.2561 19.9475 20.4841 19.4468 20.4841 18.9058V17.2959H23.6602V18.9058C23.6602 19.4075 23.855 19.8748 24.1856 20.221H24.1868V20.2219C24.3936 20.4385 24.6553 20.6084 24.9536 20.707L26.1116 21.0972C27.3982 21.5288 28.3137 22.6465 28.5064 23.9614Z" fill="#FAC5AA"/>
<path d="M25.169 11.5764V15.4253C25.169 16.0054 24.8657 16.544 24.3711 16.8462L22.9314 17.7224C22.4009 18.0459 21.7339 18.0459 21.2024 17.7224L19.7639 16.8462C19.2681 16.5442 18.9648 16.0054 18.9648 15.4253V11.5764C18.9648 10.5183 19.8232 9.66113 20.8814 9.66113H23.2522C24.3106 9.66113 25.169 10.5183 25.169 11.5764Z" fill="#FDD7BD"/>
<path d="M25.169 11.5764V13.3648L21.0552 12.0425L18.9648 13.1316V11.5764C18.9648 10.5183 19.8232 9.66113 20.8816 9.66113H23.2524C24.3106 9.66113 25.169 10.5183 25.169 11.5764Z" fill="#5C546A"/>
<path d="M28.5064 23.9612V23.9624C26.7561 25.4024 24.5149 26.2666 22.0715 26.2666C19.6282 26.2666 17.3882 25.4024 15.6367 23.9612C15.7793 22.6763 16.595 21.9648 16.9517 21.6831C17.2703 21.4309 17.6343 21.2312 18.0325 21.0969L19.1907 20.7068C19.4522 20.6189 19.6841 20.4797 19.8779 20.3003L19.8792 20.2991C20.501 20.5251 21.231 20.6772 22.0586 20.6594C22.874 20.6416 23.5864 20.4631 24.1868 20.2217C24.3938 20.4382 24.6553 20.6082 24.9536 20.7068L26.1118 21.0969C27.3982 21.5286 28.3137 22.6462 28.5064 23.9612Z" fill="#57AFFF"/>
</g>
<defs>
<clipPath id="clip0_34489_16994">
<rect width="32" height="32" fill="white" transform="translate(6 6.00098)"/>
</clipPath>
</defs>
</svg>
