<svg width="44" height="44" viewBox="0 0 44 44" fill="none" xmlns="http://www.w3.org/2000/svg">
<rect width="44" height="44" rx="22" fill="white"/>
<path d="M25.8881 20.7607H18.1131L11.1693 33.9681C10.9619 34.3626 11.2019 34.8444 11.6417 34.9164L14.4342 35.3736C14.7131 35.4192 14.9696 35.5541 15.1653 35.7579L17.1249 37.7992C17.4336 38.1207 17.9666 38.0453 18.1739 37.6508L22.0006 30.3723L25.8273 37.6509C26.0346 38.0454 26.5676 38.1207 26.8763 37.7992L28.8359 35.758C29.0316 35.5542 29.2881 35.4193 29.567 35.3736L32.3595 34.9164C32.7993 34.8444 33.0394 34.3627 32.8319 33.9682L25.8881 20.7607Z" fill="#AD7FDD"/>
<path d="M30.6449 29.8128L25.8857 20.7607H18.1107L13.3516 29.8128C13.7304 30.101 14.1959 30.2616 14.6764 30.2616C14.8787 30.2616 15.0787 30.2337 15.2731 30.1785C15.5167 31.1463 16.3837 31.8313 17.3982 31.8311C17.795 31.8311 18.1784 31.7248 18.5172 31.5221C18.9016 32.2086 19.6341 32.6432 20.43 32.6431C20.5632 32.6431 20.6947 32.6304 20.8233 32.6071L21.9982 30.3723L23.1731 32.607C23.3018 32.6304 23.4333 32.6431 23.5666 32.6431C24.3625 32.643 25.0949 32.2084 25.4792 31.5221C25.8181 31.7248 26.2016 31.8311 26.5984 31.8311C27.6126 31.8311 28.4796 31.1462 28.7232 30.1785C28.9177 30.2337 29.1179 30.2616 29.3201 30.2616C29.8007 30.2616 30.2661 30.1008 30.6449 29.8128Z" fill="#9D66D6"/>
<path d="M22.4673 6.98754L23.1002 6.22086C23.3857 5.87499 23.9348 5.9473 24.121 6.35523L24.534 7.25961C24.6925 7.60673 25.128 7.72342 25.4388 7.50204L26.2486 6.92529C26.6139 6.66511 27.1255 6.87704 27.1998 7.31929L27.3647 8.29973C27.4279 8.67604 27.8184 8.90147 28.1759 8.7681L29.1074 8.4206C29.5276 8.26385 29.967 8.60098 29.9243 9.04741L29.8297 10.0371C29.7934 10.4169 30.1122 10.7358 30.4921 10.6995L31.4818 10.6049C31.9282 10.5622 32.2653 11.0016 32.1086 11.4218L31.7611 12.3533C31.6277 12.7108 31.8531 13.1013 32.2294 13.1645L33.2099 13.3293C33.6522 13.4036 33.8641 13.9153 33.6039 14.2806L33.0271 15.0904C32.8058 15.4012 32.9225 15.8367 33.2696 15.9952L34.1739 16.4081C34.5819 16.5944 34.6542 17.1434 34.3083 17.4289L33.5416 18.0619C33.2474 18.3048 33.2474 18.7557 33.5416 18.9986L34.3083 19.6316C34.6542 19.9171 34.5819 20.4661 34.1739 20.6524L33.2696 21.0653C32.9224 21.2238 32.8058 21.6593 33.0271 21.9701L33.6039 22.7799C33.8641 23.1452 33.6521 23.6568 33.2099 23.7312L32.2294 23.896C31.8531 23.9592 31.6277 24.3497 31.7611 24.7072L32.1086 25.6387C32.2653 26.0589 31.9282 26.4983 31.4818 26.4556L30.4921 26.361C30.1123 26.3247 29.7934 26.6435 29.8297 27.0234L29.9243 28.0131C29.967 28.4595 29.5276 28.7966 29.1074 28.6399L28.1759 28.2924C27.8184 28.159 27.4279 28.3845 27.3647 28.7608L27.1998 29.7412C27.1255 30.1835 26.6139 30.3954 26.2486 30.1352L25.4388 29.5584C25.128 29.3371 24.6925 29.4538 24.534 29.8009L24.121 30.7053C23.9348 31.1133 23.3857 31.1855 23.1002 30.8396L22.4673 30.0729C22.2244 29.7787 21.7735 29.7787 21.5306 30.0729L20.8976 30.8396C20.6121 31.1855 20.0631 31.1132 19.8768 30.7053L19.4639 29.8009C19.3054 29.4538 18.8699 29.3371 18.5591 29.5584L17.7493 30.1352C17.384 30.3954 16.8723 30.1834 16.798 29.7412L16.6332 28.7608C16.57 28.3845 16.1795 28.159 15.822 28.2924L14.8905 28.6399C14.4703 28.7966 14.0309 28.4595 14.0736 28.0131L14.1682 27.0234C14.2045 26.6436 13.8857 26.3247 13.5058 26.361L12.5161 26.4556C12.0697 26.4983 11.7325 26.0589 11.8893 25.6387L12.2368 24.7072C12.3702 24.3497 12.1447 23.9592 11.7684 23.896L10.788 23.7312C10.3457 23.6568 10.1338 23.1452 10.394 22.7799L10.9707 21.9701C11.1921 21.6593 11.0754 21.2238 10.7283 21.0653L9.82392 20.6524C9.41592 20.4661 9.34367 19.9171 9.68955 19.6316L10.4562 18.9986C10.7505 18.7557 10.7505 18.3048 10.4562 18.0619L9.68961 17.4289C9.34374 17.1434 9.41605 16.5943 9.82398 16.4081L10.7284 15.9951C11.0755 15.8366 11.1922 15.4011 10.9708 15.0903L10.394 14.2805C10.1339 13.9152 10.3458 13.4036 10.788 13.3293L11.7685 13.1645C12.1448 13.1012 12.3702 12.7107 12.2368 12.3532L11.8894 11.4217C11.7326 11.0015 12.0697 10.5622 12.5162 10.6048L13.5058 10.6994C13.8857 10.7357 14.2045 10.4169 14.1682 10.037L14.0737 9.04735C14.031 8.60091 14.4703 8.26379 14.8905 8.42054L15.822 8.76804C16.1795 8.90141 16.57 8.67597 16.6333 8.29966L16.7981 7.31923C16.8724 6.87692 17.384 6.66505 17.7493 6.92523L18.5591 7.50198C18.8699 7.72335 19.3054 7.6066 19.4639 7.25954L19.8769 6.35517C20.0631 5.94717 20.6122 5.87492 20.8977 6.2208L21.5306 6.98754C21.7735 7.28179 22.2244 7.28179 22.4673 6.98754Z" fill="#F7E365"/>
<path d="M34.3094 19.6317L33.5427 18.9988C33.2485 18.7559 33.2485 18.305 33.5427 18.0621L34.3094 17.4292C34.6553 17.1437 34.583 16.5946 34.175 16.4084L33.2707 15.9954C32.9235 15.8369 32.8069 15.4014 33.0282 15.0906L33.605 14.2808C33.8652 13.9155 33.6532 13.4039 33.211 13.3296L32.2305 13.1648C31.8542 13.1015 31.6288 12.711 31.7622 12.3535L32.1097 11.422C32.2664 11.0018 31.9293 10.5625 31.4829 10.6052L30.4932 10.6997C30.1134 10.736 29.7946 10.4172 29.8308 10.0373L29.9254 9.04766C29.9681 8.60122 29.5287 8.2641 29.1085 8.42085L28.5784 8.6186C29.7691 10.4754 30.4596 12.6837 30.4596 15.0533C30.4596 21.6457 25.1155 26.9899 18.523 26.9899C16.1535 26.9899 13.9451 26.2994 12.0883 25.1087L11.8906 25.6388C11.7338 26.059 12.0709 26.4983 12.5174 26.4556L13.5071 26.3611C13.8869 26.3248 14.2058 26.6436 14.1694 27.0235L14.0749 28.0131C14.0322 28.4596 14.4716 28.7967 14.8918 28.6399L15.8232 28.2925C16.1807 28.1591 16.5712 28.3845 16.6345 28.7608L16.7993 29.7413C16.8736 30.1836 17.3852 30.3954 17.7505 30.1353L18.5604 29.5585C18.8712 29.3371 19.3067 29.4539 19.4652 29.8009L19.8781 30.7053C20.0644 31.1133 20.6134 31.1856 20.8989 30.8397L21.5318 30.073C21.7748 29.7788 22.2257 29.7788 22.4686 30.073L23.1015 30.8397C23.387 31.1856 23.9361 31.1133 24.1223 30.7053L24.5353 29.8009C24.6938 29.4538 25.1293 29.3371 25.4401 29.5585L26.2499 30.1353C26.6152 30.3954 27.1268 30.1835 27.2011 29.7413L27.3659 28.7608C27.4292 28.3845 27.8197 28.1591 28.1772 28.2925L29.1087 28.6399C29.5289 28.7967 29.9682 28.4596 29.9256 28.0131L29.831 27.0235C29.7947 26.6436 30.1136 26.3248 30.4934 26.3611L31.4831 26.4556C31.9295 26.4983 32.2666 26.059 32.1099 25.6388L31.7624 24.7073C31.629 24.3498 31.8544 23.9593 32.2307 23.896L33.2112 23.7312C33.6535 23.6569 33.8654 23.1453 33.6052 22.78L33.0284 21.9702C32.807 21.6594 32.9238 21.2239 33.2709 21.0654L34.1752 20.6524C34.583 20.4663 34.6553 19.9173 34.3094 19.6317Z" fill="#F3D332"/>
<path d="M21.9983 27.7633C27.0974 27.7633 31.231 23.6296 31.231 18.5306C31.231 13.4315 27.0974 9.29785 21.9983 9.29785C16.8993 9.29785 12.7656 13.4315 12.7656 18.5306C12.7656 23.6296 16.8993 27.7633 21.9983 27.7633Z" fill="#E69642"/>
<path d="M30.4643 15.053C30.4643 21.6454 25.1201 26.9896 18.5277 26.9896C18.4506 26.9896 18.3736 26.9888 18.2969 26.9873C19.4318 27.4857 20.6858 27.7628 22.0047 27.7628C27.1038 27.7628 31.2374 23.6292 31.2374 18.5301C31.2374 17.2112 30.9603 15.9572 30.4619 14.8223C30.4634 14.899 30.4643 14.9759 30.4643 15.053Z" fill="#E38523"/>
<path d="M21.9973 25.6529C25.9309 25.6529 29.1197 22.4641 29.1197 18.5305C29.1197 14.597 25.9309 11.4082 21.9973 11.4082C18.0638 11.4082 14.875 14.597 14.875 18.5305C14.875 22.4641 18.0638 25.6529 21.9973 25.6529Z" fill="#F7E365"/>
<path d="M25.8868 12.5615C26.6161 13.6793 27.0404 15.0141 27.0404 16.4483C27.0404 20.3819 23.8516 23.5707 19.918 23.5707C18.4839 23.5707 17.149 23.1464 16.0312 22.4171C17.3023 24.365 19.5006 25.6527 22 25.6527C25.9336 25.6527 29.1224 22.4639 29.1224 18.5304C29.1223 16.0309 27.8346 13.8326 25.8868 12.5615Z" fill="#F3D332"/>
<path d="M21.6473 21.9771L20.0324 22.6735C19.4102 22.9417 18.7279 22.446 18.7908 21.7714L18.9541 20.0204C18.9769 19.7759 18.8979 19.5328 18.7358 19.3484L17.5744 18.0278C17.1271 17.519 17.3877 16.7168 18.0487 16.5682L19.7645 16.1823C20.0041 16.1285 20.2108 15.9782 20.3361 15.767L21.2333 14.2544C21.5789 13.6717 22.4224 13.6717 22.768 14.2544L23.6652 15.767C23.7904 15.9782 23.9972 16.1285 24.2368 16.1823L25.9526 16.5682C26.6136 16.7168 26.8742 17.519 26.4268 18.0278L25.2655 19.3484C25.1034 19.5328 25.0244 19.7759 25.0472 20.0204L25.2105 21.7714C25.2733 22.446 24.591 22.9417 23.9689 22.6735L22.354 21.9771C22.1284 21.8799 21.8727 21.8799 21.6473 21.9771Z" fill="#E69642"/>
<path d="M25.9543 16.5682L25.1732 16.3926C24.4779 19.3691 21.9161 21.6278 18.7891 21.8672C18.7956 22.4918 19.4419 22.9289 20.0341 22.6736L21.649 21.9772C21.8745 21.8799 22.1301 21.8799 22.3556 21.9772L23.9705 22.6736C24.5927 22.9418 25.275 22.4461 25.2121 21.7715L25.0488 20.0204C25.026 19.7759 25.105 19.5328 25.2672 19.3484L26.4285 18.0278C26.8759 17.519 26.6153 16.7168 25.9543 16.5682Z" fill="#E38523"/>
</svg>
