<svg width="44" height="44" viewBox="0 0 44 44" fill="none" xmlns="http://www.w3.org/2000/svg">
<rect width="44" height="44" rx="22" fill="white"/>
<g clip-path="url(#clip0_34489_16993)">
<path d="M36.3289 37.9999H7.66016C7.31497 37.9999 7.03516 37.72 7.03516 37.3749V26.751H36.9539V37.3749C36.9539 37.72 36.674 37.9999 36.3289 37.9999Z" fill="#C4E2FF"/>
<path d="M34.875 26.751V37.3749C34.875 37.72 34.5952 37.9999 34.25 37.9999H36.3313C36.6765 37.9999 36.9563 37.72 36.9563 37.3749V26.751H34.875Z" fill="#B3DAFE"/>
<path d="M29.6795 6.00118C26.2255 6.06618 23.3987 8.86668 23.3033 12.32C23.266 13.6731 23.6421 14.936 24.3144 15.992L23.914 17.7731C23.8303 18.1457 24.1631 18.4787 24.5358 18.3949L26.3169 17.9945C27.3729 18.6667 28.6358 19.0429 29.9888 19.0056C33.4421 18.9102 36.2426 16.0835 36.3077 12.6295C36.3773 8.93812 33.3708 5.93168 29.6795 6.00118Z" fill="#FFE177"/>
<path d="M32.4117 6.54492C33.8414 7.77355 34.7472 9.59473 34.7472 11.6277C34.7472 15.3275 31.7478 18.3269 28.048 18.3269C27.5555 18.3269 27.0755 18.2732 26.6133 18.1724C27.6058 18.7324 28.7595 19.0404 29.9881 19.0064C33.4414 18.911 36.2418 16.0844 36.307 12.6304C36.3581 9.9123 34.7415 7.56573 32.4117 6.54492Z" fill="#FFD15B"/>
<path d="M19.91 19.9781L18.1178 19.5723V19.5724H12.2164V19.5723L10.4241 19.9781C8.82375 20.3405 7.6875 21.7626 7.6875 23.4036V25.92H22.6466V23.4036C22.6466 21.7627 21.5104 20.3405 19.91 19.9781Z" fill="#FD8087"/>
<path d="M16.494 25.2954L18.1201 19.5726L16.6654 19.2432H13.6734L12.2188 19.5726L13.8448 25.2954L15.1694 26.1664L16.494 25.2954Z" fill="#D8ECFE"/>
<path d="M19.909 19.9774L19.4609 19.876C20.2232 20.5267 20.6944 21.4917 20.6944 22.5479V25.9193H22.6456V23.4029C22.6456 21.762 21.5094 20.3398 19.909 19.9774Z" fill="#FE646F"/>
<path d="M15.1678 20.7389C14.3416 20.7389 13.6719 20.0691 13.6719 19.2429V17.6494H16.6638V19.2429C16.6638 20.0691 15.994 20.7389 15.1678 20.7389Z" fill="#F6A96C"/>
<path d="M11.6788 9.87891V12.1643L11.1133 13.494L11.6788 14.8237V14.9899C11.6788 16.9177 13.2416 18.4803 15.1693 18.4803C17.097 18.4803 18.6597 16.9176 18.6597 14.9899V9.87891H11.6788Z" fill="#FED2A4"/>
<path d="M16.967 9.87891V14.99C16.967 16.6253 15.8422 17.9974 14.3242 18.3762C14.5943 18.4437 14.8765 18.4804 15.1675 18.4804C17.0953 18.4804 18.658 16.9177 18.658 14.99V14.8238L19.1535 13.4941L18.658 12.1644V9.87891H16.967Z" fill="#FFBD86"/>
<path d="M10.3477 13.494H11.1118L11.6773 12.1643C11.6773 12.1643 15.2141 12.125 16.7915 10.7599C16.9175 10.6508 17.111 10.6925 17.1822 10.8432C17.3737 11.2481 17.804 11.9018 18.6582 12.1643L19.6555 13.494H19.988V10.8201C19.988 8.15806 17.8299 6 15.1678 6C12.5057 6 10.3477 8.15806 10.3477 10.8201V13.494Z" fill="#7A6D79"/>
<path d="M15.1663 6C14.7947 6 14.4334 6.04344 14.0859 6.12306C16.2276 6.61375 17.8257 8.52969 17.8257 10.8201V11.7038C18.0432 11.8923 18.316 12.0595 18.6567 12.1642L19.6541 13.4939H19.9865V10.8201C19.9865 8.15806 17.8284 6 15.1663 6Z" fill="#685E68"/>
<path d="M19.325 14.8234H18.6602V12.1641H19.325C20.0594 12.1641 20.6547 12.7594 20.6547 13.4938C20.6547 14.2281 20.0593 14.8234 19.325 14.8234Z" fill="#F6A96C"/>
<path d="M11.0133 14.8234H11.6782V12.1641H11.0133C10.2789 12.1641 9.68359 12.7594 9.68359 13.4938C9.68359 14.2281 10.2789 14.8234 11.0133 14.8234Z" fill="#F6A96C"/>
<path d="M29.8029 17.0569C32.3174 17.0569 34.3557 15.0185 34.3557 12.504C34.3557 9.98956 32.3174 7.95117 29.8029 7.95117C27.2884 7.95117 25.25 9.98956 25.25 12.504C25.25 15.0185 27.2884 17.0569 29.8029 17.0569Z" fill="#EAF6FF"/>
<path d="M10.9805 26.3883C10.7216 26.3883 10.5117 26.1785 10.5117 25.9196V23.7842C10.5117 23.5252 10.7216 23.3154 10.9805 23.3154C11.2393 23.3154 11.4492 23.5252 11.4492 23.7842V25.9196C11.4492 26.1784 11.2393 26.3883 10.9805 26.3883Z" fill="#FD4755"/>
<path d="M19.3555 26.3883C19.0966 26.3883 18.8867 26.1785 18.8867 25.9196V23.7842C18.8867 23.5252 19.0966 23.3154 19.3555 23.3154C19.6143 23.3154 19.8242 23.5252 19.8242 23.7842V25.9196C19.8242 26.1784 19.6143 26.3883 19.3555 26.3883Z" fill="#FD4755"/>
<path d="M29.8008 15.5095C29.5419 15.5095 29.332 15.2996 29.332 15.0407V12.0488C29.332 11.7899 29.5419 11.5801 29.8008 11.5801C30.0597 11.5801 30.2695 11.7899 30.2695 12.0488V15.0407C30.2695 15.2996 30.0597 15.5095 29.8008 15.5095Z" fill="#60B7FF"/>
<path d="M29.8008 10.4365C30.0597 10.4365 30.2695 10.2267 30.2695 9.96777C30.2695 9.70889 30.0597 9.49902 29.8008 9.49902C29.5419 9.49902 29.332 9.70889 29.332 9.96777C29.332 10.2267 29.5419 10.4365 29.8008 10.4365Z" fill="#60B7FF"/>
<path d="M37.4797 27.3762H6.52031C6.23294 27.3762 6 27.1432 6 26.8559V25.8152C6 25.5279 6.23294 25.2949 6.52031 25.2949H37.4797C37.7671 25.2949 38 25.5279 38 25.8152V26.8559C38 27.1432 37.7671 27.3762 37.4797 27.3762Z" fill="#EAF6FF"/>
<path d="M37.4758 25.2949H35.3945C35.6819 25.2949 35.9148 25.5279 35.9148 25.8152V26.8559C35.9148 27.1432 35.6819 27.3762 35.3945 27.3762H37.4758C37.7632 27.3762 37.9962 27.1432 37.9962 26.8559V25.8152C37.9962 25.5279 37.7632 25.2949 37.4758 25.2949Z" fill="#D8ECFE"/>
</g>
<defs>
<clipPath id="clip0_34489_16993">
<rect width="32" height="32" fill="white" transform="translate(6 6)"/>
</clipPath>
</defs>
</svg>
