<svg width="18" height="16" viewBox="0 0 18 16" fill="none" xmlns="http://www.w3.org/2000/svg">
<path d="M17.0102 11.695C16.9798 11.3396 16.9031 10.999 16.7866 10.6788C16.7858 10.6744 16.785 10.6701 16.784 10.6657L15.3885 4.4101C15.2403 3.74584 14.8712 3.15346 14.3434 2.72804L13.9293 1.29912C13.6912 0.477143 12.9 -0.0666863 12.0466 0.00660018C11.1939 0.0796206 10.506 0.749906 10.4111 1.60035L10.2511 3.03405C9.94085 3.37176 9.71421 3.77367 9.58506 4.2077H7.4399C7.31075 3.77367 7.08411 3.37176 6.77384 3.03405L6.61383 1.60038C6.51893 0.749906 5.83109 0.0796206 4.97829 0.00660018C4.12565 -0.0664867 3.33373 0.477143 3.09558 1.29912L2.6816 2.72804C2.15377 3.15346 1.78471 3.74584 1.63651 4.4101L0.241038 10.6658C0.240074 10.6701 0.239209 10.6744 0.238411 10.6787C0.121931 10.999 0.0452196 11.3396 0.0147944 11.695C-0.0756166 12.7506 0.250548 13.7782 0.933202 14.5886C1.61582 15.3989 2.5732 15.895 3.62897 15.9854C3.74366 15.9952 3.85734 16 3.9704 16C6.00599 16 7.74339 14.4363 7.92019 12.3718C7.95061 12.0167 7.93389 11.6648 7.8723 11.3232C7.87224 11.3197 7.87214 11.3162 7.87197 11.3127L7.81857 10.2143H9.20649L9.15309 11.3127C9.15292 11.3162 9.15282 11.3197 9.15275 11.3232C9.09117 11.6648 9.07448 12.0167 9.10487 12.3718C9.2817 14.4364 11.0189 16 13.0547 16C13.1676 16 13.2815 15.9952 13.3961 15.9854C14.4519 15.895 15.4092 15.3989 16.0919 14.5886C16.7745 13.7782 17.1006 12.7506 17.0102 11.695ZM12.1091 0.735474C12.6145 0.692048 13.0854 1.01475 13.2267 1.50272L13.4366 2.22677C13.0441 2.09174 12.6247 2.03854 12.2045 2.07458C11.7997 2.10923 11.4099 2.22528 11.0566 2.41232L11.1382 1.68148C11.1945 1.17669 11.6028 0.778801 12.1091 0.735474ZM12.267 2.80346C13.3929 2.70679 14.4284 3.46619 14.6745 4.56938L15.6752 9.05545C14.8911 8.36664 13.8386 7.98545 12.719 8.08138C11.6632 8.17179 10.7058 8.66783 10.0232 9.47817C10.0058 9.49886 9.9886 9.5197 9.97164 9.54065L10.1948 4.9529C10.2497 3.82398 11.1405 2.89992 12.267 2.80346ZM4.91594 0.735474C5.4222 0.778801 5.83052 1.17669 5.88685 1.68151L5.96842 2.41235C5.61515 2.22531 5.22525 2.10926 4.82048 2.07461C4.40028 2.03864 3.98091 2.09181 3.58847 2.22684L3.79829 1.50272C3.93971 1.01479 4.41005 0.692114 4.91594 0.735474ZM2.35052 4.56938C2.59658 3.46616 3.63193 2.70699 4.75806 2.80346C5.88449 2.89992 6.77533 3.82398 6.83023 4.95294L7.05335 9.54069C7.03639 9.51974 7.0192 9.49889 7.00178 9.47821C6.31916 8.66787 5.36178 8.17179 4.30597 8.08141C3.18636 7.98551 2.13392 8.36667 1.34974 9.05545L2.35052 4.56938ZM7.19131 12.3094C7.0471 13.9933 5.63025 15.2685 3.96983 15.2685C3.87773 15.2685 3.78482 15.2645 3.69139 15.2565C2.83027 15.1828 2.04942 14.7782 1.49266 14.1173C0.935929 13.4564 0.669917 12.6183 0.743669 11.7574C0.887881 10.0735 2.30473 8.79831 3.96515 8.79831C4.05725 8.79831 4.15016 8.80224 4.24359 8.81025C5.10471 8.88397 5.88559 9.28857 6.44235 9.94948C6.99908 10.6104 7.26506 11.4485 7.19131 12.3094ZM7.78296 9.48276L7.562 4.93924H9.46299L9.24203 9.48276H7.78296ZM15.5324 14.1173C14.9756 14.7782 14.1948 15.1828 13.3336 15.2565C13.2401 15.2645 13.1474 15.2685 13.0552 15.2685C11.3949 15.2684 9.97792 13.9931 9.83371 12.3094C9.75996 11.4485 10.0259 10.6104 10.5827 9.94951C11.1394 9.28861 11.9203 8.884 12.7814 8.81028C12.8749 8.80227 12.9677 8.79834 13.0599 8.79834C14.7202 8.79834 16.1371 10.0737 16.2814 11.7574C16.3551 12.6183 16.0891 13.4564 15.5324 14.1173Z" fill="#293347"/>
<path d="M4.00377 16C3.88982 16 3.77507 15.9952 3.65947 15.9852C2.59626 15.8942 1.63124 15.3937 0.942211 14.5757C0.253184 13.7577 -0.0762031 12.7217 0.0148746 11.6587C0.203081 9.4613 2.14395 7.82668 4.34213 8.01473C5.40534 8.10575 6.37036 8.60636 7.05938 9.42431C7.74841 10.2423 8.0778 11.2782 7.98672 12.3413C7.80839 14.4232 6.05647 15.9999 4.00377 16ZM3.99867 9.16774C2.54499 9.16774 1.3045 10.2842 1.17824 11.7584C1.11375 12.5107 1.34712 13.2441 1.83521 13.8234C2.32329 14.4029 3.00653 14.7574 3.75904 14.8219C3.84083 14.8289 3.92225 14.8323 4.00287 14.8323C5.45661 14.8324 6.69704 13.7159 6.8233 12.2417C6.88774 11.4894 6.65442 10.7561 6.16633 10.1767C5.67825 9.59723 4.99501 9.24263 4.2425 9.1782C4.16071 9.17119 4.0793 9.16774 3.99867 9.16774Z" fill="#F74C4D"/>
<path d="M12.997 16C10.9445 16 9.19312 14.4233 9.01487 12.3412C8.92381 11.2782 9.25308 10.2422 9.94203 9.42428C10.6309 8.60632 11.5957 8.10571 12.6587 8.01468C14.8558 7.82695 16.797 9.46122 16.9851 11.6587C17.0762 12.7217 16.7469 13.7577 16.058 14.5757C15.3691 15.3937 14.4043 15.8943 13.3413 15.9853C13.2258 15.9952 13.1109 16 12.997 16ZM13.0021 9.16766C12.9214 9.16766 12.8402 9.17105 12.7583 9.17811C12.006 9.24255 11.3229 9.59715 10.8349 10.1766C10.3469 10.756 10.1136 11.4894 10.1781 12.2416C10.3113 13.7976 11.6853 14.9552 13.2417 14.8219C13.994 14.7574 14.6771 14.4028 15.1651 13.8234C15.6531 13.244 15.8864 12.5106 15.8219 11.7583C15.6958 10.2842 14.4554 9.16766 13.0021 9.16766Z" fill="#F74C4D"/>
</svg>
