<svg width="27" height="18" viewBox="0 0 27 18" fill="none" xmlns="http://www.w3.org/2000/svg">
<path d="M19.996 6.24401H5.95758C5.36199 6.24401 4.80958 5.96758 4.44197 5.48559C4.07503 5.00451 3.94579 4.38839 4.08737 3.79511C4.20464 3.30377 4.34695 2.8127 4.51038 2.3355C4.76861 1.58148 5.13784 0.877171 5.60778 0.242188L6.52274 0.958103C6.12544 1.49496 5.81328 2.0905 5.59487 2.72817C5.44389 3.16905 5.3124 3.62282 5.204 4.07681C5.1472 4.31498 5.1992 4.56251 5.34668 4.75592C5.4949 4.95024 5.71759 5.06164 5.95758 5.06164H19.996V6.24401H19.996Z" fill="#293347"/>
<path d="M8.67578 14.6191H18.088V15.8014H8.67578V14.6191Z" fill="#34384C"/>
<path d="M23.0989 5.61759L20.5484 5.18412C20.1529 5.11695 19.7734 4.95202 19.4509 4.70713L14.8472 1.2115C13.8183 0.430237 12.5473 0 11.2682 0H6.37057C3.81907 0 1.53531 1.66264 0.687773 4.13734C0.231418 5.46991 0 6.86197 0 8.27483V13.1374C0 14.6066 1.16242 15.8019 2.59117 15.8019V14.6196C1.79636 14.6196 1.14977 13.9547 1.14977 13.1374V9.8337H2.43104C2.9973 9.8337 3.45799 9.35999 3.45799 8.77773V7.33402C3.45799 6.75175 2.9973 6.27799 2.43104 6.27799H1.32334C1.42702 5.68578 1.57649 5.10185 1.77232 4.53006C2.45811 2.52768 4.306 1.18232 6.37063 1.18232H11.2683C12.3032 1.18232 13.3317 1.5305 14.1643 2.16263L18.768 5.65827C19.2361 6.0137 19.7869 6.25311 20.3609 6.35064L22.5931 6.72994C22.4542 6.91921 22.3709 7.15383 22.3709 7.40866V8.70308C22.3709 9.32651 22.8641 9.83376 23.4704 9.83376H25.6009C25.6055 9.90647 25.6086 13.1375 25.6086 13.1375C25.6086 13.9548 24.962 14.6197 24.1672 14.6197V15.8019C25.596 15.8019 26.7584 14.6067 26.7584 13.1375V10.0534C26.7583 7.84341 25.2193 5.97791 23.0989 5.61759ZM2.30827 7.4602V8.65144H1.14977V8.27483C1.14977 8.00232 1.15986 7.73072 1.17883 7.46025H2.30827V7.4602ZM23.5206 8.65144V7.4602H24.396C24.7851 7.77839 25.0981 8.1859 25.3085 8.65144H23.5206Z" fill="#34384C"/>
<path d="M13.8382 8.61C14.1557 8.61 14.4131 8.34533 14.4131 8.01887C14.4131 7.6924 14.1557 7.42773 13.8382 7.42773H12.6218C12.3043 7.42773 12.0469 7.6924 12.0469 8.01887C12.0469 8.34533 12.3043 8.61 12.6218 8.61H13.8382Z" fill="#34384C"/>
<path d="M5.83335 10.7354C3.88548 10.7354 2.30078 12.3648 2.30078 14.3678C2.30078 16.3707 3.88548 18.0002 5.83335 18.0002C7.78122 18.0002 9.36597 16.3707 9.36597 14.3678C9.36597 12.3648 7.78127 10.7354 5.83335 10.7354ZM5.83335 16.8179C4.51947 16.8179 3.45055 15.7188 3.45055 14.3678C3.45055 13.0167 4.51947 11.9176 5.83335 11.9176C7.14728 11.9176 8.2162 13.0167 8.2162 14.3678C8.2162 15.7188 7.14728 16.8179 5.83335 16.8179Z" fill="#F74C4D"/>
<path d="M20.9272 10.7354C18.9793 10.7354 17.3945 12.3648 17.3945 14.3678C17.3945 16.3707 18.9792 18.0002 20.9272 18.0002C22.875 18.0002 24.4597 16.3707 24.4597 14.3678C24.4597 12.3648 22.875 10.7354 20.9272 10.7354ZM20.9272 16.8179C19.6132 16.8179 18.5443 15.7188 18.5443 14.3678C18.5443 13.0167 19.6132 11.9176 20.9272 11.9176C22.241 11.9176 23.31 13.0167 23.31 14.3678C23.31 15.7188 22.241 16.8179 20.9272 16.8179Z" fill="#F74C4D"/>
<path d="M5.8327 14.9606C6.1502 14.9606 6.40758 14.6959 6.40758 14.3695C6.40758 14.043 6.1502 13.7783 5.8327 13.7783C5.5152 13.7783 5.25781 14.043 5.25781 14.3695C5.25781 14.6959 5.5152 14.9606 5.8327 14.9606Z" fill="#293347"/>
<path d="M20.9284 14.9606C21.2459 14.9606 21.5033 14.6959 21.5033 14.3695C21.5033 14.043 21.2459 13.7783 20.9284 13.7783C20.6109 13.7783 20.3535 14.043 20.3535 14.3695C20.3535 14.6959 20.6109 14.9606 20.9284 14.9606Z" fill="#293347"/>
</svg>
