<svg width="16" height="18" viewBox="0 0 16 18" fill="none" xmlns="http://www.w3.org/2000/svg">
<path d="M7.70479 15.0708H7.26081L8.1688 13.4661L7.51862 13.0771L6.60686 14.6885L5.69511 13.0771L5.04492 13.4661L5.95291 15.0708H5.50894C5.30122 15.0708 5.13283 15.2439 5.13283 15.4575V17.6135H5.88504V15.8442H7.32871V17.6135H8.08093V15.4575C8.0809 15.2439 7.9125 15.0708 7.70479 15.0708Z" fill="#34384C"/>
<path d="M12.6288 11.8896L12.0273 12.3542C12.3105 12.7418 12.4602 13.2031 12.4602 13.6884V15.062H13.2124V13.6884C13.2124 13.0342 13.0106 12.4122 12.6288 11.8896Z" fill="#34384C"/>
<path d="M0.752215 13.6886C0.752215 12.5924 1.51612 11.6698 2.56861 11.4948L3.2257 11.3856L4.69102 13.756C4.74911 13.8499 4.84382 13.9136 4.95084 13.9307C4.97005 13.9337 4.98927 13.9352 5.00845 13.9352C5.09612 13.9352 5.18177 13.9037 5.24991 13.845L6.60664 12.6769L7.96336 13.845C8.0315 13.9037 8.11715 13.9352 8.20482 13.9352C8.22397 13.9352 8.24322 13.9337 8.26243 13.9307C8.36948 13.9136 8.46413 13.8499 8.52225 13.7559L9.9875 11.3856L10.6446 11.4948C10.796 11.52 10.9448 11.5616 11.0868 11.6186L11.3603 10.8981C11.1688 10.8213 10.9684 10.7652 10.7647 10.7313L8.38309 10.3354V9.60159C9.30839 8.99582 9.92353 7.93178 9.92353 6.72272V5.80711H10.7047C10.8374 5.80711 10.9604 5.73518 11.0281 5.61779C11.0959 5.50044 11.0985 5.35503 11.0349 5.23522L10.1935 3.64911L9.7021 1.74438C9.43708 0.717293 8.53025 0 7.49681 0H5.71639C4.68291 0 3.77608 0.717328 3.51113 1.74438L3.01966 3.64911L2.17835 5.23522C2.11482 5.35503 2.11738 5.50044 2.18512 5.61779C2.25288 5.73514 2.3758 5.80711 2.50853 5.80711H3.28971V6.72272C3.28971 7.93178 3.90482 8.99582 4.83014 9.60159V10.3354L2.4486 10.7313C1.76603 10.8448 1.1433 11.2054 0.695115 11.7468C0.246932 12.2881 0 12.9777 0 13.6886V17.6133C0 17.8269 0.168394 18 0.376107 18H13.034V17.2266H0.752215V13.6886ZM5.58232 10.5725V9.96659C5.90506 10.0746 6.24926 10.1332 6.6066 10.1332C6.96394 10.1332 7.30814 10.0746 7.63088 9.96659V10.5725L6.6066 11.6256L5.58232 10.5725ZM9.17924 11.2513L8.11746 12.9689L7.1631 12.1473L8.19384 11.0875L9.17924 11.2513ZM4.23815 1.9427C4.41581 1.25427 5.02363 0.773438 5.71639 0.773438H7.49681C8.18953 0.773438 8.79739 1.25427 8.97502 1.9427L9.35273 3.40668H3.8604L4.23815 1.9427ZM3.14207 5.03367L3.5948 4.18015H9.61837L10.0711 5.03367H3.14207ZM4.04189 6.72272V5.80711H9.17131V6.72272C9.17131 8.17678 8.0208 9.35979 6.6066 9.35979C5.1924 9.35979 4.04189 8.17678 4.04189 6.72272ZM5.01939 11.0874L6.0501 12.1472L5.09574 12.9689L4.03392 11.2512L5.01939 11.0874Z" fill="#34384C"/>
<path d="M14.4826 9.20215H10.7159C10.5771 9.20215 10.4496 9.28076 10.3842 9.40662C10.3188 9.53248 10.3262 9.6852 10.4033 9.80381L11.0875 10.8558L10.4033 11.9077C10.3262 12.0264 10.3188 12.179 10.3842 12.3049C10.4496 12.4308 10.5772 12.5094 10.7159 12.5094H14.1064V15.2643H14.8587V9.58887C14.8587 9.37529 14.6903 9.20215 14.4826 9.20215ZM11.8526 10.6408L11.4199 9.97559H14.1064V11.736H11.4199L11.8526 11.0708C11.9372 10.9407 11.9372 10.7709 11.8526 10.6408Z" fill="#F74C4D"/>
<path d="M13.925 17.9993H13.0345C12.3348 17.9993 11.7656 17.414 11.7656 16.6946V15.9795C11.7656 15.2601 12.3348 14.6748 13.0345 14.6748H13.925C14.6247 14.6748 15.1939 15.2601 15.1939 15.9795V16.6946C15.1939 17.414 14.6247 17.9993 13.925 17.9993ZM13.0345 15.4483C12.7496 15.4483 12.5178 15.6866 12.5178 15.9796V16.6946C12.5178 16.9876 12.7496 17.2259 13.0345 17.2259H13.925C14.2099 17.2259 14.4417 16.9876 14.4417 16.6946V15.9796C14.4417 15.6866 14.2099 15.4483 13.925 15.4483H13.0345Z" fill="#34384C"/>
<path d="M6.60612 8.34787C6.36636 8.34787 6.12668 8.25408 5.94417 8.06645C5.79728 7.91545 5.79725 7.67059 5.94413 7.51956C6.09099 7.36849 6.32916 7.36853 6.47602 7.51952C6.54782 7.59328 6.66448 7.59328 6.73618 7.51952C6.8831 7.36849 7.12118 7.36849 7.2681 7.51952C7.41499 7.67055 7.41499 7.91542 7.2681 8.06645C7.08555 8.25408 6.84587 8.34787 6.60612 8.34787Z" fill="#34384C"/>
</svg>
