<svg width="21" height="21" viewBox="0 0 21 21" fill="none" xmlns="http://www.w3.org/2000/svg">
<g clip-path="url(#clip0_73_51418)">
<path d="M11.3203 9.26953C11.0939 9.26953 10.9102 9.4533 10.9102 9.67969C10.9102 9.90607 11.0939 10.0898 11.3203 10.0898C11.5467 10.0898 11.7305 9.90607 11.7305 9.67969C11.7305 9.4533 11.5467 9.26953 11.3203 9.26953Z" fill="#F74C4D"/>
<path d="M19.7695 16.6523C19.7695 12.1054 16.2174 8.37648 11.8575 7.72888C12.036 7.46629 12.1406 7.14938 12.1406 6.80859C12.1406 5.90401 11.4046 5.16797 10.5 5.16797C9.59541 5.16797 8.85938 5.90401 8.85938 6.80859C8.85938 7.14938 8.964 7.46629 9.14248 7.72888C4.79995 8.37392 1.23047 12.09 1.23047 16.6523C0.550667 16.6523 0 17.203 0 17.8828C0 18.5613 0.551949 19.1133 1.23047 19.1133H19.7695C20.4493 19.1133 21 18.5626 21 17.8828C21 17.2043 20.4481 16.6523 19.7695 16.6523ZM9.67969 6.80859C9.67969 6.3563 10.0477 5.98828 10.5 5.98828C10.9523 5.98828 11.3203 6.3563 11.3203 6.80859C11.3203 7.26089 10.9523 7.62891 10.5 7.62891C10.0477 7.62891 9.67969 7.26089 9.67969 6.80859ZM10.5 8.44922C15.0173 8.44922 18.9492 12.103 18.9492 16.6523H2.05078C2.05078 12.2058 5.92003 8.44922 10.5 8.44922ZM19.7695 18.293H1.23047C1.00424 18.293 0.820312 18.109 0.820312 17.8828C0.820312 17.6564 1.00408 17.4727 1.23047 17.4727H19.7695C19.9958 17.4727 20.1797 17.6566 20.1797 17.8828C20.1797 18.1092 19.9959 18.293 19.7695 18.293Z" fill="black"/>
<path d="M17.4733 13.6113C16.703 11.9135 15.048 10.4593 13.0462 9.72169C12.8338 9.64335 12.5979 9.75229 12.5196 9.9649C12.4412 10.1774 12.55 10.4132 12.7626 10.4915C14.5361 11.1449 16.0549 12.4702 16.7264 13.9503C16.8201 14.1567 17.0633 14.2478 17.2694 14.1543C17.4756 14.0607 17.567 13.8176 17.4733 13.6113Z" fill="#F74C4D"/>
<path d="M20.7733 6.76982L19.8017 6.2842L19.3161 5.31264C19.2466 5.17374 19.1046 5.08594 18.9492 5.08594C18.7938 5.08594 18.6519 5.17374 18.5823 5.31264L18.0967 6.2842L17.1251 6.76982C16.9862 6.83936 16.8984 6.98131 16.8984 7.13672C16.8984 7.29213 16.9862 7.43408 17.1251 7.50362L18.0967 7.98924L18.5823 8.96079C18.6519 9.0997 18.7938 9.1875 18.9492 9.1875C19.1046 9.1875 19.2466 9.0997 19.3161 8.96079L19.8017 7.98924L20.7733 7.50362C20.9122 7.43408 21 7.29213 21 7.13672C21 6.98131 20.9122 6.83936 20.7733 6.76982ZM19.3126 7.31664C19.2331 7.35622 19.1687 7.42062 19.129 7.50009L18.9492 7.85994L18.7693 7.50009C18.7297 7.42062 18.6653 7.35622 18.5858 7.31664L18.226 7.13672L18.5858 6.95679C18.6653 6.91722 18.7297 6.85281 18.7693 6.77335L18.9492 6.4135L19.1291 6.77335C19.1687 6.85281 19.2331 6.91722 19.3126 6.95679L19.6724 7.13672L19.3126 7.31664Z" fill="#F74C4D"/>
<path d="M1.93158 5.69733L2.48193 7.34837C2.53784 7.51595 2.69453 7.62891 2.87109 7.62891C3.04765 7.62891 3.20435 7.51595 3.26026 7.34837L3.81061 5.69733L5.46165 5.14698C5.62923 5.09106 5.74219 4.93437 5.74219 4.75781C5.74219 4.58125 5.62923 4.42456 5.46165 4.36864L3.81061 3.8183L3.26026 2.16726C3.20435 1.99967 3.04765 1.88672 2.87109 1.88672C2.69453 1.88672 2.53784 1.99967 2.48193 2.16726L1.93158 3.8183L0.28054 4.36864C0.112953 4.42456 0 4.58125 0 4.75781C0 4.93437 0.112953 5.09106 0.28054 5.14698L1.93158 5.69733ZM2.38548 4.53175C2.50804 4.49089 2.60417 4.39476 2.64503 4.27219L2.87109 3.59383L3.09716 4.27219C3.13802 4.39476 3.23415 4.49089 3.35671 4.53175L4.03507 4.75781L3.35671 4.98388C3.23415 5.02473 3.13802 5.12086 3.09716 5.24343L2.87109 5.92179L2.64503 5.24343C2.60417 5.12086 2.50804 5.02473 2.38548 4.98388L1.70712 4.75781L2.38548 4.53175Z" fill="#F74C4D"/>
</g>
<defs>
<clipPath id="clip0_73_51418">
<rect width="21" height="21" fill="white"/>
</clipPath>
</defs>
</svg>
