<svg width="21" height="13" viewBox="0 0 21 13" fill="none" xmlns="http://www.w3.org/2000/svg">
<path d="M7.5544 0C7.02204 0 6.54467 0.337339 6.3673 0.839296C6.30919 1.00313 6.39496 1.18309 6.55911 1.24104C6.66664 1.27968 6.7792 1.25052 6.86186 1.18199L8.18392 2.76957V3.14756C8.18392 3.32138 8.32469 3.46231 8.49867 3.46231C8.67265 3.46231 8.81343 3.32138 8.81343 3.14756V1.25902C8.81343 0.564789 8.24876 0 7.5544 0Z" fill="#B9BBC1"/>
<path d="M6.61024 0.629761C6.03329 0.629761 5.48802 0.851231 5.0629 1.2662L1.02734 5.67183L1.49149 6.09695L1.60051 5.97785L8.18402 7.78282V7.86914C8.18402 8.04296 8.32479 8.18389 8.49878 8.18389C8.67276 8.18389 8.81353 8.04296 8.81353 7.86914V2.83305C8.81353 1.61813 7.825 0.629761 6.61024 0.629761Z" fill="#8B8996"/>
<path d="M12.5906 0C13.1229 0 13.6003 0.337339 13.7777 0.839296C13.8358 1.00313 13.75 1.18309 13.5859 1.24104C13.4783 1.27968 13.3658 1.25052 13.2831 1.18199L11.9611 2.76957V3.14756C11.9611 3.32138 11.8203 3.46231 11.6463 3.46231C11.4723 3.46231 11.3315 3.32138 11.3315 3.14756V1.25902C11.3315 0.564789 11.8962 0 12.5906 0Z" fill="#B9BBC1"/>
<path d="M13.5348 0.629761C14.1118 0.629761 14.6571 0.851231 15.0822 1.2662L19.1177 5.67187L18.6536 6.09699L18.5446 5.97789L11.9611 7.78282V7.86914C11.9611 8.04296 11.8203 8.18389 11.6463 8.18389C11.4723 8.18389 11.3315 8.04296 11.3315 7.86914V2.83305C11.3315 1.61813 12.3201 0.629761 13.5348 0.629761Z" fill="#8B8996"/>
<path d="M4.40665 11.9608C6.31883 11.9608 7.86896 10.4106 7.86896 8.49844C7.86896 6.58626 6.31883 5.03613 4.40665 5.03613C2.49447 5.03613 0.944336 6.58626 0.944336 8.49844C0.944336 10.4106 2.49447 11.9608 4.40665 11.9608Z" fill="#6AE1EF"/>
<path d="M4.40658 4.09192C1.97674 4.09192 0 6.06866 0 8.4985C0 10.9283 1.97674 12.9051 4.40658 12.9051C6.83641 12.9051 8.81315 10.9283 8.81315 8.4985C8.81315 6.06866 6.83641 4.09192 4.40658 4.09192ZM4.40658 11.6461C2.67105 11.6461 1.25902 10.234 1.25902 8.4985C1.25902 6.76297 2.67105 5.35094 4.40658 5.35094C6.1421 5.35094 7.55413 6.76297 7.55413 8.4985C7.55413 10.234 6.1421 11.6461 4.40658 11.6461Z" fill="#5C546A"/>
<path d="M7.55376 4.40667H12.5899L12.6382 4.40601C12.0257 5.00589 11.6456 5.84224 11.6456 6.76734V7.86899H8.49803V6.76734C8.49803 5.84224 8.11792 5.00589 7.50537 4.40601" fill="#5C546A"/>
<path d="M5.03637 9.12779C5.7317 9.12779 6.29539 8.5641 6.29539 7.86876C6.29539 7.17342 5.7317 6.60974 5.03637 6.60974C4.34103 6.60974 3.77734 7.17342 3.77734 7.86876C3.77734 8.5641 4.34103 9.12779 5.03637 9.12779Z" fill="white"/>
<path d="M15.7382 11.9608C17.6504 11.9608 19.2005 10.4106 19.2005 8.49844C19.2005 6.58626 17.6504 5.03613 15.7382 5.03613C13.826 5.03613 12.2759 6.58626 12.2759 8.49844C12.2759 10.4106 13.826 11.9608 15.7382 11.9608Z" fill="#6AE1EF"/>
<path d="M15.7381 4.09192C13.3083 4.09192 11.3315 6.06866 11.3315 8.4985C11.3315 10.9283 13.3083 12.9051 15.7381 12.9051C18.168 12.9051 20.1447 10.9283 20.1447 8.4985C20.1447 6.06866 18.168 4.09192 15.7381 4.09192ZM15.7381 11.6461C14.0026 11.6461 12.5906 10.234 12.5906 8.4985C12.5906 6.76297 14.0026 5.35094 15.7381 5.35094C17.4736 5.35094 18.8857 6.76297 18.8857 8.4985C18.8857 10.234 17.4736 11.6461 15.7381 11.6461Z" fill="#5C546A"/>
<path d="M16.3674 9.12779C17.0628 9.12779 17.6264 8.5641 17.6264 7.86876C17.6264 7.17342 17.0628 6.60974 16.3674 6.60974C15.6721 6.60974 15.1084 7.17342 15.1084 7.86876C15.1084 8.5641 15.6721 9.12779 16.3674 9.12779Z" fill="white"/>
<path d="M12.5903 3.77722H7.5542V4.40673H12.5903V3.77722Z" fill="#8B8996"/>
</svg>
