<svg width="22" height="22" viewBox="0 0 22 22" fill="none" xmlns="http://www.w3.org/2000/svg">
<path d="M11.7186 15.1549C11.5884 15.1549 11.4583 15.1053 11.3589 15.0059C10.9685 14.6155 10.333 14.6155 9.94249 15.0059C9.74385 15.2045 9.4218 15.2045 9.22316 15.0059C9.02457 14.8073 9.02457 14.4853 9.22316 14.2866C10.0103 13.4995 11.2911 13.4995 12.0782 14.2866C12.2768 14.4853 12.2768 14.8073 12.0782 15.0059C11.9789 15.1053 11.8487 15.1549 11.7186 15.1549Z" fill="#F74C4D" stroke="#F74C4D" stroke-width="0.4"/>
<path d="M14.3888 12.4836C14.2587 12.4836 14.1285 12.4339 14.0292 12.3345C12.2526 10.4824 9.04906 10.4825 7.2726 12.3345C7.07397 12.5332 6.75197 12.5333 6.55328 12.3346C6.35464 12.136 6.35464 11.814 6.55323 11.6153C7.64699 10.5214 9.10224 9.91895 10.6509 9.91895C12.1995 9.91895 13.6547 10.5214 14.7485 11.6153C14.9471 11.814 14.9471 12.136 14.7485 12.3346C14.6492 12.4339 14.519 12.4836 14.3888 12.4836Z" fill="#F74C4D" stroke="#F74C4D" stroke-width="0.4"/>
<path d="M17.0598 9.81455C16.9296 9.81455 16.7995 9.76489 16.7001 9.66557C13.3648 6.33048 7.93793 6.33048 4.60261 9.66557C4.40397 9.86416 4.08192 9.86412 3.88333 9.66557C3.68469 9.46693 3.68474 9.14489 3.88338 8.94625C7.61528 5.21453 13.6875 5.21453 17.4194 8.94625C17.6181 9.14489 17.6181 9.46693 17.4194 9.66557C17.3201 9.76489 17.1899 9.81455 17.0598 9.81455Z" fill="#F74C4D" stroke="#F74C4D" stroke-width="0.4"/>
<path d="M15.4309 21.1503H5.8699C2.22603 21.1671 0.133715 19.0746 0.150491 15.4308V5.86998C0.133715 2.22615 2.22607 0.133715 5.8699 0.150491H15.4309C19.0748 0.133715 21.1671 2.22619 21.1503 5.86998V15.4308C21.1671 19.0747 19.0748 21.1671 15.4309 21.1503ZM5.8699 1.05283C2.71858 1.05283 1.05287 2.71854 1.05287 5.86994V15.4308C1.05287 18.5822 2.71858 20.2479 5.8699 20.2479H15.4309C18.5822 20.2479 20.248 18.5822 20.248 15.4308V5.86998C20.248 2.71858 18.5822 1.05287 15.4309 1.05287L5.8699 1.05283Z" fill="#293347" stroke="black" stroke-width="0.3"/>
</svg>
