<svg width="22" height="18" viewBox="0 0 22 18" fill="none" xmlns="http://www.w3.org/2000/svg">
<path d="M0 11.1844V12.1523C0 12.3305 0.14445 12.4749 0.322624 12.4749H4.51674V10.5392L0 11.1844Z" fill="#ACD5DF"/>
<path d="M18.7983 9.89355L20.0888 12.4746H21.0567C21.2349 12.4746 21.3793 12.3301 21.3793 12.1519V11.1841L18.7983 9.89355Z" fill="#9ABBD0"/>
<path d="M16.2168 10.5392H20.0883V12.4749H16.2168V10.5392Z" fill="#ACD5DF"/>
<path d="M4.5166 10.5392H16.2171V12.4749H4.5166V10.5392Z" fill="#FF3E3A"/>
<path d="M19.8494 7.30773L16.8628 6.66772L20.089 11.1845H21.3795V9.2005C21.3795 8.28769 20.7419 7.49898 19.8494 7.30773Z" fill="#FF3E3A"/>
<path d="M18.9958 7.30762L16.8625 6.66762L15.7677 4.75179C14.8487 3.14344 13.1383 2.15088 11.2859 2.15088H6.86713C5.0147 2.15088 3.30432 3.14344 2.38527 4.75179L1.2905 6.66762L1.07004 6.77783C0.41425 7.10574 0 7.77603 0 8.50925V11.1844H20.0887V9.20039C20.0887 8.28758 19.6333 7.49887 18.9958 7.30762Z" fill="#FF6053"/>
<path d="M4.51654 15.0555C5.94199 15.0555 7.09754 13.9 7.09754 12.4746C7.09754 11.0491 5.94199 9.89355 4.51654 9.89355C3.0911 9.89355 1.93555 11.0491 1.93555 12.4746C1.93555 13.9 3.0911 15.0555 4.51654 15.0555Z" fill="#4A527B"/>
<path d="M4.51634 11.1844L3.87109 12.4749L4.51634 13.7654C5.22908 13.7654 5.80684 13.1877 5.80684 12.4749C5.80684 11.7622 5.22908 11.1844 4.51634 11.1844Z" fill="#C5F3FF"/>
<path d="M3.22559 12.4749C3.22559 13.1877 3.80334 13.7654 4.51608 13.7654V11.1844C3.80334 11.1844 3.22559 11.7622 3.22559 12.4749Z" fill="white"/>
<path d="M16.2167 15.0555C17.6422 15.0555 18.7977 13.9 18.7977 12.4746C18.7977 11.0491 17.6422 9.89355 16.2167 9.89355C14.7913 9.89355 13.6357 11.0491 13.6357 12.4746C13.6357 13.9 14.7913 15.0555 16.2167 15.0555Z" fill="#4A527B"/>
<path d="M16.217 11.1844L15.5718 12.4749L16.217 13.7654C16.9298 13.7654 17.5075 13.1877 17.5075 12.4749C17.5075 11.7622 16.9297 11.1844 16.217 11.1844Z" fill="#C5F3FF"/>
<path d="M14.9263 12.4749C14.9263 13.1877 15.504 13.7654 16.2168 13.7654V11.1844C15.504 11.1844 14.9263 11.7622 14.9263 12.4749Z" fill="white"/>
<path d="M14.6475 5.39212C13.9582 4.18585 12.6754 3.44141 11.2861 3.44141H9.99561L14.0859 6.66765H15.3764L14.6475 5.39212Z" fill="#C5F3FF"/>
<path d="M9.99484 3.44141H8.3877V6.66765H14.0851L13.3562 5.39212C12.6669 4.18585 11.3841 3.44141 9.99484 3.44141Z" fill="white"/>
<path d="M6.86664 3.44141C5.48082 3.44141 4.19282 4.18886 3.50524 5.39208L2.77637 6.66765H7.09725V3.44141H6.86664Z" fill="white"/>
<path d="M9.67806 8.28087H8.38757C8.20935 8.28087 8.06494 8.13646 8.06494 7.95824C8.06494 7.78003 8.20935 7.63562 8.38757 7.63562H9.67806C9.85628 7.63562 10.0007 7.78003 10.0007 7.95824C10.0007 8.13646 9.85628 8.28087 9.67806 8.28087Z" fill="#323752"/>
</svg>
