<svg width="17" height="20" viewBox="0 0 17 20" fill="none" xmlns="http://www.w3.org/2000/svg">
<path d="M7.36859 11.7841H4.38951C4.17439 11.7841 4 11.5918 4 11.3545V8.8584C4 8.62109 4.17439 8.42871 4.38951 8.42871H7.36863C7.58375 8.42871 7.75814 8.62109 7.75814 8.8584V11.3545C7.7581 11.5918 7.58375 11.7841 7.36859 11.7841ZM4.77902 10.9248H6.97912V9.28809H4.77902V10.9248Z" fill="#F74C4D"/>
<path d="M12.353 11.7841H9.37389C9.15877 11.7841 8.98438 11.5918 8.98438 11.3545V8.8584C8.98438 8.62109 9.15877 8.42871 9.37389 8.42871H12.353C12.5682 8.42871 12.7426 8.62109 12.7426 8.8584V11.3545C12.7426 11.5918 12.5682 11.7841 12.353 11.7841ZM9.76343 10.9248H11.9636V9.28809H9.76343V10.9248Z" fill="#F74C4D"/>
<path d="M7.36859 7.53023H4.38951C4.17439 7.53023 4 7.33785 4 7.10055V4.60449C4 4.36719 4.17439 4.1748 4.38951 4.1748H7.36863C7.58375 4.1748 7.75814 4.36719 7.75814 4.60449V7.10055C7.7581 7.33785 7.58375 7.53023 7.36859 7.53023ZM4.77902 6.67086H6.97912V5.03418H4.77902V6.67086Z" fill="#F74C4D"/>
<path d="M12.353 7.53023H9.37389C9.15877 7.53023 8.98438 7.33785 8.98438 7.10055V4.60449C8.98438 4.36719 9.15877 4.1748 9.37389 4.1748H12.353C12.5682 4.1748 12.7426 4.36719 12.7426 4.60449V7.10055C12.7426 7.33785 12.5682 7.53023 12.353 7.53023ZM9.76343 6.67086H11.9636V5.03418H9.76343V6.67086Z" fill="#F74C4D"/>
<path d="M16.5458 19.1406V17.547C16.5458 17.3097 16.3534 17.1173 16.1161 17.1173H15.3652V2.88266H15.7214C15.9587 2.88266 16.1511 2.69027 16.1511 2.45297V0.429688C16.1511 0.192383 15.9587 0 15.7214 0H0.824336C0.587031 0 0.394648 0.192383 0.394648 0.429688V2.45297C0.394648 2.69027 0.587031 2.88266 0.824336 2.88266H1.18055V17.1173H0.429688C0.192383 17.1173 0 17.3097 0 17.547V19.1406C0 19.1406 0 19.333 0 19.5703C0 19.8076 0 20 0 20H16.5458C16.5458 20 16.5458 19.8313 16.5458 19.594C16.5458 19.3566 16.5458 19.1406 16.5458 19.1406ZM1.25402 0.859375H15.2918V2.02328H1.25402V0.859375ZM2.03992 2.88266H14.5058V17.1173H11.3172V13.9411C11.3172 13.8114 11.3172 13.7488 11.3172 13.5114C11.3172 13.2741 11.1248 13.0818 10.8875 13.0818H5.6582C5.4209 13.0818 5.22852 13.2741 5.22852 13.5114C5.22852 13.6094 5.22852 13.8984 5.22852 13.9411V17.1173H2.03992V2.88266ZM10.4579 13.9412V17.1173H6.08789V13.9412H10.4579ZM0.859375 17.9767H15.6864V19.1406H0.859375V17.9767Z" fill="#293347"/>
</svg>
