<svg width="19" height="22" viewBox="0 0 19 22" fill="none" xmlns="http://www.w3.org/2000/svg">
<path d="M9.06602 21.1504C8.97715 21.1504 8.88827 21.1416 8.8 21.124L8.79541 21.123C8.73729 21.1114 8.67589 21.0947 8.61683 21.0741C6.58809 20.3667 4.9115 19.3757 3.63337 18.1284C2.51371 17.0357 1.66 15.7058 1.09605 14.1755C0.0652293 11.3786 0.124249 8.28152 0.171621 5.79301L0.172441 5.75913C0.181874 5.55159 0.188191 5.33282 0.1918 5.09026C0.20796 4.00453 1.07111 3.10656 2.15697 3.0459C4.65647 2.90628 6.59133 2.09009 8.24602 0.477363L8.25607 0.467889C8.71785 0.0445374 9.41432 0.0445784 9.87606 0.467889L9.88607 0.477363C11.5408 2.09009 13.4756 2.90632 15.9751 3.0459C17.061 3.10656 17.9242 4.00453 17.9403 5.09026C17.9439 5.3334 17.9503 5.55217 17.9596 5.75909L17.96 5.77102C18.0073 8.26425 18.0661 11.3671 17.0315 14.1725C16.467 15.703 15.6133 17.0333 14.494 18.1264C13.2169 19.3736 11.5422 20.3652 9.51628 21.0737C9.45689 21.0944 9.39492 21.1113 9.33221 21.1239C9.24386 21.1416 9.15494 21.1504 9.06602 21.1504ZM8.97842 20.2395C9.03719 20.2509 9.09666 20.2508 9.15535 20.2391C9.17701 20.2348 9.19821 20.229 9.21827 20.222C17.2746 17.4046 17.1509 10.6955 17.058 5.79415C17.0483 5.57973 17.0418 5.35382 17.0381 5.10368C17.0289 4.48936 16.5399 3.98119 15.9248 3.94682C14.556 3.87041 13.3547 3.6064 12.2523 3.13974C11.1515 2.67377 10.1734 2.01619 9.26232 1.12945C9.14781 1.02782 8.98436 1.02782 8.86977 1.12941C7.95867 2.0161 6.98052 2.67373 5.87973 3.13974C4.7773 3.6064 3.57603 3.87037 2.20725 3.94682C1.59216 3.98115 1.10314 4.48932 1.094 5.10368C1.0903 5.35325 1.08378 5.5792 1.0741 5.7942L1.07382 5.81023C0.98055 10.7061 0.85279 17.4113 8.91361 20.222C8.93359 20.229 8.95487 20.2347 8.97661 20.2391L8.97842 20.2395Z" fill="#293347" stroke="#293347" stroke-width="0.3"/>
<path d="M13.6475 7.3927C13.3259 7.06962 12.8044 7.06962 12.4828 7.3927L7.74516 12.1527L6.29453 10.6952C5.97291 10.372 5.45146 10.372 5.1299 10.6952C4.80827 11.0183 4.80827 11.5423 5.12983 11.8654L7.16277 13.908C7.18283 13.9283 7.20372 13.9471 7.22528 13.9648C7.37621 14.0886 7.56061 14.1504 7.74508 14.1504C7.77144 14.1504 7.79779 14.1491 7.82399 14.1466C8.00772 14.129 8.18672 14.0494 8.3274 13.9081L13.6474 8.56291C13.9691 8.23976 13.9691 7.71584 13.6475 7.3927Z" fill="#F74C4D" stroke="#F74C4D" stroke-width="0.3"/>
</svg>
