<svg width="18" height="18" viewBox="0 0 18 18" fill="none" xmlns="http://www.w3.org/2000/svg">
<g clip-path="url(#clip0_35388_61566)">
<path d="M9.5459 4.43542C9.05941 4.99266 9.35854 5.86757 10.0844 6.0103H7.38721C8.11304 5.86757 8.41218 4.99266 7.92569 4.43542H9.5459Z" fill="#FAC600"/>
<path d="M8.7358 5.87891C4.8752 5.87891 1.74561 9.00853 1.74561 12.8691V13.4068L8.7358 13.9445L15.726 13.4068V12.8691C15.726 9.0085 12.5964 5.87891 8.7358 5.87891Z" fill="#C4E2FF"/>
<path d="M13.3203 7.59204C14.3875 8.81932 15.0336 10.4225 15.0336 12.1766V12.5412C15.0336 12.6368 14.9561 12.7143 14.8605 12.7143H1.74732C1.74621 12.7657 1.74561 12.8173 1.74561 12.869V13.4067L8.7358 13.9444L15.726 13.4067V12.869C15.726 10.7625 14.7942 8.87363 13.3203 7.59204Z" fill="#B3DAFE"/>
<path d="M8.60829 6.9556C5.62351 7.01915 3.1758 9.30464 2.85651 12.2208C2.84532 12.323 2.92607 12.4122 3.02888 12.4122H4.27642C4.36491 12.4122 4.43921 12.3454 4.44829 12.2574C4.69647 9.85219 6.39193 7.86997 8.64654 7.19874C8.69944 7.18298 8.73603 7.13492 8.73603 7.07974C8.73603 7.0098 8.67823 6.95412 8.60829 6.9556Z" fill="#D8ECFE"/>
<path d="M16.2638 14.4822L8.73591 15.0199L1.20801 14.4822V13.9261C1.20801 13.6393 1.4405 13.4067 1.72733 13.4067H15.7445C16.0313 13.4067 16.2638 13.6392 16.2638 13.9261V14.4822H16.2638Z" fill="#FEDF30"/>
<path d="M16.264 13.9261C16.264 13.6393 16.0315 13.4067 15.7447 13.4067H15.0522C15.339 13.4067 15.5716 13.6392 15.5716 13.9261V14.5316L16.264 14.4822V13.9261Z" fill="#FED402"/>
<path d="M16.1272 16.0955H1.34405C0.674837 16.0955 0.132324 15.553 0.132324 14.8838V14.6555C0.132324 14.5599 0.209821 14.4824 0.305432 14.4824H17.1658C17.2615 14.4824 17.339 14.5599 17.339 14.6555V14.8838C17.339 15.553 16.7964 16.0955 16.1272 16.0955Z" fill="#F42627"/>
<path d="M17.1659 14.4824H16.6114C16.481 15.0111 16.0037 15.4031 15.4348 15.4031H0.651662C0.497273 15.4031 0.349672 15.3742 0.213867 15.3216C0.389395 15.7744 0.82924 16.0955 1.34406 16.0955H16.1272C16.7964 16.0955 17.3389 15.553 17.3389 14.8838V14.6555C17.339 14.5599 17.2615 14.4824 17.1659 14.4824Z" fill="#F74647"/>
<path d="M8.73606 4.80354C9.32999 4.80354 9.81147 4.32206 9.81147 3.72812C9.81147 3.13419 9.32999 2.65271 8.73606 2.65271C8.14212 2.65271 7.66064 3.13419 7.66064 3.72812C7.66064 4.32206 8.14212 4.80354 8.73606 4.80354Z" fill="#FEDF30"/>
<path d="M9.19155 2.75354C9.25624 2.8918 9.2924 3.04609 9.2924 3.20881C9.2924 3.80274 8.81092 4.28422 8.21699 4.28422C8.05427 4.28422 7.89998 4.2481 7.76172 4.18337C7.93315 4.54972 8.30507 4.80352 8.73628 4.80352C9.33021 4.80352 9.81169 4.32203 9.81169 3.7281C9.81169 3.29693 9.5579 2.92497 9.19155 2.75354Z" fill="#FED402"/>
<path d="M4.13512 6.40715C4.07524 6.40715 4.01511 6.38658 3.96612 6.3445C3.8573 6.25108 3.84483 6.08718 3.93822 5.97836C4.2553 5.60902 4.2553 5.07282 3.93822 4.70349C3.45287 4.13809 3.45287 3.31738 3.93829 2.75201C4.03172 2.64323 4.19562 2.63073 4.30443 2.72415C4.41322 2.81758 4.42572 2.98148 4.33229 3.0903C4.01518 3.45964 4.01515 3.99583 4.33226 4.36524C4.81757 4.9306 4.81757 5.75128 4.33226 6.31664C4.28091 6.37643 4.20822 6.40715 4.13512 6.40715Z" fill="#F8A6AF"/>
<path d="M2.44713 6.40753C2.38725 6.40753 2.32712 6.38696 2.27813 6.34489C2.16931 6.25146 2.15684 6.08756 2.25023 5.97874C2.66759 5.49259 2.66759 4.78684 2.25023 4.30066C1.6646 3.61844 1.66464 2.62818 2.25033 1.94597C2.34376 1.83718 2.50769 1.82472 2.61648 1.91811C2.72526 2.01154 2.73777 2.17544 2.64434 2.28425C2.22691 2.77041 2.22691 3.47618 2.64427 3.96237C3.22987 4.64455 3.22987 5.63481 2.64427 6.31696C2.59292 6.37681 2.52023 6.40753 2.44713 6.40753Z" fill="#F8A6AF"/>
<path d="M13.3356 6.40718C13.2624 6.40718 13.1898 6.3765 13.1384 6.31664C12.6531 5.75131 12.6531 4.9306 13.1384 4.36524C13.4555 3.99586 13.4555 3.45967 13.1384 3.0903C13.0449 2.98148 13.0574 2.81755 13.1662 2.72415C13.2751 2.63073 13.439 2.64323 13.5324 2.75201C14.0178 3.31738 14.0178 4.13809 13.5325 4.70349C13.2154 5.07286 13.2154 5.60902 13.5325 5.97836C13.6259 6.08714 13.6134 6.25111 13.5046 6.3445C13.4556 6.38658 13.3954 6.40718 13.3356 6.40718Z" fill="#F8A6AF"/>
<path d="M15.024 6.40751C14.9509 6.40751 14.8782 6.37682 14.8269 6.31697C14.2413 5.63482 14.2413 4.64457 14.8269 3.96238C15.2443 3.4762 15.2443 2.77042 14.8269 2.28427C14.7334 2.17545 14.7459 2.01152 14.8547 1.91812C14.9635 1.8247 15.1275 1.8372 15.2209 1.94598C15.8066 2.62816 15.8066 3.61845 15.221 4.30067C14.8036 4.78686 14.8036 5.49257 15.221 5.97875C15.3144 6.08757 15.3019 6.25151 15.1931 6.3449C15.1441 6.38691 15.0839 6.40751 15.024 6.40751Z" fill="#F8A6AF"/>
</g>
<defs>
<clipPath id="clip0_35388_61566">
<rect width="17.2066" height="17.2066" fill="white"/>
</clipPath>
</defs>
</svg>
