<svg width="18" height="18" viewBox="0 0 18 18" fill="none" xmlns="http://www.w3.org/2000/svg">
<g clip-path="url(#clip0_35388_61519)">
<path d="M14.6986 4.70419H2.77197V1.04721C2.77197 0.674274 3.0743 0.371948 3.44723 0.371948H14.0234C14.3963 0.371948 14.6986 0.674274 14.6986 1.04721V4.70419H14.6986Z" fill="#EFF3F5"/>
<path d="M14.0234 0.371948H12.8291C13.202 0.371948 13.5044 0.674274 13.5044 1.04721V4.70419H14.6987V1.04721C14.6987 0.674274 14.3964 0.371948 14.0234 0.371948Z" fill="#DAEAEF"/>
<path d="M2.30176 3.56812H15.1695V17.0597H2.30176V3.56812Z" fill="#F74647"/>
<path d="M13.9751 3.56812H15.1694V17.0597H13.9751V3.56812Z" fill="#F42627"/>
<path d="M15.6922 4.36788H1.77746C1.62827 4.36788 1.50732 4.24693 1.50732 4.09775V3.60058C1.50732 3.45139 1.62827 3.33044 1.77746 3.33044H15.6922C15.8414 3.33044 15.9624 3.45139 15.9624 3.60058V4.09775C15.9624 4.24693 15.8415 4.36788 15.6922 4.36788Z" fill="#A8D0D5"/>
<path d="M15.6922 17.5786H1.77746C1.62827 17.5786 1.50732 17.4576 1.50732 17.3084V16.8113C1.50732 16.6621 1.62827 16.5411 1.77746 16.5411H15.6922C15.8414 16.5411 15.9624 16.6621 15.9624 16.8113V17.3084C15.9624 17.4576 15.8415 17.5786 15.6922 17.5786Z" fill="#A8D0D5"/>
<path d="M5.55152 1.98499H5.12139V2.57076C5.12139 2.63992 5.0371 2.6745 4.95278 2.6745C4.86847 2.6745 4.78418 2.63992 4.78418 2.57076V1.19604C4.78418 1.12473 4.86847 1.09448 4.95278 1.09448C5.0371 1.09448 5.12139 1.12473 5.12139 1.19604V1.72558H5.55152V1.19604C5.55152 1.12473 5.63581 1.09448 5.72013 1.09448C5.80445 1.09448 5.88873 1.12473 5.88873 1.19604V2.57072C5.88873 2.63989 5.80445 2.67447 5.72013 2.67447C5.63581 2.67447 5.55152 2.63989 5.55152 2.57072V1.98499Z" fill="#3C5959"/>
<path d="M6.5376 2.17736V1.60456C6.5376 1.23281 6.76888 1.09448 7.06714 1.09448C7.3654 1.09448 7.59886 1.23281 7.59886 1.60456V2.17736C7.59886 2.54912 7.36543 2.68744 7.06714 2.68744C6.76885 2.68744 6.5376 2.54912 6.5376 2.17736ZM7.26169 1.60456C7.26169 1.45542 7.18819 1.38841 7.06714 1.38841C6.94609 1.38841 6.87477 1.45542 6.87477 1.60456V2.17736C6.87477 2.3265 6.94612 2.39352 7.06714 2.39352C7.18816 2.39352 7.26169 2.3265 7.26169 2.17736V1.60456Z" fill="#3C5959"/>
<path d="M9.15886 1.09448C9.2302 1.09448 9.26045 1.17228 9.26045 1.24363C9.26045 1.32576 9.22372 1.39708 9.15886 1.39708H8.8606V2.57076C8.8606 2.63992 8.77631 2.6745 8.69199 2.6745C8.60767 2.6745 8.52339 2.63992 8.52339 2.57076V1.39708H8.22513C8.16027 1.39708 8.12354 1.32576 8.12354 1.24363C8.12354 1.17228 8.15378 1.09448 8.22513 1.09448H9.15886Z" fill="#3C5959"/>
<path d="M10.1643 1.75371H10.4885C10.5534 1.75371 10.5901 1.81639 10.5901 1.88555C10.5901 1.94389 10.5598 2.01305 10.4885 2.01305H10.1643V2.38051H10.7436C10.8084 2.38051 10.8452 2.44967 10.8452 2.52966C10.8452 2.59882 10.8149 2.67447 10.7436 2.67447H9.97414C9.90065 2.67447 9.82715 2.63989 9.82715 2.57072V1.19823C9.82715 1.12906 9.90065 1.09448 9.97414 1.09448H10.7436C10.8149 1.09448 10.8452 1.17013 10.8452 1.23929C10.8452 1.31924 10.8084 1.38844 10.7436 1.38844H10.1643V1.75371Z" fill="#3C5959"/>
<path d="M11.5708 2.6745C11.4973 2.6745 11.4238 2.63992 11.4238 2.57076V1.19604C11.4238 1.12473 11.5081 1.09448 11.5924 1.09448C11.6768 1.09448 11.761 1.12473 11.761 1.19604V2.38051H12.2538C12.3187 2.38051 12.3511 2.45401 12.3511 2.52751C12.3511 2.601 12.3187 2.6745 12.2538 2.6745H11.5708Z" fill="#3C5959"/>
<path d="M5.90593 9.52068H3.63516C3.50281 9.52068 3.39551 9.41337 3.39551 9.28103V5.92288C3.39551 5.79053 3.50281 5.68323 3.63516 5.68323H5.90593C6.03827 5.68323 6.14558 5.79053 6.14558 5.92288V9.28103C6.14558 9.41337 6.03827 9.52068 5.90593 9.52068Z" fill="#97E4F9"/>
<path d="M9.87077 9.52068H7.6C7.46766 9.52068 7.36035 9.41337 7.36035 9.28103V5.92288C7.36035 5.79053 7.46766 5.68323 7.6 5.68323H9.87077C10.0031 5.68323 10.1104 5.79053 10.1104 5.92288V9.28103C10.1104 9.41337 10.0031 9.52068 9.87077 9.52068Z" fill="#97E4F9"/>
<path d="M13.8356 9.52068H11.5648C11.4325 9.52068 11.3252 9.41337 11.3252 9.28103V5.92288C11.3252 5.79053 11.4325 5.68323 11.5648 5.68323H13.8356C13.968 5.68323 14.0753 5.79053 14.0753 5.92288V9.28103C14.0753 9.41337 13.968 9.52068 13.8356 9.52068Z" fill="#97E4F9"/>
<path d="M6.14558 7.34992H5.02261V5.68323H4.51851V7.34992H3.39551V7.85402H4.51851V9.52068H5.02261V7.85402H6.14558V7.34992Z" fill="#0ACEFA"/>
<path d="M10.1104 7.34992H8.98742V5.68323H8.48332V7.34992H7.36035V7.85402H8.48332V9.52068H8.98742V7.85402H10.1104V7.34992Z" fill="#0ACEFA"/>
<path d="M14.0753 7.34992H12.9523V5.68323H12.4482V7.34992H11.3252V7.85402H12.4482V9.52068H12.9523V7.85402H14.0753V7.34992Z" fill="#0ACEFA"/>
<path d="M5.90593 14.7861H3.63516C3.50281 14.7861 3.39551 14.6788 3.39551 14.5464V11.1883C3.39551 11.0559 3.50281 10.9486 3.63516 10.9486H5.90593C6.03827 10.9486 6.14558 11.0559 6.14558 11.1883V14.5464C6.14558 14.6788 6.03827 14.7861 5.90593 14.7861Z" fill="#97E4F9"/>
<path d="M10.1104 16.5413H7.36035V11.2726C7.36035 11.0937 7.5054 10.9486 7.68432 10.9486H9.78645C9.96538 10.9486 10.1104 11.0937 10.1104 11.2726V16.5413Z" fill="#EFF3F5"/>
<path d="M9.78636 10.9486H8.91602V16.5413H10.1103V11.2726C10.1103 11.0937 9.96528 10.9486 9.78636 10.9486Z" fill="#DAEAEF"/>
<path d="M13.8356 14.7861H11.5648C11.4325 14.7861 11.3252 14.6788 11.3252 14.5464V11.1883C11.3252 11.0559 11.4325 10.9486 11.5648 10.9486H13.8356C13.968 10.9486 14.0753 11.0559 14.0753 11.1883V14.5464C14.0753 14.6788 13.968 14.7861 13.8356 14.7861Z" fill="#97E4F9"/>
<path d="M6.14558 12.6153H5.02261V10.9486H4.51851V12.6153H3.39551V13.1194H4.51851V14.7861H5.02261V13.1194H6.14558V12.6153Z" fill="#0ACEFA"/>
<path d="M14.0753 12.6153H12.9523V10.9486H12.4482V12.6153H11.3252V13.1194H12.4482V14.7861H12.9523V13.1194H14.0753V12.6153Z" fill="#0ACEFA"/>
</g>
<defs>
<clipPath id="clip0_35388_61519">
<rect width="17.2066" height="17.2066" fill="white"/>
</clipPath>
</defs>
</svg>
