<svg width="109" height="20" viewBox="0 0 109 20" fill="none" xmlns="http://www.w3.org/2000/svg">
<path d="M10.5 16.3626L4.01122 20L5.46022 12.6958L0 7.63958L7.38487 6.76248L10.5 0L13.6151 6.76248L21 7.63958L15.5398 12.6958L16.9888 20L10.5 16.3626Z" fill="white"/>
<path d="M32.5 16.3626L26.0112 20L27.4602 12.6958L22 7.63958L29.3849 6.76248L32.5 0L35.6151 6.76248L43 7.63958L37.5398 12.6958L38.9888 20L32.5 16.3626Z" fill="white"/>
<path d="M54.5 16.3626L48.0112 20L49.4602 12.6958L44 7.63958L51.3849 6.76248L54.5 0L57.6151 6.76248L65 7.63958L59.5398 12.6958L60.9888 20L54.5 16.3626Z" fill="white"/>
<path d="M76.5 16.3626L70.0112 20L71.4602 12.6958L66 7.63958L73.3849 6.76248L76.5 0L79.6151 6.76248L87 7.63958L81.5398 12.6958L82.9888 20L76.5 16.3626Z" fill="white"/>
<path d="M98.5 16.3626L92.0112 20L93.4602 12.6958L88 7.63958L95.3849 6.76248L98.5 0L101.615 6.76248L109 7.63958L103.54 12.6958L104.989 20L98.5 16.3626ZM98.5 14.251L102.407 16.4409L101.534 12.0435L104.821 8.99853L100.375 8.47061L98.5 4.3993L96.625 8.47153L92.1787 8.99853L95.4658 12.0435L94.5927 16.4409L98.5 14.251Z" fill="white"/>
</svg>
