<svg width="18" height="18" viewBox="0 0 18 18" fill="none" xmlns="http://www.w3.org/2000/svg">
<g clip-path="url(#clip0_35388_61613)">
<path d="M15.1333 7.22988C14.9563 7.08201 14.8052 6.89714 14.6935 6.67887C14.3105 5.93095 14.5114 5.03785 15.1284 4.51927C15.2685 4.40154 15.3077 4.20215 15.2243 4.03929L14.4474 2.52175C14.3482 2.32797 14.1107 2.25132 13.9169 2.35052L4.38672 7.22988L10.5676 7.56662L15.1333 7.22988Z" fill="#EE4C49"/>
<path d="M14.559 6.33315C14.3797 5.67063 14.6033 4.95982 15.1275 4.51927C15.2675 4.40154 15.3068 4.20215 15.2234 4.03929L14.4464 2.52175C14.3472 2.32797 14.1097 2.25132 13.916 2.35052L6.13721 6.33315H14.559Z" fill="#F74C4D"/>
<path d="M13.5504 7.23008L12.5744 5.32371C12.4632 5.10661 12.1971 5.02071 11.98 5.13188L7.88184 7.23008H13.5504Z" fill="#EEF5F6"/>
<path d="M7.88184 7.2301L11.0769 7.56681L13.5504 7.2301L13.0913 6.33337H9.63325L7.88184 7.2301Z" fill="#CBE5E8"/>
<path d="M15.6635 11.4366C15.6635 10.5963 16.2494 9.89294 17.0349 9.71251C17.2132 9.67154 17.339 9.51198 17.339 9.32899V7.62412C17.339 7.40645 17.1625 7.22998 16.9448 7.22998H0.526464C0.308793 7.22998 0.132324 7.40645 0.132324 7.62412V9.32899C0.132324 9.51194 0.258114 9.67154 0.436431 9.71251C1.22192 9.89294 1.80775 10.5963 1.80775 11.4366C1.80775 12.2769 1.22192 12.9803 0.436431 13.1607C0.258114 13.2017 0.132324 13.3612 0.132324 13.5442V15.2491C0.132324 15.4667 0.308793 15.6432 0.526464 15.6432H16.9448C17.1625 15.6432 17.3389 15.4667 17.3389 15.2491V13.5442C17.3389 13.3613 17.2131 13.2017 17.0348 13.1607C16.2494 12.9803 15.6635 12.2769 15.6635 11.4366Z" fill="#15848F"/>
<path d="M16.9452 7.22998H16.3965V10.0033C16.5849 9.86686 16.8011 9.76631 17.0352 9.71254C17.2135 9.67158 17.3393 9.51198 17.3393 9.32902V7.62415C17.3393 7.40645 17.1629 7.22998 16.9452 7.22998Z" fill="#26828D"/>
<path d="M17.0349 13.1607C16.8007 13.1069 16.5846 13.0064 16.3961 12.8699V14.441C16.3961 14.6586 16.2197 14.8014 16.002 14.8014H0.132324V15.2491C0.132324 15.4668 0.308793 15.6432 0.526464 15.6432H16.9448C17.1625 15.6432 17.3389 15.4668 17.3389 15.2491V13.5442C17.339 13.3612 17.2132 13.2017 17.0349 13.1607Z" fill="#26828D"/>
<path d="M13.8005 8.66418H3.67209C3.42818 8.66418 3.23047 8.86193 3.23047 9.10581V13.7676C3.23047 14.0115 3.42821 14.2093 3.67209 14.2093H13.8005C14.0444 14.2093 14.2421 14.0115 14.2421 13.7676V9.10584C14.2421 8.86193 14.0444 8.66418 13.8005 8.66418Z" fill="#EEF5F6"/>
<path d="M13.8005 8.66418H13.5687V13.0942C13.5687 13.3381 13.371 13.5358 13.127 13.5358H3.23047V13.7677C3.23047 14.0116 3.42821 14.2093 3.67209 14.2093H13.8005C14.0444 14.2093 14.2421 14.0116 14.2421 13.7677V9.10584C14.2421 8.86193 14.0444 8.66418 13.8005 8.66418Z" fill="#CBE5E8"/>
<path d="M11.2634 9.90157L11.7215 10.5689C11.7509 10.6117 11.7942 10.6431 11.844 10.6579L12.6202 10.8874C12.7726 10.9324 12.8323 11.1163 12.7356 11.2423L12.2424 11.8842C12.2108 11.9254 12.1943 11.9762 12.1957 12.0282L12.2173 12.8373C12.2215 12.9961 12.0651 13.1098 11.9154 13.0567L11.1525 12.7861C11.1035 12.7687 11.0501 12.7687 11.0011 12.7861L10.2383 13.0567C10.0885 13.1098 9.93208 12.9961 9.93635 12.8373L9.95796 12.0282C9.95934 11.9762 9.94284 11.9254 9.91118 11.8842L9.41807 11.2423C9.32128 11.1163 9.38104 10.9324 9.53341 10.8874L10.3097 10.6579C10.3595 10.6431 10.4027 10.6117 10.4321 10.5689L10.8902 9.90157C10.9801 9.7706 11.1735 9.7706 11.2634 9.90157Z" fill="#F74C4D"/>
<path d="M6.67574 10.5343H4.68908C4.54961 10.5343 4.43652 10.4212 4.43652 10.2817C4.43652 10.1423 4.54961 10.0292 4.68908 10.0292H6.67574C6.81521 10.0292 6.92829 10.1422 6.92829 10.2817C6.92829 10.4212 6.81524 10.5343 6.67574 10.5343Z" fill="#15848F"/>
<path d="M7.95266 12.8441H4.68908C4.54961 12.8441 4.43652 12.731 4.43652 12.5915C4.43652 12.4521 4.54961 12.339 4.68908 12.339H7.95266C8.09213 12.339 8.20521 12.4521 8.20521 12.5915C8.20521 12.731 8.09216 12.8441 7.95266 12.8441Z" fill="#15848F"/>
<path d="M7.95266 11.6892H4.68908C4.54961 11.6892 4.43652 11.5761 4.43652 11.4366C4.43652 11.2972 4.54961 11.1841 4.68908 11.1841H7.95266C8.09213 11.1841 8.20521 11.2972 8.20521 11.4366C8.20521 11.5761 8.09216 11.6892 7.95266 11.6892Z" fill="#15848F"/>
</g>
<defs>
<clipPath id="clip0_35388_61613">
<rect width="17.2066" height="17.2066" fill="white"/>
</clipPath>
</defs>
</svg>
