<svg width="23" height="32" viewBox="0 0 23 32" fill="none" xmlns="http://www.w3.org/2000/svg">
<path d="M11.2333 0C5.10841 0 0 4.93381 0 11.2333C0 13.6299 0.720154 15.767 2.10225 17.7695L10.3736 30.6762C10.7749 31.3037 11.6925 31.3024 12.0929 30.6762L20.4001 17.7256C21.7525 15.8138 22.4665 13.569 22.4665 11.2333C22.4665 5.03927 17.4273 0 11.2333 0ZM11.2333 16.3394C8.41793 16.3394 6.12723 14.0487 6.12723 11.2333C6.12723 8.41798 8.41793 6.12726 11.2333 6.12726C14.0486 6.12726 16.3393 8.41798 16.3393 11.2333C16.3393 14.0487 14.0486 16.3394 11.2333 16.3394Z" fill="white"/>
</svg>
