<svg width="32" height="32" viewBox="0 0 32 32" fill="none" xmlns="http://www.w3.org/2000/svg">
<g clip-path="url(#clip0_1_60622)">
<path d="M8.259 13.6864C6.73939 12.1668 6.59826 9.78282 7.83545 8.10254H3.57923C2.19153 8.10254 1.0625 9.23155 1.0625 10.6192V28.9112C1.0625 30.2989 2.19153 31.4279 3.57923 31.4279H12.664C14.0517 31.4279 15.1807 30.2989 15.1807 28.9112V19.0458C14.117 18.9917 13.1245 18.5519 12.3658 17.7932L8.259 13.6864ZM11.2938 26.8242C11.2938 27.3327 10.8816 27.7449 10.3731 27.7449C9.86455 27.7449 9.4523 27.3327 9.4523 26.8242V24.062H6.79095V26.8242C6.79095 27.3327 6.3787 27.7449 5.87019 27.7449C5.36169 27.7449 4.94944 27.3327 4.94944 26.8242V19.4583C4.94944 18.9498 5.36169 18.5376 5.87019 18.5376C6.3787 18.5376 6.79095 18.9498 6.79095 19.4583V22.2205H9.4523V19.4583C9.4523 18.9498 9.86455 18.5376 10.3731 18.5376C10.8816 18.5376 11.2938 18.9498 11.2938 19.4583V26.8242Z" fill="white"/>
<path d="M30.3558 24.086L29.832 21.1979L27.7932 20.1854L27.3363 18.7023L25.8532 18.2454L25.3964 16.7624L23.9133 16.3055L23.4564 14.8224L21.2064 12.5725C21.2422 12.4898 21.2753 12.4064 21.3072 12.3225L22.0468 11.583C23.0056 10.6241 23.0056 9.06948 22.0468 8.11062L17.94 4.00395C17.2865 3.35054 16.3566 3.14282 15.5269 3.37994C16.0829 4.35414 16.4011 5.48088 16.4011 6.68066C16.4011 7.73349 16.1495 8.78264 15.6737 9.71461C15.5109 10.0334 15.1878 10.2168 14.8529 10.2169C14.712 10.2169 14.569 10.1845 14.4349 10.116C13.982 9.88476 13.8023 9.33017 14.0335 8.87729C14.3825 8.19373 14.5594 7.45469 14.5594 6.68072C14.5594 5.87888 14.3622 5.12259 14.0155 4.45603L9.559 8.91246C8.60013 9.87132 8.60013 11.426 9.559 12.3848L13.6658 16.4915C14.6247 17.4504 16.1794 17.4504 17.1382 16.4915L17.8778 15.752C17.9617 15.7201 18.0452 15.687 18.1278 15.6512L26.7534 24.2766L29.6424 24.7998C30.0641 24.876 30.4323 24.5077 30.3558 24.086Z" fill="white"/>
<path d="M15.5262 3.37961C14.3751 1.36269 12.2037 0 9.71984 0C6.16589 0 3.25169 2.78954 3.05078 6.29393C3.22321 6.27306 3.3984 6.26109 3.57635 6.26109H4.90016C5.11353 3.78866 7.19291 1.84148 9.71984 1.84148C11.5862 1.84148 13.2079 2.9042 14.0149 4.45564L14.4669 4.00362C14.7723 3.69818 15.1383 3.49046 15.5262 3.37961Z" fill="white"/>
</g>
<defs>
<clipPath id="clip0_1_60622">
<rect width="31.4286" height="31.4279" fill="white"/>
</clipPath>
</defs>
</svg>
