<svg width="32" height="32" viewBox="0 0 32 32" fill="none" xmlns="http://www.w3.org/2000/svg">
<g clip-path="url(#clip0_1_60595)">
<path d="M16.0017 0C9.25253 0 3.76172 5.49084 3.76172 12.2399C3.76172 18.989 9.25259 24.4798 16.0017 24.4798C22.7508 24.4798 28.2417 18.989 28.2417 12.2399C28.2417 5.49084 22.7509 0 16.0017 0ZM21.7454 20.1454L16.0017 17.4273L10.258 20.1454L11.0682 13.843L6.70828 9.22044L12.9526 8.04339L16.0017 2.4683L19.0508 8.04326L25.2952 9.22032L20.9353 13.8429L21.7454 20.1454Z" fill="white"/>
<path d="M17.8328 9.72158L16.003 6.37598L14.1732 9.72158L10.4258 10.428L13.0423 13.2021L12.5561 16.9843L16.003 15.3531L19.4498 16.9843L18.9637 13.2021L21.5802 10.428L17.8328 9.72158Z" fill="white"/>
<path d="M7.44922 27.7159C8.27703 27.5957 9.06978 27.3156 9.79103 26.8882V24.9235C8.96922 24.5204 8.18528 24.0354 7.44922 23.4727V27.7159Z" fill="white"/>
<path d="M22.2109 26.8882C22.9322 27.3156 23.7249 27.5957 24.5527 27.7159V23.4727C23.8167 24.0354 23.0328 24.5203 22.2109 24.9235V26.8882Z" fill="white"/>
<path d="M11.5039 25.9961V32.3163C12.892 32.1159 14.1683 31.4712 15.1679 30.4514L15.8374 29.7684L16.5069 30.4514C17.5065 31.4712 18.7828 32.1159 20.1709 32.3163V25.9961C18.7888 26.4401 17.331 26.6713 15.8374 26.6713C14.3438 26.6713 12.886 26.4401 11.5039 25.9961Z" fill="white"/>
</g>
<defs>
<clipPath id="clip0_1_60595">
<rect width="32" height="31.9998" fill="white"/>
</clipPath>
</defs>
</svg>
