<svg width="35" height="35" viewBox="0 0 35 35" fill="none" xmlns="http://www.w3.org/2000/svg">
<g clip-path="url(#clip0_1_60607)">
<path d="M17.1425 9.62633L20.911 11.6078L20.1912 7.41123L23.242 4.43805L19.0269 3.82594L17.1425 0L15.2581 3.82594L11.043 4.43805L14.0938 7.41123L13.3739 11.6078L17.1425 9.62633Z" fill="white"/>
<path d="M29.8764 10.6565L27.9919 6.83789L26.1075 10.6565L21.8945 11.2686L24.9432 14.241L24.2234 18.4384L27.9919 16.4569L31.7626 18.4384L31.0406 14.241L34.2868 11.2686L29.8764 10.6565Z" fill="white"/>
<path d="M3.2462 14.241L2.52424 18.4384L6.2949 16.4569L10.0635 18.4384L9.34361 14.241L12.3923 11.2686L8.17932 10.6565L6.2949 6.83789L4.41049 10.6565L0 11.2686L3.2462 14.241Z" fill="white"/>
<path d="M22.1657 19.1523C22.1657 16.3832 19.9125 14.1299 17.1434 14.1299C14.3743 14.1299 12.1211 16.3832 12.1211 19.1523C12.1211 21.9215 14.3743 24.1748 17.1434 24.1748C19.9125 24.1748 22.1657 21.9215 22.1657 19.1523Z" fill="white"/>
<path d="M10.1133 31.2062V34.2866H24.1758V31.2062C24.1758 27.3295 21.0211 24.1748 17.1445 24.1748C13.2679 24.1748 10.1133 27.3295 10.1133 31.2062Z" fill="white"/>
<path d="M32.2117 33.2148C32.2117 30.4457 29.9585 28.1924 27.1894 28.1924C26.6699 28.1924 26.1787 28.2944 25.707 28.4414C25.9914 29.3182 26.1849 30.2356 26.1849 31.2058V34.2863H32.2117V33.2148Z" fill="white"/>
<path d="M31.2037 24.1742C31.2037 21.9583 29.4017 20.1562 27.1858 20.1562C24.97 20.1562 23.168 21.9583 23.168 24.1742C23.168 24.3021 23.1939 24.423 23.2056 24.5477C24.1962 25.4507 24.9951 26.5528 25.5083 27.8134C26.0205 28.0506 26.5852 28.1921 27.1858 28.1921C29.4017 28.1921 31.2037 26.3901 31.2037 24.1742Z" fill="white"/>
<path d="M11.0801 24.5477C11.0918 24.423 11.1177 24.3021 11.1177 24.1742C11.1177 21.9583 9.31573 20.1562 7.09989 20.1562C4.88405 20.1562 3.08203 21.9583 3.08203 24.1742C3.08203 26.3901 4.88405 28.1921 7.09989 28.1921C7.70047 28.1921 8.26522 28.0506 8.7774 27.8136C9.29061 26.5528 10.0895 25.4507 11.0801 24.5477Z" fill="white"/>
<path d="M2.07422 33.2148V34.2863H8.101V31.2058C8.101 30.2356 8.29457 29.3182 8.57891 28.4414C8.10728 28.2944 7.61603 28.1924 7.09654 28.1924C4.32746 28.1924 2.07422 30.4457 2.07422 33.2148Z" fill="white"/>
</g>
<defs>
<clipPath id="clip0_1_60607">
<rect width="34.2857" height="34.2865" fill="white"/>
</clipPath>
</defs>
</svg>
