<svg width="27" height="27" viewBox="0 0 27 27" fill="none" xmlns="http://www.w3.org/2000/svg">
<path d="M16.082 13.5C16.082 14.9271 14.9252 16.084 13.498 16.084C12.0709 16.084 10.9141 14.9271 10.9141 13.5C10.9141 12.0729 12.0709 10.916 13.498 10.916C14.9252 10.916 16.082 12.0729 16.082 13.5Z" fill="white"/>
<path d="M19.5429 8.92782C19.4187 8.59122 19.2205 8.28656 18.963 8.03648C18.7129 7.77899 18.4085 7.58083 18.0717 7.45661C17.7985 7.35052 17.3882 7.22425 16.6324 7.18985C15.8148 7.15257 15.5697 7.14453 13.4998 7.14453C11.4298 7.14453 11.1847 7.15236 10.3673 7.18964C9.61151 7.22425 9.20097 7.35052 8.92802 7.45661C8.59122 7.58083 8.28656 7.77899 8.03669 8.03648C7.7792 8.28656 7.58103 8.59102 7.45661 8.92782C7.35052 9.20097 7.22425 9.61151 7.18985 10.3673C7.15257 11.1847 7.14453 11.4298 7.14453 13.4998C7.14453 15.5697 7.15257 15.8148 7.18985 16.6324C7.22425 17.3882 7.35052 17.7985 7.45661 18.0717C7.58103 18.4085 7.77899 18.7129 8.03648 18.963C8.28656 19.2205 8.59102 19.4187 8.92782 19.5429C9.20097 19.6492 9.61151 19.7754 10.3673 19.8098C11.1847 19.8471 11.4296 19.855 13.4996 19.855C15.5699 19.855 15.815 19.8471 16.6322 19.8098C17.388 19.7754 17.7985 19.6492 18.0717 19.5429C18.7477 19.2821 19.2821 18.7477 19.5429 18.0717C19.649 17.7985 19.7752 17.3882 19.8098 16.6324C19.8471 15.8148 19.855 15.5697 19.855 13.4998C19.855 11.4298 19.8471 11.1847 19.8098 10.3673C19.7754 9.61151 19.6492 9.20097 19.5429 8.92782ZM13.4998 17.4803C11.3013 17.4803 9.51902 15.6982 9.51902 13.4996C9.51902 11.3011 11.3013 9.51902 13.4998 9.51902C15.6982 9.51902 17.4805 11.3011 17.4805 13.4996C17.4805 15.6982 15.6982 17.4803 13.4998 17.4803ZM17.6378 10.2919C17.1241 10.2919 16.7076 9.87539 16.7076 9.36164C16.7076 8.84789 17.1241 8.43137 17.6378 8.43137C18.1516 8.43137 18.5681 8.84789 18.5681 9.36164C18.5679 9.87539 18.1516 10.2919 17.6378 10.2919Z" fill="white"/>
<path d="M13.5 0C6.0453 0 0 6.0453 0 13.5C0 20.9547 6.0453 27 13.5 27C20.9547 27 27 20.9547 27 13.5C27 6.0453 20.9547 0 13.5 0ZM21.2052 16.696C21.1677 17.5212 21.0365 18.0846 20.8449 18.5777C20.4422 19.619 19.619 20.4422 18.5777 20.8449C18.0848 21.0365 17.5212 21.1675 16.6962 21.2052C15.8695 21.2429 15.6055 21.252 13.5002 21.252C11.3947 21.252 11.1309 21.2429 10.304 21.2052C9.479 21.1675 8.91541 21.0365 8.42246 20.8449C7.90501 20.6502 7.43658 20.3452 7.04931 19.9507C6.65504 19.5636 6.34996 19.095 6.1553 18.5777C5.96372 18.0848 5.8325 17.5212 5.79501 16.6962C5.7569 15.8693 5.74805 15.6053 5.74805 13.5C5.74805 11.3947 5.7569 11.1307 5.79481 10.304C5.8323 9.4788 5.96331 8.91541 6.15488 8.42226C6.34955 7.90501 6.65483 7.43637 7.04931 7.04931C7.43637 6.65483 7.90501 6.34975 8.42226 6.15509C8.91541 5.96352 9.4788 5.8325 10.304 5.79481C11.1307 5.75711 11.3947 5.74805 13.5 5.74805C15.6053 5.74805 15.8693 5.75711 16.696 5.79501C17.5212 5.8325 18.0846 5.96352 18.5777 6.15488C19.095 6.34955 19.5636 6.65483 19.9509 7.04931C20.3452 7.43658 20.6505 7.90501 20.8449 8.42226C21.0367 8.91541 21.1677 9.4788 21.2054 10.304C21.2431 11.1307 21.252 11.3947 21.252 13.5C21.252 15.6053 21.2431 15.8693 21.2052 16.696Z" fill="white"/>
</svg>
