<svg width="61" height="61" viewBox="0 0 61 61" fill="none" xmlns="http://www.w3.org/2000/svg">
<ellipse cx="30.5" cy="30.5001" rx="30.5" ry="30.5001" fill="#656565"/>
<path d="M15.4007 16.8826L17.0682 19.4585L20.1714 20.1706C20.5579 20.2581 20.7946 20.627 20.6999 20.9937C20.675 21.0977 20.6226 21.1971 20.5478 21.2775L18.479 23.5838L18.7258 26.6091C18.7557 26.9852 18.4565 27.314 18.0603 27.3423C17.9257 27.3518 17.7985 27.3258 17.6864 27.2738L14.7776 26.1336L11.8239 27.2926C11.4574 27.4345 11.0361 27.2689 10.8841 26.9189C10.8418 26.822 10.8217 26.7155 10.8316 26.6091L11.0785 23.5838L9.00976 21.2775C8.75052 20.9913 8.78533 20.5584 9.08694 20.3149C9.18408 20.2345 9.29643 20.1847 9.41352 20.1635L12.4893 19.4586L14.1643 16.8733C14.3713 16.5516 14.8174 16.4498 15.1564 16.6486C15.2611 16.71 15.3409 16.7904 15.4007 16.8826ZM47.2804 16.8874L45.6128 19.4633L42.5095 20.1753C42.1232 20.2628 41.8864 20.6318 41.9786 20.9984C42.0062 21.1049 42.0585 21.2019 42.1306 21.2823L44.202 23.5885L43.9552 26.6138C43.9254 26.9923 44.222 27.3187 44.6207 27.3471C44.7528 27.3565 44.88 27.3306 44.9921 27.2785L47.9009 26.1384L50.8546 27.2975C51.2236 27.4394 51.6448 27.2738 51.7943 26.9261C51.8366 26.8268 51.8567 26.7204 51.8491 26.6139L51.6024 23.5886L53.6711 21.2824C53.9303 20.9962 53.8955 20.5656 53.5914 20.3197C53.4943 20.2416 53.382 20.192 53.2649 20.1684L50.1891 19.4635L48.5166 16.8805C48.3072 16.5565 47.8635 16.4571 47.5246 16.6534C47.42 16.7147 47.3376 16.7951 47.2804 16.8874Z" fill="#FFC250"/>
<path d="M18.4718 24.6838L18.6076 26.5191C18.6377 26.9409 18.3358 27.3095 17.9358 27.3413C17.8 27.3519 17.6716 27.3228 17.5584 27.2644L14.6223 25.986L11.6408 27.2856C11.2709 27.4447 10.8456 27.2591 10.6922 26.8666C10.6495 26.7579 10.6292 26.6386 10.6392 26.5192L10.7752 24.6839C10.9664 24.965 11.3237 25.0843 11.6407 24.9465L14.1592 23.8485C14.4686 23.7132 14.7806 23.7159 15.0876 23.8485L17.5584 24.9252C17.6716 24.9836 17.8 25.0128 17.9358 25.0021C18.1598 24.9861 18.351 24.8642 18.4718 24.6838ZM44.2082 24.6918L44.075 26.5244C44.0448 26.9488 44.3442 27.3147 44.7467 27.3466C44.88 27.3572 45.0084 27.3281 45.1216 27.2697L48.0578 25.9914L51.0393 27.291C51.4117 27.4501 51.837 27.2644 51.9878 26.8745C52.0306 26.7632 52.0508 26.6439 52.0432 26.5245L51.9073 24.6892C51.7162 24.973 51.3588 25.0897 51.0393 24.9518L48.6064 23.8909C48.2516 23.737 47.8742 23.7344 47.5118 23.8909L45.1216 24.9306C45.0085 24.9916 44.88 25.0181 44.7467 25.0075C44.5228 24.9915 44.3316 24.8695 44.2082 24.6918Z" fill="#FF9838"/>
<path d="M22.7362 15.1932L24.8958 18.63L28.9139 19.5762C29.4131 19.6939 29.7216 20.1866 29.6013 20.6769C29.566 20.8166 29.4984 20.9441 29.4031 21.0544L26.7243 24.1284L27.043 28.1634C27.0806 28.6659 26.6967 29.1047 26.1825 29.1415C26.0094 29.1538 25.844 29.1194 25.6984 29.0508L21.9336 27.5309L18.1085 29.0728C17.6319 29.2641 17.0876 29.0434 16.892 28.5776C16.8369 28.4478 16.8118 28.303 16.8219 28.1633L17.1429 24.1283L14.4615 21.0543C14.128 20.6719 14.173 20.0958 14.5644 19.7698C14.6898 19.6644 14.8352 19.5982 14.9883 19.5688L18.9687 18.6299L21.1359 15.1808C21.4067 14.7518 21.9837 14.617 22.4226 14.8818C22.5555 14.9628 22.6609 15.0707 22.7362 15.1932ZM39.945 15.2005L37.7879 18.6349L33.7698 19.5812C33.2681 19.7013 32.9621 20.1915 33.0824 20.6818C33.1176 20.8215 33.1828 20.9515 33.2806 21.0593L35.9594 24.1334L35.6383 28.1684C35.6007 28.6709 35.987 29.1097 36.5012 29.1465C36.6742 29.1588 36.8397 29.1244 36.9853 29.0558L40.7501 27.5359L44.5752 29.0778C45.0518 29.269 45.5961 29.0484 45.7917 28.5826C45.8468 28.4527 45.8719 28.3105 45.8593 28.1683L45.5408 24.1333L48.2196 21.0592C48.5557 20.6768 48.5106 20.1032 48.1192 19.7747C47.9913 19.6693 47.8459 19.6031 47.6953 19.5737L43.7124 18.6348L41.5452 15.1883C41.2768 14.7568 40.6999 14.6246 40.261 14.8869C40.1256 14.9677 40.0202 15.0756 39.945 15.2005Z" fill="#FFC250"/>
<path d="M26.9502 26.5952L27.0772 28.1863C27.1145 28.6775 26.7338 29.1065 26.2238 29.1424C26.0521 29.1544 25.888 29.1209 25.7436 29.0538L22.0096 27.568L18.2158 29.0753C17.7431 29.2622 17.2032 29.0466 17.0092 28.5912C16.9546 28.4643 16.9297 28.3228 16.9397 28.1862L17.069 26.5927C17.2978 26.9665 17.7855 27.1319 18.2158 26.9618L21.5394 25.6414C21.8553 25.5144 22.1787 25.5216 22.4772 25.6414L25.7436 26.9402C25.888 27.0072 26.0521 27.0408 26.2238 27.0289C26.5348 27.0073 26.8011 26.8372 26.9502 26.5952ZM35.7319 26.6023L35.6024 28.1911C35.5651 28.6822 35.9483 29.1112 36.4583 29.1471C36.6299 29.1591 36.7941 29.1256 36.9385 29.0585L40.6725 27.5728L44.4663 29.08C44.939 29.2669 45.4788 29.0513 45.6728 28.596C45.7275 28.4689 45.7524 28.3299 45.74 28.191L45.6132 26.5975C45.3817 26.9737 44.8967 27.1391 44.4664 26.9689L41.1279 25.6414C40.8393 25.5241 40.5208 25.5192 40.2173 25.6414L36.9386 26.945C36.7943 27.0121 36.63 27.0456 36.4584 27.0337C36.1448 27.012 35.8811 26.842 35.7319 26.6023Z" fill="#FFC250"/>
<path fill-rule="evenodd" clip-rule="evenodd" d="M41.61 42.3663C45.4304 40.8781 49.2683 39.9242 53.1112 39.5072C53.4183 39.4772 53.5632 39.2275 53.4408 38.9454L51.8727 35.3747C51.7379 35.07 51.7204 34.7554 51.8727 34.4108L53.4382 30.8426C53.573 30.5354 53.4308 30.3531 53.1036 30.3881C49.2732 30.8076 45.4403 31.7589 41.6099 33.2446V42.3663H41.61ZM20.6251 42.3663C16.8047 40.8781 12.9668 39.9242 9.12378 39.5072C8.8167 39.4772 8.67183 39.2275 8.7967 38.9454L10.3623 35.3747C10.4971 35.07 10.5146 34.7554 10.3623 34.4083L8.7967 30.8426C8.66188 30.5354 8.80419 30.3531 9.13135 30.3881C12.9642 30.8076 16.7947 31.7589 20.6251 33.2446V42.3663Z" fill="#F74C4D"/>
<path fill-rule="evenodd" clip-rule="evenodd" d="M41.6081 42.3667C45.4285 40.8785 49.2664 39.9246 53.1093 39.5076C53.4164 39.4776 53.5613 39.2279 53.4389 38.9458L52.7372 37.3477C49.0167 37.7846 45.3062 38.7235 41.6081 40.1643V42.3667ZM20.6232 42.3667C16.8027 40.8785 12.9649 39.9246 9.12187 39.5076C8.81478 39.4776 8.66992 39.2279 8.79479 38.9458L9.49394 37.3477C13.2144 37.7846 16.9274 38.7235 20.6231 40.1643V42.3667H20.6232Z" fill="#F74C4D"/>
<path fill-rule="evenodd" clip-rule="evenodd" d="M41.6094 37.5974V33.2451C43.4372 33.7096 45.265 34.2415 47.0952 35.8296C45.2699 36.5412 43.4397 37.1305 41.6094 37.5974Z" fill="#F74C4D"/>
<path fill-rule="evenodd" clip-rule="evenodd" d="M20.6227 37.5974V33.2451C18.7948 33.7096 16.9671 34.2415 15.1367 35.8296C16.962 36.5412 18.7922 37.1305 20.6227 37.5974Z" fill="#F74C4D"/>
<path fill-rule="evenodd" clip-rule="evenodd" d="M15.1367 35.8301C25.729 39.9601 36.4412 39.9701 47.0934 35.8301V44.4223C47.0985 44.8543 46.7713 45.0791 46.5742 45.1515C36.2689 49.0269 25.9613 49.0168 15.6561 45.1515C15.4414 45.0716 15.1567 44.8743 15.1368 44.4248L15.1367 35.8301Z" fill="#F74C4D"/>
<path fill-rule="evenodd" clip-rule="evenodd" d="M47.0933 42.2391V44.4215C47.0984 44.8535 46.7712 45.0783 46.5741 45.1507C36.2688 49.0261 25.9612 49.016 15.656 45.1507C15.4413 45.0708 15.1566 44.8735 15.1367 44.424V42.2217C15.1567 42.6711 15.4413 42.8683 15.656 42.9483C25.9613 46.8137 36.2689 46.8236 46.5741 42.9483C46.7687 42.8784 47.0883 42.6586 47.0933 42.2391Z" fill="#F74C4D"/>
<path d="M15.1368 38.1619C16.8105 38.7777 18.7299 39.3816 20.4113 39.8016C22.0901 40.2241 23.7714 40.5463 25.4553 40.773C25.8224 40.8231 26.0757 41.1406 26.025 41.4867C25.9718 41.8304 25.6324 42.0715 25.2678 42.0214C23.5359 41.7875 21.8039 41.4557 20.0718 41.0214C18.5045 40.6276 16.7396 40.0833 15.1367 39.5105L15.1368 38.1619ZM47.543 39.5009C45.9403 40.0738 44.1754 40.6275 42.608 41.0214C40.8785 41.4557 39.144 41.7875 37.4119 42.0214C37.0474 42.0715 36.708 41.8305 36.6573 41.4867C36.6042 41.1406 36.8574 40.8232 37.2246 40.773C38.9084 40.5463 40.5899 40.2241 42.2686 39.8016C43.95 39.3816 45.8693 38.7682 47.543 38.1523V39.5009ZM47.543 42.4557C46.4517 42.8447 45.2236 43.2482 44.1703 43.5489C42.9473 43.8974 41.7368 44.1957 40.5443 44.4391C40.1821 44.5131 39.8276 44.2959 39.7492 43.9546C39.6707 43.6157 39.9011 43.2792 40.2608 43.2052C41.4533 42.9617 42.6258 42.6754 43.7829 42.3435C44.9528 42.0094 46.3657 41.5392 47.543 41.1072V42.4557ZM15.1368 41.1192C16.3143 41.5512 17.7272 42.0094 18.897 42.3435C20.0542 42.6753 21.2265 42.9617 22.4191 43.2052C22.7786 43.2792 23.0091 43.6157 22.9306 43.9546C22.8522 44.2959 22.4977 44.5131 22.1356 44.4391C20.9429 44.1957 19.7327 43.8973 18.5096 43.5489C17.4561 43.2482 16.2281 42.8543 15.1367 42.4677L15.1368 41.1192Z" fill="#EE8A88"/>
<path d="M32.3736 13.535L35.1523 18.0458L40.3247 19.29C40.9685 19.4461 41.3637 20.0905 41.2071 20.7324C41.1623 20.9158 41.0778 21.0869 40.9535 21.2306L37.5036 25.2655L37.9162 30.5644C37.9659 31.2236 37.4688 31.7987 36.8077 31.8483C36.5866 31.8657 36.3728 31.8211 36.1863 31.7294L31.3396 29.7317L26.4182 31.7591C25.8043 32.0095 25.1033 31.7194 24.8524 31.1073C24.7828 30.9362 24.748 30.7504 24.763 30.5645L25.1756 25.2656L21.7257 21.2306C21.2957 20.7276 21.3528 19.9717 21.8574 19.5428C22.019 19.404 22.2079 19.3172 22.4018 19.2776L27.5269 18.0459L30.3156 13.5202C30.6636 12.9552 31.4043 12.7791 31.971 13.1261C32.1424 13.2302 32.2791 13.3739 32.3736 13.535Z" fill="#FFC250"/>
<path d="M37.5147 28.7909L37.6397 30.4695C37.6907 31.1771 37.1807 31.7943 36.5023 31.8475C36.2755 31.8662 36.0561 31.8183 35.8647 31.7199L30.8919 29.5758L25.8424 31.7518C25.2126 32.0205 24.4934 31.7092 24.2359 31.0522C24.1645 30.8686 24.1288 30.6691 24.1442 30.4696L24.2692 28.7857C24.5521 29.3869 25.2382 29.6636 25.8425 29.4056L30.3283 27.4744C30.7287 27.3015 31.096 27.3174 31.4581 27.4744L35.8647 29.3737C36.0561 29.4721 36.2754 29.5201 36.5023 29.5014C36.9538 29.4666 37.3286 29.1846 37.5147 28.7909Z" fill="#FFC250"/>
</svg>
