<svg width="62" height="48" viewBox="0 0 62 48" fill="none" xmlns="http://www.w3.org/2000/svg">
<path d="M8.97491 4.7972L11.2546 8.50819L15.4972 9.53395C16.0255 9.66002 16.3492 10.1916 16.2197 10.7198C16.1856 10.8697 16.114 11.0128 16.0118 11.1287L13.1835 14.4512L13.5208 18.8096C13.5617 19.3515 13.1527 19.8252 12.611 19.866C12.427 19.8796 12.2531 19.8422 12.0999 19.7672L8.12305 18.1246L4.08492 19.7944C3.58388 19.9988 3.00796 19.7603 2.80017 19.256C2.74224 19.1163 2.71484 18.963 2.72842 18.8096L3.06589 14.4512L0.237638 11.1287C-0.11678 10.7163 -0.0691877 10.0927 0.343158 9.74187C0.47596 9.62601 0.629553 9.55438 0.789636 9.52385L4.9947 8.50831L7.28466 4.78374C7.56757 4.32031 8.1775 4.17369 8.64092 4.45997C8.78406 4.54842 8.89318 4.66428 8.97491 4.7972ZM52.559 4.80405L50.2792 8.51504L46.0365 9.5408C45.5083 9.66687 45.1847 10.1984 45.3108 10.7266C45.3484 10.88 45.4199 11.0198 45.5186 11.1356L48.3504 14.4581L48.0131 18.8165C47.9722 19.3618 48.3777 19.8319 48.9228 19.8729C49.1034 19.8865 49.2773 19.8491 49.4306 19.7741L53.4073 18.1316L57.4455 19.8014C57.9499 20.0058 58.5258 19.7672 58.7301 19.2663C58.788 19.1233 58.8154 18.97 58.8051 18.8166L58.4677 14.4582L61.296 11.1357C61.6504 10.7234 61.6028 10.1031 61.1871 9.74884C61.0543 9.63634 60.9007 9.56484 60.7406 9.53082L56.5356 8.51528L54.2491 4.79407C53.9628 4.32728 53.3563 4.18415 52.8928 4.46694C52.7498 4.55527 52.6372 4.67113 52.559 4.80405Z" fill="#EBB044"/>
<path d="M13.3367 16.4514L13.5205 18.8095C13.5614 19.3514 13.1524 19.825 12.6108 19.8659C12.4268 19.8795 12.2529 19.8421 12.0996 19.7671L8.12303 18.1246L4.0849 19.7944C3.58386 19.9988 3.00794 19.7602 2.80015 19.256C2.74222 19.1163 2.71482 18.963 2.7284 18.8096L2.91252 16.4515C3.17151 16.8126 3.65537 16.966 4.08478 16.7889L7.4958 15.3781C7.91488 15.2042 8.33744 15.2077 8.75315 15.3781L12.0996 16.7616C12.2529 16.8366 12.4268 16.8741 12.6108 16.8604C12.9141 16.8398 13.1731 16.6831 13.3367 16.4514ZM48.1937 16.4616L48.0132 18.8163C47.9723 19.3616 48.3778 19.8317 48.9229 19.8727C49.1035 19.8863 49.2774 19.8489 49.4307 19.7739L53.4074 18.1314L57.4456 19.8012C57.95 20.0057 58.5259 19.7671 58.7302 19.2662C58.7881 19.1232 58.8155 18.9698 58.8052 18.8164L58.6212 16.4583C58.3623 16.823 57.8782 16.9728 57.4456 16.7957L54.1504 15.4326C53.6699 15.2349 53.1588 15.2315 52.6679 15.4326L49.4307 16.7684C49.2775 16.8468 49.1035 16.8809 48.9229 16.8672C48.6197 16.8467 48.3607 16.6899 48.1937 16.4616Z" fill="#FF9838"/>
<path d="M19.0753 3.0795L22.0093 7.85699L27.4683 9.17239C28.1465 9.33596 28.5656 10.0209 28.4021 10.7024C28.3543 10.8966 28.2624 11.0739 28.1329 11.2271L24.4936 15.5004L24.9265 21.1094C24.9775 21.8079 24.4561 22.4179 23.7575 22.469C23.5223 22.4861 23.2975 22.4384 23.0997 22.3429L17.9848 20.2301L12.7882 22.3736C12.1406 22.6394 11.4011 22.3327 11.1354 21.6852C11.0605 21.5047 11.0264 21.3035 11.0401 21.1093L11.4762 15.5002L7.83327 11.227C7.38018 10.6955 7.44136 9.89456 7.97304 9.44148C8.14346 9.29497 8.34104 9.20291 8.54896 9.16205L13.9568 7.85687L16.9012 3.06231C17.269 2.46596 18.053 2.2786 18.6492 2.6466C18.8298 2.75921 18.973 2.9092 19.0753 3.0795ZM42.4552 3.08971L39.5245 7.86384L34.0655 9.17924C33.3839 9.34617 32.9682 10.0277 33.1317 10.7093C33.1794 10.9035 33.2681 11.0841 33.4009 11.234L37.0403 15.5073L36.604 21.1164C36.5529 21.8149 37.0778 22.4249 37.7764 22.476C38.0115 22.4931 38.2363 22.4453 38.4341 22.3499L43.549 20.2371L48.7457 22.3806C49.3932 22.6463 50.1327 22.3397 50.3984 21.6922C50.4733 21.5115 50.5074 21.3138 50.4904 21.1162L50.0576 15.5072L53.6969 11.2339C54.1536 10.7023 54.0924 9.9049 53.5607 9.44833C53.3869 9.30182 53.1893 9.20976 52.9847 9.1689L47.5735 7.86372L44.6292 3.07277C44.2645 2.47293 43.4807 2.28906 42.8845 2.65369C42.7005 2.76606 42.5574 2.91605 42.4552 3.08971Z" fill="#FDBB21"/>
<path d="M24.7523 18.8469L24.9262 21.1096C24.9773 21.8081 24.4558 22.4182 23.7572 22.4693C23.522 22.4863 23.2972 22.4386 23.0994 22.3432L17.9846 20.2304L12.7879 22.3738C12.1403 22.6397 11.4009 22.333 11.1351 21.6854C11.0603 21.5049 11.0261 21.3037 11.0398 21.1095L11.217 18.8434C11.5304 19.3749 12.1984 19.6101 12.7879 19.3682L17.3405 17.4905C17.7733 17.31 18.2163 17.3202 18.6251 17.4905L23.0994 19.3376C23.2972 19.4329 23.522 19.4806 23.7572 19.4636C24.1832 19.433 24.548 19.1911 24.7523 18.8469ZM36.7815 18.8571L36.6041 21.1164C36.553 21.8149 37.0778 22.4249 37.7765 22.476C38.0115 22.4931 38.2364 22.4454 38.4342 22.3499L43.5491 20.2371L48.7458 22.3806C49.3933 22.6463 50.1328 22.3397 50.3985 21.6922C50.4734 21.5115 50.5075 21.3138 50.4905 21.1163L50.3168 18.8502C49.9998 19.3851 49.3354 19.6203 48.7459 19.3784L44.1728 17.4906C43.7775 17.3237 43.3413 17.3168 42.9256 17.4906L38.4343 19.3444C38.2366 19.4398 38.0117 19.4874 37.7766 19.4705C37.3471 19.4397 36.9858 19.1979 36.7815 18.8571Z" fill="#FFC250"/>
<path fill-rule="evenodd" clip-rule="evenodd" d="M45.0689 40.1483C50.2827 38.1174 55.5202 36.8157 60.7646 36.2466C61.1837 36.2056 61.3814 35.8649 61.2145 35.4799L59.0744 30.6069C58.8905 30.1911 58.8666 29.7618 59.0744 29.2915L61.2109 24.422C61.3949 24.0028 61.2008 23.754 60.7543 23.8017C55.5269 24.3743 50.2961 25.6725 45.0688 27.7001V40.1483H45.0689ZM16.4309 40.1483C11.2171 38.1174 5.97955 36.8157 0.735031 36.2466C0.315955 36.2056 0.118255 35.8649 0.288673 35.4799L2.42528 30.6069C2.60916 30.1911 2.63307 29.7618 2.42528 29.2882L0.288673 24.422C0.104674 24.0028 0.298889 23.754 0.745367 23.8017C5.97607 24.3743 11.2035 25.6725 16.4309 27.7001V40.1483Z" fill="#D52B28"/>
<path fill-rule="evenodd" clip-rule="evenodd" d="M45.0689 40.1483C50.2827 38.1173 55.5202 36.8156 60.7646 36.2465C61.1837 36.2056 61.3814 35.8648 61.2145 35.4798L60.2568 33.2988C55.1794 33.8952 50.1157 35.1764 45.0689 37.1426V40.1483ZM16.4309 40.1483C11.2171 38.1173 5.97955 36.8156 0.735027 36.2465C0.31595 36.2056 0.11825 35.8648 0.288669 35.4798L1.2428 33.2988C6.32015 33.8952 11.3873 35.1764 16.4307 37.1426V40.1483H16.4309Z" fill="#C32430"/>
<path fill-rule="evenodd" clip-rule="evenodd" d="M45.069 33.6397V27.7002C47.5634 28.334 50.0577 29.0599 52.5555 31.2272C50.0645 32.1984 47.5668 33.0025 45.069 33.6397Z" fill="#AA201D"/>
<path fill-rule="evenodd" clip-rule="evenodd" d="M16.4309 33.6397V27.7002C13.9364 28.334 11.4421 29.0599 8.94421 31.2272C11.4352 32.1984 13.9329 33.0025 16.4309 33.6397Z" fill="#AA201D"/>
<path fill-rule="evenodd" clip-rule="evenodd" d="M8.94421 31.2271C23.3995 36.8632 38.0184 36.8769 52.5554 31.2271V42.9528C52.5624 43.5424 52.1159 43.8491 51.8468 43.9479C37.7833 49.2366 23.7164 49.2229 9.65305 43.9479C9.36005 43.8389 8.9715 43.5697 8.94433 42.9563L8.94421 31.2271Z" fill="#EE4C49"/>
<path fill-rule="evenodd" clip-rule="evenodd" d="M52.5556 39.9745V42.9527C52.5625 43.5423 52.1161 43.849 51.847 43.9478C37.7834 49.2366 23.7166 49.2229 9.65317 43.9478C9.36017 43.8388 8.97162 43.5696 8.94446 42.9562V39.9507C8.97174 40.564 9.36017 40.8332 9.65317 40.9423C23.7167 46.2174 37.7836 46.2309 51.847 40.9423C52.1126 40.8469 52.5487 40.5469 52.5556 39.9745Z" fill="#E35956"/>
<path d="M8.94421 34.4746C11.1967 35.3538 13.7796 36.216 16.0424 36.8157C18.3017 37.4189 20.5644 37.8789 22.8305 38.2026C23.3245 38.2741 23.6654 38.7273 23.5972 39.2215C23.5256 39.7122 23.0689 40.0564 22.5782 39.9849C20.2474 39.6509 17.9166 39.1773 15.5856 38.5571C13.4763 37.9949 11.1012 37.2178 8.94409 36.4001L8.94421 34.4746ZM52.5554 36.3864C50.3985 37.2042 48.0234 37.9948 45.914 38.5571C43.5866 39.1773 41.2523 39.651 38.9213 39.9849C38.4307 40.0564 37.9741 39.7123 37.9058 39.2215C37.8343 38.7274 38.1751 38.2742 38.6692 38.2026C40.9352 37.8788 43.1981 37.4189 45.4573 36.8157C47.72 36.216 50.303 35.3402 52.5554 34.4609V36.3864ZM52.5554 40.605C51.0868 41.1604 49.4341 41.7364 48.0165 42.1657C46.3706 42.6633 44.7416 43.0892 43.1367 43.4368C42.6494 43.5424 42.1723 43.2323 42.0667 42.745C41.9611 42.2611 42.2712 41.7807 42.7553 41.675C44.3601 41.3274 45.9379 40.9186 47.4951 40.4448C49.0695 39.9678 50.9711 39.2965 52.5554 38.6797V40.605ZM8.94421 38.6968C10.5288 39.3135 12.4302 39.9678 14.0045 40.4448C15.5618 40.9185 17.1396 41.3274 18.7445 41.675C19.2283 41.7807 19.5384 42.2611 19.4329 42.745C19.3274 43.2323 18.8503 43.5424 18.3629 43.4368C16.7579 43.0892 15.1292 42.6632 13.4831 42.1657C12.0655 41.7364 10.4128 41.1741 8.94409 40.6221L8.94421 38.6968Z" fill="#EE8A88"/>
<path d="M32.1676 0.806699L35.9772 7.00872L43.0686 8.71939C43.9512 8.93404 44.4931 9.82002 44.2783 10.7026C44.2169 10.9548 44.1011 11.19 43.9307 11.3876L39.2009 16.9353L39.7666 24.2209C39.8347 25.1273 39.1532 25.918 38.2467 25.9861C37.9437 26.01 37.6505 25.9488 37.3948 25.8227L30.7499 23.076L24.0026 25.8635C23.161 26.2077 22.2 25.809 21.8559 24.9673C21.7605 24.7321 21.7128 24.4766 21.7333 24.221L22.299 16.9354L17.5692 11.3877C16.9796 10.696 17.058 9.6567 17.7497 9.06708C17.9714 8.87623 18.2302 8.75689 18.4961 8.70245L25.5227 7.00884L29.346 0.786388C29.8232 0.00952817 30.8386 -0.232519 31.6156 0.244605C31.8505 0.387622 32.038 0.585203 32.1676 0.806699Z" fill="#FFD82D"/>
<path d="M39.5996 22.0707L39.7666 24.221C39.8348 25.1274 39.1532 25.9181 38.2468 25.9862C37.9437 26.0101 37.6506 25.9488 37.3948 25.8228L30.7499 23.0761L24.0026 25.8636C23.161 26.2078 22.2 25.8091 21.8559 24.9674C21.7605 24.7322 21.7128 24.4767 21.7334 24.2211L21.9004 22.064C22.2785 22.8342 23.1953 23.1886 24.0028 22.8581L29.9969 20.3841C30.5319 20.1626 31.0226 20.1831 31.5065 20.3841L37.3948 22.8172C37.6506 22.9433 37.9436 23.0047 38.2468 22.9808C38.85 22.9362 39.3509 22.5749 39.5996 22.0707Z" fill="#FFE07D"/>
</svg>
