<svg width="27" height="27" viewBox="0 0 27 27" fill="none" xmlns="http://www.w3.org/2000/svg">
<path d="M13.5 0C20.9556 2.1595e-07 27 6.04441 27 13.5C27 20.9556 20.9556 27 13.5 27C6.04441 27 2.15944e-07 20.9556 0 13.5C0 6.04441 6.04441 0 13.5 0ZM5.73828 5.56055L11.7988 14.3809L5.73828 21.4258H7.10742L12.4072 15.2656L16.6396 21.4258H21.2617L14.9766 12.2783L20.7559 5.56055H19.3867L14.3682 11.3936L10.3604 5.56055H5.73828ZM9.7041 6.5918L19.3877 20.4414H17.2832L7.60059 6.5918H9.7041Z" fill="white"/>
</svg>
