<svg width="44" height="8" viewBox="0 0 44 8" fill="none" xmlns="http://www.w3.org/2000/svg">
<path d="M4 6.54505L1.52808 8L2.08008 5.07831L0 3.05583L2.81328 2.70499L4 0L5.18672 2.70499L8 3.05583L5.91992 5.07831L6.47192 8L4 6.54505Z" fill="#FFA800"/>
<path d="M13 6.54505L10.5281 8L11.0801 5.07831L9 3.05583L11.8133 2.70499L13 0L14.1867 2.70499L17 3.05583L14.9199 5.07831L15.4719 8L13 6.54505Z" fill="#FFA800"/>
<path d="M22 6.54505L19.5281 8L20.0801 5.07831L18 3.05583L20.8133 2.70499L22 0L23.1867 2.70499L26 3.05583L23.9199 5.07831L24.4719 8L22 6.54505Z" fill="#FFA800"/>
<path d="M31 6.54505L28.5281 8L29.0801 5.07831L27 3.05583L29.8133 2.70499L31 0L32.1867 2.70499L35 3.05583L32.9199 5.07831L33.4719 8L31 6.54505Z" fill="#FFA800"/>
<path d="M40 6.54505L37.5281 8L38.0801 5.07831L36 3.05583L38.8133 2.70499L40 0L41.1867 2.70499L44 3.05583L41.9199 5.07831L42.4719 8L40 6.54505ZM40 5.70039L41.4885 6.57638L41.1559 4.81739L42.4081 3.59941L40.7143 3.38824L40 1.75972L39.2857 3.38861L37.5919 3.59941L38.8441 4.81739L38.5115 6.57638L40 5.70039Z" fill="#FFA800"/>
</svg>
